<?xml version="1.0" encoding="UTF-8" standalone="no"?>
<svg
   xmlns:dc="http://purl.org/dc/elements/1.1/"
   xmlns:cc="http://creativecommons.org/ns#"
   xmlns:rdf="http://www.w3.org/1999/02/22-rdf-syntax-ns#"
   xmlns:svg="http://www.w3.org/2000/svg"
   xmlns="http://www.w3.org/2000/svg"
   height="512"
   width="512"
   xml:space="preserve"
   style="enable-background:new 0 0 510.565 510.565;"
   viewBox="0 0 510.565 510.565"
   y="0px"
   x="0px"
   id="Layer_1"
   version="1.1"><metadata
     id="metadata59"><rdf:RDF><cc:Work
         rdf:about=""><dc:format>image/svg+xml</dc:format><dc:type
           rdf:resource="http://purl.org/dc/dcmitype/StillImage" /><dc:title></dc:title></cc:Work></rdf:RDF></metadata><defs
     id="defs57" /><g
     transform="translate(-279.08002,-510.565)"
     id="g52"><rect
       id="rect2"
       height="33.091"
       width="195.46899"
       style="fill:#e0e0e2"
       y="469.97501"
       x="306.828" /><rect
       id="rect4"
       height="33.091"
       width="29.951"
       style="fill:#c6c5ca"
       y="469.97501"
       x="472.34601" /><polygon
       id="polygon6"
       points="405.058,430.715 404.067,430.715 335.147,430.715 306.785,469.975 404.067,469.975 405.058,469.975 502.34,469.975 473.979,430.715 "
       style="fill:#acacad" /><polygon
       id="polygon8"
       points="443.979,430.715 472.34,469.975 502.34,469.975 473.979,430.715 "
       style="fill:#9e9e9e" /><polygon
       id="polygon10"
       points="335.127,430.715 335.127,138.25 364.671,178.519 404.688,169.682 448.427,200.613 473.962,188.461 473.962,430.715 "
       style="fill:#c6c5ca" /><polygon
       id="polygon12"
       points="443.962,197.455 443.962,430.715 473.962,430.715 473.962,188.461 448.427,200.613 "
       style="fill:#acacad" /><rect
       id="rect14"
       height="33.146"
       width="196.14999"
       style="fill:#e0e0e2"
       y="469.92001"
       x="44.549" /><rect
       id="rect16"
       height="33.146"
       width="30"
       style="fill:#c6c5ca"
       y="469.92001"
       x="210.69901" /><polygon
       id="polygon18"
       points="143.122,430.595 142.127,430.595 72.967,430.595 44.507,469.92 142.127,469.92 143.122,469.92 240.742,469.92 212.282,430.595 "
       style="fill:#acacad" /><polygon
       id="polygon20"
       points="182.282,430.595 210.742,469.92 240.742,469.92 212.282,430.595 "
       style="fill:#9e9e9e" /><path
       id="path22"
       d="m 8.237,7.5 v 49.05 c 0,17.937 14.54,32.477 32.477,32.477 17.937,0 32.477,-14.54 32.477,-32.477 h 139.09 c 0,17.937 14.541,32.477 32.477,32.477 17.936,0 32.477,-14.54 32.477,-32.477 V 7.5 Z"
       style="fill:#e0e0e2" /><g
       id="g26"><path
         id="path24"
         d="m 247.236,7.5 v 49.05 c 0,12.524 -7.093,23.384 -17.477,28.803 4.488,2.342 9.587,3.674 15,3.674 17.936,0 32.477,-14.54 32.477,-32.477 V 7.5 Z"
         style="fill:#c6c5ca" /></g><rect
       id="rect28"
       height="374.039"
       width="139.075"
       style="fill:#c6c5ca"
       y="56.555"
       x="73.207001" /><rect
       id="rect30"
       height="374.039"
       width="30"
       style="fill:#acacad"
       y="56.555"
       x="182.282" /><g
       id="g50"><path
         id="path32"
         d="M 246.818,465.522 219.782,428.164 V 175.97 c 0,-4.143 -3.357,-7.5 -7.5,-7.5 -4.143,0 -7.5,3.357 -7.5,7.5 V 423.095 H 80.707 v -56.044 c 0,-4.143 -3.357,-7.5 -7.5,-7.5 -4.143,0 -7.5,3.357 -7.5,7.5 v 60.782 l -27.276,37.69 c -1.079,1.492 -1.54,3.295 -1.382,5.066 v 32.477 c 0,4.143 3.357,7.5 7.5,7.5 h 196.15 c 4.142,0 7.5,-3.357 7.5,-7.5 v -32.469 c 0.161,-1.775 -0.3,-3.581 -1.381,-5.075 z M 76.797,438.095 h 131.655 l 17.604,24.325 H 59.192 Z m 156.402,57.47 H 52.049 V 477.42 h 181.15 z" /><path
         id="path34"
         d="M 150.124,388.307 V 95.004 c 0,-4.143 -3.357,-7.5 -7.5,-7.5 -4.143,0 -7.5,3.357 -7.5,7.5 v 293.303 c 0,4.143 3.357,7.5 7.5,7.5 4.143,0 7.5,-3.358 7.5,-7.5 z" /><path
         id="path36"
         d="M 116.931,388.307 V 95.004 c 0,-4.143 -3.357,-7.5 -7.5,-7.5 -4.143,0 -7.5,3.357 -7.5,7.5 v 293.303 c 0,4.143 3.357,7.5 7.5,7.5 4.143,0 7.5,-3.358 7.5,-7.5 z" /><path
         id="path38"
         d="M 183.318,388.307 V 95.004 c 0,-4.143 -3.357,-7.5 -7.5,-7.5 -4.143,0 -7.5,3.357 -7.5,7.5 v 293.303 c 0,4.143 3.357,7.5 7.5,7.5 4.143,0 7.5,-3.358 7.5,-7.5 z" /><path
         id="path40"
         d="M 508.419,465.583 481.462,428.267 V 188.461 c 0,-2.573 -1.319,-4.967 -3.495,-6.341 -2.176,-1.376 -4.906,-1.536 -7.228,-0.432 l -21.568,10.265 -40.153,-28.395 c -1.725,-1.22 -3.888,-1.654 -5.947,-1.2 l -35.244,7.783 -26.652,-36.328 c -1.917,-2.614 -5.301,-3.697 -8.381,-2.691 -3.082,1.01 -5.166,3.885 -5.166,7.128 v 146.233 c 0,4.142 3.357,7.5 7.5,7.5 4.143,0 7.5,-3.358 7.5,-7.5 V 161.151 l 15.997,21.805 c 1.757,2.396 4.767,3.53 7.664,2.887 l 36.777,-8.122 41.031,29.016 c 2.213,1.567 5.103,1.814 7.553,0.649 l 14.813,-7.05 V 423.215 H 342.627 V 314.483 c 0,-4.143 -3.357,-7.5 -7.5,-7.5 -4.143,0 -7.5,3.357 -7.5,7.5 v 113.835 l -26.921,37.266 c -1.078,1.492 -1.538,3.296 -1.378,5.068 v 32.415 c 0,4.143 3.357,7.5 7.5,7.5 h 195.469 c 4.143,0 7.5,-3.357 7.5,-7.5 v -32.415 c 0.16,-1.773 -0.3,-3.577 -1.378,-5.069 z M 338.981,438.215 h 131.164 l 17.525,24.26 H 321.455 Z m 155.816,57.35 H 314.328 v -18.091 h 180.469 v 18.091 z" /><path
         id="path42"
         d="M 412.045,388.307 V 224.099 c 0,-4.143 -3.357,-7.5 -7.5,-7.5 -4.143,0 -7.5,3.357 -7.5,7.5 v 164.208 c 0,4.143 3.357,7.5 7.5,7.5 4.143,0 7.5,-3.358 7.5,-7.5 z" /><path
         id="path44"
         d="M 378.851,388.307 V 224.099 c 0,-4.143 -3.357,-7.5 -7.5,-7.5 -4.142,0 -7.5,3.357 -7.5,7.5 v 164.208 c 0,4.143 3.358,7.5 7.5,7.5 4.142,0 7.5,-3.358 7.5,-7.5 z" /><path
         id="path46"
         d="M 445.238,388.307 V 224.099 c 0,-4.143 -3.357,-7.5 -7.5,-7.5 -4.142,0 -7.5,3.357 -7.5,7.5 v 164.208 c 0,4.143 3.358,7.5 7.5,7.5 4.143,0 7.5,-3.358 7.5,-7.5 z" /><path
         id="path48"
         d="M 277.236,0 H 8.237 c -4.143,0 -7.5,3.358 -7.5,7.5 v 49.05 c 0,22.044 17.934,39.978 39.978,39.978 9.451,0 18.141,-3.304 24.992,-8.808 v 249.333 c 0,4.143 3.357,7.5 7.5,7.5 4.143,0 7.5,-3.357 7.5,-7.5 V 64.056 h 124.075 v 81.913 c 0,4.143 3.357,7.5 7.5,7.5 4.143,0 7.5,-3.357 7.5,-7.5 V 87.731 c 6.848,5.497 15.532,8.796 24.977,8.796 22.044,0 39.978,-17.934 39.978,-39.978 V 7.5 C 284.736,3.358 281.379,0 277.236,0 Z m -7.5,56.55 c 0,13.773 -11.205,24.978 -24.978,24.978 -13.527,0 -24.568,-10.811 -24.958,-24.245 0.198,-8.937 7.514,-16.151 16.498,-16.151 6.459,0 11.714,5.255 11.714,11.714 0,1.179 -0.357,2.063 -1.092,2.705 -0.765,0.668 -1.605,0.822 -1.902,0.802 -3.875,-1.313 -8.101,0.721 -9.477,4.588 -1.388,3.903 0.649,8.192 4.552,9.581 1.566,0.557 3.243,0.829 4.953,0.829 3.511,-0.001 7.158,-1.147 10.248,-3.328 4.905,-3.461 7.718,-8.992 7.718,-15.177 0,-14.73 -11.983,-26.714 -26.714,-26.714 -14.397,0 -26.561,9.707 -30.314,22.918 H 79.265 C 75.512,35.839 63.347,26.132 48.95,26.132 c -14.73,0 -26.714,11.983 -26.714,26.714 0,6.185 2.813,11.716 7.718,15.177 3.09,2.181 6.737,3.328 10.248,3.328 1.71,0 3.387,-0.272 4.953,-0.829 3.902,-1.389 5.939,-5.678 4.552,-9.581 -1.376,-3.868 -5.604,-5.901 -9.477,-4.588 -0.291,0.021 -1.138,-0.134 -1.902,-0.802 -0.734,-0.642 -1.092,-1.526 -1.092,-2.705 0,-6.459 5.255,-11.714 11.714,-11.714 9.107,0 16.518,7.41 16.518,16.518 0,0.424 0.044,0.837 0.111,1.242 C 64.393,71.57 53.697,81.527 40.715,81.527 26.942,81.527 15.737,70.322 15.737,56.549 V 15 h 253.999 z" /></g></g></svg>