<?xml version="1.0" encoding="UTF-8" standalone="no"?>
<svg
   xmlns:dc="http://purl.org/dc/elements/1.1/"
   xmlns:cc="http://creativecommons.org/ns#"
   xmlns:rdf="http://www.w3.org/1999/02/22-rdf-syntax-ns#"
   xmlns:svg="http://www.w3.org/2000/svg"
   xmlns="http://www.w3.org/2000/svg"
   xml:space="preserve"
   style="enable-background:new 0 0 512 512;"
   viewBox="0 0 512 512"
   y="0px"
   x="0px"
   id="Capa_1"
   version="1.1"><metadata
     id="metadata59"><rdf:RDF><cc:Work
         rdf:about=""><dc:format>image/svg+xml</dc:format><dc:type
           rdf:resource="http://purl.org/dc/dcmitype/StillImage" /><dc:title></dc:title></cc:Work></rdf:RDF></metadata><defs
     id="defs57" /><path
     id="path2"
     d="m 17.290492,14.165915 h -29.112 c -2.772,0 -5.02,-2.247 -5.02,-5.0199997 V -433.50308 h 39.151 V 9.1459153 c 0.001,2.7719997 -2.247,5.0199997 -5.019,5.0199997 z"
     style="fill:#b76035" /><path
     id="path4"
     d="M 17.290492,14.165915 H 2.1654915 V -433.50308 H 22.310492 V 9.1459153 c 0,2.7719997 -2.248,5.0199997 -5.02,5.0199997 z"
     style="fill:#a04c27" /><path
     id="path6"
     d="m -128.88451,-352.34008 v -29.112 c 0,-2.772 2.247,-5.02 5.02,-5.02 h 252.067 c 2.772,0 5.02,2.247 5.02,5.02 v 29.112 c 0,2.772 -2.247,5.02 -5.02,5.02 h -252.068 c -2.772,0 -5.019,-2.248 -5.019,-5.02 z"
     style="fill:#b76035" /><path
     id="path8"
     d="m 102.11749,-347.32008 v -39.151 h 26.084 c 2.772,0 5.02,2.247 5.02,5.02 v 29.112 c 0,2.772 -2.247,5.02 -5.02,5.02 h -26.084 z"
     style="fill:#a04c27" /><path
     id="path10"
     d="m -103.09351,-347.32008 v 171.733 89.726995 c 0,3.748 3.958002,6.174 7.298002,4.473 L 0.45649153,-130.40508 c 1.43099997,-0.729 3.12499997,-0.729 4.55599997,0 l 96.2519985,49.017995 c 3.34,1.701 7.298,-0.725 7.298,-4.473 v -89.726995 -171.733 z"
     style="fill:#3777d3" /><path
     id="path12"
     d="m 108.56449,-347.32308 v 261.460995 c 0,3.745 -3.955,6.174 -7.299,4.478 l -21.403998,-10.903 V -347.32308 Z"
     style="fill:#2468ba" /><path
     id="path14"
     d="m 73.307492,-239.31608 -3.256,-14.418 c -0.358,-1.585 -1.831,-2.663 -3.45,-2.524 l -34.32,2.942 c -8.472,0.726 -15.554,-6.356 -14.828,-14.828 l 2.942,-34.32 c 0.139,-1.619 -0.939,-3.092 -2.524,-3.45 l -14.4210005,-3.256 c -0.472,-0.106 -0.961,-0.106 -1.433,0 l -14.4179995,3.256 c -1.585,0.358 -2.663,1.831 -2.524,3.45 l 2.942,34.32 c 0.726,8.472 -6.356,15.554 -14.828,14.828 l -34.32,-2.942 c -1.619,-0.139 -3.092,0.939 -3.45,2.524 l -3.256,14.418 c -0.107,0.472 -0.107,0.961 0,1.433 l 3.256,14.421 c 0.358,1.585 1.831,2.663 3.45,2.524 l 34.32,-2.942 c 8.472,-0.726 15.554,6.356 14.828,14.828 l -2.942,34.32 c -0.139,1.619 0.939,3.092 2.524,3.45 l 14.4179995,3.256 c 0.472,0.107 0.961,0.107 1.433,0 l 14.4210005,-3.256 c 1.585,-0.358 2.663,-1.831 2.524,-3.45 l -2.942,-34.32 c -0.726,-8.472 6.356,-15.554 14.828,-14.828 l 34.32,2.942 c 1.619,0.139 3.092,-0.939 3.45,-2.524 l 3.256,-14.421 c 0.107,-0.472 0.107,-0.961 0,-1.433 z"
     style="fill:#ffdba9" /><circle
     id="circle16"
     r="32.23"
     cy="-450.54907"
     cx="2.1684844"
     style="fill:#ff961d" /><path
     id="path18"
     d="m 34.394492,-450.54608 c 0,17.8 -14.426,32.226 -32.2260005,32.226 -12.087,0 -22.6179995,-6.656 -28.1299995,-16.494 2.891,0.853 5.953,1.315 9.116,1.315 17.79999953,0 32.236,-14.437 32.236,-32.226 0,-5.712 -1.486,-11.073 -4.096,-15.731 13.352,3.934 23.1,16.283 23.1,30.91 z"
     style="fill:#ef8318" /><path
     id="path20"
     d="M 128.20149,-394.00108 H 97.038492 c -4.158,0 -7.529,3.371 -7.529,7.529 0,4.158 3.371,7.529 7.529,7.529 h 28.652998 v 24.092 h -17.13 -211.655 -18.262 v -24.092 H 49.854492 c 4.158,0 7.529,-3.371 7.529,-7.529 0,-4.158 -3.371,-7.529 -7.529,-7.529 h -20.016 v -28.041 c 7.446,-7.229 12.085,-17.334 12.085,-28.507 10e-4,-21.921 -17.833,-39.756 -39.7550005,-39.756 -21.9219995,0 -39.7559995,17.835 -39.7559995,39.756 0,11.731 5.11,22.287 13.218,29.571 v 26.977 h -99.495002 c -6.92,0 -12.549,5.629 -12.549,12.549 v 29.112 c 0,6.92 5.629,12.549 12.549,12.549 h 13.242 v 152.67 c 0,4.158 3.371,7.529 7.529,7.529 4.158002,0 7.529002,-3.371 7.529002,-7.529 v -152.67 H 101.03249 V -89.956085 L 8.4294915,-137.11608 c -3.567,-1.817 -7.82499997,-1.817 -11.389,0 l -92.6039995,47.159995 v -49.980995 c 0,-4.158 -3.371,-7.529 -7.529002,-7.529 -4.158,0 -7.529,3.371 -7.529,7.529 v 54.074995 c 0,4.401 2.24,8.401 5.992,10.7 2.021,1.239 4.281,1.862 6.550002,1.862 1.944,0 3.894,-0.458 5.702,-1.379 l 68.009,-34.633995 V 9.1459153 c 0,6.9199997 5.629,12.5489997 12.549,12.5489997 h 29.112 c 6.92,0 12.549,-5.629 12.549,-12.5489997 V -109.31308 l 68.008,34.633995 c 3.920998,1.997 8.501998,1.816 12.252998,-0.483 3.751,-2.299 5.991,-6.299 5.991,-10.7 V -339.79208 h 12.11 c 6.92,0 12.549,-5.629 12.549,-12.549 v -29.112 c -0.002,-6.918 -5.631,-12.548 -12.551,-12.548 z m -113.420998,0 H -9.3115085 v -18.488 c 3.637,1.099 7.489,1.697 11.48,1.697 4.408,0 8.6460005,-0.732 12.6120005,-2.063 z m -12.6120005,-81.245 c 13.6180005,0 24.6980005,11.079 24.6980005,24.698 0,13.618 -11.079,24.698 -24.6980005,24.698 -13.6189995,0 -24.6979995,-11.079 -24.6979995,-24.698 0,-13.619 11.08,-24.698 24.6979995,-24.698 z M 14.780492,6.6359153 H -9.3115085 V -116.98208 l 12.046,-6.135 12.0460005,6.135 z" /><path
     id="path22"
     d="m -26.168508,-260.81808 -34.321,-2.942 c -5.342,-0.464 -10.258,3.14 -11.438,8.368 l -3.254,14.412 c -0.353,1.557 -0.353,3.202 -0.001,4.755 l 3.256,14.421 c 1.18,5.228 6.099,8.825 11.438,8.369 l 34.32,-2.942 c 2.489,-0.213 4.137,1.027 4.896,1.786 0.759,0.759 2.001,2.405 1.787,4.897 l -2.942,34.321 c -0.457,5.339 3.139,10.256 8.368,11.438 l 14.41999953,3.256 c 0.77599997,0.175 1.57399997,0.262 2.37299997,0.262 0.799,0 1.598,-0.088 2.375,-0.263 l 14.4210005,-3.256 c 5.228,-1.18 8.826,-6.097 8.369,-11.438 l -2.942,-34.32 c -0.214,-2.492 1.027,-4.137 1.787,-4.896 0.759,-0.759 2.401,-2.003 4.896,-1.787 l 34.321,2.942 c 5.325,0.459 10.257,-3.14 11.437,-8.368 l 3.257,-14.424 c 0.35,-1.552 0.35,-3.193 0,-4.745 0,0 0,-0.001 0,-0.002 l -3.256,-14.417 c -1.18,-5.228 -6.091,-8.816 -11.438,-8.368 l -34.32,2.942 c -2.492,0.219 -4.137,-1.027 -4.896,-1.787 -0.759,-0.759 -2,-2.404 -1.787,-4.896 l 2.942,-34.321 c 0.457,-5.339 -3.139,-10.256 -8.368,-11.438 l -14.4230005,-3.256 c -1.552,-0.35 -3.194,-0.35 -4.74799997,0 l -14.41799953,3.256 c -5.228,1.18 -8.825,6.098 -8.368,11.438 l 2.942,34.32 c 0.214,2.492 -1.028,4.138 -1.787,4.897 -0.761,0.758 -2.401,2.002 -4.898,1.786 z m 15.543,8.862 c 4.4399995,-4.44 6.6789995,-10.575 6.1429995,-16.831 l -2.623,-30.604 9.838,-2.222 9.8420005,2.222 -2.6230005,30.604 c -0.536,6.256 1.7020005,12.391 6.1420005,16.831 4.44,4.44 10.574,6.679 16.831,6.142 l 30.604,-2.623 2.222,9.838 -2.222,9.841 -30.604,-2.623 c -6.255,-0.535 -12.391,1.702 -16.831,6.142 -4.44,4.44 -6.6780005,10.575 -6.1420005,16.831 l 2.6230005,30.604 -9.8420005,2.222 -9.838,-2.222 2.623,-30.605 c 0.536,-6.256 -1.703,-12.391 -6.1429995,-16.831 -4.44,-4.44 -10.573,-6.679 -16.83,-6.142 l -30.604,2.623 -2.222,-9.841 2.222,-9.838 30.604,2.623 c 6.256,0.541 12.391,-1.701 16.83,-6.141 z" /><g
     transform="translate(-253.83051,-490.30508)"
     id="g24" /><g
     transform="translate(-253.83051,-490.30508)"
     id="g26" /><g
     transform="translate(-253.83051,-490.30508)"
     id="g28" /><g
     transform="translate(-253.83051,-490.30508)"
     id="g30" /><g
     transform="translate(-253.83051,-490.30508)"
     id="g32" /><g
     transform="translate(-253.83051,-490.30508)"
     id="g34" /><g
     transform="translate(-253.83051,-490.30508)"
     id="g36" /><g
     transform="translate(-253.83051,-490.30508)"
     id="g38" /><g
     transform="translate(-253.83051,-490.30508)"
     id="g40" /><g
     transform="translate(-253.83051,-490.30508)"
     id="g42" /><g
     transform="translate(-253.83051,-490.30508)"
     id="g44" /><g
     transform="translate(-253.83051,-490.30508)"
     id="g46" /><g
     transform="translate(-253.83051,-490.30508)"
     id="g48" /><g
     transform="translate(-253.83051,-490.30508)"
     id="g50" /><g
     transform="translate(-253.83051,-490.30508)"
     id="g52" /></svg>