<svg height="512pt" viewBox="0 0 512.00727 512" width="512pt" xmlns="http://www.w3.org/2000/svg"><path d="m512.003906 256.003906c.007813 6.695313-2.773437 13.09375-7.679687 17.65625-2.554688 2.539063-5.667969 4.441406-9.09375 5.558594-6.300781 2.121094-13.121094 2.121094-19.421875 0-11.101563-3.6875-22.726563-5.566406-34.425782-5.558594h-9.710937c.605469-5.867187.902344-11.761718.882813-17.65625v-1.5c-.085938-5.472656-.351563-10.859375-.882813-16.15625h9.710937c11.699219.007813 23.324219-1.871094 34.425782-5.558594 6.300781-2.121093 13.121094-2.121093 19.421875 0 3.425781 1.117188 6.539062 3.019532 9.09375 5.558594 4.523437 4.203125 7.242187 9.992188 7.589843 16.15625.074219.496094.105469.996094.089844 1.5zm0 0" fill="#f29c1f"/><path d="m.621094 254.503906-.61718775 1.5c-.01562505-.503906.01562495-1.003906.08984375-1.5zm0 0" fill="#fac176"/><path d="m.621094 254.503906-.61718775 1.5c-.01562505-.503906.01562495-1.003906.08984375-1.5zm0 0" fill="#f29c1f"/><path d="m79.453125 256.003906c-.019531 5.894532.273437 11.789063.882813 17.65625h-9.710938c-11.699219-.007812-23.324219 1.871094-34.429688 5.558594-6.296874 2.121094-13.117187 2.121094-19.417968 0-3.425782-1.117188-6.539063-3.019531-9.09375-5.558594-4.90625-4.5625-7.68750025-10.960937-7.67968775-17.65625l.61718775-1.5h-.527344c.101562-1.492187.335938-2.96875.703125-4.414062-.011719-.125.019531-.25.089844-.355469.164062-.6875.371093-1.363281.617187-2.027344 1.296875-3.5625 3.414063-6.769531 6.179688-9.359375 2.554687-2.539062 5.667968-4.441406 9.09375-5.558594 6.300781-2.121093 13.121094-2.121093 19.417968 0 11.105469 3.6875 22.730469 5.566407 34.429688 5.558594h9.710938c-.53125 5.296875-.796876 10.683594-.882813 16.15625zm0 0" fill="#f29c1f"/><path d="m406.074219 256.003906c.023437-6.273437-.382813-12.542968-1.21875-18.757812h-103.546875l5.4375-5.4375 67.714844-67.71875c-7.683594-9.941406-16.601563-18.863282-26.542969-26.542969l-73.15625 73.152344v-103.546875c-12.453125-1.625-25.0625-1.625-37.515625 0v103.546875l-73.15625-73.152344c-9.941406 7.679687-18.863282 16.601563-26.542969 26.542969l67.714844 67.71875 5.4375 5.4375h-103.546875c-1.625 12.453125-1.625 25.0625 0 37.515625h103.546875l-73.152344 73.15625c7.679687 9.941406 16.601563 18.859375 26.542969 26.542969l67.71875-67.714844 5.4375-5.4375v103.546875c12.453125 1.625 25.0625 1.625 37.515625 0v-103.546875l5.4375 5.4375 67.71875 67.714844c9.941406-7.683594 18.859375-16.601563 26.542969-26.542969l-73.152344-73.15625h103.546875c.835937-6.21875 1.242187-12.484375 1.21875-18.757813zm-150.070313 18.757813c-10.359375 0-18.757812-8.398438-18.757812-18.757813s8.398437-18.757812 18.757812-18.757812 18.757813 8.398437 18.757813 18.757812c-.027344 10.347656-8.410157 18.730469-18.757813 18.757813zm0 0" fill="#805333"/><path d="m431.671875 238.347656c-8.5-83.492187-74.519531-149.511718-158.011719-158.011718-11.742187-1.179688-23.570312-1.179688-35.3125 0-83.492187 8.5-149.511718 74.519531-158.011718 158.011718-1.179688 11.742188-1.179688 23.570313 0 35.3125 8.5 83.492188 74.519531 149.511719 158.011718 158.011719 11.742188 1.179687 23.570313 1.179687 35.3125 0 83.492188-8.5 149.511719-74.519531 158.011719-158.011719 1.179687-11.742187 1.179687-23.570312 0-35.3125zm-35.574219 35.3125c-8.171875 63.929688-58.507812 114.265625-122.4375 122.4375-11.722656 1.53125-23.589844 1.53125-35.3125 0-63.929687-8.171875-114.265625-58.507812-122.4375-122.4375-1.53125-11.722656-1.53125-23.589844 0-35.3125 8.171875-63.929687 58.507813-114.265625 122.4375-122.4375 11.722656-1.53125 23.589844-1.53125 35.3125 0 63.929688 8.171875 114.265625 58.507813 122.4375 122.4375 1.53125 11.722656 1.53125 23.589844 0 35.3125zm0 0" fill="#e57e25"/><path d="m280.808594 26.488281c-.003906 3.300781-.539063 6.578125-1.589844 9.707031-3.679688 11.105469-5.554688 22.730469-5.558594 34.429688v9.710938c-11.742187-1.179688-23.570312-1.179688-35.3125 0v-9.710938c-.003906-11.699219-1.878906-23.324219-5.5625-34.429688-2.117187-6.296874-2.117187-13.117187 0-19.417968 1.121094-3.425782 3.023438-6.539063 5.5625-9.09375 4.566406-4.898438 10.960938-7.67968775 17.65625-7.67968775 6.695313 0 13.089844 2.78124975 17.65625 7.67968775 2.539063 2.554687 4.441406 5.667968 5.558594 9.09375 1.050781 3.128906 1.585938 6.40625 1.589844 9.710937zm0 0" fill="#fac176"/><path d="m256.003906.00390625c-6.699218-.0078125-13.09375 2.77343775-17.65625 7.67968775" fill="#fac176"/><path d="m273.660156 7.683594c-4.5625-4.90625-10.960937-7.68750025-17.65625-7.67968775" fill="#fac176"/><path d="m256.003906 512.003906c-6.699218.007813-13.09375-2.773437-17.65625-7.679687" fill="#f29c1f"/><path d="m273.660156 504.324219c-4.5625 4.90625-10.960937 7.6875-17.65625 7.679687" fill="#f29c1f"/><path d="m280.808594 485.519531c-.003906 3.300781-.539063 6.582031-1.589844 9.710938-1.117188 3.425781-3.019531 6.539062-5.558594 9.09375-4.566406 4.898437-10.960937 7.679687-17.65625 7.679687-6.695312 0-13.089844-2.78125-17.65625-7.679687-2.539062-2.554688-4.441406-5.667969-5.5625-9.09375-2.117187-6.300781-2.117187-13.121094 0-19.417969 3.683594-11.105469 5.558594-22.730469 5.5625-34.429688v-9.710937c11.742188 1.179687 23.570313 1.179687 35.3125 0v9.710937c.003906 11.699219 1.878906 23.324219 5.558594 34.429688 1.050781 3.128906 1.585938 6.40625 1.589844 9.707031zm0 0" fill="#f29c1f"/><path d="m511.914062 254.503906h-79.359374c-.085938-5.472656-.351563-10.859375-.882813-16.15625h9.710937c11.699219.007813 23.324219-1.871094 34.425782-5.558594 6.300781-2.121093 13.121094-2.121093 19.421875 0 3.425781 1.117188 6.539062 3.019532 9.09375 5.558594 4.523437 4.203125 7.242187 9.992188 7.589843 16.15625zm0 0" fill="#fac176"/><path d="m.00390625 256.003906c-.0078125-6.699218 2.77343775-13.09375 7.67968775-17.65625" fill="#fac176"/><path d="m7.683594 273.660156c-4.90625-4.5625-7.68750025-10.960937-7.67968775-17.65625" fill="#f29c1f"/><path d="m80.335938 238.347656c-.53125 5.296875-.796876 10.683594-.882813 16.15625h-79.359375c.34375-6.164062 3.066406-11.953125 7.589844-16.15625 2.554687-2.539062 5.667968-4.441406 9.09375-5.558594 6.300781-2.121093 13.121094-2.121093 19.417968 0 11.105469 3.6875 22.730469 5.566407 34.429688 5.558594zm0 0" fill="#fac176"/><path d="m435.839844 111.230469c-2.339844 2.332031-5.035156 4.273437-7.988282 5.746093-10.445312 5.257813-19.980468 12.152344-28.25 20.417969l-6.851562 6.859375c-7.472656-9.132812-15.839844-17.496094-24.972656-24.972656l6.859375-6.847656c8.269531-8.269532 15.164062-17.804688 20.417969-28.25 2.9375-5.949219 7.734374-10.777344 13.667968-13.753906 3.222656-1.621094 6.78125-2.460938 10.386719-2.453126 6.691406-.234374 13.179687 2.320313 17.910156 7.054688 4.734375 4.730469 7.289063 11.21875 7.054688 17.910156-.011719 3.601563-.867188 7.152344-2.496094 10.363282-1.472656 2.933593-3.410156 5.609374-5.738281 7.925781zm0 0" fill="#fac176"/><g fill="#f29c1f"><path d="m111.230469 435.839844c-2.332031 2.332031-5.03125 4.269531-7.988281 5.738281-3.210938 1.628906-6.761719 2.484375-10.363282 2.496094-6.679687.21875-13.148437-2.34375-17.871094-7.074219-4.71875-4.734375-7.265624-11.210938-7.03125-17.890625-.007812-3.605469.832032-7.164063 2.453126-10.386719 2.957031-5.953125 7.777343-10.777344 13.726562-13.738281 10.460938-5.25 20.011719-12.144531 28.292969-20.417969l6.851562-6.859375c7.472657 9.132813 15.839844 17.5 24.972657 24.972657l-6.859376 6.851562c-8.269531 8.265625-15.160156 17.804688-20.417968 28.25-1.472656 2.980469-3.421875 5.699219-5.765625 8.058594zm0 0"/><path d="m400.777344 435.839844c-2.332032-2.339844-4.273438-5.035156-5.75-7.988282-5.253906-10.445312-12.148438-19.980468-20.417969-28.25l-6.855469-6.851562c9.132813-7.472656 17.496094-15.839844 24.972656-24.972656l6.847657 6.859375c8.269531 8.269531 17.804687 15.164062 28.25 20.417969 5.949219 2.9375 10.777343 7.734374 13.753906 13.667968 1.628906 3.210938 2.484375 6.757813 2.496094 10.363282.234375 6.6875-2.320313 13.175781-7.054688 17.910156-4.730469 4.730468-11.21875 7.285156-17.910156 7.054687-3.601563-.011719-7.148437-.867187-10.363281-2.5-2.945313-1.460937-5.640625-3.390625-7.96875-5.710937zm0 0"/><path d="m437.023438 437.023438c4.746093-4.726563 7.304687-11.21875 7.0625-17.914063"/><path d="m419.109375 444.074219c6.695313.246093 13.1875-2.316407 17.914063-7.0625"/></g><path d="m74.984375 74.984375c4.726563-4.746094 11.21875-7.304687 17.910156-7.0625" fill="#fac176"/><path d="m67.976562 92.894531c-.242187-6.691406 2.316407-13.183593 7.0625-17.910156" fill="#fac176"/><path d="m76.167969 111.230469c-2.332031-2.332031-4.269531-5.03125-5.738281-7.988281-1.613282-3.210938-2.453126-6.753907-2.453126-10.347657-.222656-6.671875 2.332032-13.140625 7.054688-17.863281s11.191406-7.277344 17.863281-7.054688c3.605469.011719 7.152344.867188 10.367188 2.496094 5.949219 2.957032 10.773437 7.777344 13.734375 13.730469 5.253906 10.457031 12.144531 20.007813 20.417968 28.289063l6.859376 6.851562c-9.132813 7.472656-17.5 15.839844-24.972657 24.972656l-6.851562-6.859375c-8.265625-8.265625-17.804688-15.160156-28.25-20.417969-2.972657-1.488281-5.683594-3.449218-8.03125-5.808593zm0 0" fill="#fac176"/><path d="m256.003906 211.867188c-24.378906 0-44.136718 19.761718-44.136718 44.136718s19.757812 44.136719 44.136718 44.136719c24.375 0 44.136719-19.761719 44.136719-44.136719s-19.761719-44.136718-44.136719-44.136718zm0 61.792968c-9.75 0-17.65625-7.90625-17.65625-17.65625s7.90625-17.65625 17.65625-17.65625 17.65625 7.90625 17.65625 17.65625c-.03125 9.738282-7.917968 17.625-17.65625 17.65625zm0 0" fill="#cb8252"/></svg>