<?xml version="1.0" encoding="UTF-8" standalone="no"?>
<svg
   xmlns:dc="http://purl.org/dc/elements/1.1/"
   xmlns:cc="http://creativecommons.org/ns#"
   xmlns:rdf="http://www.w3.org/1999/02/22-rdf-syntax-ns#"
   xmlns:svg="http://www.w3.org/2000/svg"
   xmlns="http://www.w3.org/2000/svg"
   xml:space="preserve"
   style="enable-background:new 0 0 512 512;"
   viewBox="0 0 512 512"
   y="0px"
   x="0px"
   id="Capa_1"
   version="1.1"><metadata
     id="metadata81"><rdf:RDF><cc:Work
         rdf:about=""><dc:format>image/svg+xml</dc:format><dc:type
           rdf:resource="http://purl.org/dc/dcmitype/StillImage" /><dc:title></dc:title></cc:Work></rdf:RDF></metadata><defs
     id="defs79" /><polygon
     transform="translate(-264.67797,-481.62712)"
     id="polygon2"
     points="255.36,89.769 88,220.769 88,472.769 424,472.769 424,221.189 256,89.769 "
     style="fill:#f58c46" /><polygon
     transform="translate(-264.67797,-481.62712)"
     id="polygon4"
     points="255.36,89.769 88,220.769 88,251.769 255.36,120.769 424,252.189 424,221.189 256,89.769 "
     style="fill:#c35a1e" /><g
     transform="translate(-264.67797,-481.62712)"
     id="g10"><polygon
       id="polygon6"
       points="256,88.769 32,264.769 32,216.769 256,40.769 480,216.769 480,264.769 "
       style="fill:#874114" /><rect
       id="rect8"
       height="144"
       width="96"
       style="fill:#874114"
       y="328.76999"
       x="144" /></g><g
     transform="translate(-264.67797,-481.62712)"
     id="g32"><circle
       id="circle12"
       r="24"
       cy="256.76999"
       cx="88"
       style="fill:#c35a1e" /><circle
       id="circle14"
       r="24"
       cy="304.76999"
       cx="88"
       style="fill:#c35a1e" /><circle
       id="circle16"
       r="24"
       cy="352.76999"
       cx="88"
       style="fill:#c35a1e" /><circle
       id="circle18"
       r="24"
       cy="400.76999"
       cx="88"
       style="fill:#c35a1e" /><circle
       id="circle20"
       r="24"
       cy="448.76999"
       cx="88"
       style="fill:#c35a1e" /><circle
       id="circle22"
       r="24"
       cy="256.76999"
       cx="424"
       style="fill:#c35a1e" /><circle
       id="circle24"
       r="24"
       cy="304.76999"
       cx="424"
       style="fill:#c35a1e" /><circle
       id="circle26"
       r="24"
       cy="352.76999"
       cx="424"
       style="fill:#c35a1e" /><circle
       id="circle28"
       r="24"
       cy="400.76999"
       cx="424"
       style="fill:#c35a1e" /><circle
       id="circle30"
       r="24"
       cy="448.76999"
       cx="424"
       style="fill:#c35a1e" /></g><rect
     id="rect34"
     height="64"
     width="96"
     style="fill:#95a792"
     y="-152.85713"
     x="7.3220339" /><g
     transform="translate(-264.67797,-481.62712)"
     id="g40"><rect
       id="rect36"
       height="15"
       width="16"
       style="fill:#ffffff"
       y="401.26999"
       x="208" /><circle
       id="circle38"
       r="24"
       cy="184.77"
       cx="256"
       style="fill:#ffffff" /></g><path
     id="path42"
     d="m 186.14103,-15.858119 c 2.965,-5 4.681,-10.704 4.681,-16.75 0,-9.607 -4.328,-18.342 -11.131,-24.125 6.803,-5.783 11.131,-14.456 11.131,-24.063 0,-9.607 -4.328,-18.249 -11.131,-24.031001 6.803,-5.783 11.131,-14.409 11.131,-24.016 0,-9.607 -4.328,-18.225 -11.131,-24.008 6.803,-5.783 11.131,-14.397 11.131,-24.004 0,-9.607 -4.328,-18.219 -11.131,-24.002 6.803,-5.783 11.131,-14.394 11.131,-24.001 0,-0.588 -0.269,-1.172 -0.301,-1.753 l 31.801,25.184 v -67.076 l -231.4999961,-181.893 -231.5000039,181.893 v 67.076 l 32.301,-25.183 c -0.032,0.58 0.074,1.164 0.074,1.752 0,9.607 4.391,18.217 11.193,24 -6.803,5.783 -11.1,14.393 -11.1,24 0,9.607 4.344,18.217 11.146,24 -6.803,5.783 -11.123,14.393 -11.123,24 0,9.607 4.332,18.217 11.135,24 -6.803,5.783001 -11.129,14.393001 -11.129,24.000001 0,9.607 4.329,18.217 11.132,24 -6.803,5.783 -11.13,14.643 -11.13,24.25 0,6.046 1.717,11.75 4.682,16.75 h -61.181 v 15.00000036 h 512 V -15.858119 Z m -10.319,-17 c 0,9.098 -7.402,16.5 -16.5,16.5 -9.098,0 -16.5,-7.402 -16.5,-16.5 0,-9.098 7.402,-16.5 16.5,-16.5 9.098,0 16.5,7.402 16.5,16.5 z m -325.681,-175.000001 c 2.965,-5 4.681,-10.454 4.681,-16.5 0,-6.046 -1.716,-12.5 -4.681,-16.5 h 282.363 c -2.965,4 -4.681,10.454 -4.681,16.5 0,6.046 1.716,11.5 4.681,16.5 H -88.677966 v 15 H 132.50303 c -2.965,4 -4.681,10.454 -4.681,16.5 0,6.046 1.716,11.5 4.681,16.5 h -282.362 c 2.965,-5 4.681,-10.454 4.681,-16.5 0,-6.046 -1.716,-12.5 -4.681,-16.5 h 29.181 v -15 z m 149.1810039,96 H -17.677966 v -33 h 16.9999999 z m 15.0000001,-33 h 33 v 49.000001 h -33 z m 48,0 h 33 v 49.000001 h -33 z m 47.999996,0 h 22.181 c -2.965,4 -4.681,10.454 -4.681,16.5 0,6.046 1.716,11.5 4.681,16.5 h -22.181 z m -239,0 v 33 h -21.181 c 2.965,-5 4.681,-10.454 4.681,-16.5 0,-6.046 -1.716,-12.5 -4.681,-16.5 z m 0,48.000001 v 33 h -21.181 c 2.965,-5 4.681,-10.454 4.681,-16.5 0,-6.046 -1.716,-12.5 -4.681,-16.5 z m 0,48 v 33 h -21.181 c 2.965,-5 4.681,-10.454 4.681,-16.5 0,-6.046 -1.716,-12.5 -4.681,-16.5 z m 15,-96.000001 h 81.000004 v 129.000001 h -81.000004 z m 96.000004,96.000001 H 103.32203 v -15 H -17.677966 v -33 h 16.9999999 v 16 H 110.32203 v -16 h 22.181 c -2.965,4 -4.681,10.204 -4.681,16.25 0,9.607 4.328,18.092 11.131,23.875 -6.803,5.783 -11.131,14.581 -11.131,24.188 0,6.046 1.716,11.688 4.681,16.688 H -17.677966 Z m 193.499996,-32 c 0,9.098 -7.402,16.5 -16.5,16.5 -9.098,0 -16.5,-7.402 -16.5,-16.5 0,-9.098 7.402,-16.5 16.5,-16.5 9.098,0 16.5,7.402 16.5,16.5 z m 0,-48.000001 c 0,9.098 -7.402,16.5 -16.5,16.5 -9.098,0 -16.5,-7.402 -16.5,-16.5 0,-9.098 7.402,-16.5 16.5,-16.5 9.098,0 16.5,7.402 16.5,16.5 z m 0,-48 c 0,9.098 -7.402,16.5 -16.5,16.5 -9.098,0 -16.5,-7.402 -16.5,-16.5 0,-9.098 7.402,-16.5 16.5,-16.5 9.098,0 16.5,7.402 16.5,16.5 z m -33,-48 c 0,-9.098 7.402,-16.5 16.5,-16.5 9.098,0 16.5,7.402 16.5,16.5 0,9.098 -7.402,16.5 -16.5,16.5 -9.098,0 -16.5,-7.402 -16.5,-16.5 z m 64.5,-7.431 -208.9999961,-164.214 v -28.924 l 208.9999961,164.215 z m -185.408996,-71.569 c -3.374,-14 -15.8060001,-24 -30.5910001,-24 -14.7849999,0 -27.2159999,10 -30.5909999,24 h -69.906004 l 42.000004,-33 h 116.994 l 42,33 z m -14.0910001,7 c 0,9.098 -7.402,16.5 -16.5,16.5 -9.0979999,0 -16.4999999,-7.402 -16.4999999,-16.5 0,-9.098 7.402,-16.5 16.4999999,-16.5 9.098,0 16.5,7.402 16.5,16.5 z m -16.5,-85.962 39.4060001,30.962 h -78.812 z m -217.0000039,121.608 209.000004,-164.215 v 28.924 l -209.000004,164.214 z m 97.412,-27.646 h 88.997004 c 3.374,13 15.806,24 30.5909999,24 14.785,0 27.2160001,-11 30.5910001,-24 h 88.996996 l 42.678,33.283 c -0.765,0.141 -1.521,0.054 -2.266,0.25 v -0.532 h -320 v 0.532 c -0.744,-0.195 -1.501,-0.109 -2.266,-0.25 z m -64.912,64 c 0,-9.098 7.402,-16.5 16.5,-16.5 9.098,0 16.5,7.402 16.5,16.5 0,9.098 -7.402,16.5 -16.5,16.5 -9.098,0 -16.5,-7.402 -16.5,-16.5 z m 0,48 c 0,-9.098 7.402,-16.5 16.5,-16.5 9.098,0 16.5,7.402 16.5,16.5 0,9.098 -7.402,16.5 -16.5,16.5 -9.098,0 -16.5,-7.402 -16.5,-16.5 z m 0,48 c 0,-9.098 7.402,-16.5 16.5,-16.5 9.098,0 16.5,7.402 16.5,16.5 0,9.098 -7.402,16.5 -16.5,16.5 -9.098,0 -16.5,-7.402 -16.5,-16.5 z m 0,48.000001 c 0,-9.098 7.402,-16.5 16.5,-16.5 9.098,0 16.5,7.402 16.5,16.5 0,9.098 -7.402,16.5 -16.5,16.5 -9.098,0 -16.5,-7.402 -16.5,-16.5 z m 0,48 c 0,-9.098 7.402,-16.5 16.5,-16.5 9.098,0 16.5,7.402 16.5,16.5 0,9.098 -7.402,16.5 -16.5,16.5 -9.098,0 -16.5,-7.402 -16.5,-16.5 z" /><rect
     id="rect44"
     height="15"
     width="16"
     style="fill:#ffffff"
     y="-232.35712"
     x="87.322037" /><g
     transform="translate(-264.67797,-481.62712)"
     id="g46" /><g
     transform="translate(-264.67797,-481.62712)"
     id="g48" /><g
     transform="translate(-264.67797,-481.62712)"
     id="g50" /><g
     transform="translate(-264.67797,-481.62712)"
     id="g52" /><g
     transform="translate(-264.67797,-481.62712)"
     id="g54" /><g
     transform="translate(-264.67797,-481.62712)"
     id="g56" /><g
     transform="translate(-264.67797,-481.62712)"
     id="g58" /><g
     transform="translate(-264.67797,-481.62712)"
     id="g60" /><g
     transform="translate(-264.67797,-481.62712)"
     id="g62" /><g
     transform="translate(-264.67797,-481.62712)"
     id="g64" /><g
     transform="translate(-264.67797,-481.62712)"
     id="g66" /><g
     transform="translate(-264.67797,-481.62712)"
     id="g68" /><g
     transform="translate(-264.67797,-481.62712)"
     id="g70" /><g
     transform="translate(-264.67797,-481.62712)"
     id="g72" /><g
     transform="translate(-264.67797,-481.62712)"
     id="g74" /></svg>