<?xml version="1.0" encoding="UTF-8" standalone="no"?>
<!-- Generator: Adobe Illustrator 19.0.0, SVG Export Plug-In . SVG Version: 6.00 Build 0)  -->

<svg
   xmlns:dc="http://purl.org/dc/elements/1.1/"
   xmlns:cc="http://creativecommons.org/ns#"
   xmlns:rdf="http://www.w3.org/1999/02/22-rdf-syntax-ns#"
   xmlns:svg="http://www.w3.org/2000/svg"
   xmlns="http://www.w3.org/2000/svg"
   xmlns:sodipodi="http://sodipodi.sourceforge.net/DTD/sodipodi-0.dtd"
   xmlns:inkscape="http://www.inkscape.org/namespaces/inkscape"
   version="1.1"
   id="Capa_1"
   x="0px"
   y="0px"
   viewBox="0 0 512.001 512.001"
   style="enable-background:new 0 0 512.001 512.001;"
   xml:space="preserve"
   sodipodi:docname="island.svg"
   inkscape:version="0.92.1 r15371"><metadata
     id="metadata81"><rdf:RDF><cc:Work
         rdf:about=""><dc:format>image/svg+xml</dc:format><dc:type
           rdf:resource="http://purl.org/dc/dcmitype/StillImage" /></cc:Work></rdf:RDF></metadata><defs
     id="defs79" /><sodipodi:namedview
     pagecolor="#ffffff"
     bordercolor="#666666"
     borderopacity="1"
     objecttolerance="10"
     gridtolerance="10"
     guidetolerance="10"
     inkscape:pageopacity="0"
     inkscape:pageshadow="2"
     inkscape:window-width="1920"
     inkscape:window-height="1001"
     id="namedview77"
     showgrid="false"
     inkscape:zoom="0.92187324"
     inkscape:cx="2.4906155"
     inkscape:cy="409.72217"
     inkscape:window-x="-9"
     inkscape:window-y="-9"
     inkscape:window-maximized="1"
     inkscape:current-layer="Capa_1" /><path
     style="fill:#f9cd46"
     d="m -191.73149,42.504198 c 0,41.426 85.844,35.972 191.73100171875,35.972 105.89799828125,0 191.73099828125,5.455 191.73099828125,-35.972 0,-38.5669998 -74.377,-104.164 -170.084998,-113.046 l -38.476,-0.395 c -13.13,0.943 -25.884,2.971 -38.131,5.87 -30.588,7.219 -57.962002,19.872 -80.055002,34.634 h -0.01 c -35.018,23.4000002 -56.705,52.113 -56.705,72.937 z"
     id="path4"
     inkscape:connector-curvature="0" /><g
     id="g12"
     transform="translate(-256.00049,-349.2888)"><path
       style="fill:#db9e00"
       d="m 114.962,391.793 c 0,-20.825 21.687,-49.537 56.705,-72.937 h 0.01 c 22.092,-14.762 49.466,-27.415 80.055,-34.634 9.586,-2.269 19.486,-3.996 29.63,-5.095 -1.236,-0.134 -2.473,-0.265 -3.716,-0.38 l -38.476,-0.395 c -13.13,0.943 -25.884,2.971 -38.131,5.87 -30.588,7.219 -57.962,19.872 -80.054,34.634 h -0.01 c -35.019,23.4 -56.705,52.112 -56.705,72.937 0,37.022 68.563,36.601 158.72,36.093 -63.946,-0.796 -108.028,-6.408 -108.028,-36.093 z"
       id="path6"
       inkscape:connector-curvature="0" /><path
       style="fill:#db9e00"
       d="m 306.694,427.765 c -8.594,0 -17.051,0.036 -25.346,0.08 20.675,0.109 40.309,0.267 58.361,0.043 -10.727,-0.062 -21.756,-0.123 -33.015,-0.123 z"
       id="path8"
       inkscape:connector-curvature="0" /><path
       style="fill:#db9e00"
       d="m 120.985,318.856 c 72.816,-5.333 114.647,21.109 114.647,21.109 h 43.738 c -16.85,-25.012 -50.206,-43.637 -78.331,-55.742 -30.588,7.218 -57.962,19.871 -80.054,34.633 z"
       id="path10"
       inkscape:connector-curvature="0" /></g><path
     style="fill:#92796c"
     d="m -32.794488,-246.2838 40.0579997,-11.065 1.057,39.917 C 22.371512,-133.9548 23.370512,-9.3198018 23.370512,-9.3198018 h -43.734 c 6.984,-85.7230002 4.822,-173.0249982 -0.748,-217.1749982 z"
     id="path14"
     inkscape:connector-curvature="0" /><g
     id="g20"
     transform="translate(-256.00049,-349.2888)"><path
       style="fill:#58903a"
       d="m 250.229,97.808 c 0,0 -7.275,22.865 12.471,33.258 19.746,10.393 84.184,18.708 92.499,114.325 0,0 39.598,-39.568 9.926,-110.205"
       id="path16"
       inkscape:connector-curvature="0" /><path
       style="fill:#58903a"
       d="m 237.957,116.758 c 0,0 -5.07,14.634 -20.765,20.765 -27.652,10.802 -37.637,59.02 -37.637,91.238 0,0 -35.512,-26.392 -11,-105.695"
       id="path18"
       inkscape:connector-curvature="0" /></g><g
     id="g26"
     transform="translate(-256.00049,-349.2888)"><path
       style="fill:#7cba20"
       d="m 252.158,105.526 c -1.145,-4.578 1.138,-9.345 5.458,-11.241 17.492,-7.677 63.11,-23.841 104.859,-5.831 53.005,22.865 47.809,81.066 47.809,81.066 0,0 -43.52,-58.336 -136.679,-49.149 -9.874,0.974 -19.041,-5.22 -21.447,-14.845 z"
       id="path22"
       inkscape:connector-curvature="0" /><path
       style="fill:#7cba20"
       d="m 245.679,105.526 c 1.145,-4.578 -1.138,-9.345 -5.458,-11.241 -17.492,-7.677 -63.11,-23.841 -104.859,-5.831 -53.005,22.865 -47.809,81.066 -47.809,81.066 0,0 43.52,-58.336 136.679,-49.149 9.874,0.974 19.042,-5.22 21.447,-14.845 z"
       id="path24"
       inkscape:connector-curvature="0" /></g><g
     id="g32"
     transform="translate(-256.00049,-349.2888)"><path
       style="fill:#98ca2d"
       d="m 250.229,97.808 c 0,0 1.039,-50.926 63.398,-64.437 62.359,-13.511 77.949,48.848 77.949,48.848 0,0 -50.927,-33.259 -141.347,15.589 z"
       id="path28"
       inkscape:connector-curvature="0" /><path
       style="fill:#98ca2d"
       d="m 247.61,97.808 c 0,0 -1.039,-50.926 -63.398,-64.437 -62.359,-13.511 -77.949,48.848 -77.949,48.848 0,0 50.926,-33.259 141.347,15.589 z"
       id="path30"
       inkscape:connector-curvature="0" /></g><g
     id="g46"
     transform="translate(-256.00049,-349.2888)" /><g
     id="g48"
     transform="translate(-256.00049,-349.2888)" /><g
     id="g50"
     transform="translate(-256.00049,-349.2888)" /><g
     id="g52"
     transform="translate(-256.00049,-349.2888)" /><g
     id="g54"
     transform="translate(-256.00049,-349.2888)" /><g
     id="g56"
     transform="translate(-256.00049,-349.2888)" /><g
     id="g58"
     transform="translate(-256.00049,-349.2888)" /><g
     id="g60"
     transform="translate(-256.00049,-349.2888)" /><g
     id="g62"
     transform="translate(-256.00049,-349.2888)" /><g
     id="g64"
     transform="translate(-256.00049,-349.2888)" /><g
     id="g66"
     transform="translate(-256.00049,-349.2888)" /><g
     id="g68"
     transform="translate(-256.00049,-349.2888)" /><g
     id="g70"
     transform="translate(-256.00049,-349.2888)" /><g
     id="g72"
     transform="translate(-256.00049,-349.2888)" /><g
     id="g74"
     transform="translate(-256.00049,-349.2888)" /></svg>