<svg height="512pt" viewBox="0 0 512 512.11139" width="512pt" xmlns="http://www.w3.org/2000/svg"><path d="m46.3125 353.214844c21.390625-28.511719 19.746094-74.3125 18.316406-90.871094-.125-1.492188.515625-2.945312 1.703125-3.863281 1.1875-.914063 2.753907-1.164063 4.167969-.664063 47.792969 15.316406 77.171875 88.539063 79.625 94.957032" fill="#bdc3c7"/><path d="m512.054688 341.5625v152.894531c0 9.75-7.902344 17.65625-17.652344 17.65625h-476.691406c-9.75 0-17.6562505-7.90625-17.6562505-17.65625v-152.894531c.0234375-1.742188 1.0664065-3.304688 2.6640625-3.996094s3.453125-.375 4.734375.800782c9.839844 9.554687 23.023437 14.882812 36.742187 14.847656 9.308594.03125 18.453126-2.4375 26.480469-7.148438 7.089844-4.09375 13.132813-9.777344 17.65625-16.597656 1.816407-2.738281 3.382813-5.632812 4.679688-8.652344.632812-1.746094 2.289062-2.90625 4.148437-2.90625 1.855469 0 3.515625 1.160156 4.148438 2.90625 1.261718 3.035156 2.828125 5.933594 4.679687 8.652344 9.777344 14.835938 26.367188 23.761719 44.136719 23.746094 2.242188-.011719 4.484375-.160156 6.707031-.441406 15.289063-1.914063 28.96875-10.429688 37.429688-23.304688 1.835937-2.726562 3.402343-5.625 4.679687-8.652344.632813-1.746094 2.292969-2.90625 4.148438-2.90625 1.855468 0 3.515625 1.160156 4.148437 2.90625 1.261719 3.035156 2.828125 5.933594 4.679688 8.652344 9.789062 14.824219 26.371093 23.746094 44.136719 23.746094 17.769531 0 34.347656-8.921875 44.140624-23.746094 1.847657-2.71875 3.414063-5.617188 4.675782-8.652344.632812-1.746094 2.292968-2.90625 4.148437-2.90625 1.859375 0 3.515625 1.160156 4.152344 2.90625 5.160156 12.0625 14.542969 21.824219 26.394531 27.453125l53.671875-18.800781 25.6875-9.003906c.085938.089844.085938.265625.175781.351562 1.261719 3.035156 2.828126 5.933594 4.679688 8.652344 8.664062 13.125 22.71875 21.710938 38.347656 23.429688 15.632813 1.71875 31.21875-3.605469 42.527344-14.53125 1.285156-1.175782 3.136719-1.492188 4.738281-.800782 1.597657.691406 2.640625 2.253906 2.660157 3.996094zm0 0" fill="#4482c3"/><path d="m512.054688 368.046875v126.410156c0 9.75-7.902344 17.65625-17.652344 17.65625h-476.691406c-9.75 0-17.6562505-7.90625-17.6562505-17.65625v-126.410156c.0234375-1.742187 1.0664065-3.308594 2.6640625-3.996094 1.597656-.691406 3.453125-.378906 4.734375.796875 9.839844 9.558594 23.023437 14.886719 36.742187 14.851563 9.308594.03125 18.453126-2.4375 26.480469-7.152344 7.089844-4.09375 13.132813-9.773437 17.65625-16.59375 1.816407-2.738281 3.382813-5.632813 4.679688-8.652344.632812-1.746093 2.289062-2.910156 4.148437-2.910156 1.855469 0 3.515625 1.164063 4.148438 2.910156 1.261718 3.035157 2.828125 5.933594 4.679687 8.652344 9.777344 14.835937 26.367188 23.757813 44.136719 23.746094 2.242188-.015625 4.484375-.160157 6.707031-.441407 15.289063-1.914062 28.96875-10.433593 37.429688-23.304687 1.835937-2.726563 3.402343-5.625 4.679687-8.652344.632813-1.746093 2.292969-2.910156 4.148438-2.910156 1.855468 0 3.515625 1.164063 4.148437 2.910156 1.261719 3.035157 2.828125 5.933594 4.679688 8.652344 9.789062 14.824219 26.371093 23.742187 44.136719 23.742187 17.769531 0 34.347656-8.917968 44.140624-23.742187 1.847657-2.71875 3.414063-5.617187 4.675782-8.652344.632812-1.746093 2.292968-2.910156 4.148437-2.910156 1.859375 0 3.515625 1.164063 4.152344 2.910156 5.160156 12.058594 14.542969 21.824219 26.394531 27.453125l53.671875-18.800781 25.6875-9.007813c.085938.089844.085938.265626.175781.355469 1.261719 3.035157 2.828126 5.933594 4.679688 8.652344 8.664062 13.121094 22.71875 21.707031 38.347656 23.429687 15.632813 1.71875 31.21875-3.609374 42.527344-14.535156 1.285156-1.175781 3.136719-1.488281 4.738281-.796875 1.597657.6875 2.640625 2.253907 2.660157 3.996094zm0 0" fill="#67b9cc"/><path d="m400.917969 407.0625c64.96875 17.390625 107.429687 43.609375 107.429687 62.675781 0 31.25-112.992187 42.375-252.292968 42.375-139.296876 0-252.292969-11.125-252.292969-42.375s112.996093-81.214843 252.292969-81.214843c22.304687.007812 44.585937 1.304687 66.738281 3.886718" fill="#f9eab0"/><path d="m405.152344 388.523438c-7.5 21.355468-17.992188 41.535156-31.160156 59.941406-.839844 1.160156-2.183594 1.851562-3.621094 1.851562h-76.09375c-1.671875-.039062-3.175782-1.023437-3.886719-2.535156-.710937-1.515625-.503906-3.300781.535156-4.613281 13.390625-16.796875 24.710938-35.140625 33.71875-54.644531zm0 0" fill="#805333"/><path d="m338.59375 160.597656h-.089844c-4.863281-.023437-8.792968-3.984375-8.78125-8.851562.011719-4.867188 3.960938-8.804688 8.828125-8.804688 4.867188 0 8.8125 3.9375 8.828125 8.804688.011719 4.867187-3.917968 8.828125-8.785156 8.851562zm0 0"/><path d="m417.425781 335.558594c-2.097656 18.058594-6.210937 35.828125-12.273437 52.964844h-80.507813c7.917969-16.960938 14.015625-34.714844 18.1875-52.964844zm0 0" fill="#af8066"/><path d="m417.425781 335.558594h-74.59375c3.25-14.515625 5.289063-29.28125 6.089844-44.136719h70.089844c.796875 14.730469.265625 29.503906-1.585938 44.136719zm0 0" fill="#805333"/><path d="m348.921875 291.421875c.917969-17.707031-.027344-35.457031-2.824219-52.964844h64.617188c4.589844 17.320313 7.371094 35.070313 8.296875 52.964844zm0 0" fill="#af8066"/><path d="m410.714844 238.457031h-64.617188c-2.769531-18.144531-7.59375-35.914062-14.390625-52.964843h58.792969c8.628906 16.871093 15.40625 34.632812 20.214844 52.964843zm0 0" fill="#805333"/><path d="m390.5 185.492188h-58.792969c-1.851562-4.855469-3.972656-9.625-6.179687-14.390626v-.089843l13.066406-19.152344 27.71875-5.296875c9.207031 12.226562 17.300781 25.257812 24.1875 38.929688zm0 0" fill="#af8066"/><path d="m338.59375 151.859375-13.066406 19.152344v.089843l-86.242188 126.675782c-24.191406-16.417969-21.542968-62.5 5.824219-102.753906 7.839844-11.636719 17.429687-22 28.425781-30.71875 23.039063-18.007813 48.199219-23.835938 64.96875-12.535157zm0 0" fill="#4fba6f"/><path d="m437.902344 5.847656-62.054688 91.367188h-.089844c-21.890624 11.917968-36.191406 28.777344-37.605468 45.816406-.238282 2.855469-.117188 5.734375.351562 8.5625-1.910156-8.902344-7.113281-16.75-14.5625-21.980469-2.023437-8.230469-2.472656-16.765625-1.324218-25.160156 1.925781-14.78125 6.628906-29.070313 13.859374-42.105469l.085938-.089844c2.351562-4.570312 4.972656-8.992187 7.855469-13.242187 27.457031-40.253906 69.296875-59.585937 93.484375-43.167969zm0 0" fill="#26b99a"/><path d="m336.476562 62.347656c-7.230468 13.035156-11.933593 27.324219-13.859374 42.105469-8.175782-8.148437-17.703126-14.808594-28.160157-19.683594-.089843-.972656-.179687-1.855469-.179687-2.828125-.882813-39.105468 17.480468-71.414062 40.960937-71.941406zm0 0" fill="#7ed09e"/><path d="m323.941406 129.613281c-6.761718-5.199219-14.464844-9.039062-22.6875-11.300781h-.089844c-14.273437-4.082031-29.183593-5.460938-43.960937-4.058594l-47.492187-21.894531c9.886718-21.273437 46.785156-25.246094 82.273437-8.828125.855469.339844 1.683594.753906 2.472656 1.238281 10.457031 4.875 19.984375 11.535157 28.160157 19.683594-1.148438 8.394531-.699219 16.929687 1.324218 25.160156zm0 0" fill="#4fba6f"/><path d="m338.503906 151.59375v.175781c-16.769531-11.300781-41.929687-5.472656-64.96875 12.535157l-108.402344 20.566406c-5.472656-28.6875 28.953126-59.40625 76.886719-68.589844 5.019531-.96875 10.085938-1.644531 15.183594-2.027344 14.777344-1.402344 29.6875-.023437 43.960937 4.058594h.089844c8.222656 2.261719 15.925782 6.101562 22.6875 11.300781 7.449219 5.230469 12.652344 13.078125 14.5625 21.980469zm0 0" fill="#14a085"/><path d="m512.054688 118.929688-145.742188 27.632812-27.71875 5.296875v-.089844l-.089844-.175781c-.46875-2.828125-.589844-5.707031-.351562-8.5625 1.414062-17.039062 15.714844-33.898438 37.605468-45.816406h.089844c12.394532-6.613282 25.734375-11.285156 39.546875-13.859375 47.933594-9.09375 91.1875 6.796875 96.660157 35.574219zm0 0" fill="#7ed09e"/><path d="m256.054688 459.144531c0 9.753907-7.902344 17.65625-17.652344 17.65625-9.753906 0-17.65625-7.902343-17.65625-17.65625 0-9.75 7.902344-17.652343 17.65625-17.652343 9.75 0 17.652344 7.902343 17.652344 17.652343zm0 0" fill="#fac176"/><g fill="#cbb292"><path d="m185.433594 476.800781c0 4.875-3.949219 8.828125-8.828125 8.828125-4.875 0-8.824219-3.953125-8.824219-8.828125s3.949219-8.828125 8.824219-8.828125c4.878906 0 8.828125 3.953125 8.828125 8.828125zm0 0"/><path d="m97.160156 459.144531c0 4.875-3.953125 8.828125-8.828125 8.828125s-8.828125-3.953125-8.828125-8.828125 3.953125-8.828125 8.828125-8.828125 8.828125 3.953125 8.828125 8.828125zm0 0"/><path d="m432.605469 459.144531c0 4.875-3.949219 8.828125-8.824219 8.828125s-8.828125-3.953125-8.828125-8.828125 3.953125-8.828125 8.828125-8.828125 8.824219 3.953125 8.824219 8.828125zm0 0"/></g><path d="m123.640625 61.90625c0 34.125-27.664063 61.792969-61.792969 61.792969-34.125 0-61.7929685-27.667969-61.7929685-61.792969 0-34.128906 27.6679685-61.792969 61.7929685-61.792969 34.128906 0 61.792969 27.664063 61.792969 61.792969zm0 0" fill="#f3d55b"/></svg>