<?xml version="1.0" encoding="UTF-8" standalone="no"?>
<svg
   xmlns:dc="http://purl.org/dc/elements/1.1/"
   xmlns:cc="http://creativecommons.org/ns#"
   xmlns:rdf="http://www.w3.org/1999/02/22-rdf-syntax-ns#"
   xmlns:svg="http://www.w3.org/2000/svg"
   xmlns="http://www.w3.org/2000/svg"
   xmlns:sodipodi="http://sodipodi.sourceforge.net/DTD/sodipodi-0.dtd"
   xmlns:inkscape="http://www.inkscape.org/namespaces/inkscape"
   xml:space="preserve"
   style="enable-background:new 0 0 512.001 512.001;"
   viewBox="0 0 512.001 512.001"
   y="0px"
   x="0px"
   id="Layer_1"
   version="1.1"
   sodipodi:docname="resource-ship-yellow.svg"
   inkscape:version="0.92.1 r15371"
   inkscape:export-filename="D:\Documents\allohibou\img\resource-ship-yellow.png"
   inkscape:export-xdpi="400"
   inkscape:export-ydpi="400"><defs
     id="defs33"><style
       id="style4513"
       type="text/css">
   
    .fil0 {fill:black}
   
  </style></defs><sodipodi:namedview
     pagecolor="#ffffff"
     bordercolor="#666666"
     borderopacity="1"
     objecttolerance="10"
     gridtolerance="10"
     guidetolerance="10"
     inkscape:pageopacity="0"
     inkscape:pageshadow="2"
     inkscape:window-width="1920"
     inkscape:window-height="1001"
     id="namedview31"
     showgrid="false"
     inkscape:zoom="8.0000004"
     inkscape:cx="-13.308095"
     inkscape:cy="501.32924"
     inkscape:window-x="-9"
     inkscape:window-y="-9"
     inkscape:window-maximized="1"
     inkscape:current-layer="Layer_1" /><metadata
     id="metadata159"><rdf:RDF><cc:Work
         rdf:about=""><dc:format>image/svg+xml</dc:format><dc:type
           rdf:resource="http://purl.org/dc/dcmitype/StillImage" /><dc:title /></cc:Work></rdf:RDF></metadata><rect
     style="opacity:1;fill:#ffcc00;fill-opacity:1;stroke:#ffffff;stroke-width:1.09480357;stroke-linejoin:round;stroke-miterlimit:4;stroke-dasharray:none;stroke-dashoffset:0;stroke-opacity:1"
     id="rect4511"
     width="20.905197"
     height="20.905195"
     x="-9.2043858"
     y="-9.4533854"
     transform="rotate(-90)" /><path
     style="fill:#ffffff;stroke-width:0.5;stroke:#000000;stroke-opacity:1;stroke-miterlimit:4;stroke-dasharray:none"
     inkscape:connector-curvature="0"
     d="M 7.6684279,2.6408184 H 1.2140931 v -0.790846 h 4.302823 c 0.2375206,0 0.4302909,-0.1927703 0.4302909,-0.4302909 0,-1.30317902 -0.2636249,-2.4999328 -0.7837032,-3.5573009 -0.8330145,-1.6938832 -2.3367377,-2.9910381 -3.9494107,-3.653973 v -2.369698 c 0,-0.3043591 -0.30837511,-0.5120462 -0.5894985,-0.3995968 -0.001434,5.737e-4 -0.002582,0.00115 -0.004016,0.00143 -0.11560482,0.047619 -2.5791063,1.0604949 -2.5819748,1.0616424 -0.3531255,0.1451514 -0.3554204,0.6457232 -0.00373,0.794317 L 0.35354002,-5.724467 V 2.6408184 H -5.6703605 c -0.2643994,0 -0.4701071,0.2361723 -0.4246397,0.512333 0.4619316,3.0300225 0.3838195,2.5176321 0.3927982,2.5765246 0.031899,0.2102975 0.2126785,0.3657472 0.4254143,0.3657472 H 4.34139 c 1.4812334,0 2.8056401,-0.8349651 3.4452245,-2.1030324 0.00215,1.721e-4 0.00436,2.008e-4 0.00651,3.729e-4 C 7.9204924,3.7365972 8.0194593,3.4652271 8.0868715,3.18353 8.154714,2.9001117 7.9455927,2.6408184 7.6684279,2.6408184 Z M 1.2140931,-4.4800657 c 1.1491349,1.4331269 1.1508561,3.4520231 0,4.88715797 z"
     id="path4521" /></svg>