<?xml version="1.0" encoding="UTF-8" standalone="no"?>
<svg
   xmlns:dc="http://purl.org/dc/elements/1.1/"
   xmlns:cc="http://creativecommons.org/ns#"
   xmlns:rdf="http://www.w3.org/1999/02/22-rdf-syntax-ns#"
   xmlns:svg="http://www.w3.org/2000/svg"
   xmlns="http://www.w3.org/2000/svg"
   xmlns:sodipodi="http://sodipodi.sourceforge.net/DTD/sodipodi-0.dtd"
   xmlns:inkscape="http://www.inkscape.org/namespaces/inkscape"
   xml:space="preserve"
   style="enable-background:new 0 0 512.001 512.001;"
   viewBox="0 0 512.001 512.001"
   y="0px"
   x="0px"
   id="Layer_1"
   version="1.1"
   sodipodi:docname="resource-ship-red.svg"
   inkscape:version="0.92.1 r15371"><defs
     id="defs33"><style
       id="style4513"
       type="text/css">
   
    .fil0 {fill:black}
   
  </style></defs><sodipodi:namedview
     pagecolor="#ffffff"
     bordercolor="#666666"
     borderopacity="1"
     objecttolerance="10"
     gridtolerance="10"
     guidetolerance="10"
     inkscape:pageopacity="0"
     inkscape:pageshadow="2"
     inkscape:window-width="1920"
     inkscape:window-height="1001"
     id="namedview31"
     showgrid="false"
     inkscape:zoom="16.000001"
     inkscape:cx="12.128829"
     inkscape:cy="511.15389"
     inkscape:window-x="-9"
     inkscape:window-y="-9"
     inkscape:window-maximized="1"
     inkscape:current-layer="Layer_1" /><metadata
     id="metadata159"><rdf:RDF><cc:Work
         rdf:about=""><dc:format>image/svg+xml</dc:format><dc:type
           rdf:resource="http://purl.org/dc/dcmitype/StillImage" /><dc:title /></cc:Work></rdf:RDF></metadata><rect
     style="opacity:1;fill:#d40000;fill-opacity:1;stroke:#ffffff;stroke-width:1.09480357;stroke-linejoin:round;stroke-miterlimit:4;stroke-dasharray:none;stroke-dashoffset:0;stroke-opacity:1"
     id="rect4511"
     width="20.905195"
     height="20.905197"
     x="-9.2043858"
     y="-9.4533854"
     transform="rotate(-90)" /><g
     id="g4513"
     transform="matrix(0.02984866,0,0,0.02984866,-6.6420369,-8.8894688)"
     style="fill:#ffffff"><path
       id="path4503"
       d="m 497,301 c -9.413,0 -93.002,0 -106,0 v -30 h 60 c 5.682,0 10.875,-3.21 13.417,-8.292 C 465.094,261.354 481,229.16 481,196 481,162.84 465.094,130.646 464.417,129.292 461.875,124.21 456.682,121 451,121 h -60 v -15 c 0,-8.284 -6.716,-15 -15,-15 -8.284,0 -15,6.716 -15,15 v 15 H 329.997 C 330.627,116.093 331,111.058 331,106 331,72.84 315.094,40.646 314.417,39.292 311.875,34.21 306.682,31 301,31 H 241 V 15 C 241,6.716 234.284,0 226,0 217.716,0 211,6.716 211,15 v 16 h -75 c -5.19,0 -10.007,2.694 -12.742,7.105 -2.736,4.411 -2.991,9.933 -0.685,14.583 C 122.708,52.958 136,80.05 136,106 c 0,5.026 -0.502,10.092 -1.307,15 H 91 V 106 C 91,97.716 84.284,91 76,91 67.716,91 61,97.716 61,106 v 15 H 15 c -5.19,0 -10.007,2.694 -12.742,7.105 -2.736,4.411 -2.991,9.933 -0.685,14.583 C 1.708,142.958 15,170.05 15,196 15,221.95 1.708,249.042 1.583,249.292 -0.742,253.942 -0.493,259.464 2.24,263.886 4.973,268.308 9.801,271 15,271 h 46 v 30 H 15 c -8.284,0 -15,6.716 -15,15 v 60 c 0,8.284 6.716,15 15,15 H 34.265 L 61.441,500.61 C 63.1,507.301 69.106,512 76,512 h 300 c 6.466,0 12.204,-4.143 14.238,-10.28 L 440.799,349.196 C 444.406,338.312 454.534,331 466,331 h 31 c 8.284,0 15,-6.716 15,-15 0,-8.284 -6.716,-15 -15,-15 z m -136,0.147 c -15.714,1.214 -29.568,10.449 -36.708,24.729 l -13.416,26.833 c -2.558,5.115 -7.699,8.292 -13.417,8.292 H 241 v -60 h 60 c 5.682,0 10.875,-3.21 13.417,-8.292 0.341,-0.682 4.546,-9.194 8.636,-21.708 H 361 Z M 166,226 c 0,-16.454 -3.917,-32.671 -7.946,-45 h 133.114 c 3.978,10.054 9.832,27.779 9.832,45 0,17.224 -5.856,34.953 -9.831,45 H 158.054 C 162.083,258.671 166,242.454 166,226 Z m 275.168,-75 c 3.977,10.054 9.832,27.779 9.832,45 0,17.224 -5.856,34.953 -9.831,45 H 329.997 c 0.63,-4.907 1.003,-9.942 1.003,-15 0,-24.603 -8.753,-48.662 -13.548,-60 1.588,-3.754 3.606,-8.896 5.601,-15 z m -150,-90 c 3.978,10.054 9.832,27.779 9.832,45 0,17.224 -5.856,34.953 -9.831,45 H 158.054 C 162.083,138.671 166,122.454 166,106 166,89.546 162.083,73.329 158.054,61 Z M 37.054,151 h 89.113 c -2.011,5.084 -3.542,8.208 -3.584,8.292 -1.242,2.483 -1.742,5.215 -1.529,7.896 0,0.004 0.001,0.007 0.001,0.011 0.156,1.953 0.702,3.845 1.518,5.489 0.135,0.27 13.427,27.362 13.427,53.312 0,5.026 -0.502,10.092 -1.307,15 H 37.054 C 41.083,228.671 45,212.454 45,196 45,179.546 41.083,163.329 37.054,151 Z m 89.113,120 c -2.011,5.084 -3.542,8.208 -3.584,8.292 -2.325,4.65 -2.076,10.172 0.657,14.594 2.733,4.422 7.561,7.114 12.76,7.114 h 75 v 60 h -56.459 c -5.718,0 -10.859,-3.177 -13.417,-8.292 l -13.417,-26.833 c -7.14,-14.279 -20.994,-23.514 -36.708,-24.728 V 271 Z M 412.322,339.756 365.17,482 H 87.735 L 60.559,372.39 C 58.9,365.699 52.894,361 46,361 H 30 v -30 h 57.459 c 5.718,0 10.859,3.177 13.417,8.292 l 13.417,26.833 C 121.964,381.469 137.387,391 154.541,391 h 142.918 c 17.154,0 32.577,-9.531 40.25,-24.875 l 13.416,-26.833 c 2.558,-5.115 7.699,-8.292 13.417,-8.492 h 51.521 c -1.473,2.975 -2.727,5.899 -3.741,8.956 z"
       inkscape:connector-curvature="0"
       style="fill:#ffffff" /><circle
       id="circle4505"
       r="15"
       cy="436"
       cx="316"
       style="fill:#ffffff" /><circle
       id="circle4507"
       r="15"
       cy="436"
       cx="256"
       style="fill:#ffffff" /><circle
       id="circle4509"
       r="15"
       cy="436"
       cx="196"
       style="fill:#ffffff" /><circle
       id="circle4511"
       r="15"
       cy="436"
       cx="136"
       style="fill:#ffffff" /></g></svg>