<?xml version="1.0" encoding="UTF-8" standalone="no"?>
<svg
   xmlns:dc="http://purl.org/dc/elements/1.1/"
   xmlns:cc="http://creativecommons.org/ns#"
   xmlns:rdf="http://www.w3.org/1999/02/22-rdf-syntax-ns#"
   xmlns:svg="http://www.w3.org/2000/svg"
   xmlns="http://www.w3.org/2000/svg"
   xmlns:sodipodi="http://sodipodi.sourceforge.net/DTD/sodipodi-0.dtd"
   xmlns:inkscape="http://www.inkscape.org/namespaces/inkscape"
   xml:space="preserve"
   style="enable-background:new 0 0 512.001 512.001;"
   viewBox="0 0 512.001 512.001"
   y="0px"
   x="0px"
   id="Layer_1"
   version="1.1"
   sodipodi:docname="resource-ship-blue.svg"
   inkscape:version="0.92.1 r15371"><defs
     id="defs33"><style
       id="style4513"
       type="text/css">
   
    .fil0 {fill:black}
   
  </style></defs><sodipodi:namedview
     pagecolor="#ffffff"
     bordercolor="#666666"
     borderopacity="1"
     objecttolerance="10"
     gridtolerance="10"
     guidetolerance="10"
     inkscape:pageopacity="0"
     inkscape:pageshadow="2"
     inkscape:window-width="1920"
     inkscape:window-height="1001"
     id="namedview31"
     showgrid="false"
     inkscape:zoom="32.000002"
     inkscape:cx="4.2255018"
     inkscape:cy="514.36375"
     inkscape:window-x="-9"
     inkscape:window-y="-9"
     inkscape:window-maximized="1"
     inkscape:current-layer="Layer_1" /><metadata
     id="metadata159"><rdf:RDF><cc:Work
         rdf:about=""><dc:format>image/svg+xml</dc:format><dc:type
           rdf:resource="http://purl.org/dc/dcmitype/StillImage" /><dc:title /></cc:Work></rdf:RDF></metadata><rect
     style="opacity:1;fill:#0000ff;fill-opacity:1;stroke:#ffffff;stroke-width:1.09480357;stroke-linejoin:round;stroke-miterlimit:4;stroke-dasharray:none;stroke-dashoffset:0;stroke-opacity:1"
     id="rect4511"
     width="20.905197"
     height="20.905195"
     x="-9.2043858"
     y="-9.4533854"
     transform="rotate(-90)" /><path
     id="path4517"
     d="M 1.3487697,3.3522451 C 2.2465932,3.1726805 4.1619496,2.7536962 4.1619496,2.7536962 V 1.4368886 c -0.538694,0.2394196 -1.616082,1.3168076 -2.0350663,1.675937 1.137243,-1.3766625 2.9927446,-2.8730348 0.1795647,-5.9256344 0.4189842,0.2394196 1.2569527,0.2992745 1.7357919,0.4189843 l -0.059855,-0.8978234 -1.675937,0.4788392 C 2.6057224,-2.9923734 3.2641263,-3.6507772 3.2641263,-4.1894713 3.3239812,-4.847875 2.7254322,-5.446424 2.4261578,-5.7456984 l 1.4963723,0.3591292 c 0.059855,-0.6584037 -0.059854,-1.2569526 -0.059854,-1.7956467 0,0.059855 0.2992745,1.675937 0.2992745,1.8555017 3.4117289,0.538694 3.4715838,2.6934701 1.9752115,3.0525995 -0.2992745,0.1197098 -1.3766626,0.1795646 -1.6160822,-0.059855 0,0 -0.1197098,-0.7182587 -0.1197098,-1.0773881 1.0773877,-0.059855 1.7357915,0.059855 1.7357915,1.137243 0.1795647,0.2394195 0.2992745,0.2394195 0.538694,0.4788391 0.1197098,0.1795647 0.2394196,0.2394196 0.3591294,0.4788392 1.1970974,1.9153564 -0.7781141,3.3518739 -1.0175337,3.7110032 0,0 -1.1970978,0.2992745 -1.1970978,0.2992745 L 4.7006436,1.3171788 C 6.2568709,0.7784848 6.3167258,1.6763082 6.0174513,2.3945668 6.9751296,2.2150022 9.489035,0.2397908 10.446713,-0.4186131 10.087584,0.120081 6.8554198,2.7536962 6.8554198,2.7536962 6.1970159,4.0705038 4.7006436,4.489488 4.2816595,6.3449897 H -3.5593314 C -5.4148331,5.2676017 -4.2775902,4.1303588 -5.8338173,4.0106489 -6.6717858,3.950794 -6.7316406,3.4719549 -7.09077,2.873406 -7.3900445,2.3945668 -10.622208,1.5565983 -6.7316406,2.0354375 c 0,0 0,0 0,0 l 1.5562271,0.1795647 c -0.1795647,-2.1547762 -0.3591293,-4.3095523 -0.538694,-6.5840381 0,0 0.6584038,5.5665049 0.7781136,6.643893 l 1.0175331,0.059855 c 0.1795648,2.154776 3.95042291,1.1970978 3.95042291,1.1970978 l -0.35912937,-2.57376 C -1.5242651,1.1376142 -2.661508,1.5565983 -3.738896,2.0952923 c 2.5737603,-1.3766624 0.478839,-5.6862147 -1.2569528,-7.182587 0.8379685,0.5386941 3.0525995,1.137243 4.18984244,1.3766626 L -0.92571618,-5.0872947 C -1.4644102,-5.1471492 -3.0206374,-4.90773 -3.738896,-4.7880202 -1.0454259,-5.6259887 -3.798751,-7.3019256 -4.2177352,-8.0201844 l 2.9927446,0.7781137 -0.059855,-1.0175332 0.1795647,1.077388 c 2.5139055,0.5386941 4.0102777,1.6160821 1.4963723,3.6511484 l -0.95767871,-0.1795646 c 0,0 -0.17956463,-0.8978234 -0.17956463,-1.3168077 0.95767823,0.1197098 1.49637225,0.4189843 1.1372429,1.4963723 C 3.0247067,-3.231793 3.3239812,1.6164533 1.3487697,3.3522451 L 0.51080125,3.4719549 c 0,0 -0.35912936,-2.5737604 -0.35912936,-2.5737604 C 1.5283344,1.0179043 2.6057224,1.3770337 1.3487697,3.3522451 Z"
     class="fil0"
     inkscape:connector-curvature="0"
     style="clip-rule:evenodd;fill:#ffffff;fill-rule:evenodd;stroke-width:0.05985489;image-rendering:optimizeQuality;shape-rendering:geometricPrecision;text-rendering:geometricPrecision" /></svg>