<?xml version="1.0" encoding="UTF-8" standalone="no"?>
<svg
   xmlns:dc="http://purl.org/dc/elements/1.1/"
   xmlns:cc="http://creativecommons.org/ns#"
   xmlns:rdf="http://www.w3.org/1999/02/22-rdf-syntax-ns#"
   xmlns:svg="http://www.w3.org/2000/svg"
   xmlns="http://www.w3.org/2000/svg"
   xmlns:sodipodi="http://sodipodi.sourceforge.net/DTD/sodipodi-0.dtd"
   xmlns:inkscape="http://www.inkscape.org/namespaces/inkscape"
   xml:space="preserve"
   style="enable-background:new 0 0 512.001 512.001;"
   viewBox="0 0 512.001 512.001"
   y="0px"
   x="0px"
   id="Layer_1"
   version="1.1"
   sodipodi:docname="rond-bank.svg"
   inkscape:version="0.92.1 r15371"
   inkscape:export-filename="D:\Documents\allohibou\img\rond-port.png"
   inkscape:export-xdpi="400"
   inkscape:export-ydpi="400"><defs
     id="defs33" /><sodipodi:namedview
     pagecolor="#ffffff"
     bordercolor="#666666"
     borderopacity="1"
     objecttolerance="10"
     gridtolerance="10"
     guidetolerance="10"
     inkscape:pageopacity="0"
     inkscape:pageshadow="2"
     inkscape:window-width="1920"
     inkscape:window-height="1001"
     id="namedview31"
     showgrid="false"
     inkscape:zoom="3.6874929"
     inkscape:cx="3.6746052"
     inkscape:cy="523.96698"
     inkscape:window-x="-9"
     inkscape:window-y="-9"
     inkscape:window-maximized="1"
     inkscape:current-layer="Layer_1" /><metadata
     id="metadata159"><rdf:RDF><cc:Work
         rdf:about=""><dc:format>image/svg+xml</dc:format><dc:type
           rdf:resource="http://purl.org/dc/dcmitype/StillImage" /><dc:title /></cc:Work></rdf:RDF></metadata><ellipse
     ry="15.47317"
     rx="15.659593"
     cy="1.3989621"
     cx="2.403769"
     id="path1322"
     style="display:inline;fill:#ffffff;fill-opacity:1;stroke:#000000;stroke-width:1.70032859;stroke-miterlimit:4;stroke-dasharray:none;stroke-dashoffset:0;stroke-opacity:1" /><path
     style="opacity:1;fill:#ffffff;fill-opacity:1;stroke:#ffffff;stroke-width:0.04801503;stroke-linejoin:round;stroke-miterlimit:4;stroke-dasharray:none;stroke-dashoffset:0;stroke-opacity:1"
     d="m -7.6017661,-3.7681101 v -1.845672 h 0.3355767 0.3355767 v 0.8389418 0.8389419 h 0.9827605 0.9827605 v -0.8389419 -0.8389418 h 0.3355767 0.3355767 v 0.8389418 0.8389419 h 1.0067303 1.0067302 v -0.8389419 -0.8389418 h 0.3355767 0.3355768 v 1.845672 1.8456721 h -2.9962209 -2.9962209 z m 2.0134604,0.8389419 V -3.264745 h -0.3595465 -0.3595465 v 0.3355768 0.3355767 h 0.3595465 0.3595465 z m 1.342307,0 V -3.264745 h -0.3595465 -0.3595465 v 0.3355768 0.3355767 h 0.3595465 0.3595465 z m 1.3423069,0 V -3.264745 h -0.3595465 -0.3595465 v 0.3355768 0.3355767 h 0.3595465 0.3595465 z"
     id="path4664"
     inkscape:connector-curvature="0" /><g
     id="g4513"
     transform="matrix(0.03707308,0,0,0.03707308,-7.0869395,-10.09176)"><path
       id="path4485"
       d="M 498,447 H 16 c -9.284,3 -16,9.716 -16,18 v 32 c 0,8.284 6.716,15 15,15 h 482 c 8.284,0 15,-6.716 15,-15 v -32 c 0,-8.284 -6.716,-15 -14,-18 z"
       inkscape:connector-curvature="0" /><path
       id="path4487"
       d="m 502.749,101.146 -241,-100 c -3.681,-1.527 -7.817,-1.527 -11.498,0 l -241,100 C 3.65,103.469 0,108.937 0,115 v 30 c 0,8.284 6.716,15 15,15 h 482 c 8.284,0 15,-6.716 15,-15 v -30 c 0,-6.063 -3.65,-11.531 -9.251,-13.854 z M 346,115 H 166 c -8.284,0 -15,-6.716 -15,-15 0,-8.284 6.716,-15 15,-15 h 180 c 8.284,0 15,6.716 15,15 0,8.284 -6.716,15 -15,15 z"
       inkscape:connector-curvature="0" /><path
       id="path4489"
       d="m 28.5,390 v 30 h 115 v -30 c 0,-8.284 -6.716,-15 -15,-15 h -85 c -8.284,0 -15,6.716 -15,15 z"
       inkscape:connector-curvature="0" /><path
       id="path4491"
       d="m 48.5,190 h 75 v 155 h -75 z"
       inkscape:connector-curvature="0" /><path
       id="path4493"
       d="m 388.5,190 h 75 v 155 h -75 z"
       inkscape:connector-curvature="0" /><path
       id="path4495"
       d="m 368.5,390 v 30 h 115 v -30 c 0,-8.284 -6.716,-15 -15,-15 h -85 c -8.284,0 -15,6.716 -15,15 z"
       inkscape:connector-curvature="0" /><path
       id="path4497"
       d="m 256,350 c -8.271,0 -15,-6.729 -15,-15 0,-8.284 -6.716,-15 -15,-15 -8.284,0 -15,6.716 -15,15 0,19.555 12.541,36.228 30,42.42 V 385 c 0,8.284 6.716,15 15,15 8.284,0 15,-6.716 15,-15 v -7.58 c 17.459,-6.192 30,-22.865 30,-42.42 0,-24.813 -20.187,-45 -45,-45 -8.271,0 -15,-6.729 -15,-15 0,-8.271 6.729,-15 15,-15 8.271,0 15,6.729 15,15 0,8.284 6.716,15 15,15 8.284,0 15,-6.716 15,-15 0,-19.555 -12.541,-36.228 -30,-42.42 V 225 c 0,-8.284 -6.716,-15 -15,-15 -8.284,0 -15,6.716 -15,15 v 7.58 c -17.459,6.192 -30,22.865 -30,42.42 0,24.813 20.187,45 45,45 8.271,0 15,6.729 15,15 0,8.271 -6.729,15 -15,15 z"
       inkscape:connector-curvature="0" /></g></svg>