<?xml version="1.0" encoding="UTF-8" standalone="no"?>
<svg
   xmlns:dc="http://purl.org/dc/elements/1.1/"
   xmlns:cc="http://creativecommons.org/ns#"
   xmlns:rdf="http://www.w3.org/1999/02/22-rdf-syntax-ns#"
   xmlns:svg="http://www.w3.org/2000/svg"
   xmlns="http://www.w3.org/2000/svg"
   xml:space="preserve"
   style="enable-background:new 0 0 512.001 512.001;"
   viewBox="0 0 512.001 512.001"
   y="0px"
   x="0px"
   id="Capa_1"
   version="1.1"><metadata
     id="metadata97"><rdf:RDF><cc:Work
         rdf:about=""><dc:format>image/svg+xml</dc:format><dc:type
           rdf:resource="http://purl.org/dc/dcmitype/StillImage" /><dc:title></dc:title></cc:Work></rdf:RDF></metadata><defs
     id="defs95" /><path
     id="path2"
     d="m 56.547529,1.8108825 c -42.603,2.239 -87.788,2.242 -130.451999,0 l -11.509,20.4439995 c -2.841,5.047 0.693,11.255 6.627,11.605 45.743999,2.696 93.978999,2.65 139.920999,-0.19 6.018,-0.372 9.592,-6.672 6.71,-11.791 z"
     style="fill:#e4eaf8" /><path
     id="path4"
     d="m -64.55047,28.064882 11.118,-25.3619995 c -6.92,-0.245 -13.755,-0.539 -20.472,-0.892 l -11.509,20.4439995 c -2.841,5.047 0.693,11.255 6.627,11.605 4.414,0.26 8.875,0.489 13.361,0.699 -0.29,-2.116 -0.051,-4.383 0.875,-6.494 z"
     style="fill:#d8dce5" /><path
     id="path6"
     d="m -8.6784707,-165.73412 c -141.3849993,0 -255.9999993,-23.726 -255.9999993,-52.994 v 169.475002 c 0,24.653 81.328,45.3740005 191.475,51.2950005 V -77.003118 c 0,-4.836 3.852,-8.756 8.603,-8.756 H 47.243529 c 4.751,0 8.603,3.921 8.603,8.756 V 2.0418825 C 165.99353,-3.8791175 247.32153,-24.599118 247.32153,-49.253118 V -218.72812 c 0,29.268 -114.615,52.994 -256.0000007,52.994 z"
     style="fill:#5e6377" /><path
     id="path8"
     d="m -244.07347,-197.87012 c -13.255,-6.402 -20.605,-13.452 -20.605,-20.858 v 169.475002 c 0,7.406 7.349,14.457 20.605,20.859 z"
     style="fill:#505668" /><path
     id="path10"
     d="m -73.90447,-39.523118 v -38.513 c 0,-4.803 3.894,-8.697 8.697,-8.697 H 47.851529 c 4.803,0 8.697,3.894 8.697,8.697 v 38.513 c 109.786001,-5.971 190.768001,-26.653 190.774001,-51.253 V -218.72612 c -0.003,14.633 -28.656,27.881 -74.981,37.47 -2.895,0.599 -5.86,1.184 -8.891,1.755 -3.031,0.57 -6.128,1.126 -9.289,1.666 -4.741,0.81 -9.626,1.585 -14.645,2.324 -88.449001,13.021 -207.613,13.069 -296.39,0 -25.151,-3.702 -107.805,-17.691 -107.805,-43.217 v 127.950002 c 0,24.601 80.984,45.284 190.774,51.255 z"
     style="fill:#707487" /><g
     transform="translate(-264.67847,-442.57712)"
     id="g16"><path
       id="path12"
       d="M 20.605,372.657 V 244.707 C 20.587,244.698 20.571,244.69 20.554,244.681 12.005,240.547 0,233.306 0,223.849 v 127.95 c 0,7.406 7.349,14.456 20.605,20.858 z"
       style="fill:#5e6377" /><path
       id="path14"
       d="m 191.193,361.879 c 1.125,-3.5 4.404,-6.034 8.278,-6.034 H 312.53 c 3.874,0 7.153,2.534 8.278,6.034 109.999,-5.941 191.187,-26.645 191.193,-51.276 v -86.752 c -0.003,14.633 -28.656,27.881 -74.981,37.47 -2.895,0.599 -5.86,1.184 -8.891,1.755 -3.031,0.57 -6.128,1.126 -9.289,1.666 -4.741,0.81 -9.626,1.585 -14.645,2.324 -88.449,13.021 -207.613,13.069 -296.39,0 C 82.654,263.364 0,249.375 0,223.849 V 310.6 c 0,24.633 81.19,45.338 191.193,51.279 z"
       style="fill:#5e6377" /></g><path
     id="path18"
     d="m -244.07347,-111.11912 v -86.751 c -0.018,-0.009 -0.034,-0.017 -0.051,-0.026 v 0 c -4.655,-2.251 -5.576,-3.03 -6.606,-3.546 -0.074,-0.044 -4.101,-2.609 -4.101,-2.692 -2.938,-2.125 -5.73,-4.623 -7.632,-7.611 v 0 c -0.861,-1.345 -1.487,-2.7 -1.875,-4.236 v 0 c -0.233,-0.944 -0.34,-1.861 -0.34,-2.747 v 86.751 c 0,7.407 7.349,14.457 20.605,20.858 z"
     style="fill:#505668" /><path
     id="path20"
     d="m -8.6784707,-166.76412 c -97.8339993,0 -255.9999993,-22.696 -255.9999993,-51.963 v 43.856 c 0,29.268 114.615,52.994 255.9999993,52.994 141.3840007,0 256.0000007,-23.726 256.0000007,-52.994 v -43.856 c 0,29.267 -149.158001,51.963 -256.0000007,51.963 z"
     style="fill:#707487" /><path
     id="path22"
     d="m -250.73147,-201.44112 c -0.074,-0.044 -4.101,-2.609 -4.101,-2.692 -2.938,-2.125 -5.73,-4.623 -7.632,-7.611 v 0 c -1.357,-2.121 -2.214,-4.464 -2.214,-6.983 v 43.855 c 0,7.406 7.35,14.456 20.605,20.858 v -43.856 c -0.018,-0.009 -0.034,-0.017 -0.051,-0.026 -4.655,-2.25 -5.576,-3.03 -6.607,-3.545 z"
     style="fill:#5e6377" /><path
     id="path24"
     d="M 47.850529,-86.732118 H -65.20747 c -4.803,0 -8.697,3.894 -8.697,8.697 V 2.0028825 c 42.602999,2.317 87.787999,2.32 130.451999,0 V -78.035118 c 0,-4.803 -3.894,-8.697 -8.697,-8.697 z"
     style="fill:#008cff" /><path
     id="path26"
     d="m -53.29947,-79.688118 c 0,-2.842 1.305,-5.377 3.347999,-7.044 H -65.20747 c -4.803,0 -8.697,3.894 -8.697,8.697 V 2.0028825 c 6.76,0.368 13.639,0.674 20.605,0.927 z"
     style="fill:#0074ff" /><path
     id="path28"
     d="M 20.401529,3.3948825 V -33.141118 c 0,-3.524 -2.857,-6.381 -6.381,-6.381 h -45.398 c -3.524,0 -6.381,2.857 -6.381,6.381 V 3.3948825 c 18.94,0.444 37.80000026,0.478 58.16,0 z"
     style="fill:#5bddfc" /><path
     id="path30"
     d="m -17.153471,-34.475118 c 0,-1.992 0.844,-3.782 2.187,-5.048 h -16.411 c -3.524,0 -6.381,2.857 -6.381,6.381 V 3.3938825 c 6.785,0.159 13.672,0.245 20.605,0.295 z"
     style="fill:#00c3ff" /><ellipse
     id="ellipse32"
     ry="53.400002"
     rx="256"
     cy="-218.31613"
     cx="-8.6784697"
     style="fill:#e4eaf8" /><path
     id="path34"
     d="m -244.07347,-218.31912 c 0,-28.773 109.091,-52.227 245.6979993,-53.355 -3.419,-0.028 -6.85,-0.047 -10.302,-0.047 -141.3849993,0 -255.9999993,23.909 -255.9999993,53.402 0,29.493 114.615,53.402 255.9999993,53.402 3.452,0 6.883,-0.019 10.302,-0.047 -136.6069993,-1.128 -245.6979993,-24.582 -245.6979993,-53.355 z"
     style="fill:#d8dce5" /><ellipse
     id="ellipse36"
     ry="32.862"
     rx="157.53"
     cy="-197.77612"
     cx="-8.6784697"
     style="fill:#5ec62e" /><path
     id="path38"
     d="m -145.60547,-197.77912 c 0,-17.427 65.031,-31.683 147.2299993,-32.79 -3.407,-0.046 -6.84,-0.072 -10.302,-0.072 -87.0029993,0 -157.5319993,14.712 -157.5319993,32.861 0,18.149 70.53,32.862 157.5319993,32.862 3.462,0 6.896,-0.026 10.302,-0.072 -82.1999993,-1.106 -147.2299993,-15.362 -147.2299993,-32.789 z"
     style="fill:#50b21d" /><g
     transform="translate(-264.67847,-442.57712)"
     id="g44"><path
       id="path40"
       d="m 201.546,231.576 c -4.267,0 -7.727,-3.459 -7.727,-7.727 V 41.31 c 0,-4.267 3.459,-7.727 7.727,-7.727 4.267,0 7.727,3.459 7.727,7.727 v 182.54 c 0,4.267 -3.46,7.726 -7.727,7.726 z"
       style="fill:#707487" /><path
       id="path42"
       d="m 310.454,231.576 c -4.267,0 -7.727,-3.459 -7.727,-7.727 V 41.31 c 0,-4.267 3.459,-7.727 7.727,-7.727 4.268,0 7.727,3.459 7.727,7.727 v 182.54 c 0,4.267 -3.46,7.726 -7.727,7.726 z"
       style="fill:#707487" /></g><path
     id="path46"
     d="M 63.584529,-299.08012 H -80.94147 c -2.874,0 -5.203,-2.33 -5.203,-5.203 v -74.383 c 0,-2.874 2.33,-5.203 5.203,-5.203 H 63.583529 c 2.874,0 5.203,2.33 5.203,5.203 v 74.383 c 0.001,2.874 -2.329,5.203 -5.202,5.203 z"
     style="fill:#00c3ff" /><path
     id="path48"
     d="m -65.53947,-304.44012 v -74.069 c 0,-2.961 2.4,-5.361 5.361,-5.361 h -20.605 c -2.961,0 -5.361,2.4 -5.361,5.361 v 74.068 c 0,2.96 2.4,5.361 5.361,5.361 h 20.605 c -2.961,0 -5.361,-2.4 -5.361,-5.36 z"
     style="fill:#00aaf0" /><g
     transform="translate(-264.67847,-442.57712)"
     id="g60"><path
       id="path50"
       d="m 227.554,121.51 h -17.031 c -4.267,0 -7.727,-3.459 -7.727,-7.727 0,-4.268 3.459,-7.727 7.727,-7.727 h 17.031 c 4.267,0 7.727,3.459 7.727,7.727 0,4.268 -3.459,7.727 -7.727,7.727 z"
       style="fill:#5bddfc" /><path
       id="path52"
       d="m 301.477,121.51 h -17.032 c -4.267,0 -7.727,-3.459 -7.727,-7.727 0,-4.268 3.459,-7.727 7.727,-7.727 h 17.032 c 4.267,0 7.727,3.459 7.727,7.727 0,4.268 -3.459,7.727 -7.727,7.727 z"
       style="fill:#5bddfc" /><path
       id="path54"
       d="m 257.713,121.51 h -3.426 c -4.267,0 -7.727,-3.459 -7.727,-7.727 0,-4.268 3.459,-7.727 7.727,-7.727 h 3.426 c 4.267,0 7.727,3.459 7.727,7.727 0,4.268 -3.46,7.727 -7.727,7.727 z"
       style="fill:#5bddfc" /><path
       id="path56"
       d="m 294.675,96.144 h -3.426 c -4.267,0 -7.727,-3.459 -7.727,-7.727 0,-4.268 3.459,-7.727 7.727,-7.727 h 3.426 c 4.267,0 7.727,3.459 7.727,7.727 0,4.268 -3.46,7.727 -7.727,7.727 z"
       style="fill:#5bddfc" /><path
       id="path58"
       d="m 220.752,96.144 h -3.426 c -4.267,0 -7.727,-3.459 -7.727,-7.727 0,-4.268 3.459,-7.727 7.727,-7.727 h 3.426 c 4.267,0 7.727,3.459 7.727,7.727 0,4.268 -3.46,7.727 -7.727,7.727 z"
       style="fill:#5bddfc" /></g><g
     transform="translate(-264.67847,-442.57712)"
     id="g62" /><g
     transform="translate(-264.67847,-442.57712)"
     id="g64" /><g
     transform="translate(-264.67847,-442.57712)"
     id="g66" /><g
     transform="translate(-264.67847,-442.57712)"
     id="g68" /><g
     transform="translate(-264.67847,-442.57712)"
     id="g70" /><g
     transform="translate(-264.67847,-442.57712)"
     id="g72" /><g
     transform="translate(-264.67847,-442.57712)"
     id="g74" /><g
     transform="translate(-264.67847,-442.57712)"
     id="g76" /><g
     transform="translate(-264.67847,-442.57712)"
     id="g78" /><g
     transform="translate(-264.67847,-442.57712)"
     id="g80" /><g
     transform="translate(-264.67847,-442.57712)"
     id="g82" /><g
     transform="translate(-264.67847,-442.57712)"
     id="g84" /><g
     transform="translate(-264.67847,-442.57712)"
     id="g86" /><g
     transform="translate(-264.67847,-442.57712)"
     id="g88" /><g
     transform="translate(-264.67847,-442.57712)"
     id="g90" /></svg>