<?xml version="1.0" encoding="UTF-8" standalone="no"?>
<svg
   xmlns:dc="http://purl.org/dc/elements/1.1/"
   xmlns:cc="http://creativecommons.org/ns#"
   xmlns:rdf="http://www.w3.org/1999/02/22-rdf-syntax-ns#"
   xmlns:svg="http://www.w3.org/2000/svg"
   xmlns="http://www.w3.org/2000/svg"
   xml:space="preserve"
   style="enable-background:new 0 0 512 512;"
   viewBox="0 0 512 512"
   y="0px"
   x="0px"
   id="Capa_1"
   version="1.1"><metadata
     id="metadata45"><rdf:RDF><cc:Work
         rdf:about=""><dc:format>image/svg+xml</dc:format><dc:type
           rdf:resource="http://purl.org/dc/dcmitype/StillImage" /><dc:title></dc:title></cc:Work></rdf:RDF></metadata><defs
     id="defs43" /><polygon
     transform="translate(-242.98305,-379.66102)"
     id="polygon2"
     points="44.578,272.738 0,384.158 132.903,384.158 135.742,225.403 "
     style="fill:#78777f" /><polygon
     transform="translate(-242.98305,-379.66102)"
     id="polygon4"
     points="468.375,282.054 358.819,213.051 298.768,128.332 298.418,127.842 137.654,177.058 129.081,228.866 122.96,265.858 108.344,354.148 105.854,369.153 103.373,384.158 512,384.158 472.207,291.017 "
     style="fill:#abaab0" /><polygon
     transform="translate(-242.98305,-379.66102)"
     id="polygon6"
     points="452.151,289.566 420.319,287.255 243.24,274.411 285.524,163.174 292.276,145.418 298.768,128.332 358.819,213.051 468.375,282.054 472.207,291.017 "
     style="fill:#88868f" /><polygon
     transform="translate(-242.98305,-379.66102)"
     id="polygon8"
     points="452.151,289.566 420.319,287.255 243.24,274.411 358.819,213.051 468.375,282.054 472.207,291.017 "
     style="fill:#c5c3ca" /><g
     transform="translate(-242.98305,-379.66102)"
     id="g10" /><g
     transform="translate(-242.98305,-379.66102)"
     id="g12" /><g
     transform="translate(-242.98305,-379.66102)"
     id="g14" /><g
     transform="translate(-242.98305,-379.66102)"
     id="g16" /><g
     transform="translate(-242.98305,-379.66102)"
     id="g18" /><g
     transform="translate(-242.98305,-379.66102)"
     id="g20" /><g
     transform="translate(-242.98305,-379.66102)"
     id="g22" /><g
     transform="translate(-242.98305,-379.66102)"
     id="g24" /><g
     transform="translate(-242.98305,-379.66102)"
     id="g26" /><g
     transform="translate(-242.98305,-379.66102)"
     id="g28" /><g
     transform="translate(-242.98305,-379.66102)"
     id="g30" /><g
     transform="translate(-242.98305,-379.66102)"
     id="g32" /><g
     transform="translate(-242.98305,-379.66102)"
     id="g34" /><g
     transform="translate(-242.98305,-379.66102)"
     id="g36" /><g
     transform="translate(-242.98305,-379.66102)"
     id="g38" /></svg>