<?xml version="1.0" encoding="UTF-8" standalone="no"?>
<svg
   xmlns:dc="http://purl.org/dc/elements/1.1/"
   xmlns:cc="http://creativecommons.org/ns#"
   xmlns:rdf="http://www.w3.org/1999/02/22-rdf-syntax-ns#"
   xmlns:svg="http://www.w3.org/2000/svg"
   xmlns="http://www.w3.org/2000/svg"
   xmlns:sodipodi="http://sodipodi.sourceforge.net/DTD/sodipodi-0.dtd"
   xmlns:inkscape="http://www.inkscape.org/namespaces/inkscape"
   xml:space="preserve"
   enable-background="new 0 0 270 414"
   viewBox="0 0 437.36704 270.95251"
   height="270.95251"
   width="437.36703"
   y="0px"
   x="0px"
   id="RULERS_x2F_GUIDES"
   version="1.1"
   sodipodi:docname="Map-v2-clean.svg"
   inkscape:version="0.92.1 r15371"><sodipodi:namedview
     pagecolor="#ffffff"
     bordercolor="#666666"
     borderopacity="1"
     objecttolerance="10"
     gridtolerance="10"
     guidetolerance="10"
     inkscape:pageopacity="0"
     inkscape:pageshadow="2"
     inkscape:window-width="1920"
     inkscape:window-height="1001"
     id="namedview2404"
     showgrid="false"
     inkscape:zoom="2.4635638"
     inkscape:cx="227.61382"
     inkscape:cy="141.47386"
     inkscape:window-x="-9"
     inkscape:window-y="-9"
     inkscape:window-maximized="1"
     inkscape:current-layer="g6402" /><metadata
     id="metadata515"><rdf:RDF><cc:Work
         rdf:about=""><dc:format>image/svg+xml</dc:format><dc:type
           rdf:resource="http://purl.org/dc/dcmitype/StillImage" /><dc:title></dc:title></cc:Work></rdf:RDF></metadata><defs
     id="defs513"><marker
       style="overflow:visible"
       id="DotM"
       refX="0"
       refY="0"
       orient="auto"><path
         transform="matrix(0.4,0,0,0.4,2.96,0.4)"
         style="fill:#ff0000;fill-opacity:1;fill-rule:evenodd;stroke:#ff0000;stroke-width:1.00000003pt;stroke-opacity:1"
         d="m -2.5,-1 c 0,2.76 -2.24,5 -5,5 -2.76,0 -5,-2.24 -5,-5 0,-2.76 2.24,-5 5,-5 2.76,0 5,2.24 5,5 z"
         id="path9210" /></marker><marker
       orient="auto"
       refY="0"
       refX="0"
       id="marker2341"
       style="overflow:visible"><path
         id="path2339"
         d="M 5.77,0 -2.88,5 V -5 Z"
         style="fill:#ffffff;fill-rule:evenodd;stroke:#ff0000;stroke-width:1.00000003pt;stroke-opacity:1"
         transform="matrix(-0.4,0,0,-0.4,1.8,0)" /></marker><marker
       style="overflow:visible"
       id="EmptyTriangleInM"
       refX="0"
       refY="0"
       orient="auto"><path
         transform="matrix(-0.4,0,0,-0.4,1.8,0)"
         style="fill:#ffffff;fill-rule:evenodd;stroke:#ff0000;stroke-width:1.00000003pt;stroke-opacity:1"
         d="M 5.77,0 -2.88,5 V -5 Z"
         id="path1760" /></marker><marker
       style="overflow:visible"
       id="Arrow1Lstart"
       refX="0"
       refY="0"
       orient="auto"><path
         transform="matrix(0.8,0,0,0.8,10,0)"
         style="fill:#ff0000;fill-opacity:1;fill-rule:evenodd;stroke:#ff0000;stroke-width:1.00000003pt;stroke-opacity:1"
         d="M 0,0 5,-5 -12.5,0 5,5 Z"
         id="path1606" /></marker><marker
       orient="auto"
       refY="0"
       refX="0"
       id="marker2341-6"
       style="overflow:visible"><path
         id="path2339-1"
         d="M 5.77,0 -2.88,5 V -5 Z"
         style="fill:#ffffff;fill-rule:evenodd;stroke:#ff0000;stroke-width:1.00000003pt;stroke-opacity:1"
         transform="matrix(-0.4,0,0,-0.4,1.8,0)" /></marker><filter
       id="filter6695"
       style="color-interpolation-filters:sRGB"><feColorMatrix
         id="feColorMatrix6693"
         values="0.6 0 0 0.32 0.2 0 0.6 0 0.32 0.2 0 0 0.6 0.32 0.2 0 0 0 1 0" /></filter><filter
       id="filter49027"
       style="color-interpolation-filters:sRGB"><feColorMatrix
         id="feColorMatrix49025"
         values="3 0 0 -0.8 -1 0 3 0 -0.8 -1 0 0 3 -0.8 -1 0 0 0 1 0" /></filter><filter
       id="filter49031"
       style="color-interpolation-filters:sRGB"><feColorMatrix
         id="feColorMatrix49029"
         values="3 0 0 -0.8 -1 0 3 0 -0.8 -1 0 0 3 -0.8 -1 0 0 0 1 0" /></filter><filter
       id="filter49035"
       style="color-interpolation-filters:sRGB"><feColorMatrix
         id="feColorMatrix49033"
         values="3 0 0 -0.8 -1 0 3 0 -0.8 -1 0 0 3 -0.8 -1 0 0 0 1 0" /></filter><filter
       id="filter49039"
       style="color-interpolation-filters:sRGB"><feColorMatrix
         id="feColorMatrix49037"
         values="3 0 0 -0.8 -1 0 3 0 -0.8 -1 0 0 3 -0.8 -1 0 0 0 1 0" /></filter><filter
       id="filter49043"
       style="color-interpolation-filters:sRGB"><feColorMatrix
         id="feColorMatrix49041"
         values="3 0 0 -0.8 -1 0 3 0 -0.8 -1 0 0 3 -0.8 -1 0 0 0 1 0" /></filter><filter
       id="filter49047"
       style="color-interpolation-filters:sRGB"><feColorMatrix
         id="feColorMatrix49045"
         values="3 0 0 -0.8 -1 0 3 0 -0.8 -1 0 0 3 -0.8 -1 0 0 0 1 0" /></filter><filter
       id="filter49051"
       style="color-interpolation-filters:sRGB"><feColorMatrix
         id="feColorMatrix49049"
         values="3 0 0 -0.8 -1 0 3 0 -0.8 -1 0 0 3 -0.8 -1 0 0 0 1 0" /></filter><filter
       id="filter49055"
       style="color-interpolation-filters:sRGB"><feColorMatrix
         id="feColorMatrix49053"
         values="3 0 0 -0.8 -1 0 3 0 -0.8 -1 0 0 3 -0.8 -1 0 0 0 1 0" /></filter><filter
       id="filter49059"
       style="color-interpolation-filters:sRGB"><feColorMatrix
         id="feColorMatrix49057"
         values="3 0 0 -0.8 -1 0 3 0 -0.8 -1 0 0 3 -0.8 -1 0 0 0 1 0" /></filter><filter
       id="filter49063"
       style="color-interpolation-filters:sRGB"><feColorMatrix
         id="feColorMatrix49061"
         values="3 0 0 -0.8 -1 0 3 0 -0.8 -1 0 0 3 -0.8 -1 0 0 0 1 0" /></filter><filter
       id="filter49067"
       style="color-interpolation-filters:sRGB"><feColorMatrix
         id="feColorMatrix49065"
         values="3 0 0 -0.8 -1 0 3 0 -0.8 -1 0 0 3 -0.8 -1 0 0 0 1 0" /></filter><filter
       id="filter49071"
       style="color-interpolation-filters:sRGB"><feColorMatrix
         id="feColorMatrix49069"
         values="3 0 0 -0.8 -1 0 3 0 -0.8 -1 0 0 3 -0.8 -1 0 0 0 1 0" /></filter><filter
       id="filter49075"
       style="color-interpolation-filters:sRGB"><feColorMatrix
         id="feColorMatrix49073"
         values="3 0 0 -0.8 -1 0 3 0 -0.8 -1 0 0 3 -0.8 -1 0 0 0 1 0" /></filter><filter
       id="filter49079"
       style="color-interpolation-filters:sRGB"><feColorMatrix
         id="feColorMatrix49077"
         values="3 0 0 -0.8 -1 0 3 0 -0.8 -1 0 0 3 -0.8 -1 0 0 0 1 0" /></filter><filter
       id="filter49083"
       style="color-interpolation-filters:sRGB"><feColorMatrix
         id="feColorMatrix49081"
         values="3 0 0 -0.8 -1 0 3 0 -0.8 -1 0 0 3 -0.8 -1 0 0 0 1 0" /></filter><filter
       id="filter49087"
       style="color-interpolation-filters:sRGB"><feColorMatrix
         id="feColorMatrix49085"
         values="3 0 0 -0.8 -1 0 3 0 -0.8 -1 0 0 3 -0.8 -1 0 0 0 1 0" /></filter><filter
       id="filter49091"
       style="color-interpolation-filters:sRGB"><feColorMatrix
         id="feColorMatrix49089"
         values="3 0 0 -0.8 -1 0 3 0 -0.8 -1 0 0 3 -0.8 -1 0 0 0 1 0" /></filter><filter
       id="filter49095"
       style="color-interpolation-filters:sRGB"><feColorMatrix
         id="feColorMatrix49093"
         values="3 0 0 -0.8 -1 0 3 0 -0.8 -1 0 0 3 -0.8 -1 0 0 0 1 0" /></filter><filter
       id="filter49099"
       style="color-interpolation-filters:sRGB"><feColorMatrix
         id="feColorMatrix49097"
         values="3 0 0 -0.8 -1 0 3 0 -0.8 -1 0 0 3 -0.8 -1 0 0 0 1 0" /></filter><filter
       id="filter49103"
       style="color-interpolation-filters:sRGB"><feColorMatrix
         id="feColorMatrix49101"
         values="3 0 0 -0.8 -1 0 3 0 -0.8 -1 0 0 3 -0.8 -1 0 0 0 1 0" /></filter><filter
       id="filter49107"
       style="color-interpolation-filters:sRGB"><feColorMatrix
         id="feColorMatrix49105"
         values="3 0 0 -0.8 -1 0 3 0 -0.8 -1 0 0 3 -0.8 -1 0 0 0 1 0" /></filter><filter
       id="filter49111"
       style="color-interpolation-filters:sRGB"><feColorMatrix
         id="feColorMatrix49109"
         values="3 0 0 -0.8 -1 0 3 0 -0.8 -1 0 0 3 -0.8 -1 0 0 0 1 0" /></filter><filter
       id="filter49115"
       style="color-interpolation-filters:sRGB"><feColorMatrix
         id="feColorMatrix49113"
         values="3 0 0 -0.8 -1 0 3 0 -0.8 -1 0 0 3 -0.8 -1 0 0 0 1 0" /></filter><filter
       id="filter49119"
       style="color-interpolation-filters:sRGB"><feColorMatrix
         id="feColorMatrix49117"
         values="3 0 0 -0.8 -1 0 3 0 -0.8 -1 0 0 3 -0.8 -1 0 0 0 1 0" /></filter><filter
       id="filter49123"
       style="color-interpolation-filters:sRGB"><feColorMatrix
         id="feColorMatrix49121"
         values="3 0 0 -0.8 -1 0 3 0 -0.8 -1 0 0 3 -0.8 -1 0 0 0 1 0" /></filter><filter
       id="filter49127"
       style="color-interpolation-filters:sRGB"><feColorMatrix
         id="feColorMatrix49125"
         values="3 0 0 -0.8 -1 0 3 0 -0.8 -1 0 0 3 -0.8 -1 0 0 0 1 0" /></filter><filter
       id="filter49131"
       style="color-interpolation-filters:sRGB"><feColorMatrix
         id="feColorMatrix49129"
         values="3 0 0 -0.8 -1 0 3 0 -0.8 -1 0 0 3 -0.8 -1 0 0 0 1 0" /></filter><filter
       id="filter49135"
       style="color-interpolation-filters:sRGB"><feColorMatrix
         id="feColorMatrix49133"
         values="3 0 0 -0.8 -1 0 3 0 -0.8 -1 0 0 3 -0.8 -1 0 0 0 1 0" /></filter><filter
       id="filter49139"
       style="color-interpolation-filters:sRGB"><feColorMatrix
         id="feColorMatrix49137"
         values="3 0 0 -0.8 -1 0 3 0 -0.8 -1 0 0 3 -0.8 -1 0 0 0 1 0" /></filter><filter
       id="filter49143"
       style="color-interpolation-filters:sRGB"><feColorMatrix
         id="feColorMatrix49141"
         values="3 0 0 -0.8 -1 0 3 0 -0.8 -1 0 0 3 -0.8 -1 0 0 0 1 0" /></filter><filter
       id="filter49147"
       style="color-interpolation-filters:sRGB"><feColorMatrix
         id="feColorMatrix49145"
         values="3 0 0 -0.8 -1 0 3 0 -0.8 -1 0 0 3 -0.8 -1 0 0 0 1 0" /></filter><filter
       id="filter49151"
       style="color-interpolation-filters:sRGB"><feColorMatrix
         id="feColorMatrix49149"
         values="3 0 0 -0.8 -1 0 3 0 -0.8 -1 0 0 3 -0.8 -1 0 0 0 1 0" /></filter><filter
       id="filter49155"
       style="color-interpolation-filters:sRGB"><feColorMatrix
         id="feColorMatrix49153"
         values="3 0 0 -0.8 -1 0 3 0 -0.8 -1 0 0 3 -0.8 -1 0 0 0 1 0" /></filter><filter
       id="filter49159"
       style="color-interpolation-filters:sRGB"><feColorMatrix
         id="feColorMatrix49157"
         values="3 0 0 -0.8 -1 0 3 0 -0.8 -1 0 0 3 -0.8 -1 0 0 0 1 0" /></filter><filter
       id="filter49163"
       style="color-interpolation-filters:sRGB"><feColorMatrix
         id="feColorMatrix49161"
         values="3 0 0 -0.8 -1 0 3 0 -0.8 -1 0 0 3 -0.8 -1 0 0 0 1 0" /></filter><filter
       id="filter49167"
       style="color-interpolation-filters:sRGB"><feColorMatrix
         id="feColorMatrix49165"
         values="3 0 0 -0.8 -1 0 3 0 -0.8 -1 0 0 3 -0.8 -1 0 0 0 1 0" /></filter><filter
       id="filter49171"
       style="color-interpolation-filters:sRGB"><feColorMatrix
         id="feColorMatrix49169"
         values="3 0 0 -0.8 -1 0 3 0 -0.8 -1 0 0 3 -0.8 -1 0 0 0 1 0" /></filter><filter
       id="filter49175"
       style="color-interpolation-filters:sRGB"><feColorMatrix
         id="feColorMatrix49173"
         values="3 0 0 -0.8 -1 0 3 0 -0.8 -1 0 0 3 -0.8 -1 0 0 0 1 0" /></filter><filter
       id="filter49179"
       style="color-interpolation-filters:sRGB"><feColorMatrix
         id="feColorMatrix49177"
         values="3 0 0 -0.8 -1 0 3 0 -0.8 -1 0 0 3 -0.8 -1 0 0 0 1 0" /></filter><filter
       id="filter49183"
       style="color-interpolation-filters:sRGB"><feColorMatrix
         id="feColorMatrix49181"
         values="3 0 0 -0.8 -1 0 3 0 -0.8 -1 0 0 3 -0.8 -1 0 0 0 1 0" /></filter><filter
       id="filter49187"
       style="color-interpolation-filters:sRGB"><feColorMatrix
         id="feColorMatrix49185"
         values="3 0 0 -0.8 -1 0 3 0 -0.8 -1 0 0 3 -0.8 -1 0 0 0 1 0" /></filter><filter
       id="filter49191"
       style="color-interpolation-filters:sRGB"><feColorMatrix
         id="feColorMatrix49189"
         values="3 0 0 -0.8 -1 0 3 0 -0.8 -1 0 0 3 -0.8 -1 0 0 0 1 0" /></filter><filter
       id="filter49195"
       style="color-interpolation-filters:sRGB"><feColorMatrix
         id="feColorMatrix49193"
         values="3 0 0 -0.8 -1 0 3 0 -0.8 -1 0 0 3 -0.8 -1 0 0 0 1 0" /></filter><filter
       id="filter49199"
       style="color-interpolation-filters:sRGB"><feColorMatrix
         id="feColorMatrix49197"
         values="3 0 0 -0.8 -1 0 3 0 -0.8 -1 0 0 3 -0.8 -1 0 0 0 1 0" /></filter><filter
       id="filter49203"
       style="color-interpolation-filters:sRGB"><feColorMatrix
         id="feColorMatrix49201"
         values="3 0 0 -0.8 -1 0 3 0 -0.8 -1 0 0 3 -0.8 -1 0 0 0 1 0" /></filter><filter
       id="filter49207"
       style="color-interpolation-filters:sRGB"><feColorMatrix
         id="feColorMatrix49205"
         values="3 0 0 -0.8 -1 0 3 0 -0.8 -1 0 0 3 -0.8 -1 0 0 0 1 0" /></filter><filter
       id="filter49211"
       style="color-interpolation-filters:sRGB"><feColorMatrix
         id="feColorMatrix49209"
         values="3 0 0 -0.8 -1 0 3 0 -0.8 -1 0 0 3 -0.8 -1 0 0 0 1 0" /></filter><filter
       id="filter49215"
       style="color-interpolation-filters:sRGB"><feColorMatrix
         id="feColorMatrix49213"
         values="3 0 0 -0.8 -1 0 3 0 -0.8 -1 0 0 3 -0.8 -1 0 0 0 1 0" /></filter><filter
       id="filter49219"
       style="color-interpolation-filters:sRGB"><feColorMatrix
         id="feColorMatrix49217"
         values="3 0 0 -0.8 -1 0 3 0 -0.8 -1 0 0 3 -0.8 -1 0 0 0 1 0" /></filter><filter
       id="filter49223"
       style="color-interpolation-filters:sRGB"><feColorMatrix
         id="feColorMatrix49221"
         values="3 0 0 -0.8 -1 0 3 0 -0.8 -1 0 0 3 -0.8 -1 0 0 0 1 0" /></filter><filter
       id="filter49031-5"
       style="color-interpolation-filters:sRGB"><feColorMatrix
         id="feColorMatrix49029-5"
         values="3 0 0 -0.8 -1 0 3 0 -0.8 -1 0 0 3 -0.8 -1 0 0 0 1 0" /></filter><filter
       id="filter49035-5"
       style="color-interpolation-filters:sRGB"><feColorMatrix
         id="feColorMatrix49033-2"
         values="3 0 0 -0.8 -1 0 3 0 -0.8 -1 0 0 3 -0.8 -1 0 0 0 1 0" /></filter><filter
       id="filter49031-8"
       style="color-interpolation-filters:sRGB"><feColorMatrix
         id="feColorMatrix49029-1"
         values="3 0 0 -0.8 -1 0 3 0 -0.8 -1 0 0 3 -0.8 -1 0 0 0 1 0" /></filter><filter
       id="filter49035-8"
       style="color-interpolation-filters:sRGB"><feColorMatrix
         id="feColorMatrix49033-5"
         values="3 0 0 -0.8 -1 0 3 0 -0.8 -1 0 0 3 -0.8 -1 0 0 0 1 0" /></filter><filter
       id="filter49027-9"
       style="color-interpolation-filters:sRGB"><feColorMatrix
         id="feColorMatrix49025-9"
         values="3 0 0 -0.8 -1 0 3 0 -0.8 -1 0 0 3 -0.8 -1 0 0 0 1 0" /></filter><filter
       id="filter49027-6"
       style="color-interpolation-filters:sRGB"><feColorMatrix
         id="feColorMatrix49025-3"
         values="3 0 0 -0.8 -1 0 3 0 -0.8 -1 0 0 3 -0.8 -1 0 0 0 1 0" /></filter><filter
       id="filter49027-1"
       style="color-interpolation-filters:sRGB"><feColorMatrix
         id="feColorMatrix49025-1"
         values="3 0 0 -0.8 -1 0 3 0 -0.8 -1 0 0 3 -0.8 -1 0 0 0 1 0" /></filter><filter
       id="filter49027-7"
       style="color-interpolation-filters:sRGB"><feColorMatrix
         id="feColorMatrix49025-5"
         values="3 0 0 -0.8 -1 0 3 0 -0.8 -1 0 0 3 -0.8 -1 0 0 0 1 0" /></filter><filter
       id="filter49075-6"
       style="color-interpolation-filters:sRGB"><feColorMatrix
         id="feColorMatrix49073-9"
         values="3 0 0 -0.8 -1 0 3 0 -0.8 -1 0 0 3 -0.8 -1 0 0 0 1 0" /></filter><filter
       id="filter49075-6-8"
       style="color-interpolation-filters:sRGB"><feColorMatrix
         id="feColorMatrix49073-9-1"
         values="3 0 0 -0.8 -1 0 3 0 -0.8 -1 0 0 3 -0.8 -1 0 0 0 1 0" /></filter><filter
       id="filter49075-6-3"
       style="color-interpolation-filters:sRGB"><feColorMatrix
         id="feColorMatrix49073-9-3"
         values="3 0 0 -0.8 -1 0 3 0 -0.8 -1 0 0 3 -0.8 -1 0 0 0 1 0" /></filter><filter
       id="filter49075-6-5"
       style="color-interpolation-filters:sRGB"><feColorMatrix
         id="feColorMatrix49073-9-2"
         values="3 0 0 -0.8 -1 0 3 0 -0.8 -1 0 0 3 -0.8 -1 0 0 0 1 0" /></filter><filter
       id="filter49035-5-0"
       style="color-interpolation-filters:sRGB"><feColorMatrix
         id="feColorMatrix49033-2-3"
         values="3 0 0 -0.8 -1 0 3 0 -0.8 -1 0 0 3 -0.8 -1 0 0 0 1 0" /></filter><filter
       id="filter49035-5-0-0"
       style="color-interpolation-filters:sRGB"><feColorMatrix
         id="feColorMatrix49033-2-3-0"
         values="3 0 0 -0.8 -1 0 3 0 -0.8 -1 0 0 3 -0.8 -1 0 0 0 1 0" /></filter><filter
       id="filter49035-5-0-3"
       style="color-interpolation-filters:sRGB"><feColorMatrix
         id="feColorMatrix49033-2-3-9"
         values="3 0 0 -0.8 -1 0 3 0 -0.8 -1 0 0 3 -0.8 -1 0 0 0 1 0" /></filter><filter
       id="filter49035-5-0-34"
       style="color-interpolation-filters:sRGB"><feColorMatrix
         id="feColorMatrix49033-2-3-7"
         values="3 0 0 -0.8 -1 0 3 0 -0.8 -1 0 0 3 -0.8 -1 0 0 0 1 0" /></filter><filter
       id="filter49039-2"
       style="color-interpolation-filters:sRGB"><feColorMatrix
         id="feColorMatrix49037-8"
         values="3 0 0 -0.8 -1 0 3 0 -0.8 -1 0 0 3 -0.8 -1 0 0 0 1 0" /></filter><filter
       id="filter49039-21"
       style="color-interpolation-filters:sRGB"><feColorMatrix
         id="feColorMatrix49037-0"
         values="3 0 0 -0.8 -1 0 3 0 -0.8 -1 0 0 3 -0.8 -1 0 0 0 1 0" /></filter><filter
       id="filter49039-0"
       style="color-interpolation-filters:sRGB"><feColorMatrix
         id="feColorMatrix49037-1"
         values="3 0 0 -0.8 -1 0 3 0 -0.8 -1 0 0 3 -0.8 -1 0 0 0 1 0" /></filter><filter
       id="filter49039-3"
       style="color-interpolation-filters:sRGB"><feColorMatrix
         id="feColorMatrix49037-2"
         values="3 0 0 -0.8 -1 0 3 0 -0.8 -1 0 0 3 -0.8 -1 0 0 0 1 0" /></filter><filter
       id="filter49075-6-8-1"
       style="color-interpolation-filters:sRGB"><feColorMatrix
         id="feColorMatrix49073-9-1-6"
         values="3 0 0 -0.8 -1 0 3 0 -0.8 -1 0 0 3 -0.8 -1 0 0 0 1 0" /></filter><marker
       orient="auto"
       refY="0"
       refX="0"
       id="marker2341-9"
       style="overflow:visible"><path
         id="path2339-4"
         d="M 5.77,0 -2.88,5 V -5 Z"
         style="fill:#ffffff;fill-rule:evenodd;stroke:#ff0000;stroke-width:1.00000003pt;stroke-opacity:1"
         transform="matrix(-0.4,0,0,-0.4,1.8,0)" /></marker><marker
       style="overflow:visible"
       id="DotM-4"
       refX="0"
       refY="0"
       orient="auto"><path
         transform="matrix(0.4,0,0,0.4,2.96,0.4)"
         style="fill:#ff0000;fill-opacity:1;fill-rule:evenodd;stroke:#ff0000;stroke-width:1.00000003pt;stroke-opacity:1"
         d="m -2.5,-1 c 0,2.76 -2.24,5 -5,5 -2.76,0 -5,-2.24 -5,-5 0,-2.76 2.24,-5 5,-5 2.76,0 5,2.24 5,5 z"
         id="path9210-6" /></marker><marker
       style="overflow:visible"
       id="DotM-4-1"
       refX="0"
       refY="0"
       orient="auto"><path
         transform="matrix(0.4,0,0,0.4,2.96,0.4)"
         style="fill:#ff0000;fill-opacity:1;fill-rule:evenodd;stroke:#ff0000;stroke-width:1.00000003pt;stroke-opacity:1"
         d="m -2.5,-1 c 0,2.76 -2.24,5 -5,5 -2.76,0 -5,-2.24 -5,-5 0,-2.76 2.24,-5 5,-5 2.76,0 5,2.24 5,5 z"
         id="path9210-6-1" /></marker><marker
       style="overflow:visible"
       id="DotM-4-1-7"
       refX="0"
       refY="0"
       orient="auto"><path
         transform="matrix(0.4,0,0,0.4,2.96,0.4)"
         style="fill:#ff0000;fill-opacity:1;fill-rule:evenodd;stroke:#ff0000;stroke-width:1.00000003pt;stroke-opacity:1"
         d="m -2.5,-1 c 0,2.76 -2.24,5 -5,5 -2.76,0 -5,-2.24 -5,-5 0,-2.76 2.24,-5 5,-5 2.76,0 5,2.24 5,5 z"
         id="path9210-6-1-0" /></marker><filter
       id="filter49075-6-5-5"
       style="color-interpolation-filters:sRGB"><feColorMatrix
         id="feColorMatrix49073-9-2-2"
         values="3 0 0 -0.8 -1 0 3 0 -0.8 -1 0 0 3 -0.8 -1 0 0 0 1 0" /></filter><filter
       id="filter49035-8-2"
       style="color-interpolation-filters:sRGB"><feColorMatrix
         id="feColorMatrix49033-5-0"
         values="3 0 0 -0.8 -1 0 3 0 -0.8 -1 0 0 3 -0.8 -1 0 0 0 1 0" /></filter><filter
       id="filter49031-0"
       style="color-interpolation-filters:sRGB"><feColorMatrix
         id="feColorMatrix49029-3"
         values="3 0 0 -0.8 -1 0 3 0 -0.8 -1 0 0 3 -0.8 -1 0 0 0 1 0" /></filter><filter
       id="filter49035-8-2-2"
       style="color-interpolation-filters:sRGB"><feColorMatrix
         id="feColorMatrix49033-5-0-8"
         values="3 0 0 -0.8 -1 0 3 0 -0.8 -1 0 0 3 -0.8 -1 0 0 0 1 0" /></filter><filter
       id="filter49035-8-2-2-7"
       style="color-interpolation-filters:sRGB"><feColorMatrix
         id="feColorMatrix49033-5-0-8-0"
         values="3 0 0 -0.8 -1 0 3 0 -0.8 -1 0 0 3 -0.8 -1 0 0 0 1 0" /></filter><filter
       id="filter49031-0-6"
       style="color-interpolation-filters:sRGB"><feColorMatrix
         id="feColorMatrix49029-3-8"
         values="3 0 0 -0.8 -1 0 3 0 -0.8 -1 0 0 3 -0.8 -1 0 0 0 1 0" /></filter><filter
       id="filter49031-5-9"
       style="color-interpolation-filters:sRGB"><feColorMatrix
         id="feColorMatrix49029-5-1"
         values="3 0 0 -0.8 -1 0 3 0 -0.8 -1 0 0 3 -0.8 -1 0 0 0 1 0" /></filter><filter
       id="filter49031-5-7"
       style="color-interpolation-filters:sRGB"><feColorMatrix
         id="feColorMatrix49029-5-0"
         values="3 0 0 -0.8 -1 0 3 0 -0.8 -1 0 0 3 -0.8 -1 0 0 0 1 0" /></filter><filter
       id="filter49031-5-8"
       style="color-interpolation-filters:sRGB"><feColorMatrix
         id="feColorMatrix49029-5-06"
         values="3 0 0 -0.8 -1 0 3 0 -0.8 -1 0 0 3 -0.8 -1 0 0 0 1 0" /></filter><filter
       id="filter49031-5-4"
       style="color-interpolation-filters:sRGB"><feColorMatrix
         id="feColorMatrix49029-5-19"
         values="3 0 0 -0.8 -1 0 3 0 -0.8 -1 0 0 3 -0.8 -1 0 0 0 1 0" /></filter><filter
       id="filter49067-7"
       style="color-interpolation-filters:sRGB"><feColorMatrix
         id="feColorMatrix49065-0"
         values="3 0 0 -0.8 -1 0 3 0 -0.8 -1 0 0 3 -0.8 -1 0 0 0 1 0" /></filter><filter
       id="filter49027-3"
       style="color-interpolation-filters:sRGB"><feColorMatrix
         id="feColorMatrix49025-0"
         values="3 0 0 -0.8 -1 0 3 0 -0.8 -1 0 0 3 -0.8 -1 0 0 0 1 0" /></filter><filter
       id="filter49039-0-9"
       style="color-interpolation-filters:sRGB"><feColorMatrix
         id="feColorMatrix49037-1-3"
         values="3 0 0 -0.8 -1 0 3 0 -0.8 -1 0 0 3 -0.8 -1 0 0 0 1 0" /></filter><filter
       id="filter49039-0-9-8"
       style="color-interpolation-filters:sRGB"><feColorMatrix
         id="feColorMatrix49037-1-3-3"
         values="3 0 0 -0.8 -1 0 3 0 -0.8 -1 0 0 3 -0.8 -1 0 0 0 1 0" /></filter><filter
       id="filter49039-0-9-0"
       style="color-interpolation-filters:sRGB"><feColorMatrix
         id="feColorMatrix49037-1-3-2"
         values="3 0 0 -0.8 -1 0 3 0 -0.8 -1 0 0 3 -0.8 -1 0 0 0 1 0" /></filter><filter
       id="filter6316"
       style="color-interpolation-filters:sRGB"><feColorMatrix
         id="feColorMatrix6314"
         values="3 0 0 -0.8 -1 0 3 0 -0.8 -1 0 0 3 -0.8 -1 0 0 0 1 0" /></filter><filter
       id="filter6320"
       style="color-interpolation-filters:sRGB"><feColorMatrix
         id="feColorMatrix6318"
         values="3 0 0 -0.8 -1 0 3 0 -0.8 -1 0 0 3 -0.8 -1 0 0 0 1 0" /></filter><filter
       id="filter6324"
       style="color-interpolation-filters:sRGB"><feColorMatrix
         id="feColorMatrix6322"
         values="3 0 0 -0.8 -1 0 3 0 -0.8 -1 0 0 3 -0.8 -1 0 0 0 1 0" /></filter><filter
       id="filter49039-0-9-8-9"
       style="color-interpolation-filters:sRGB"><feColorMatrix
         id="feColorMatrix49037-1-3-3-6"
         values="3 0 0 -0.8 -1 0 3 0 -0.8 -1 0 0 3 -0.8 -1 0 0 0 1 0" /></filter><filter
       id="filter49035-5-0-09"
       style="color-interpolation-filters:sRGB"><feColorMatrix
         id="feColorMatrix49033-2-3-6"
         values="3 0 0 -0.8 -1 0 3 0 -0.8 -1 0 0 3 -0.8 -1 0 0 0 1 0" /></filter><filter
       id="filter49035-5-0-31"
       style="color-interpolation-filters:sRGB"><feColorMatrix
         id="feColorMatrix49033-2-3-2"
         values="3 0 0 -0.8 -1 0 3 0 -0.8 -1 0 0 3 -0.8 -1 0 0 0 1 0" /></filter><filter
       id="filter49031-6"
       style="color-interpolation-filters:sRGB"><feColorMatrix
         id="feColorMatrix49029-19"
         values="3 0 0 -0.8 -1 0 3 0 -0.8 -1 0 0 3 -0.8 -1 0 0 0 1 0" /></filter><filter
       id="filter49031-6-2"
       style="color-interpolation-filters:sRGB"><feColorMatrix
         id="feColorMatrix49029-19-0"
         values="3 0 0 -0.8 -1 0 3 0 -0.8 -1 0 0 3 -0.8 -1 0 0 0 1 0" /></filter><filter
       id="filter49035-5-0-31-8"
       style="color-interpolation-filters:sRGB"><feColorMatrix
         id="feColorMatrix49033-2-3-2-6"
         values="3 0 0 -0.8 -1 0 3 0 -0.8 -1 0 0 3 -0.8 -1 0 0 0 1 0" /></filter><filter
       id="filter49031-6-5"
       style="color-interpolation-filters:sRGB"><feColorMatrix
         id="feColorMatrix49029-19-7"
         values="3 0 0 -0.8 -1 0 3 0 -0.8 -1 0 0 3 -0.8 -1 0 0 0 1 0" /></filter><filter
       id="filter49063-1"
       style="color-interpolation-filters:sRGB"><feColorMatrix
         id="feColorMatrix49061-1"
         values="3 0 0 -0.8 -1 0 3 0 -0.8 -1 0 0 3 -0.8 -1 0 0 0 1 0" /></filter><filter
       id="filter49031-5-8-2"
       style="color-interpolation-filters:sRGB"><feColorMatrix
         id="feColorMatrix49029-5-06-6"
         values="3 0 0 -0.8 -1 0 3 0 -0.8 -1 0 0 3 -0.8 -1 0 0 0 1 0" /></filter><filter
       id="filter49031-5-4-2"
       style="color-interpolation-filters:sRGB"><feColorMatrix
         id="feColorMatrix49029-5-19-1"
         values="3 0 0 -0.8 -1 0 3 0 -0.8 -1 0 0 3 -0.8 -1 0 0 0 1 0" /></filter><filter
       id="filter49031-5-8-7"
       style="color-interpolation-filters:sRGB"><feColorMatrix
         id="feColorMatrix49029-5-06-1"
         values="3 0 0 -0.8 -1 0 3 0 -0.8 -1 0 0 3 -0.8 -1 0 0 0 1 0" /></filter><filter
       id="filter49031-5-4-29"
       style="color-interpolation-filters:sRGB"><feColorMatrix
         id="feColorMatrix49029-5-19-8"
         values="3 0 0 -0.8 -1 0 3 0 -0.8 -1 0 0 3 -0.8 -1 0 0 0 1 0" /></filter><filter
       id="filter49031-6-7"
       style="color-interpolation-filters:sRGB"><feColorMatrix
         id="feColorMatrix49029-19-4"
         values="3 0 0 -0.8 -1 0 3 0 -0.8 -1 0 0 3 -0.8 -1 0 0 0 1 0" /></filter><filter
       id="filter49031-6-7-8"
       style="color-interpolation-filters:sRGB"><feColorMatrix
         id="feColorMatrix49029-19-4-7"
         values="3 0 0 -0.8 -1 0 3 0 -0.8 -1 0 0 3 -0.8 -1 0 0 0 1 0" /></filter><filter
       id="filter49031-6-1"
       style="color-interpolation-filters:sRGB"><feColorMatrix
         id="feColorMatrix49029-19-72"
         values="3 0 0 -0.8 -1 0 3 0 -0.8 -1 0 0 3 -0.8 -1 0 0 0 1 0" /></filter><filter
       id="filter49035-5-0-31-5"
       style="color-interpolation-filters:sRGB"><feColorMatrix
         id="feColorMatrix49033-2-3-2-7"
         values="3 0 0 -0.8 -1 0 3 0 -0.8 -1 0 0 3 -0.8 -1 0 0 0 1 0" /></filter><filter
       id="filter49031-6-7-8-7"
       style="color-interpolation-filters:sRGB"><feColorMatrix
         id="feColorMatrix49029-19-4-7-9"
         values="3 0 0 -0.8 -1 0 3 0 -0.8 -1 0 0 3 -0.8 -1 0 0 0 1 0" /></filter><filter
       id="filter49031-6-1-5"
       style="color-interpolation-filters:sRGB"><feColorMatrix
         id="feColorMatrix49029-19-72-6"
         values="3 0 0 -0.8 -1 0 3 0 -0.8 -1 0 0 3 -0.8 -1 0 0 0 1 0" /></filter><filter
       id="filter49035-5-0-31-5-7"
       style="color-interpolation-filters:sRGB"><feColorMatrix
         id="feColorMatrix49033-2-3-2-7-9"
         values="3 0 0 -0.8 -1 0 3 0 -0.8 -1 0 0 3 -0.8 -1 0 0 0 1 0" /></filter><filter
       id="filter49031-6-5-1"
       style="color-interpolation-filters:sRGB"><feColorMatrix
         id="feColorMatrix49029-19-7-7"
         values="3 0 0 -0.8 -1 0 3 0 -0.8 -1 0 0 3 -0.8 -1 0 0 0 1 0" /></filter><filter
       id="filter49031-6-5-8"
       style="color-interpolation-filters:sRGB"><feColorMatrix
         id="feColorMatrix49029-19-7-2"
         values="3 0 0 -0.8 -1 0 3 0 -0.8 -1 0 0 3 -0.8 -1 0 0 0 1 0" /></filter><filter
       id="filter49031-6-5-6"
       style="color-interpolation-filters:sRGB"><feColorMatrix
         id="feColorMatrix49029-19-7-9"
         values="3 0 0 -0.8 -1 0 3 0 -0.8 -1 0 0 3 -0.8 -1 0 0 0 1 0" /></filter><filter
       id="filter49031-6-5-6-2"
       style="color-interpolation-filters:sRGB"><feColorMatrix
         id="feColorMatrix49029-19-7-9-4"
         values="3 0 0 -0.8 -1 0 3 0 -0.8 -1 0 0 3 -0.8 -1 0 0 0 1 0" /></filter><filter
       id="filter49031-6-5-8-5"
       style="color-interpolation-filters:sRGB"><feColorMatrix
         id="feColorMatrix49029-19-7-2-6"
         values="3 0 0 -0.8 -1 0 3 0 -0.8 -1 0 0 3 -0.8 -1 0 0 0 1 0" /></filter><filter
       id="filter49031-6-5-1-3"
       style="color-interpolation-filters:sRGB"><feColorMatrix
         id="feColorMatrix49029-19-7-7-1"
         values="3 0 0 -0.8 -1 0 3 0 -0.8 -1 0 0 3 -0.8 -1 0 0 0 1 0" /></filter><filter
       id="filter49031-6-5-6-0"
       style="color-interpolation-filters:sRGB"><feColorMatrix
         id="feColorMatrix49029-19-7-9-0"
         values="3 0 0 -0.8 -1 0 3 0 -0.8 -1 0 0 3 -0.8 -1 0 0 0 1 0" /></filter><filter
       id="filter49031-6-5-8-1"
       style="color-interpolation-filters:sRGB"><feColorMatrix
         id="feColorMatrix49029-19-7-2-0"
         values="3 0 0 -0.8 -1 0 3 0 -0.8 -1 0 0 3 -0.8 -1 0 0 0 1 0" /></filter><filter
       id="filter49031-6-5-1-9"
       style="color-interpolation-filters:sRGB"><feColorMatrix
         id="feColorMatrix49029-19-7-7-2"
         values="3 0 0 -0.8 -1 0 3 0 -0.8 -1 0 0 3 -0.8 -1 0 0 0 1 0" /></filter><filter
       id="filter49039-0-1"
       style="color-interpolation-filters:sRGB"><feColorMatrix
         id="feColorMatrix49037-1-9"
         values="3 0 0 -0.8 -1 0 3 0 -0.8 -1 0 0 3 -0.8 -1 0 0 0 1 0" /></filter><filter
       id="filter49039-0-7"
       style="color-interpolation-filters:sRGB"><feColorMatrix
         id="feColorMatrix49037-1-6"
         values="3 0 0 -0.8 -1 0 3 0 -0.8 -1 0 0 3 -0.8 -1 0 0 0 1 0" /></filter><filter
       id="filter14961"
       style="color-interpolation-filters:sRGB"><feColorMatrix
         id="feColorMatrix14959"
         values="3 0 0 -0.8 -1 0 3 0 -0.8 -1 0 0 3 -0.8 -1 0 0 0 1 0" /></filter><filter
       id="filter14965"
       style="color-interpolation-filters:sRGB"><feColorMatrix
         id="feColorMatrix14963"
         values="3 0 0 -0.8 -1 0 3 0 -0.8 -1 0 0 3 -0.8 -1 0 0 0 1 0" /></filter><filter
       id="filter14969"
       style="color-interpolation-filters:sRGB"><feColorMatrix
         id="feColorMatrix14967"
         values="3 0 0 -0.8 -1 0 3 0 -0.8 -1 0 0 3 -0.8 -1 0 0 0 1 0" /></filter><filter
       id="filter49039-0-1-1"
       style="color-interpolation-filters:sRGB"><feColorMatrix
         id="feColorMatrix49037-1-9-1"
         values="3 0 0 -0.8 -1 0 3 0 -0.8 -1 0 0 3 -0.8 -1 0 0 0 1 0" /></filter><filter
       id="filter49039-0-5"
       style="color-interpolation-filters:sRGB"><feColorMatrix
         id="feColorMatrix49037-1-94"
         values="3 0 0 -0.8 -1 0 3 0 -0.8 -1 0 0 3 -0.8 -1 0 0 0 1 0" /></filter><filter
       id="filter14961-9"
       style="color-interpolation-filters:sRGB"><feColorMatrix
         id="feColorMatrix14959-7"
         values="3 0 0 -0.8 -1 0 3 0 -0.8 -1 0 0 3 -0.8 -1 0 0 0 1 0" /></filter><filter
       id="filter14965-8"
       style="color-interpolation-filters:sRGB"><feColorMatrix
         id="feColorMatrix14963-9"
         values="3 0 0 -0.8 -1 0 3 0 -0.8 -1 0 0 3 -0.8 -1 0 0 0 1 0" /></filter><filter
       id="filter14969-3"
       style="color-interpolation-filters:sRGB"><feColorMatrix
         id="feColorMatrix14967-7"
         values="3 0 0 -0.8 -1 0 3 0 -0.8 -1 0 0 3 -0.8 -1 0 0 0 1 0" /></filter><filter
       id="filter49039-0-1-6"
       style="color-interpolation-filters:sRGB"><feColorMatrix
         id="feColorMatrix49037-1-9-6"
         values="3 0 0 -0.8 -1 0 3 0 -0.8 -1 0 0 3 -0.8 -1 0 0 0 1 0" /></filter><clipPath
       id="clipPath17902"
       clipPathUnits="userSpaceOnUse"><rect
         y="5.6843419e-014"
         x="0"
         height="270.95251"
         width="353.01859"
         id="rect17904"
         style="opacity:0.31300001;fill:#ffffff;fill-opacity:1;stroke:#4d4d4d;stroke-width:1;stroke-miterlimit:4;stroke-dasharray:1, 1;stroke-dashoffset:0;stroke-opacity:0.33333333" /></clipPath></defs><g
     style="display:inline"
     id="g6402"
     transform="translate(-6)"><g
       id="g7253"
       transform="translate(-282.11164,-63.728815)"><path
         style="display:inline;fill:#800080;stroke:#000000;stroke-width:1.70000005;stroke-miterlimit:4;stroke-dasharray:none;stroke-dashoffset:0;stroke-opacity:1"
         id="path2126-3"
         d="m 289.56021,45.580158 19.98672,34.618007 -39.97343,-2e-6 z"
         inkscape:connector-curvature="0" /><g
         id="g4457"
         transform="matrix(0.36566509,0,0,0.36566509,276.36374,57.141089)"
         style="fill:#ffffff"><path
           id="path4402"
           d="m 57.955,14.36 c -0.446,-0.355 -0.972,-0.5 -1.502,-0.423 -0.13,-0.012 -0.377,-0.259 -0.39,-0.37 l 0.103,-0.719 C 56.261,12.19 55.993,11.472 55.45,10.93 54.907,10.387 54.19,10.116 53.532,10.213 l -0.701,0.102 c -0.13,-0.012 -0.377,-0.258 -0.39,-0.37 L 52.544,9.226 C 52.639,8.568 52.371,7.85 51.828,7.308 51.285,6.764 50.569,6.491 49.91,6.591 L 49.209,6.693 C 49.079,6.681 48.832,6.435 48.819,6.323 L 48.922,5.604 C 49.017,4.946 48.749,4.228 48.206,3.686 47.663,3.142 46.944,2.873 46.288,2.969 L 45.587,3.071 C 45.457,3.059 45.21,2.813 45.197,2.701 L 45.215,2.575 C 45.292,2.041 45.151,1.528 44.806,1.094 44.25,0.393 43.298,0.076 42.593,0.014 41.685,-0.067 40.844,0.218 40.157,0.837 39.381,1.536 38.938,2.569 38.776,3.155 38.298,3.995 35.678,8.893 34.606,16.701 L 33.011,15.106 C 31.262,13.358 28.536,13.192 26.584,14.58 l -0.051,-0.068 -0.593,0.594 v 0 L 15.107,25.941 c -1.949,1.949 -1.949,5.121 0,7.07 l 1.134,1.134 c -3.04,0.326 -8.592,1.355 -13.205,4.62 -2.022,0.733 -3.146,2.102 -3.011,3.678 0.063,0.729 0.388,1.713 1.112,2.289 0.445,0.354 0.97,0.501 1.502,0.423 0.13,0.012 0.377,0.258 0.39,0.37 l -0.103,0.719 c -0.094,0.659 0.174,1.376 0.717,1.919 0.542,0.543 1.26,0.803 1.919,0.716 L 6.26,48.776 c 0.13,0.012 0.378,0.259 0.391,0.371 l -0.103,0.718 c -0.094,0.658 0.173,1.375 0.716,1.918 0.542,0.544 1.262,0.806 1.92,0.718 l 0.698,-0.103 c 0.13,0.012 0.378,0.259 0.391,0.371 l -0.103,0.718 c -0.095,0.658 0.173,1.375 0.715,1.918 0.543,0.543 1.26,0.81 1.92,0.718 l 0.7,-0.103 c 0.13,0.012 0.377,0.258 0.39,0.37 l -0.018,0.126 c -0.077,0.535 0.065,1.048 0.409,1.482 0.556,0.7 1.507,1.017 2.212,1.079 0.101,0.009 0.2,0.014 0.299,0.014 0.783,0 1.509,-0.279 2.115,-0.816 0.816,-0.724 1.246,-1.767 1.403,-2.338 0.477,-0.839 3.097,-5.738 4.169,-13.548 l 1.456,1.456 c 0.975,0.975 2.255,1.462 3.535,1.462 1.281,0 2.561,-0.487 3.536,-1.462 l 0.017,-0.017 v 0 l 8.759,-8.759 v 0 l 2.058,-2.058 c 1.949,-1.949 1.949,-5.121 0,-7.07 L 42.85,24.946 c 3.039,-0.326 8.592,-1.355 13.206,-4.62 2.023,-0.73 3.146,-2.099 3.011,-3.677 C 59.005,15.92 58.68,14.936 57.955,14.36 Z M 33.253,40.776 20.41,23.466 l 4.65,-4.651 1.249,-1.25 12.843,17.311 z m -14.725,14.258 -0.132,0.223 -0.005,0.146 c -0.099,0.339 -0.589,1.755 -1.716,1.684 -0.416,-0.037 -0.772,-0.241 -0.818,-0.286 l 0.018,-0.126 c 0.095,-0.658 -0.173,-1.376 -0.716,-1.918 -0.471,-0.472 -1.073,-0.735 -1.655,-0.735 -0.089,0 -0.177,0.007 -0.265,0.019 l -0.699,0.103 c -0.13,-0.012 -0.377,-0.259 -0.391,-0.371 l 0.103,-0.718 C 12.346,52.397 12.079,51.68 11.536,51.137 10.993,50.594 10.275,50.328 9.616,50.419 L 8.918,50.522 C 8.788,50.51 8.54,50.263 8.527,50.151 L 8.63,49.433 C 8.724,48.775 8.457,48.058 7.914,47.515 7.371,46.972 6.655,46.708 5.994,46.797 L 5.295,46.9 C 5.165,46.888 4.918,46.641 4.905,46.53 L 5.008,45.811 C 5.103,45.153 4.835,44.436 4.292,43.893 3.75,43.348 3.033,43.082 2.4,43.18 2.288,43.126 2.057,42.741 2.017,42.273 1.934,41.312 3.485,40.726 3.797,40.618 l 0.172,-0.06 0.117,-0.085 c 5.298,-3.806 12.271,-4.381 14.015,-4.466 l 1.107,1.107 c -0.113,0.059 -0.218,0.138 -0.305,0.242 -1.274,1.507 -2.134,1.537 -3.845,1.596 -0.611,0.021 -1.304,0.046 -2.104,0.146 -0.548,0.068 -0.937,0.568 -0.868,1.116 0.063,0.506 0.494,0.876 0.991,0.876 0.042,0 0.083,-0.003 0.125,-0.008 0.711,-0.089 1.328,-0.11 1.925,-0.131 0.773,-0.027 1.502,-0.062 2.223,-0.24 -1.744,2.323 -2.644,5.466 -2.264,8.503 0.063,0.506 0.494,0.876 0.991,0.876 0.042,0 0.083,-0.003 0.125,-0.008 0.548,-0.068 0.937,-0.568 0.868,-1.116 -0.452,-3.612 1.348,-7.534 4.185,-9.121 0.149,-0.084 0.257,-0.206 0.343,-0.341 l 1.094,1.094 c -0.925,8.899 -4.131,14.38 -4.164,14.436 z M 31.597,42.431 c -1.17,1.169 -3.073,1.17 -4.243,0 l -2.582,-2.582 -5.86,-5.86 -2.392,-2.392 c -1.169,-1.17 -1.169,-3.072 0,-4.242 l 2.459,-2.46 12.844,17.31 z M 42.431,31.597 40.582,33.446 27.772,16.18 c 0.511,-0.354 1.106,-0.537 1.705,-0.537 0.768,0 1.536,0.292 2.121,0.877 l 2.721,2.721 v 0 l 1.401,1.401 6.712,6.712 c 0.563,0.563 0.874,1.316 0.874,2.121 0,0.805 -0.311,1.559 -0.875,2.122 z M 55.293,18.474 55.006,18.618 C 49.708,22.426 42.733,23 40.99,23.085 l -1.086,-1.086 c 0.13,-0.059 0.25,-0.147 0.349,-0.264 1.274,-1.508 2.133,-1.537 3.844,-1.596 0.612,-0.021 1.305,-0.045 2.105,-0.146 0.548,-0.068 0.937,-0.568 0.868,-1.116 -0.069,-0.548 -0.576,-0.93 -1.116,-0.868 -0.711,0.089 -1.329,0.11 -1.926,0.131 -0.773,0.026 -1.501,0.061 -2.222,0.24 C 43.55,16.057 44.45,12.914 44.07,9.878 44.002,9.329 43.493,8.946 42.954,9.01 c -0.548,0.068 -0.937,0.568 -0.868,1.116 0.451,3.612 -1.348,7.533 -4.185,9.121 -0.165,0.093 -0.278,0.232 -0.365,0.385 L 36.4,18.494 C 37.325,9.595 40.531,4.114 40.564,4.058 L 40.7,3.829 40.702,3.685 c 0.104,-0.345 0.613,-1.769 1.714,-1.68 0.415,0.037 0.772,0.241 0.818,0.286 l -0.018,0.126 c -0.095,0.658 0.173,1.376 0.716,1.918 0.542,0.543 1.258,0.809 1.918,0.717 L 46.551,4.95 c 0.13,0.012 0.377,0.258 0.39,0.37 l -0.102,0.72 c -0.095,0.658 0.173,1.376 0.716,1.918 0.543,0.544 1.26,0.812 1.918,0.717 l 0.701,-0.102 c 0.13,0.012 0.377,0.258 0.39,0.37 l -0.103,0.719 c -0.095,0.658 0.173,1.376 0.716,1.918 0.543,0.543 1.259,0.814 1.918,0.717 l 0.701,-0.102 c 0.13,0.012 0.377,0.258 0.39,0.37 l -0.103,0.719 c -0.094,0.659 0.174,1.376 0.717,1.919 0.543,0.542 1.263,0.808 1.892,0.71 0.112,0.054 0.343,0.438 0.382,0.907 0.083,0.963 -1.469,1.547 -1.781,1.654 z"
           style="fill:#ffffff"
           inkscape:connector-curvature="0" /><g
           id="g4404"
           style="fill:#ffffff" /><g
           id="g4406"
           style="fill:#ffffff" /><g
           id="g4408"
           style="fill:#ffffff" /><g
           id="g4410"
           style="fill:#ffffff" /><g
           id="g4412"
           style="fill:#ffffff" /><g
           id="g4414"
           style="fill:#ffffff" /><g
           id="g4416"
           style="fill:#ffffff" /><g
           id="g4418"
           style="fill:#ffffff" /><g
           id="g4420"
           style="fill:#ffffff" /><g
           id="g4422"
           style="fill:#ffffff" /><g
           id="g4424"
           style="fill:#ffffff" /><g
           id="g4426"
           style="fill:#ffffff" /><g
           id="g4428"
           style="fill:#ffffff" /><g
           id="g4430"
           style="fill:#ffffff" /><g
           id="g4432"
           style="fill:#ffffff" /></g></g></g></svg>