<?xml version="1.0" encoding="UTF-8" standalone="no"?>
<svg
   xmlns:dc="http://purl.org/dc/elements/1.1/"
   xmlns:cc="http://creativecommons.org/ns#"
   xmlns:rdf="http://www.w3.org/1999/02/22-rdf-syntax-ns#"
   xmlns:svg="http://www.w3.org/2000/svg"
   xmlns="http://www.w3.org/2000/svg"
   id="svg42"
   version="1.1"
   width="512pt"
   viewBox="0 -12 512 511"
   height="512pt">
  <metadata
     id="metadata48">
    <rdf:RDF>
      <cc:Work
         rdf:about="">
        <dc:format>image/svg+xml</dc:format>
        <dc:type
           rdf:resource="http://purl.org/dc/dcmitype/StillImage" />
        <dc:title></dc:title>
      </cc:Work>
    </rdf:RDF>
  </metadata>
  <defs
     id="defs46" />
  <path
     style="fill:#1e233c"
     id="path2"
     d="M 95.345942,6.2220752 H -77.989996 c -8.28125,0 -15,-6.71875003 -15,-15 V -270.77792 c 0,-8.28516 6.71875,-15 15,-15 H 95.342035 c 8.285155,0 15.000005,6.71484 15.000005,15 V -8.7779248 c 0.004,8.28515597 -6.71485,15 -14.996098,15 z m 0,0" />
  <path
     style="fill:#131623"
     id="path4"
     d="M 95.345942,-285.77792 H 8.4279735 V 6.2220752 H 95.345942 c 8.281248,0 14.999998,-6.71875003 14.999998,-15 V -270.77792 c 0,-8.28516 -6.71875,-15 -14.999998,-15 z m 0,0" />
  <path
     style="fill:#323750"
     id="path6"
     d="m 95.365473,-246.48886 h -173.375 c -8.285156,0 -15,-6.71875 -15,-15 v -118.42969 c 0,-8.28125 6.714844,-15 15,-15 h 173.375 c 8.285157,0 14.999997,6.71875 14.999997,15 v 118.42969 c 0,8.28125 -6.71484,15 -14.999997,15 z m 0,0" />
  <path
     style="fill:#323750"
     id="path8"
     d="m -96.458746,6.7337932 c 8.285157,0 15,-6.71875003 15,-15 V -227.5123 c 0,-8.28516 -6.714843,-15 -15,-15 H -213.16187 c -8.28516,0 -15,6.71484 -15,15 V -8.2662068 c 0,8.28124997 6.71484,15 15,15 z m 0,0" />
  <path
     style="fill:#dce1eb"
     id="path10"
     d="m 43.697504,6.7337932 h -70.039062 c -8.285157,0 -15,-6.71875003 -15,-15 V -72.750582 c 0,-24.9375 20.285156,-45.226558 45.2226565,-45.226558 h 9.5937495 c 24.9375,0 45.226563,20.289058 45.226563,45.226558 v 64.4843752 c -0.0039,8.28124997 -6.71875,15 -15.003907,15 z m 0,0" />
  <path
     style="fill:#ffbc36"
     id="path12"
     d="m -155.16578,-133.28183 c -8.28515,0 -15,-6.71484 -15,-15 v -28.01172 c 0,-8.28125 6.71485,-15 15,-15 8.28516,0 15,6.71875 15,15 v 28.01172 c 0,8.28516 -6.71484,15 -15,15 z m 0,0" />
  <path
     style="fill:#323750"
     id="path14"
     d="M 114.17016,-172.03574 H -91.146246 c -8.285156,0 -15.000004,-6.71484 -15.000004,-15 0,-8.28515 6.714848,-15 15.000004,-15 H 114.17016 c 8.28516,0 15,6.71485 15,15 0,8.28516 -6.71484,15 -15,15 z m 0,0" />
  <path
     style="fill:#1e233c"
     id="path16"
     d="M 95.365473,-394.91855 H 8.6779735 l -0.25,148.42969 H 95.365473 c 8.285157,0 14.999997,-6.71875 14.999997,-15 v -118.42969 c 0,-8.28125 -6.71484,-15 -14.999997,-15 z m 0,0" />
  <path
     style="fill:#5a6482"
     id="path18"
     d="m 108.15844,-478.95761 c -8.285155,0 -14.999998,6.71484 -14.999998,15 v 7.91797 H 23.677973 v -7.91797 c 0,-8.28516 -6.714844,-15 -14.9999995,-15 -8.28515603,0 -15,6.71484 -15,15 v 7.91797 H -75.802496 v -7.91797 c 0,-8.28516 -6.714843,-15 -15,-15 -8.28125,0 -15.000004,6.71484 -15.000004,15 v 84.03906 c 0,8.28516 6.718754,15 15.000004,15 H 108.15844 c 8.28516,0 15,-6.71484 15,-15 v -84.03906 c 0,-8.28516 -6.71484,-15 -15,-15 z m 0,0" />
  <path
     style="fill:#323750"
     id="path20"
     d="m 108.15844,-478.95761 c -8.285155,0 -14.999998,6.71484 -14.999998,15 v 7.91797 H 23.677973 v -7.91797 c 0,-8.28516 -6.714844,-15 -14.9999995,-15 v 114.03906 H 108.15844 c 8.28125,0 15,-6.71484 15,-15 v -84.03906 c 0,-8.28516 -6.71484,-15 -15,-15 z m 0,0" />
  <path
     style="fill:#9196aa"
     id="path22"
     d="M 13.474848,-117.97714 H 8.4279735 V 6.7337932 H 43.697504 c 8.285157,0 15,-6.71875003 15,-15 V -72.750582 c 0,-24.9375 -20.285156,-45.226558 -45.222656,-45.226558 z m 0,0" />
  <path
     style="fill:#1e233c"
     id="path24"
     d="M 114.17016,-202.03574 H 8.4279735 v 30 H 114.17016 c 8.28516,0 15,-6.71484 15,-15 0,-8.28515 -6.71484,-15 -15,-15 z m 0,0" />
  <path
     style="fill:#1e233c"
     id="path26"
     d="m 230.87329,6.7337932 c 8.28515,0 15,-6.71875003 15,-15 V -227.5123 c 0,-8.28516 -6.71485,-15 -15,-15 H 114.17016 c -8.28516,0 -14.999999,6.71484 -14.999999,15 V -8.2662068 c 0,8.28124997 6.714839,15 14.999999,15 z m 0,0" />
  <path
     style="fill:#f6921e"
     id="path28"
     d="m 172.52172,-133.28183 c -8.28515,0 -15,-6.71484 -15,-15 v -28.01172 c 0,-8.28125 6.71485,-15 15,-15 8.28516,0 15,6.71875 15,15 v 28.01172 c 0,8.28516 -6.71484,15 -15,15 z m 0,0" />
  <path
     style="fill:#323750"
     id="path30"
     d="m 249.67797,-326.55527 c -8.28515,0 -15,6.71875 -15,15 v 7.91797 h -47.15625 v -7.91797 c 0,-8.28125 -6.71484,-15 -15,-15 -8.28515,0 -15,6.71875 -15,15 v 7.91797 h -47.15625 v -7.91797 c 0,-8.28125 -6.71484,-15 -14.999997,-15 -8.285156,0 -15,6.71875 -15,15 v 84.04297 c 0,8.28125 6.714844,15 15,15 H 249.67797 c 8.28516,0 15,-6.71875 15,-15 v -84.04297 c 0,-8.28515 -6.71484,-15 -15,-15 z m 0,0" />
  <path
     style="fill:#82cd64"
     id="path32"
     d="m 249.67797,7.7337932 h -482 c -8.28515,0 -15,-6.71875 -15,-15 0,-8.2851562 6.71485,-15.0000002 15,-15.0000002 h 482 c 8.28516,0 15,6.714844 15,15.0000002 0,8.28125 -6.71484,15 -15,15 z m 0,0" />
  <path
     style="fill:#509137"
     id="path34"
     d="M 249.67797,-22.266207 H 8.4279735 V 7.7337932 H 249.67797 c 8.28516,0 15,-6.71875 15,-15 0,-8.2851562 -6.71484,-15.0000002 -15,-15.0000002 z m 0,0" />
  <path
     style="fill:#ffbc36"
     id="path36"
     d="m 8.6779735,-291.65292 c -8.28515603,0 -15,-6.71485 -15,-15 v -28.01172 c 0,-8.28125 6.71484397,-15 15,-15 8.2851555,0 14.9999995,6.71875 14.9999995,15 v 28.01172 c 0,8.28515 -6.714844,15 -14.9999995,15 z m 0,0" />
  <path
     style="fill:#f6921e"
     id="path38"
     d="m 8.6779735,-349.66464 h -0.074219 l -0.101562,58.01172 h 0.175781 c 8.2851555,0 14.9999995,-6.71485 14.9999995,-15 v -28.01172 c 0,-8.28125 -6.714844,-15 -14.9999995,-15 z m 0,0" />
  <path
     style="fill:#5a6482"
     id="path40"
     d="m -78.009527,-326.55527 c -8.285156,0 -15,6.71875 -15,15 v 7.91797 h -47.156253 v -7.91797 c 0,-8.28125 -6.71484,-15 -15,-15 -8.28515,0 -15,6.71875 -15,15 v 7.91797 h -47.15625 v -7.91797 c 0,-8.28125 -6.71484,-15 -15,-15 -8.28515,0 -15,6.71875 -15,15 v 84.04297 c 0,8.28125 6.71485,15 15,15 h 154.312503 c 8.285156,0 15,-6.71875 15,-15 v -84.04297 c 0,-8.28515 -6.714844,-15 -15,-15 z m 0,0" />
</svg>
