<?xml version="1.0" encoding="UTF-8" standalone="no"?>
<svg
   xmlns:dc="http://purl.org/dc/elements/1.1/"
   xmlns:cc="http://creativecommons.org/ns#"
   xmlns:rdf="http://www.w3.org/1999/02/22-rdf-syntax-ns#"
   xmlns:svg="http://www.w3.org/2000/svg"
   xmlns="http://www.w3.org/2000/svg"
   xml:space="preserve"
   style="enable-background:new 0 0 47.971 47.971;"
   viewBox="0 0 47.971 47.971"
   y="0px"
   x="0px"
   id="Capa_1"
   version="1.1"><metadata
     id="metadata41"><rdf:RDF><cc:Work
         rdf:about=""><dc:format>image/svg+xml</dc:format><dc:type
           rdf:resource="http://purl.org/dc/dcmitype/StillImage" /><dc:title></dc:title></cc:Work></rdf:RDF></metadata><defs
     id="defs39" /><g
     transform="translate(-23.172433,-23.578966)"
     id="g4"><path
       id="path2"
       d="M 28.228,23.986 47.092,5.122 c 1.172,-1.171 1.172,-3.071 0,-4.242 -1.172,-1.172 -3.07,-1.172 -4.242,0 L 23.986,19.744 5.121,0.88 c -1.172,-1.172 -3.07,-1.172 -4.242,0 -1.172,1.171 -1.172,3.071 0,4.242 L 19.744,23.986 0.879,42.85 c -1.172,1.171 -1.172,3.071 0,4.242 0.586,0.585 1.354,0.878 2.121,0.878 0.767,0 1.535,-0.293 2.121,-0.879 L 23.986,28.227 42.85,47.091 c 0.586,0.586 1.354,0.879 2.121,0.879 0.767,0 1.535,-0.293 2.121,-0.879 1.172,-1.171 1.172,-3.071 0,-4.242 z" /></g><g
     transform="translate(-23.172433,-23.578966)"
     id="g6" /><g
     transform="translate(-23.172433,-23.578966)"
     id="g8" /><g
     transform="translate(-23.172433,-23.578966)"
     id="g10" /><g
     transform="translate(-23.172433,-23.578966)"
     id="g12" /><g
     transform="translate(-23.172433,-23.578966)"
     id="g14" /><g
     transform="translate(-23.172433,-23.578966)"
     id="g16" /><g
     transform="translate(-23.172433,-23.578966)"
     id="g18" /><g
     transform="translate(-23.172433,-23.578966)"
     id="g20" /><g
     transform="translate(-23.172433,-23.578966)"
     id="g22" /><g
     transform="translate(-23.172433,-23.578966)"
     id="g24" /><g
     transform="translate(-23.172433,-23.578966)"
     id="g26" /><g
     transform="translate(-23.172433,-23.578966)"
     id="g28" /><g
     transform="translate(-23.172433,-23.578966)"
     id="g30" /><g
     transform="translate(-23.172433,-23.578966)"
     id="g32" /><g
     transform="translate(-23.172433,-23.578966)"
     id="g34" /></svg>