<?xml version="1.0" encoding="UTF-8" standalone="no"?>
<svg
   xmlns:dc="http://purl.org/dc/elements/1.1/"
   xmlns:cc="http://creativecommons.org/ns#"
   xmlns:rdf="http://www.w3.org/1999/02/22-rdf-syntax-ns#"
   xmlns:svg="http://www.w3.org/2000/svg"
   xmlns="http://www.w3.org/2000/svg"
   xml:space="preserve"
   style="enable-background:new 0 0 512.001 512.001;"
   viewBox="0 0 512.001 512.001"
   y="0px"
   x="0px"
   id="Capa_1"
   version="1.1"><metadata
     id="metadata71"><rdf:RDF><cc:Work
         rdf:about=""><dc:format>image/svg+xml</dc:format><dc:type
           rdf:resource="http://purl.org/dc/dcmitype/StillImage" /><dc:title></dc:title></cc:Work></rdf:RDF></metadata><defs
     id="defs69" /><g
     transform="translate(-221.28856,-405.69569)"
     id="g8"><path
       id="path2"
       d="m 277.049,264.951 7.912,41.835 c 1.741,9.206 5.337,17.963 10.567,25.737 v 0 c 7.672,11.404 11.771,24.836 11.771,38.581 v 35.884 h 29.335 v -35.884 c 0,0 -2.521,-19.408 -17.34,-48.507 -14.818,-29.099 -12.453,-62.096 -12.453,-62.096 z"
       style="fill:#dfdce5" /><path
       id="path4"
       d="m 203.938,264.951 -7.912,41.835 c -1.741,9.206 -5.337,17.963 -10.567,25.737 v 0 c -7.672,11.404 -11.771,24.836 -11.771,38.581 v 35.884 h -29.335 v -35.884 c 0,0 2.521,-19.408 17.34,-48.507 14.818,-29.099 12.453,-62.096 12.453,-62.096 z"
       style="fill:#dfdce5" /><path
       id="path6"
       d="M 441.685,190.375 C 425.256,139.492 377.888,105.011 324.419,105.011 H 149.165 c -25.007,0 -49.008,9.853 -66.802,27.425 v 0 c -40.676,40.168 -36.96,106.89 7.924,142.294 v 0 c 11.952,9.427 18.95,23.793 19.005,39.016 l 0.338,93.242 h 32.266 v -35.884 c 0,-13.745 4.099,-27.177 11.771,-38.581 v 0 c 5.231,-7.773 8.825,-16.53 10.567,-25.737 h 150.038 c 1.741,9.206 5.337,17.963 10.567,25.737 v 0 c 7.672,11.404 11.771,24.836 11.771,38.581 v 35.884 h 29.335 v -35.884 c 0,-13.745 4.099,-27.177 11.771,-38.581 v 0 L 447.4,208.068 Z"
       style="fill:#dfdce5" /></g><g
     transform="translate(-221.28856,-405.69569)"
     id="g16"><path
       id="path10"
       d="m 42.053,290.402 c 0,-10.156 -7.175,-18.39 -16.027,-18.39 -8.852,0 -16.027,8.233 -16.027,18.39 0,10.156 7.175,37.263 16.027,37.263 8.852,0 16.027,-27.106 16.027,-37.263 z"
       style="fill:#a766b2" /><path
       id="path12"
       d="m 440.824,219.111 c 0,0 28.61,-5.493 29.983,-34.331 10.393,7.411 18.042,29.564 2.478,48.06 z"
       style="fill:#a766b2" /><path
       id="path14"
       d="m 392.727,218.99 c 0,0 -28.61,-5.493 -29.983,-34.331 -10.393,7.411 -18.042,29.564 -2.478,48.06 z"
       style="fill:#a766b2" /></g><path
     id="path18"
     d="m 280.61944,-171.69869 c 0,0 -0.03,0.01 -0.099,0.03 -4.408,1.26 -9.541,1.473 -15.038,-0.42 -7.627,-2.626 -14.895,-1.013 -20.641,1.609 l -4.732,-3.838 c -12.079,-10.318 -27.749,-16.554 -44.879,-16.554 -17.13,0 -32.8,6.236 -44.878,16.554 l -2.389,3.754 c -5.86,-2.831 -13.447,-4.715 -21.421,-1.97 -5.497,1.892 -10.63,1.68 -15.038,0.42 -0.07,-0.02 -0.099,-0.03 -0.099,-0.03 -1.695,28.384 20.503,32.292 26.403,32.831 l 0.16,0.532 c 0,0.003 -0.275,46.305001 9.99,56.569001 12.857,12.857 24.823,14.735 24.823,37.68 0,14.439 22.449,17.11 22.449,17.11 0,0 22.45,-2.671 22.45,-17.11 0,-22.945 11.967,-24.823 24.823,-37.68 9.834,-9.834 9.994,-52.743001 9.99,-56.324001 l 0.232,-0.276 0.062,0.031 c 0,0.001 29.784,-0.213 27.832,-32.918 z"
     style="fill:#dfdce5" /><g
     transform="translate(-221.28856,-405.69569)"
     id="g26"><path
       id="path20"
       d="m 391.844,347.019 c 1.415,3.675 2.225,8.199 2.225,14.147 0,14.439 22.449,17.11 22.449,17.11 0,0 22.45,-2.671 22.45,-17.11 0,-5.948 0.81,-10.472 2.225,-14.147 z"
       style="fill:#a766b2" /><path
       id="path22"
       d="m 133.441,220.749 c -4.38,-23.891 -23.074,-42.586 -46.965,-46.965 l -27.13,-4.973 c -11.393,32.811 -4.158,70.43 20.798,96.671 h 16.018 c 23.668,0 41.547,-21.453 37.279,-44.733 z"
       style="fill:#a766b2" /><path
       id="path24"
       d="M 310.255,105.011 H 169.702 c 9.972,29.243 37.658,50.284 70.276,50.284 32.619,0.001 60.305,-21.041 70.277,-50.284 z"
       style="fill:#a766b2" /></g><path
     id="path28"
     d="m 166.15944,-117.94969 h -0.205 c -5.523,0 -9.999,4.477 -9.999,9.999 0,5.523 4.477,9.999001 9.999,9.999001 h 0.205 c 5.523,0 9.999,-4.477001 9.999,-9.999001 0,-5.522 -4.476,-9.999 -9.999,-9.999 z" /><path
     id="path30"
     d="m 224.23944,-117.94969 h -0.205 c -5.523,0 -9.999,4.477 -9.999,9.999 0,5.523 4.477,9.999001 9.999,9.999001 h 0.205 c 5.523,0 9.999,-4.477001 9.999,-9.999001 0,-5.522 -4.476,-9.999 -9.999,-9.999 z" /><path
     id="path32"
     d="m 7.0794423,-8.7066891 h -0.13 c -5.523,0 -9.999,4.477 -9.999,9.999 0,5.523 4.477,9.9990001 9.999,9.9990001 h 0.13 c 5.5229997,0 9.9989997,-4.4770001 9.9989997,-9.9990001 0,-5.523 -4.477,-9.999 -9.9989997,-9.999 z" /><path
     id="path34"
     d="m 280.67144,-8.7076891 h -126.016 V -34.592689 c 0,-8.202 1.687,-16.215 4.925,-23.628 2.199,3.185 3.201,7.046 3.201,13.69 0,18.408 19.654,25.657 31.268,27.039 0.392,0.046 0.786,0.07 1.181,0.07 1.368,0 8.37,-0.956 15.257,-3.989 14.959,-6.589 17.193,-17.314 17.193,-23.12 0,-12.378 3.434,-15.124 11.73,-21.757 3.068,-2.453 6.544,-5.233 10.164,-8.852 3.848,-3.847 9.248,-11.999 11.729,-38.265001 0.593,-6.277 0.891,-12.218 1.041,-16.782 5.58,-1.476 12.622,-4.502 18.418,-10.697 7.307,-7.812 10.618,-18.381 9.84,-31.41 -0.185,-3.093 -1.666,-5.964 -4.226,-7.707 -2.561,-1.744 -5.66,-2.241 -8.603,-1.281 -3.003,0.858 -6.043,0.771 -9.036,-0.26 -0.12,-0.042 -0.243,-0.074 -0.363,-0.114 2.229,-6.43 2.981,-13.233 2.119,-20.046 -1.419,-11.212 -7.23,-21.693 -15.168,-27.354 -2.978,-2.124 -6.88,-2.451 -10.171,-0.855 -3.292,1.598 -5.448,4.866 -5.623,8.52 -0.319,6.693 -2.631,11.647 -5.647,15.302 l -3.972,-12.302 c -17.824,-55.203 -68.772,-92.291 -126.782,-92.291 h -154.716998 -20.537 -48.659002 c -46.582,0 -84.479,37.897 -84.479,84.479 v 84.704 c -9.403,4.283 -16.027,14.415 -16.027,26.206 0,6.573 2.174,17.196001 5.287,25.831001 5.126,14.221 12.104,21.431 20.739,21.431 8.635,0 15.614,-7.21 20.739,-21.431 3.113,-8.635 5.287,-19.257001 5.287,-25.831001 0,-11.791 -6.624,-21.923 -16.027,-26.207 v -84.704 c 0,-30.182 20.847,-55.577 48.897,-62.566 -3.335,2.586 -6.536,5.386 -9.584,8.395 -11.323,11.181 -19.823,24.66 -25.078,39.321 -0.132,0.288 -0.253,0.584 -0.359,0.889 -12.785,36.82 -4.388,77.121 21.868,105.613 0.009,0.01 0.017,0.019 0.026,0.029 0.369,0.4 0.728,0.806 1.104,1.201 0.089,0.094 0.187,0.176 0.28,0.265 3.382,3.543 7.022,6.87 10.916,9.942 9.614,7.583 15.154,18.957 15.199,31.202001 l 0.302,83.2069999 h -89.597 c -5.523,0 -9.999,4.477 -9.999,9.999 0,5.523 4.477,9.9990001 9.999,9.9990001 h 183.712002 c 5.523,0 9.999,-4.4770001 9.999,-9.9990001 0,-5.523 -4.477,-9.999 -9.999,-9.999 h -10.024 V -34.591689 c 0,-11.799 3.481,-23.21 10.067,-32.998 4.725,-7.021 8.228,-14.644 10.495,-22.718 h 72.486 c 2.267,8.074 5.771,15.696 10.495,22.718 6.586,9.79 10.067,21.201 10.067,32.999 v 25.8849999 h -34.987 c -5.523,0 -9.999,4.477 -9.999,9.999 0,5.523 4.477,9.9990001 9.999,9.9990001 h 44.976 c 0.003,0 0.006,0 0.01,0 h 29.311998 0.022 29.312 c 0.003,0 0.006,0 0.01,0 h 136.008 c 5.523,0 9.999,-4.4770001 9.999,-9.9990001 0,-5.523 -4.477,-10.001 -9.999,-10.001 z m -475.934,-82.7829999 c -2.972,-6.348 -6.028,-17.642001 -6.028,-23.802001 0,-4.549 2.76,-8.391 6.028,-8.391 3.268,0 6.028,3.843 6.028,8.391 -0.001,6.161 -3.056,17.454001 -6.028,23.802001 z m 402.943,46.961 c 0,3.289 -7.53,6.092 -12.451,6.993 -4.921,-0.901 -12.451,-3.705 -12.451,-6.993 0,-1.444 -0.045,-2.823 -0.126,-4.148 h 25.153 c -0.081,1.325 -0.125,2.704 -0.125,4.148 z m 43.152,-150.850001 c -0.121,3.842 -1.191,8.497 -4.409,13.314 -1.617,-1.373 -3.287,-2.673 -4.999,-3.905 3.384,-2.556 6.626,-5.664 9.408,-9.409 z m -177.596998,-95.306 c -11.546,18.552 -32.018,30.286 -54.546,30.286 -22.5279997,0 -43,-11.734 -54.546,-30.286 h 109.092 z m -198.362002,140.473 h -11.549 c -12.078,-14.079 -19.341,-31.858 -20.389,-50.67 -0.464,-8.325 0.306,-16.586 2.211,-24.538 l 18.239,3.344 c 19.68,3.608 35.326,19.253 38.933002,38.933 v 0 c 1.498,8.168 -0.693,16.513 -6.010002,22.892 -5.317,6.38 -13.129,10.039 -21.435,10.039 z m 259.783,115.620001 v 25.8849999 h -9.313 V -34.592689 c 0,-0.237 -0.019,-0.468 -0.035,-0.701 -0.136,-15.541 -4.777,-30.555 -13.461,-43.462 -4.5,-6.687 -7.54,-14.094 -9.038,-22.013001 l -7.911998,-41.834 c -1.026,-5.427 -6.259,-8.99 -11.683,-7.966 -5.427,1.026 -8.993,6.257 -7.966,11.683 l 7.912,41.834001 c 2.004,10.598 6.074,20.51 12.095,29.461 6.585998,9.789 10.067998,21.2 10.067998,32.998 V -8.7076891 H 96.010442 V -34.592689 c 0,-15.79 -4.659,-31.06 -13.474,-44.163 -4.5,-6.687 -7.54,-14.094 -9.038,-22.013001 l -7.912,-41.834 c -1.026,-5.427 -6.26,-8.99 -11.683,-7.966 -5.427,1.026 -8.993,6.257 -7.966,11.683 l 5.406,28.578 h -64.271 l 5.4050003,-28.578 c 1.026,-5.427 -2.5410003,-10.657 -7.9660003,-11.683 -5.425,-1.028 -10.657,2.54 -11.683,7.966 l -7.912,41.834 c -1.499,7.920001 -4.54,15.327001 -9.038,22.013001 -8.814,13.101 -13.474,28.373 -13.474,44.163 v 25.8849999 h -11.792 V -34.592689 c 0,-11.799 3.482,-23.209 10.068,-32.999 6.022,-8.95 10.091,-18.863 12.095,-29.46 l 7.912,-41.834001 c 1.026,-5.427 -2.541,-10.657 -7.966,-11.683 -5.425,-1.024 -10.657,2.54 -11.683,7.966 l -7.912,41.834 c -1.498,7.919001 -4.539,15.326001 -9.038,22.013001 -8.814,13.101 -13.474,28.373 -13.474,44.162 v 25.8849999 h -12.304002 l -0.302,-83.2789999 c -0.053,-14.547001 -5.29,-28.261001 -14.62,-38.997001 10.991,-1.974 21.004002,-7.726 28.287002,-16.466 9.127,-10.953 12.888,-25.277 10.317,-39.301 v 0 c -5.096,-27.8 -27.197002,-49.902 -54.998002,-54.998 l -14.796,-2.711 c 4.078,-7.946 9.419,-15.282 15.905,-21.686 16.025,-15.825 37.254002,-24.54 59.776002,-24.54 h 13.722 c 13.357,30.352 43.478,50.284 77.092,50.284 33.614,0 63.736,-19.932 77.092,-50.284 h 7.346998 c 49.301,0 92.603,31.521 107.75,78.438 l 4.523,14.008 c -6.54,-1.726 -13.317,-2.629 -20.174,-2.629 -8.234,0 -16.358,1.288 -24.089,3.76 -5.594,-1.737 -18.898,-7.616 -19.697,-24.403 -0.174,-3.655 -2.331,-6.922 -5.622,-8.52 -3.291,-1.598 -7.192,-1.271 -10.172,0.854 -7.936,5.66 -13.749,16.141 -15.168,27.353 -0.863,6.813 -0.11,13.617 2.119,20.047 -2.755,0.814 -5.545,0.843 -8.301,0.065 -2.914,-0.881 -6.072,-0.388 -8.579,1.345 -2.529,1.748 -4.114,4.562 -4.298,7.63 -0.778,13.03 2.533,23.598 9.84,31.41 5.258,5.622 11.538,8.628 16.826,10.241 0.14,4.667 0.437,10.983 1.069,17.683 2.481,26.266001 7.881,34.417001 11.728,38.265001 1.093,1.093 2.17,2.101 3.229,3.055 -6.202,11.497 -9.46,24.311 -9.46,37.492 z m 14.714,-151.629001 c -1.651,1.174 -3.252,2.426 -4.815,3.731 -0.088,-0.024 -0.175,-0.053 -0.263,-0.077 -3.023,-4.681 -4.035,-9.192 -4.152,-12.932 2.734,3.679 5.912,6.747 9.23,9.278 z m -10.063,36.999 c -0.081,-0.001 -8.33,-0.304 -13.439,-5.767 -1.602,-1.712 -2.783,-3.847 -3.542,-6.389 2.521,-0.291 5.023,-0.857 7.469,-1.7 1.708,-0.588 3.425,-0.808 5.108,-0.769 1.155,-0.015 4.384,0.61 4.972,0.828 5.759,1.739 10.426,5.685 11.772,6.905 1.691,2.278 2.539,4.271 2.916,5.346 0.899,4.6 4.947,8.072 9.809,8.072 h 0.205 c 5.523,0 9.999,-4.477 9.999,-9.999 0,-1.605 -0.388,-3.117 -1.06,-4.462 -0.932,-2.729 -2.691,-6.717 -5.939,-11.047 -0.025,-0.034 -0.051,-0.068 -0.078,-0.102 l -0.442,-0.574 -0.01,0.008 c -0.336,-0.409 -0.717,-0.827 -1.134,-1.251 0.132,0.119 0.257,0.238 0.375,0.358 -0.146,-0.148 -0.295,-0.292 -0.447,-0.43 -0.563,-0.567 -1.206,-1.143 -1.875,-1.717 9.329,-5.813 20.157,-8.958 31.263,-8.958 11.582,0 22.865,3.416 32.457,9.717 -0.543,0.478 -1.064,0.955 -1.531,1.427 -0.141,0.128 -0.279,0.261 -0.414,0.398 0.115,-0.117 0.236,-0.232 0.365,-0.348 -0.415,0.421 -0.793,0.838 -1.128,1.244 l -0.01,-0.008 -0.442,0.574 c -0.027,0.036 -0.054,0.071 -0.081,0.107 -3.116,4.156 -4.861,7.994 -5.821,10.71 -0.473,0.975 -0.795,2.035 -0.929,3.155 -0.062,0.275 -0.105,0.491 -0.13,0.63 l 0.079,0.014 c -0.01,0.185 -0.028,0.367 -0.028,0.554 0,5.523 4.477,9.999 9.999,9.999 h 0.205 c 4.87,0 8.921,-3.483 9.812,-8.091 0.44,-1.134 1.271,-2.9 2.743,-4.882 2.08,-1.887 12.119,-10.312 21.85,-6.964 2.447,0.843 4.948,1.41 7.471,1.699 -0.743,2.494 -1.894,4.595 -3.447,6.288 -5.119,5.581 -13.543,5.868 -13.535,5.87 v 0.012 c -0.074,-0.002 -0.147,-0.011 -0.222,-0.011 -0.02,0 -0.04,0 -0.059,0 -5.522,0.031 -9.972,4.534 -9.942,10.055 0.12,21.91 -3.247,45.476001 -7.061,49.442001 -2.835,2.835 -5.721,5.143 -8.512,7.374 -4.716,3.771 -9.511,7.606 -13.136,13.23 h -37.109 c -3.624,-5.624 -8.419,-9.459 -13.136,-13.23 -2.791,-2.232 -5.678,-4.54 -8.509,-7.371 -3.567,-3.707 -6.738,-24.522001 -7.042,-45.108001 0.783,-1.413 1.235,-3.036 1.247,-4.766 0.04,-5.524 -4.404,-10.032 -9.926,-10.072 z" /><g
     transform="translate(-221.28856,-405.69569)"
     id="g36" /><g
     transform="translate(-221.28856,-405.69569)"
     id="g38" /><g
     transform="translate(-221.28856,-405.69569)"
     id="g40" /><g
     transform="translate(-221.28856,-405.69569)"
     id="g42" /><g
     transform="translate(-221.28856,-405.69569)"
     id="g44" /><g
     transform="translate(-221.28856,-405.69569)"
     id="g46" /><g
     transform="translate(-221.28856,-405.69569)"
     id="g48" /><g
     transform="translate(-221.28856,-405.69569)"
     id="g50" /><g
     transform="translate(-221.28856,-405.69569)"
     id="g52" /><g
     transform="translate(-221.28856,-405.69569)"
     id="g54" /><g
     transform="translate(-221.28856,-405.69569)"
     id="g56" /><g
     transform="translate(-221.28856,-405.69569)"
     id="g58" /><g
     transform="translate(-221.28856,-405.69569)"
     id="g60" /><g
     transform="translate(-221.28856,-405.69569)"
     id="g62" /><g
     transform="translate(-221.28856,-405.69569)"
     id="g64" /></svg>