<?xml version="1.0" encoding="UTF-8" standalone="no"?>
<svg
   xmlns:dc="http://purl.org/dc/elements/1.1/"
   xmlns:cc="http://creativecommons.org/ns#"
   xmlns:rdf="http://www.w3.org/1999/02/22-rdf-syntax-ns#"
   xmlns:svg="http://www.w3.org/2000/svg"
   xmlns="http://www.w3.org/2000/svg"
   xml:space="preserve"
   style="enable-background:new 0 0 511.999 511.999;"
   viewBox="0 0 511.999 511.999"
   y="0px"
   x="0px"
   id="Capa_1"
   version="1.1"><metadata
     id="metadata55"><rdf:RDF><cc:Work
         rdf:about=""><dc:format>image/svg+xml</dc:format><dc:type
           rdf:resource="http://purl.org/dc/dcmitype/StillImage" /><dc:title></dc:title></cc:Work></rdf:RDF></metadata><defs
     id="defs53" /><path
     id="path2"
     d="m 23.091886,-110.93802 c -25.5530002,-60.121 -99.2,-39.079 -99.2,-39.079 0,0 -7.515,-65.632 -69.138996,-105.212 -16.032,-64.13 -104.209,-112.227 -104.209,-112.227 136.274,16.032 248.4999958,104.21 248.4999958,104.21 l 39.3800002,106.889 c 3.332,9.044 16.733,6.654 16.733,-2.984 v 48.402 h -32.065 z"
     style="fill:#ed7d5c" /><path
     id="path4"
     d="m 167.38289,-303.32702 h -17.408 c -4.252,0 -8.331,-1.69 -11.337,-4.697 l -1.943,-1.944 c -6.012,-6.013 -14.166,-9.391 -22.669,-9.391 H 55.157886 v 184.371 c 0,13.282 -10.767,24.048 -24.048,24.048 H -106.77611 c -29.766,0 -58.313,11.825005 -79.36,32.873005 l -20.336,20.337 c -5.607,5.607 -12.783,9.671 -20.652,10.648 -20.727,2.573 -38.364,-13.524 -38.364,-33.739 v 25.994 c 0,22.136 17.945,40.081 40.081,40.081 h 0.002 c 10.426,0 20.591,-3.258 29.074,-9.317 l 24.256,-17.326 c 12.236,-8.74 26.896,-13.438 41.932,-13.438 h 41.008996 l 75.897,31.844 c 13.4049998,5.439 27.735,8.236 42.2,8.236 h 50.242 l 26.047004,-18.605 c 18.245,-13.032 26.981,-35.674 22.217,-57.583 l -27.124,-124.765005 c -2.012004,-9.256 2.947,-18.076 10.924,-21.716 v -17.816 c 0,-8.854 7.178,-16.032 16.032,-16.032 h 56.114 v -16.032 c 0,-8.853 -7.178,-16.031 -16.032,-16.031 z"
     style="fill:#dc4655" /><path
     id="path6"
     d="m 127.46889,-90.933015 -27.124,-124.765005 c -1.306004,-6.007 0.337,-11.821 3.823,-16.163 -7.740004,-2.632 -15.226004,-5.901 -22.035004,-10.449 -5.795,9.506 -7.68,20.707 -5.286,31.72 l 27.123004,124.766005 c 2.725,12.534 -2.258,25.45 -12.695004,32.905 l -19.775,14.125 h -42.536 c -11.418,0 -22.5150002,-2.153 -32.9830002,-6.4 l -75.8099998,-31.808 -2.975,-1.249 -1.488,-0.624 h -45.850996 c -20.167,0 -39.5,6.196 -55.911,17.918 l -24.255,17.325 c -4.43,3.165 -9.65,4.837 -15.098,4.837 -8.527,0 -15.986,-4.491 -20.258,-11.203 -11.676,-5.387 -19.823,-17.121 -19.823,-30.823 v 25.994 c 0,22.136 17.944,40.081 40.081,40.081 h 0.002 c 10.425,0 20.59,-3.257 29.074,-9.317 l 24.256,-17.325 c 12.236,-8.74 26.896,-13.438 41.933,-13.438 h 41.008996 l 75.897,31.844 c 13.4049998,5.439 27.735,8.236 42.2,8.236 h 50.242 l 26.047004,-18.605 c 18.244,-13.031 26.979,-35.673 22.216,-57.582 z"
     style="fill:#ffb464" /><path
     id="path8"
     d="m 47.754886,-293.21602 -26.662,-21.329 c -3.803,-3.042 -6.017,-7.649 -6.017,-12.519 v -56.424 l 24.048,48.097 26.863,15.35 c 11.819,6.754 10.61,24.171 -2.029,29.226 v 0 c -5.439,2.176 -11.628,1.259 -16.203,-2.401 z"
     style="fill:#ffd164" /><g
     transform="translate(-321.08411,-423.05002)"
     id="g14"><path
       id="path10"
       d="m 254.089,366.171 -3.06,-16.131 c -1.406,-7.415 -7.582,-12.983 -15.102,-13.617 v 0 c -8.649,-0.729 -16.42,5.251 -17.961,13.793 -1.092,6.051 -2.048,12.001 -2.048,14.001 0,28.451 22.813,51.537 51.142,52.056 l 6.253,-16.946 c 2.594,-8.89 -1.945,-17.78 -9.662,-21.397 -4.868,-2.283 -8.56,-6.478 -9.562,-11.759 z"
       style="fill:#be4150" /><path
       id="path12"
       d="m 368.225,376.241 v 10.765 c 0,8.505 3.378,16.661 9.392,22.675 l 13.281,13.282 c 6.014,6.013 9.392,14.169 9.392,22.673 v -69.395 c 0,-8.854 -7.178,-16.032 -16.032,-16.032 v 0 c -8.855,-0.002 -16.033,7.176 -16.033,16.032 z"
       style="fill:#be4150" /></g><path
     id="path16"
     d="m 126.86589,-295.31102 c 0,-4.142 -3.358,-7.5 -7.5,-7.5 h -0.08 c -4.142,0 -7.46,3.358 -7.46,7.5 0,4.142 3.398,7.5 7.54,7.5 4.142,0 7.5,-3.358 7.5,-7.5 z" /><path
     id="path18"
     d="m 167.38289,-310.82702 h -20.942 l -4.444,-4.444 c -7.474,-7.473 -17.409,-11.588 -27.977,-11.588 H 69.171886 l -24.355,-13.917 -23.033,-46.065 c -1.556,-3.111 -5.047,-4.746 -8.431,-3.945 -3.3850002,0.799 -5.7770002,3.821 -5.7770002,7.299 v 56.424 c 0,7.188 3.2190002,13.886 8.8320002,18.375 l 26.662,21.329 v 0 c 1.428,1.143 2.973,2.085 4.587,2.856 v 125.163 c 0,0.4 0,0.948 -0.934,1.115 -0.929,0.17 -1.123,-0.347 -1.261,-0.723 l -39.3800002,-106.889 c -0.48,-1.303 -1.312,-2.447 -2.404,-3.305 -1.167,-0.917 -29.0959998,-22.73 -74.2509998,-46.813 -41.709996,-22.246 -106.449996,-50.53 -178.005996,-58.948 -3.573,-0.416 -6.933,1.75 -8.023,5.173 -1.09,3.424 0.401,7.139 3.555,8.859 0.81,0.442 77.118,42.614 97.721,98.437 -3.137,0.897 -5.436,3.78 -5.436,7.205 0,4.142 3.358,7.5 7.5,7.5 h 5.771 c 49.297996,32.701 61.274996,83.615 63.495996,95.851 l -3.225,4.515 c -2.408,3.371 -1.627,8.055 1.744,10.462 1.321,0.944 2.844,1.397 4.353,1.397 2.34,0 4.646,-1.092 6.109,-3.141 l 3.397,-4.756 c 5.493,-1.236 19.569,-3.822 35.171,-2.119 25.53,2.784 43.2389998,15.406 52.636,37.514 1.213,2.855 3.988,4.568 6.906,4.568 0.979,0 1.973,-0.193 2.93,-0.6 3.812,-1.62 5.589,-6.024 3.969,-9.836 -11.579,-27.243 -34.1620002,-43.361 -65.306,-46.611 -8.858,-0.924 -17.183,-0.673 -24.098,-0.007 l 58.2659998,-81.572 32.5310002,88.299 c 2.399,6.513 8.332,10.569 15.007,10.569 0.975,0 1.966,-0.087 2.963,-0.265 7.831,-1.396 13.3,-7.927 13.3,-15.882 v -123.299 c 1.383,-0.281 2.752,-0.675 4.087,-1.209 8.542,-3.417 14.245,-11.242 14.882,-20.42 0.181,-2.608 -0.071,-5.159 -0.69,-7.587 h 33.084004 c 6.561,0 12.73,2.555 17.37,7.195 l 6.641,6.641 c 1.406,1.407 3.314,2.197 5.303,2.197 h 24.048 c 4.705,0 8.532,3.828 8.532,8.533 v 8.532 h -48.613 c -12.976,0 -23.532,10.557 -23.532,23.532 v 8.532 h -0.516 c -9.125004,0 -16.548004,-7.423 -16.548004,-16.548 0,-4.142 -3.358,-7.5 -7.5,-7.5 -4.142,0 -7.5,3.358 -7.5,7.5 0,14.777 10.213,27.207 23.95,30.617 -3.056,5.614 -4.025,12.145 -2.638,18.524 l 27.123004,124.766005 c 4.13,19.001 -3.425,38.583 -19.248,49.885 l -14.187004,10.134 v -17.491 c 0,-4.142 -3.358,-7.5 -7.5,-7.5 -4.142,0 -7.5,3.358 -7.5,7.5 v 38.0069997 l -9.87,-9.8699997 c -4.64,-4.64 -7.195,-10.809 -7.195,-17.37 v -10.767 c 0,-4.142 -3.358,-7.5 -7.5,-7.5 -4.142,0 -7.5,3.358 -7.5,7.5 v 10.767 c 0,4.787 0.853,9.441 2.471,13.798 h -13.148 c -13.562,0 -26.8120002,-2.586 -39.379,-7.686 l -33.974,-13.787 c -0.09,-0.125 -0.174,-0.254 -0.266,-0.377 -4.869,-6.491 -12.315,-10.214 -20.429,-10.214 -4.142,0 -7.5,3.358 -7.5,7.5 0,4.142 3.358,7.5 7.5,7.5 3.348,0 6.42,1.536 8.429,4.214 2.009,2.679 2.623,6.058 1.686,9.272 l -3.291,11.282 c -22.153,-2.585 -39.405,-21.457 -39.405,-44.292 0,-3.482 0.401,-6.948 1.193,-10.3 0.952,-4.031 -1.544,-8.071 -5.574996,-9.023 -4.034,-0.95 -8.071,1.545 -9.023,5.575 -0.792,3.355 -1.292,6.792 -1.493,10.256 h -17.579 c -16.697,0 -32.705,5.13 -46.292,14.835 l -24.255,17.325 c -7.254,5.182 -15.801,7.92 -24.717,7.92 -15.762,0 -28.944,-11.253 -31.94,-26.147 7.101,5.676 16.092,9.082 25.869,9.082 11.088,0 21.512,-4.318 29.352,-12.158 l 21.298,-21.298 c 19.78,-19.78 46.079,-30.673005 74.052,-30.673005 h 94.297996 c 4.1419998,0 7.4999998,-3.358 7.4999998,-7.5 0,-4.142 -3.358,-7.5 -7.4999998,-7.5 h -94.297996 c -31.98,0 -62.045,12.454 -84.659,35.067005 l -21.298,21.298 c -5.007,5.007 -11.664,7.764 -18.745,7.764 -14.618,0 -26.51,-11.892 -26.51,-26.509 v -78.216005 c 0,-30.656 -24.94,-55.597 -55.597,-55.597 -4.142,0 -7.5,3.358 -7.5,7.5 0,4.142 3.358,7.5 7.5,7.5 22.385,0 40.597,18.211 40.597,40.597 v 104.209005 c 0,26.236 21.345,47.5809997 47.583,47.5809997 12.059,0 23.62,-3.7049997 33.434,-10.7139997 l 24.255,-17.325 c 11.029,-7.877 24.021,-12.042 37.574,-12.042 h 18.602 c 4.78,24.335 24.410996,43.4029997 49.033996,47.34099966 l -12.212,41.86900034 h -14.415 c -4.142,0 -7.5,3.358 -7.5,7.5 0,4.142 3.358,7.5 7.5,7.5 h 24.047 c 1.876,0 3.684,-0.703 5.067,-1.971 3.01,-2.758 8.051,-6.045 14.974,-6.045 6.923,0 11.963,3.288 14.973,6.045 1.439,1.319 3.255,1.971 5.065,1.971 2.029,0 4.052,-0.819 5.531,-2.433 2.799,-3.054 2.592,-7.798 -0.462,-10.596 -7.027,-6.44 -15.944,-9.987 -25.107,-9.987 -4.224,0 -8.394,0.76 -12.353,2.203 l 16.828,-57.694 c 0.388,-1.332 0.658,-2.675 0.829,-4.02 l 23.685,9.612 c 14.3679998,5.831 29.515,8.7869997 45.02,8.7869997 h 23.087 l 12.46,12.46 c 4.64,4.64 7.195,10.8090003 7.195,17.3700003 v 19.299 h -12.542 c -4.142,0 -7.5,3.358 -7.5,7.5 0,4.142 3.358,7.5 7.5,7.5 h 24.048 c 1.876,0 3.684,-0.703 5.067,-1.971 3.01,-2.758 8.051,-6.045 14.974004,-6.045 6.923,0 11.963,3.288 14.973,6.045 1.439,1.319 3.255,1.971 5.065,1.971 2.029,0 4.052,-0.819 5.531,-2.433 2.799,-3.054 2.592,-7.798 -0.462,-10.596 -7.027,-6.44 -15.944,-9.987 -25.107,-9.987 -5.749004,0 -11.399004,1.401 -16.548004,4.032 v -48.785 l 22.906004,-16.362 c 20.706,-14.79 30.592,-40.413 25.187,-65.277 l -27.124,-124.769005 c -0.767,-3.53 0.093,-7.167 2.359,-9.98 2.267,-2.812 5.639,-4.426 9.252,-4.426 h 40.081 c 4.142,0 7.5,-3.358 7.5,-7.5 0,-4.142 -3.358,-7.5 -7.5,-7.5 h -40.597 v -8.532 c 0,-4.705 3.828,-8.532 8.532,-8.532 h 40.597 v 0.516 c 0,4.142 3.358,7.5 7.5,7.5 4.142,0 7.5,-3.358 7.5,-7.5 v -0.516 h 0.516 c 4.142,0 7.5,-3.358 7.5,-7.5 v -16.032 c 0,-12.977 -10.557,-23.534 -23.532,-23.534 z m -290.098,63.097 h 57.626996 c 4.142,0 7.5,-3.358 7.5,-7.5 0,-4.142 -3.358,-7.5 -7.5,-7.5 h -74.487996 c -8.24,-26.291 -28.052,-52.645 -58.986,-78.423 -5.81,-4.842 -11.49,-9.218 -16.783,-13.081 55.048,11.61 103.873,33.488 137.416996,51.356 31,16.511 54.038,32.211 65.077,40.148 h -20.172 c -4.142,0 -7.5,3.358 -7.5,7.5 0,4.142 3.358,7.5 7.5,7.5 h 17.493 l -56.836,79.57 c -5.568,-19.672 -19.015,-52.495 -50.348996,-79.57 z m 189.376996,-57.581 c -0.238,3.437 -2.291,6.253 -5.49,7.533 -2.926,1.169 -6.271,0.675 -8.731,-1.294 v 0 l -26.662,-21.329 c -2.035,-1.628 -3.202,-4.057 -3.202,-6.663 v -24.653 l 9.84,19.68 c 0.662,1.325 1.701,2.423 2.987,3.158 l 26.863,15.35 c 2.99,1.709 4.634,4.781 4.395,8.218 z" /><g
     transform="translate(-321.08411,-423.05002)"
     id="g20" /><g
     transform="translate(-321.08411,-423.05002)"
     id="g22" /><g
     transform="translate(-321.08411,-423.05002)"
     id="g24" /><g
     transform="translate(-321.08411,-423.05002)"
     id="g26" /><g
     transform="translate(-321.08411,-423.05002)"
     id="g28" /><g
     transform="translate(-321.08411,-423.05002)"
     id="g30" /><g
     transform="translate(-321.08411,-423.05002)"
     id="g32" /><g
     transform="translate(-321.08411,-423.05002)"
     id="g34" /><g
     transform="translate(-321.08411,-423.05002)"
     id="g36" /><g
     transform="translate(-321.08411,-423.05002)"
     id="g38" /><g
     transform="translate(-321.08411,-423.05002)"
     id="g40" /><g
     transform="translate(-321.08411,-423.05002)"
     id="g42" /><g
     transform="translate(-321.08411,-423.05002)"
     id="g44" /><g
     transform="translate(-321.08411,-423.05002)"
     id="g46" /><g
     transform="translate(-321.08411,-423.05002)"
     id="g48" /></svg>