<?xml version="1.0" encoding="UTF-8" standalone="no"?>
<svg
   xmlns:dc="http://purl.org/dc/elements/1.1/"
   xmlns:cc="http://creativecommons.org/ns#"
   xmlns:rdf="http://www.w3.org/1999/02/22-rdf-syntax-ns#"
   xmlns:svg="http://www.w3.org/2000/svg"
   xmlns="http://www.w3.org/2000/svg"
   id="svg38"
   version="1.1"
   width="512pt"
   viewBox="0 -24 512.002 512"
   height="512pt">
  <metadata
     id="metadata44">
    <rdf:RDF>
      <cc:Work
         rdf:about="">
        <dc:format>image/svg+xml</dc:format>
        <dc:type
           rdf:resource="http://purl.org/dc/dcmitype/StillImage" />
        <dc:title></dc:title>
      </cc:Work>
    </rdf:RDF>
  </metadata>
  <defs
     id="defs42" />
  <path
     style="fill:#fd6149"
     id="path2"
     d="m 37.829508,-89.728643 c 80.558592,7.757812 143.519532,38.796875 157.199222,78 l 1.51953,3.6796874 v 0.078125 l -30.71875,12.242188 -24,-8 -40,-16.0000004 -40.000002,8 -40,16.0000004 -32,-8 -56,-8.0000004 -63.999998,8.0000004 -56,-16.0000004 -13.11719,7.917968 c 13.67969,-39.117187 76.55859,-70.160156 157.117188,-77.917968 12.882812,-1.359375 26.320312,-2 39.9999997,-2 13.6796883,0 27.1210943,0.636718 40.0000003,2 z m 0,0" />
  <path
     style="fill:#95adc0"
     id="path4"
     d="m 149.82951,-363.72864 v 80 H 37.829508 v 193.999997 c -12.878906,-1.359375 -26.320312,-2 -40.0000003,-2 -13.6796877,0 -27.1210937,0.640625 -39.9999997,2 V -283.72864 H -154.17049 v -80 h 111.999998 v -80 h 80 v 80 z m 0,0" />
  <path
     style="fill:#7a8f9e"
     id="path6"
     d="m -42.170492,-443.72864 v 80 H -154.17049 v 80 h 111.999998 v 193.999997 c 12.878906,-1.363282 26.320312,-2 39.9999997,-2 V -443.72864 Z m 0,0" />
  <path
     style="fill:#df412d"
     id="path8"
     d="m 15.110758,-88.896612 c 4.542969,-0.679687 9.230469,-1.078125 13.898438,-1.507813 -10.175782,-0.808593 -20.5625003,-1.324218 -31.1796883,-1.324218 -13.6796877,0 -27.1210937,0.640625 -39.9999997,2 -80.558598,7.757812 -143.441408,38.796875 -157.121098,77.917968 l 13.1211,-7.917968 54.53125,15.5781254 C -107.58846,-47.138799 -52.533773,-79.666143 15.110758,-88.896612 Z m 0,0" />
  <path
     style="fill:#ffffff"
     id="path10"
     d="m -82.170492,-59.255987 h 16 v 15.050781 h -16 z m 0,0" />
  <path
     style="fill:#ffffff"
     id="path12"
     d="m 53.829508,-59.255987 h 16 v 15.050781 h -16 z m 0,0" />
  <path
     style="fill:#ffffff"
     id="path14"
     d="m -114.64705,-307.72864 h -15.04688 v -31.52735 h 55.523438 v 15.05078 h -40.476558 z m 0,0" />
  <path
     style="fill:#ffffff"
     id="path16"
     d="m 109.82951,-323.25599 h 16 v 15.05078 h -16 z m 0,0" />
  <g
     style="fill:#231f20"
     transform="translate(-258.17049,-451.25599)"
     id="g36">
    <path
       id="path18"
       d="m 497.77734,448 -33.42187,-16.71094 -5.44141,2.15625 C 442.32812,394.04297 382.35156,363.66797 303.52344,354.75 V 175.05078 h 112 V 80 H 352 v 15.050781 h 48.47266 V 160 H 288.47656 V 353.27344 C 278.08984,352.43359 267.20703,352 256,352 c -11.21875,0 -22.11328,0.43359 -32.47266,1.27344 v -97.75 H 208.47656 V 354.75 c -79.4375,9 -139.687498,39.76172 -155.703122,79.57812 L 29.921875,448 H 0 v 15.05078 h 34.078125 l 28.691406,-17.16406 10.3125,-6.22656 54.328129,15.52343 64.52343,-8.0664 54.61719,7.80078 33.98438,8.49609 41.61718,-16.64844 37.13282,-7.42578 37.92187,15.17188 27.02344,9.01953 33.27734,-13.25781 4.26172,-1.76953 1.87891,-0.7461 30.57812,15.29297 h 17.77735 V 448 Z m -74.00781,-0.48047 -21.17969,-7.0625 -41.87109,-16.75 -42.87109,8.57422 -38.38282,15.35547 -29.64062,-7.41016 -57.75781,-8.29297 -63.47657,7.9336 -52.667965,-15.04688 c 8.851563,-10.73437 22.285156,-20.6875 39.777345,-29.35156 27.42187,-13.57813 62.35547,-22.72656 101.08984,-26.45703 12.3086,-1.30078 25.5,-1.96094 39.21094,-1.96094 13.71094,0 26.90234,0.66016 39.27734,1.96484 38.6836,3.72657 73.63282,12.87891 101.0625,26.46485 25.00391,12.38281 41.72657,27.39844 48.61328,43.58984 z m 0,0" />
    <path
       id="path20"
       d="m 128,408 h 16 v 15.05078 h -16 z m 0,0" />
    <path
       id="path22"
       d="m 144,392 h 16 v 15.05078 h -16 z m 0,0" />
    <path
       id="path24"
       d="m 392,408 h 16 v 15.05078 h -16 z m 0,0" />
    <path
       id="path26"
       d="m 240,384 h 16 v 15.05078 h -16 z m 0,0" />
    <path
       id="path28"
       d="m 256,400 h 16 v 15.05078 h -16 z m 0,0" />
    <path
       id="path30"
       d="m 208.47656,231.52344 h 15.05078 V 160 H 111.52344 V 95.050781 h 112.0039 v -80 h 64.94922 v 80 H 336 V 80 H 303.52734 V 0 H 208.47656 V 80 H 96.472656 v 95.05078 H 208.47656 Z m 0,0" />
    <path
       id="path32"
       d="m 200,112 h 16 v 15.05078 h -16 z m 0,0" />
    <path
       id="path34"
       d="m 336,128 h 16 v 15.05078 h -16 z m 0,0" />
  </g>
</svg>
