<svg height="512pt" viewBox="-2 0 512 512" width="512pt" xmlns="http://www.w3.org/2000/svg"><path d="m489.84375 140.445312 17.742188 16.246094v72.207032l-30.894532 14.832031c-2.78125 1.359375-4.65625 4.066406-4.945312 7.152343-.289063 3.082032 1.050781 6.089844 3.53125 7.941407l32.308594 23.660156v9.972656l-7.503907 4.503907c-2.417969 1.414062-4.019531 3.894531-4.3125 6.683593-.296875 2.785157.746094 5.546875 2.8125 7.441407l9.003907 8.207031v42.375l-4.855469 2.46875c-2.761719 1.40625-4.582031 4.160156-4.796875 7.25-.21875 3.089843 1.199218 6.066406 3.738281 7.847656 1.855469 1.324219 3.882813 2.648437 5.914063 4.058594v14.125c-.023438 5.429687-2.546876 10.546875-6.839844 13.875-4.292969 3.328125-9.875 4.492187-15.140625 3.164062-148.65625-35.046875-297.226563 60.996094-445.882813 12.355469v-353.101562c151.484375 49.523437 303.050782-51.199219 454.535156-10.152344 7.789063 2.0625 13.242188 9.070312 13.328126 17.125v35.839844l-16.332032 9.800781c-2.402344 1.429687-3.988281 3.917969-4.265625 6.703125-.277343 2.785156.78125 5.539062 2.855469 7.417968zm0 0" fill="#2c3e50"/><path d="m163.144531 333.851562c-4.410156 4.625-8.824219 9.183594-13.242187 13.671876-4.429688 3.746093-10.09375 5.710937-15.890625 5.519531-5.996094-.304688-11.652344 2.8125-14.59375 8.050781-2.433594 4.371094-2.433594 9.691406 0 14.0625 1.996093 3.992188 5.613281 6.933594 9.929687 8.070312 4.316406 1.136719 8.914063.359376 12.617188-2.128906.878906-.570312 1.699218-1.226562 2.445312-1.960937-.722656.746093-1.390625 1.542969-2.003906 2.382812-3.941406 5.839844-3.289062 13.640625 1.570312 18.742188 4.859376 5.105469 12.617188 6.140625 18.644532 2.488281 5.738281-3.210938 9.035156-9.511719 8.394531-16.058594-.449219-5.554687 1.539063-11.03125 5.449219-15.007812 4.914062-5.292969 9.828125-10.648438 14.75-16.0625.847656-.9375 1.261718-2.1875 1.136718-3.445313-.125-1.253906-.773437-2.398437-1.789062-3.152343l-21.691406-15.738282c-1.785156-1.253906-4.222656-1.015625-5.726563.566406zm0 0" fill="#ecf0f1"/><path d="m380.8125 297.773438c.773438-.929688 1.890625-1.5 3.09375-1.582032 1.207031-.082031 2.390625.332032 3.28125 1.148438 5.820312 5.335937 11.636719 10.792968 17.453125 16.367187 3.945313 3.78125 9.328125 5.679688 14.777344 5.207031 6.546875-.546874 12.769531 2.949219 15.710937 8.828126 2.445313 4.367187 2.445313 9.695312 0 14.0625-2.21875 3.769531-5.894531 6.460937-10.15625 7.433593-4.265625.972657-8.746094.148438-12.378906-2.289062-.882812-.539063-1.703125-1.171875-2.445312-1.886719.722656.722656 1.390624 1.5 2.003906 2.320312 2.425781 3.664063 3.171875 8.1875 2.046875 12.4375-1.121094 4.25-4.007813 7.8125-7.925781 9.800782-4.4375 2.414062-9.75 2.609375-14.347657.519531-5.785156-2.558594-9.199219-8.617187-8.386719-14.890625.578126-5.300781-1.453124-10.550781-5.445312-14.082031-5.382812-4.835938-10.765625-9.59375-16.144531-14.273438-1.820313-1.585937-2.027344-4.339843-.46875-6.179687zm0 0" fill="#ecf0f1"/><path d="m25.953125 46.167969v465.832031c-9.507813-.363281-17.050781-8.140625-17.125-17.65625v-448.175781zm0 0" fill="#f29c1f"/><path d="m44.136719 46.167969v448.175781c-.027344 9.738281-7.914063 17.628906-17.652344 17.65625h-.53125v-465.832031zm0 0" fill="#e57e25"/><path d="m52.964844 26.484375c0 14.625-11.855469 26.480469-26.480469 26.480469-14.628906 0-26.484375-11.855469-26.484375-26.480469 0-14.628906 11.855469-26.484375 26.484375-26.484375 14.625 0 26.480469 11.855469 26.480469 26.484375zm0 0" fill="#e4c05c"/><g fill="#ecf0f1"><path d="m374.378906 202.238281c-6.269531-48.816406-43.875-81.652343-100.195312-70.796875-56.320313 10.859375-93.925782 51.820313-100.191406 101.253906-6.269532 49.875 25.070312 46.519532 18.800781 71.679688-6.265625 25.335938 6.269531 24.011719 24.984375 21.097656 18.714844-2.914062 18.800781 15.359375 12.535156 28.691406-6.269531 13.503907 43.871094 4.675782 43.871094 4.5 0-.175781 50.054687-8.914062 43.785156-20.039062-6.265625-11.121094-6.265625-29.746094 12.535156-32.660156 18.804688-2.914063 31.339844-4.148438 25.070313-28.074219-6.265625-23.921875 25.070312-27.277344 18.804687-75.652344zm-131.972656 69.386719c-12.625 6.089844-25.160156 3.617188-28.074219-5.207031-2.910156-8.828125 4.855469-20.480469 17.390625-26.394531 12.535156-5.914063 25.160156-3.886719 28.074219 4.855468 2.910156 8.738282-4.855469 20.742188-17.390625 26.746094zm31.777344 54.90625c-3.980469 1-8.199219.082031-11.402344-2.480469-3.207031-2.566406-5.027344-6.480469-4.925781-10.582031 0-8.828125 7.324219-25.335938 16.328125-27.011719 9.003906-1.679687 16.332031 12.179688 16.332031 21.097657-.429687 9.328124-7.167969 17.160156-16.332031 18.976562zm58.792968-80.507812c-4.941406 10.679687-16.519531 16.613281-28.070312 14.390624-12.535156-1.675781-20.304688-10.859374-17.390625-20.65625 4.820313-10.808593 16.445313-16.878906 28.070313-14.65625 12.535156 1.765626 20.390624 11.214844 17.390624 20.921876zm0 0"/><path d="m368.992188 130.558594c-1.386719-1.851563-1.078126-4.464844.707031-5.941406 5.207031-4.046876 8.039062-10.433594 7.546875-17.007813-.617188-6.539063 2.671875-12.824219 8.394531-16.039063 6.019531-3.625 13.746094-2.589843 18.597656 2.492188 4.851563 5.082031 5.527344 12.847656 1.628907 18.691406-.5625.878906-1.21875 1.695313-1.953126 2.4375.75-.722656 1.546876-1.394531 2.382813-2.011718 3.734375-2.453126 8.335937-3.199219 12.648437-2.054688 4.316407 1.148438 7.941407 4.082031 9.960938 8.066406 2.375 4.386719 2.375 9.675782 0 14.0625-2.917969 5.226563-8.5625 8.335938-14.539062 8.003906-5.796876-.1875-11.457032 1.78125-15.890626 5.519532-2.082031 2.117187-4.164062 4.253906-6.242187 6.40625-.898437.933594-2.160156 1.425781-3.457031 1.34375-1.292969-.082032-2.484375-.726563-3.257813-1.765625zm0 0"/><path d="m182.660156 165.871094c1.390625-1.851563 1.082032-4.464844-.695312-5.941406-5.210938-4.046876-8.046875-10.433594-7.558594-17.011719.617188-6.53125-2.667969-12.816407-8.386719-16.039063-6.015625-3.625-13.746093-2.585937-18.59375 2.492188-4.851562 5.082031-5.527343 12.851562-1.628906 18.695312.554687.878906 1.207031 1.695313 1.941406 2.433594-.75-.722656-1.542969-1.394531-2.382812-2.011719-3.730469-2.457031-8.332031-3.203125-12.644531-2.054687-4.316407 1.148437-7.9375 4.082031-9.953126 8.066406-2.375 4.386719-2.375 9.675781 0 14.0625 2.910157 5.230469 8.550782 8.335938 14.527344 8.007812 5.796875-.191406 11.457032 1.777344 15.890625 5.515626 2.082031 2.121093 4.167969 4.253906 6.25 6.410156.898438.929687 2.160157 1.417968 3.453125 1.335937 1.289063-.082031 2.480469-.722656 3.257813-1.761719zm0 0"/></g></svg>