<?xml version="1.0" encoding="UTF-8" standalone="no"?>
<svg
   xmlns:dc="http://purl.org/dc/elements/1.1/"
   xmlns:cc="http://creativecommons.org/ns#"
   xmlns:rdf="http://www.w3.org/1999/02/22-rdf-syntax-ns#"
   xmlns:svg="http://www.w3.org/2000/svg"
   xmlns="http://www.w3.org/2000/svg"
   xml:space="preserve"
   style="enable-background:new 0 0 512 512;"
   viewBox="0 0 512 512"
   y="0px"
   x="0px"
   id="Layer_1"
   version="1.1"><metadata
     id="metadata105"><rdf:RDF><cc:Work
         rdf:about=""><dc:format>image/svg+xml</dc:format><dc:type
           rdf:resource="http://purl.org/dc/dcmitype/StillImage" /><dc:title></dc:title></cc:Work></rdf:RDF></metadata><defs
     id="defs103" /><g
     transform="translate(-249.49153,-507.66102)"
     id="g8"><path
       id="path2"
       d="M 466.117,367.976 H 440.685 V 71.962 h 40.002 V 49.485 c 0,-22.934 -18.592,-41.526 -41.526,-41.526 H 338.204 c -22.934,0 -41.526,18.592 -41.526,41.526 v 14.476 8 302.065 c -4.892,4.692 -8,11.697 -8,19.529 v 110.428 h 200.01 V 393.555 c -10e-4,-14.126 -10.106,-25.579 -22.571,-25.579 z"
       style="fill:#534741" /><path
       id="path4"
       d="M 201.217,367.976 H 175.785 V 71.962 h 40.002 V 49.485 c 0,-22.934 -18.592,-41.526 -41.526,-41.526 H 73.304 c -22.934,0 -41.526,18.592 -41.526,41.526 v 14.476 8 302.065 c -4.892,4.692 -8,11.697 -8,19.529 v 110.428 h 200.01 V 393.555 c -0.001,-14.126 -10.106,-25.579 -22.571,-25.579 z"
       style="fill:#534741" /><rect
       id="rect6"
       height="152.008"
       width="24.000999"
       style="fill:#534741"
       y="71.961998"
       x="215.783" /></g><g
     transform="translate(-249.49153,-507.66102)"
     id="g18"><polygon
       id="polygon10"
       points="80.081,188.814 80.085,230.792 56.54,230.792 56.54,104.859 95.781,104.859 95.781,188.814 "
       style="fill:#998675" /><polygon
       id="polygon12"
       points="31.778,71.962 7.776,71.962 7.776,95.963 7.776,223.969 31.778,223.969 31.778,95.963 95.781,95.963 95.781,71.962 "
       style="fill:#998675" /><polygon
       id="polygon14"
       points="157.116,280.497 55.779,280.497 55.779,309.894 157.607,309.894 157.607,368.448 215.787,370.46 216.213,69.882 157.607,69.882 "
       style="fill:#998675" /><path
       id="path16"
       d="m 174.26,8.268 h -44.635 c 22.934,0 38.948,18.281 38.948,41.215 v 23.701 h 47.117 v -23.7 C 215.689,26.551 197.194,8.268 174.26,8.268 Z"
       style="fill:#998675" /></g><rect
     id="rect20"
     height="31.410999"
     width="87.950996"
     style="fill:#534741"
     y="-315.63602"
     x="-169.39352" /><path
     id="path22"
     d="m -48.274525,-139.21302 h -56.003005 c 12.465005,0 23.358005,10.979 23.358005,25.107 V -4.1450169 h 55.493 V -114.10602 c 0,-14.126 -10.383,-25.107 -22.848,-25.107 z"
     style="fill:#998675" /><path
     id="path24"
     d="m -17.851525,-19.679017 h -15.706 v -97.436003 c 0,-8.115 -6.603,-14.717 -14.717,-14.717 H -203.14453 c -8.115,0 -14.717,6.603 -14.717,14.717 v 97.436003 h -15.706 v -97.436003 c 0,-16.776 13.648,-30.423 30.423,-30.423 h 154.870005 c 16.775,0 30.423,13.647 30.423,30.423 z" /><rect
     id="rect26"
     height="263.853"
     width="15.706"
     y="-419.81601"
     x="-226.45653" /><rect
     id="rect28"
     height="263.853"
     width="15.706"
     y="-419.81601"
     x="-41.131523" /><rect
     id="rect30"
     height="39.997002"
     width="31.285999"
     style="fill:#998675"
     y="-257.84003"
     x="-145.70953" /><rect
     id="rect32"
     height="15.706"
     width="24.082001"
     y="-258.57202"
     x="-138.50552" /><rect
     id="rect34"
     height="15.706"
     width="103.656"
     y="-227.16101"
     x="-177.24652" /><path
     id="path36"
     d="m -25.852525,-442.85302 v -15.323 c 0,-27.228 -22.151,-49.379 -49.379,-49.379 H -176.18653 c -27.228,0 -49.38,22.151 -49.38,49.379 v 15.324 h -23.925 v 159.149 h 15.706 v -143.443 h 72.245 v 24.082 h -31.411 v 15.706 h 31.411 v 63.869 h -15.706 v 47.117 h 103.656005 v -47.117 h -16.753 v -63.869 h 32.458 v -15.706 h -32.458 v -24.082 h 72.245 v 143.444 h 15.7069996 v -159.15 H -25.852525 Z m -80.195005,0 v 135.067 h 16.753005 v 15.706 h -72.246005 v -15.706 h 15.706 v -135.067 h -64.027 v -15.323 c 0,-18.567 15.107,-33.674 33.675,-33.674 h 100.955005 c 18.568,0 33.674,15.107 33.674,33.674 v 15.324 h -64.490005 v -0.001 z" /><rect
     id="rect38"
     height="152.008"
     width="24.000999"
     style="fill:#534741"
     y="-435.69901"
     x="231.19148" /><g
     transform="translate(-249.49153,-507.66102)"
     id="g48"><polygon
       id="polygon40"
       points="344.981,188.814 344.984,230.792 321.44,230.792 321.44,104.859 360.68,104.859 360.68,188.814 "
       style="fill:#998675" /><polygon
       id="polygon42"
       points="296.677,71.962 272.676,71.962 272.676,95.963 272.676,223.969 296.677,223.969 296.677,95.963 360.68,95.963 360.68,71.962 "
       style="fill:#998675" /><polygon
       id="polygon44"
       points="422.507,280.686 320.678,280.686 320.678,311.973 422.507,311.973 422.507,368.448 480.686,374.026 481.112,71.962 422.507,71.962 "
       style="fill:#998675" /><path
       id="path46"
       d="m 439.16,8.268 h -44.634 c 22.934,0 38.948,18.281 38.948,41.215 v 23.701 h 47.117 v -23.7 C 480.589,26.551 462.094,8.268 439.16,8.268 Z"
       style="fill:#998675" /></g><rect
     id="rect50"
     height="31.410999"
     width="87.950996"
     style="fill:#534741"
     y="-315.63602"
     x="95.506462" /><path
     id="path52"
     d="m 216.62547,-139.21302 h -56.003 c 12.465,0 23.358,10.979 23.358,25.107 V -4.1450169 h 55.493 V -114.10602 c 0,-14.126 -10.383,-25.107 -22.848,-25.107 z"
     style="fill:#998675" /><path
     id="path54"
     d="m 247.04647,-19.679017 h -15.706 v -97.436003 c 0,-8.115 -6.603,-14.717 -14.717,-14.717 H 61.755475 c -8.115,0 -14.717,6.603 -14.717,14.717 v 97.436003 h -15.706 v -97.436003 c 0,-16.776 13.647,-30.423 30.423,-30.423 H 216.62547 c 16.775,0 30.423,13.647 30.423,30.423 v 97.436003 h -0.002 z" /><rect
     id="rect56"
     height="263.853"
     width="15.706"
     y="-419.81601"
     x="38.443474" /><rect
     id="rect58"
     height="263.853"
     width="15.706"
     y="-419.81601"
     x="223.76848" /><rect
     id="rect60"
     height="39.997002"
     width="31.285999"
     style="fill:#998675"
     y="-257.84003"
     x="119.19048" /><rect
     id="rect62"
     height="15.706"
     width="24.082001"
     y="-258.57202"
     x="126.39349" /><rect
     id="rect64"
     height="15.706"
     width="103.656"
     y="-227.16101"
     x="87.653465" /><path
     id="path66"
     d="m 239.04747,-442.85302 v -15.323 c 0,-27.228 -22.151,-49.379 -49.379,-49.379 H 88.712475 c -27.228,0 -49.379,22.151 -49.379,49.379 v 15.324 h -23.925 v 159.149 h 15.706 v -143.443 h 72.244995 v 24.082 H 71.948475 v 15.706 h 31.410995 v 63.869 H 87.653475 v 47.117 H 191.30947 v -47.117 h -16.753 v -63.869 h 32.458 v -15.706 h -32.458 v -24.082 h 72.245 v 143.444 h 15.707 v -159.15 h -23.461 z m -80.195,0 v 135.067 h 16.753 v 15.706 h -72.245 v -15.706 h 15.706 v -135.067 H 55.038475 v -15.323 c 0,-18.567 15.107,-33.674 33.674,-33.674 H 189.66847 c 18.567,0 33.674,15.107 33.674,33.674 v 15.324 h -64.49 z" /><rect
     x="-249.49153"
     id="rect68"
     height="15.706"
     width="512"
     y="-11.472022" /><g
     transform="translate(-249.49153,-507.66102)"
     id="g70" /><g
     transform="translate(-249.49153,-507.66102)"
     id="g72" /><g
     transform="translate(-249.49153,-507.66102)"
     id="g74" /><g
     transform="translate(-249.49153,-507.66102)"
     id="g76" /><g
     transform="translate(-249.49153,-507.66102)"
     id="g78" /><g
     transform="translate(-249.49153,-507.66102)"
     id="g80" /><g
     transform="translate(-249.49153,-507.66102)"
     id="g82" /><g
     transform="translate(-249.49153,-507.66102)"
     id="g84" /><g
     transform="translate(-249.49153,-507.66102)"
     id="g86" /><g
     transform="translate(-249.49153,-507.66102)"
     id="g88" /><g
     transform="translate(-249.49153,-507.66102)"
     id="g90" /><g
     transform="translate(-249.49153,-507.66102)"
     id="g92" /><g
     transform="translate(-249.49153,-507.66102)"
     id="g94" /><g
     transform="translate(-249.49153,-507.66102)"
     id="g96" /><g
     transform="translate(-249.49153,-507.66102)"
     id="g98" /></svg>