<?xml version="1.0" encoding="UTF-8" standalone="no"?>
<svg
   xmlns:dc="http://purl.org/dc/elements/1.1/"
   xmlns:cc="http://creativecommons.org/ns#"
   xmlns:rdf="http://www.w3.org/1999/02/22-rdf-syntax-ns#"
   xmlns:svg="http://www.w3.org/2000/svg"
   xmlns="http://www.w3.org/2000/svg"
   xmlns:sodipodi="http://sodipodi.sourceforge.net/DTD/sodipodi-0.dtd"
   xmlns:inkscape="http://www.inkscape.org/namespaces/inkscape"
   xml:space="preserve"
   style="enable-background:new 0 0 512.001 512.001;"
   viewBox="0 0 512.001 512.001"
   y="0px"
   x="0px"
   id="Layer_1"
   version="1.1"
   sodipodi:docname="res_weapon.svg"
   inkscape:version="0.92.1 r15371"><sodipodi:namedview
     pagecolor="#ffffff"
     bordercolor="#666666"
     borderopacity="1"
     objecttolerance="10"
     gridtolerance="10"
     guidetolerance="10"
     inkscape:pageopacity="0"
     inkscape:pageshadow="2"
     inkscape:window-width="1271"
     inkscape:window-height="742"
     id="namedview81"
     showgrid="false"
     inkscape:zoom="41.719221"
     inkscape:cx="1.1310496"
     inkscape:cy="510.41586"
     inkscape:window-x="357"
     inkscape:window-y="27"
     inkscape:window-maximized="0"
     inkscape:current-layer="Layer_1" /><metadata
     id="metadata159"><rdf:RDF><cc:Work
         rdf:about=""><dc:format>image/svg+xml</dc:format><dc:type
           rdf:resource="http://purl.org/dc/dcmitype/StillImage" /><dc:title /></cc:Work></rdf:RDF></metadata><defs
     id="defs157" /><rect
     style="opacity:0.8;fill:#ffffff;fill-opacity:1;stroke:#808080;stroke-width:1;stroke-linejoin:round;stroke-miterlimit:4;stroke-dasharray:2, 1;stroke-dashoffset:0;stroke-opacity:1"
     id="rect4558"
     width="9.5794153"
     height="9.5794153"
     x="-4.7505794"
     y="-4.6529179" /><g
     id="g4781"
     transform="matrix(0.01380707,0,0,0.01397053,-3.4954963,-3.4396726)"
     style="stroke:#000000"><g
       id="g4704"
       style="stroke:#000000"><path
         id="path4660"
         d="m 256.004,461.999 h -94.26 c 2.68,13.392 5.619,26.731 8.822,40.001 h 85.439 z"
         style="fill:#987866;stroke:#000000"
         inkscape:connector-curvature="0" /><path
         id="path4662"
         d="M 256.004,461.999 256.002,502 h 85.435 c 3.204,-13.27 6.143,-26.608 8.822,-40.001 z"
         style="fill:#d0b390;stroke:#000000"
         inkscape:connector-curvature="0" /><path
         id="path4664"
         d="m 350.259,461.999 c -2.679,13.392 -5.618,26.731 -8.822,40.001 h 67.739 c 6.447,-13.003 12.398,-26.347 17.826,-40.001 z"
         style="fill:#987866;stroke:#000000"
         inkscape:connector-curvature="0" /><path
         id="path4666"
         d="m 170.566,502 c -3.203,-13.27 -6.143,-26.608 -8.822,-40.001 H 85.001 c 5.429,13.653 11.38,26.997 17.827,40.001 z"
         style="fill:#d0b390;stroke:#000000"
         inkscape:connector-curvature="0" /><path
         id="path4668"
         d="m 85.001,461.999 h 76.743 94.26 94.255 76.743 c 10.197,-25.642 18.55,-52.376 24.87,-80.001 H 414.311 363.059 256.002 148.944 60.134 c 6.319,27.625 14.671,54.359 24.867,80.001 z"
         style="fill:#ffc16d;stroke:#000000"
         inkscape:connector-curvature="0" /><path
         id="path4670"
         d="m 60.135,381.998 h 88.81 c -5.031,-41.726 -7.562,-83.817 -7.562,-125.999 0,-42.181 2.531,-84.273 7.562,-125.999 H 103.926 60.133 c -9.229,40.316 -14.131,82.526 -14.131,125.999 0,43.473 4.902,85.683 14.133,125.999 z"
         style="fill:#d0b390;stroke:#000000"
         inkscape:connector-curvature="0" /><path
         id="path4672"
         d="m 141.383,255.999 c 0,42.182 2.53,84.273 7.562,125.999 H 256.003 L 256.004,130 h -107.06 c -5.03,41.727 -7.561,83.819 -7.561,125.999 z"
         style="fill:#987866;stroke:#000000"
         inkscape:connector-curvature="0" /><path
         id="path4674"
         d="m 256.003,130.001 -10e-4,251.998 h 107.057 c 5.031,-41.726 7.562,-83.817 7.562,-125.999 0,-42.181 -2.532,-84.273 -7.562,-125.999 z"
         style="fill:#d0b390;stroke:#000000"
         inkscape:connector-curvature="0" /><g
         id="g4680"
         style="stroke:#000000"><path
           id="path4676"
           d="m 363.059,130.001 c 5.03,41.726 7.562,83.818 7.562,125.999 0,42.182 -2.531,84.273 -7.562,125.999 h 51.252 37.561 c 9.228,-40.316 14.13,-82.526 14.13,-125.999 0,-43.473 -4.902,-85.683 -14.131,-125.999 z"
           style="fill:#987866;stroke:#000000"
           inkscape:connector-curvature="0" /><path
           id="path4678"
           d="m 256.004,50 h -94.26 c 2.68,-13.392 5.619,-26.731 8.822,-40 h 85.439 z"
           style="fill:#987866;stroke:#000000"
           inkscape:connector-curvature="0" /></g><path
         id="path4682"
         d="m 256.004,50 -0.002,-40 h 85.435 c 3.204,13.269 6.143,26.608 8.822,40 z"
         style="fill:#d0b390;stroke:#000000"
         inkscape:connector-curvature="0" /><path
         id="path4684"
         d="M 350.259,50 C 347.58,36.608 344.641,23.269 341.437,10 h 67.739 c 6.447,13.003 12.398,26.346 17.826,40 z"
         style="fill:#987866;stroke:#000000"
         inkscape:connector-curvature="0" /><path
         id="path4686"
         d="m 170.566,10 c -3.203,13.269 -6.143,26.608 -8.822,40 H 85.001 C 90.43,36.347 96.381,23.003 102.828,10 Z"
         style="fill:#d0b390;stroke:#000000"
         inkscape:connector-curvature="0" /><path
         id="path4688"
         d="m 85.001,50 h 76.743 94.26 94.255 76.743 c 10.197,25.642 18.55,52.377 24.87,80.001 H 414.311 363.059 256.002 148.944 60.134 C 66.453,102.377 74.805,75.642 85.001,50 Z"
         style="fill:#ffc16d;stroke:#000000"
         inkscape:connector-curvature="0" /><path
         id="path4690"
         d="m 91.929,212.308 c 0.225,0.015 0.447,0.022 0.668,0.022 5.223,0 9.62,-4.056 9.969,-9.343 0.002,-0.028 0.006,-0.101 0.009,-0.151 0.352,-5.47 -3.771,-10.212 -9.25,-10.612 -5.509,-0.401 -10.3,3.735 -10.703,9.243 -0.004,0.064 -0.009,0.141 -0.013,0.205 -0.364,5.511 3.809,10.272 9.32,10.636 z"
         inkscape:connector-curvature="0"
         style="stroke:#000000" /><path
         id="path4692"
         d="m 438.858,286.03 c 0.245,-5.517 -4.029,-10.188 -9.546,-10.434 -5.479,-0.22 -10.133,3.977 -10.43,9.446 -0.004,0.06 -0.009,0.149 -0.011,0.195 -0.266,5.517 3.99,10.204 9.507,10.47 0.164,0.008 0.327,0.012 0.489,0.012 5.275,0 9.678,-4.125 9.977,-9.438 0.004,-0.073 0.011,-0.191 0.014,-0.251 z"
         inkscape:connector-curvature="0"
         style="stroke:#000000" /><path
         id="path4694"
         d="m 436.577,464.875 c 10.143,-25.699 18.402,-52.286 24.681,-79.456 0.294,-0.806 0.492,-1.657 0.569,-2.545 9.357,-41.347 14.174,-84.003 14.174,-126.876 0,-42.874 -4.818,-85.533 -14.175,-126.881 -0.078,-0.883 -0.275,-1.73 -0.567,-2.533 -6.28,-27.177 -14.541,-53.77 -24.688,-79.475 -0.156,-0.517 -0.359,-1.012 -0.593,-1.49 C 430.557,32 424.614,18.626 418.136,5.558 416.448,2.154 412.977,0 409.177,0 H 102.828 c -3.8,0 -7.271,2.154 -8.959,5.558 -6.478,13.065 -12.419,26.436 -17.841,40.054 -0.236,0.482 -0.441,0.981 -0.598,1.503 -10.145,25.703 -18.405,52.293 -24.686,79.467 -0.293,0.804 -0.491,1.652 -0.568,2.538 -9.357,41.348 -14.175,84.006 -14.175,126.879 0,42.877 4.819,85.539 14.178,126.891 0.078,0.875 0.273,1.714 0.561,2.509 6.279,27.172 14.538,53.761 24.681,79.463 0.162,0.541 0.373,1.059 0.619,1.557 5.418,13.606 11.355,26.966 17.828,40.021 1.688,3.404 5.159,5.558 8.959,5.558 h 67.674 c 0.02,0 0.038,0.003 0.058,0.003 0.014,0 0.027,-0.003 0.041,-0.003 h 170.804 c 0.014,0 0.027,0.003 0.041,0.003 0.02,0 0.038,-0.003 0.058,-0.003 h 67.675 c 3.8,0 7.271,-2.154 8.959,-5.558 6.475,-13.061 12.415,-26.428 17.835,-40.041 0.239,-0.487 0.447,-0.994 0.605,-1.524 z M 266.005,492 266.004,471.999 h 71.975 c -1.422,6.696 -2.911,13.375 -4.456,20.001 z m -87.524,0 c -1.545,-6.626 -3.033,-13.304 -4.455,-20.001 h 71.979 V 492 Z m 171.753,-40.001 c -0.019,0 -0.038,0 -0.056,0 H 161.819 c -0.016,0 -0.031,0 -0.047,0 H 91.877 C 84.42,432.467 78.085,412.42 72.916,391.998 h 75.995 c 0.007,0 0.014,0.001 0.021,0.001 0.005,0 0.011,-0.001 0.016,-0.001 h 214.107 c 0.005,0 0.011,0.001 0.016,0.001 0.007,0 0.014,-0.001 0.021,-0.001 h 51.186 c 0.013,0 0.027,0.002 0.04,0.002 0.02,0 0.039,-0.002 0.058,-0.002 h 24.712 c -5.169,20.422 -11.504,40.469 -18.961,60.001 z M 91.877,60 h 69.838 c 0.013,0 0.026,0.002 0.04,0.002 0.015,0 0.03,-0.002 0.044,-0.002 h 188.404 c 0.015,0 0.029,0.002 0.044,0.002 0.013,0 0.026,-0.002 0.04,-0.002 h 69.84 c 7.457,19.532 13.791,39.579 18.961,60.001 H 72.916 C 78.085,99.579 84.42,79.532 91.877,60 Z m 154.125,-40 10e-4,20 h -71.978 c 1.422,-6.694 2.91,-13.372 4.455,-20 z m 87.521,0 c 1.545,6.625 3.033,13.304 4.455,20 h -71.975 l -10e-4,-20 z m 94.129,283.632 c -5.49,-0.604 -10.428,3.36 -11.03,8.85 -2.192,19.99 -5.616,39.973 -10.185,59.516 h -32.169 c 4.213,-38.405 6.353,-77.369 6.353,-115.999 0,-38.622 -2.14,-77.587 -6.353,-115.999 h 69.481 c 8.093,37.876 12.253,76.84 12.253,115.999 0,39.159 -4.16,78.124 -12.253,115.999 h -16.808 c 4.232,-18.871 7.452,-38.099 9.562,-57.336 0.602,-5.49 -3.36,-10.428 -8.851,-11.03 z M 266.002,371.998 266.003,140 h 88.147 c 4.293,38.394 6.471,77.372 6.471,115.999 0,38.635 -2.178,77.612 -6.471,115.999 z m -108.149,0 c -4.292,-38.382 -6.47,-77.359 -6.47,-115.999 0,-38.632 2.178,-77.61 6.47,-115.999 h 88.15 l -10e-4,231.998 z M 90.989,140.001 c -0.042,0.157 -0.086,0.321 -0.127,0.474 -2.853,10.641 -3.92,14.623 -5.91,32.779 -0.602,5.49 3.361,10.428 8.851,11.03 0.371,0.04 0.738,0.061 1.103,0.061 5.034,0 9.366,-3.792 9.928,-8.912 1.823,-16.634 2.64,-19.682 5.347,-29.778 0.445,-1.66 0.944,-3.521 1.504,-5.653 h 26.052 c -4.212,38.407 -6.353,77.372 -6.353,115.999 0,38.634 2.14,77.598 6.352,115.999 H 68.255 C 60.161,334.124 56.002,295.16 56.002,256.001 c 0,-39.159 4.16,-78.123 12.253,-115.999 H 90.989 Z M 412.025,40 h -53.61 c -1.392,-6.685 -2.851,-13.363 -4.367,-20 h 48.884 c 3.169,6.592 6.198,13.262 9.093,20 z M 109.073,20 h 48.882 c -1.517,6.639 -2.976,13.316 -4.367,20 H 99.98 c 2.895,-6.738 5.924,-13.408 9.093,-20 z M 99.98,471.999 h 53.608 c 1.392,6.686 2.851,13.364 4.367,20.001 h -48.882 c -3.169,-6.592 -6.198,-13.262 -9.093,-20.001 z M 402.932,492 h -48.883 c 1.516,-6.637 2.975,-13.315 4.367,-20.001 h 53.609 c -2.895,6.739 -5.924,13.409 -9.093,20.001 z"
         inkscape:connector-curvature="0"
         style="stroke:#000000" /><path
         id="path4696"
         d="m 176.549,406.999 c -7.502,0 -13.621,6.738 -13.621,15 0,8.262 6.119,15 13.621,15 7.502,0 13.621,-6.738 13.621,-15 0,-8.263 -6.119,-15 -13.621,-15 z"
         inkscape:connector-curvature="0"
         style="stroke:#000000" /><path
         id="path4698"
         d="m 335.455,406.999 c -7.502,0 -13.62,6.738 -13.62,15 0,8.262 6.118,15 13.62,15 7.502,0 13.621,-6.738 13.621,-15 0,-8.263 -6.119,-15 -13.621,-15 z"
         inkscape:connector-curvature="0"
         style="stroke:#000000" /><path
         id="path4700"
         d="m 176.549,105.001 c 7.502,0 13.621,-6.739 13.621,-15 0,-8.262 -6.119,-15.001 -13.621,-15.001 -7.502,0 -13.621,6.739 -13.621,15.001 0,8.261 6.119,15 13.621,15 z"
         inkscape:connector-curvature="0"
         style="stroke:#000000" /><path
         id="path4702"
         d="m 335.455,105.001 c 7.502,0 13.621,-6.739 13.621,-15 0,-8.262 -6.119,-15.001 -13.621,-15.001 -7.502,0 -13.62,6.739 -13.62,15.001 0,8.261 6.118,15 13.62,15 z"
         inkscape:connector-curvature="0"
         style="stroke:#000000" /></g><g
       id="g4706"
       style="stroke:#000000" /><g
       id="g4708"
       style="stroke:#000000" /><g
       id="g4710"
       style="stroke:#000000" /><g
       id="g4712"
       style="stroke:#000000" /><g
       id="g4714"
       style="stroke:#000000" /><g
       id="g4716"
       style="stroke:#000000" /><g
       id="g4718"
       style="stroke:#000000" /><g
       id="g4720"
       style="stroke:#000000" /><g
       id="g4722"
       style="stroke:#000000" /><g
       id="g4724"
       style="stroke:#000000" /><g
       id="g4726"
       style="stroke:#000000" /><g
       id="g4728"
       style="stroke:#000000" /><g
       id="g4730"
       style="stroke:#000000" /><g
       id="g4732"
       style="stroke:#000000" /><g
       id="g4734"
       style="stroke:#000000" /></g><g
     transform="translate(-258.16998,-507.66199)"
     id="g124" /><g
     transform="translate(-258.16998,-507.66199)"
     id="g126" /><g
     transform="translate(-258.16998,-507.66199)"
     id="g128" /><g
     transform="translate(-258.16998,-507.66199)"
     id="g130" /><g
     transform="translate(-258.16998,-507.66199)"
     id="g132" /><g
     transform="translate(-258.16998,-507.66199)"
     id="g134" /><g
     transform="translate(-258.16998,-507.66199)"
     id="g136" /><g
     transform="translate(-258.16998,-507.66199)"
     id="g138" /><g
     transform="translate(-258.16998,-507.66199)"
     id="g140" /><g
     transform="translate(-258.16998,-507.66199)"
     id="g142" /><g
     transform="translate(-258.16998,-507.66199)"
     id="g144" /><g
     transform="translate(-258.16998,-507.66199)"
     id="g146" /><g
     transform="translate(-258.16998,-507.66199)"
     id="g148" /><g
     transform="translate(-258.16998,-507.66199)"
     id="g150" /><g
     transform="translate(-258.16998,-507.66199)"
     id="g152" /></svg>