<?xml version="1.0" encoding="UTF-8" standalone="no"?>
<svg
   xmlns:dc="http://purl.org/dc/elements/1.1/"
   xmlns:cc="http://creativecommons.org/ns#"
   xmlns:rdf="http://www.w3.org/1999/02/22-rdf-syntax-ns#"
   xmlns:svg="http://www.w3.org/2000/svg"
   xmlns="http://www.w3.org/2000/svg"
   xmlns:sodipodi="http://sodipodi.sourceforge.net/DTD/sodipodi-0.dtd"
   xmlns:inkscape="http://www.inkscape.org/namespaces/inkscape"
   xml:space="preserve"
   style="enable-background:new 0 0 512.001 512.001;"
   viewBox="0 0 512.001 512.001"
   y="0px"
   x="0px"
   id="Layer_1"
   version="1.1"
   sodipodi:docname="res_food.svg"
   inkscape:version="0.92.1 r15371"><sodipodi:namedview
     pagecolor="#ffffff"
     bordercolor="#666666"
     borderopacity="1"
     objecttolerance="10"
     gridtolerance="10"
     guidetolerance="10"
     inkscape:pageopacity="0"
     inkscape:pageshadow="2"
     inkscape:window-width="1271"
     inkscape:window-height="742"
     id="namedview81"
     showgrid="false"
     inkscape:zoom="20.85961"
     inkscape:cx="-6.4112328"
     inkscape:cy="515.38633"
     inkscape:window-x="357"
     inkscape:window-y="27"
     inkscape:window-maximized="0"
     inkscape:current-layer="Layer_1" /><metadata
     id="metadata159"><rdf:RDF><cc:Work
         rdf:about=""><dc:format>image/svg+xml</dc:format><dc:type
           rdf:resource="http://purl.org/dc/dcmitype/StillImage" /><dc:title /></cc:Work></rdf:RDF></metadata><defs
     id="defs157" /><rect
     style="opacity:0.8;fill:#ffffff;fill-opacity:1;stroke:#808080;stroke-width:1;stroke-linejoin:round;stroke-miterlimit:4;stroke-dasharray:2, 1;stroke-dashoffset:0;stroke-opacity:1"
     id="rect4558"
     width="9.5794153"
     height="9.5794153"
     x="-4.7505784"
     y="-4.6529188" /><g
     transform="translate(-258.16998,-507.66199)"
     id="g124" /><g
     transform="translate(-258.16998,-507.66199)"
     id="g126" /><g
     transform="translate(-258.16998,-507.66199)"
     id="g128" /><g
     transform="translate(-258.16998,-507.66199)"
     id="g130" /><g
     transform="translate(-258.16998,-507.66199)"
     id="g132" /><g
     transform="translate(-258.16998,-507.66199)"
     id="g134" /><g
     transform="translate(-258.16998,-507.66199)"
     id="g136" /><g
     transform="translate(-258.16998,-507.66199)"
     id="g138" /><g
     transform="translate(-258.16998,-507.66199)"
     id="g140" /><g
     transform="translate(-258.16998,-507.66199)"
     id="g142" /><g
     transform="translate(-258.16998,-507.66199)"
     id="g144" /><g
     transform="translate(-258.16998,-507.66199)"
     id="g146" /><g
     transform="translate(-258.16998,-507.66199)"
     id="g148" /><g
     transform="translate(-258.16998,-507.66199)"
     id="g150" /><g
     transform="translate(-258.16998,-507.66199)"
     id="g152" /><g
     id="g4656"
     transform="matrix(0.01536403,0,0,0.01536403,-3.8402883,-3.7426287)"
     style="stroke:#000000"><g
       id="g4618"
       style="stroke:#000000"><ellipse
         id="ellipse4600"
         ry="245"
         rx="197.429"
         cy="252.5"
         cx="252.5"
         style="fill:#ad7136;stroke:#000000" /><path
         id="path4602"
         d="m 252.49,497.5 c -109.03,0 -197.42,-109.69 -197.42,-245 0,-135.31 88.39,-245 197.42,-245 -47.5,0 -86,109.69 -86,245 0,135.31 38.5,245 86,245 z"
         style="fill:#8c531f;stroke:#000000"
         inkscape:connector-curvature="0" /><g
         id="g4606"
         style="stroke:#000000"><circle
           id="circle4604"
           r="27.365999"
           cy="59.918999"
           cx="252.5"
           style="fill:#3f3730;stroke:#000000" /></g><g
         id="g4616"
         style="stroke:#000000"><g
           id="g4610"
           style="stroke:#000000"><circle
             id="circle4608"
             r="27.365999"
             cy="131.67999"
             cx="198.744"
             style="fill:#3f3730;stroke:#000000" /></g><g
           id="g4614"
           style="stroke:#000000"><circle
             id="circle4612"
             r="27.365999"
             cy="131.67999"
             cx="306.255"
             style="fill:#3f3730;stroke:#000000" /></g></g></g><g
       id="g4654"
       style="stroke:#000000"><path
         id="path4620"
         d="M 252.5,505 C 159.3,505 77.769,427.537 54.231,316.625 c -0.86,-4.052 1.728,-8.034 5.779,-8.894 4.052,-0.861 8.034,1.728 8.894,5.779 C 90.957,417.425 166.454,490 252.5,490 c 104.728,0 189.93,-106.542 189.93,-237.5 0,-57.502 -16.673,-112.997 -46.947,-156.26 -2.375,-3.394 -1.549,-8.07 1.845,-10.445 3.394,-2.375 8.069,-1.548 10.444,1.845 32.022,45.761 49.658,104.31 49.658,164.86 0,67.148 -21.126,130.344 -59.486,177.947 C 359.202,478.523 307.549,505 252.5,505 Z"
         inkscape:connector-curvature="0"
         style="stroke:#000000" /><path
         id="path4622"
         d="m 56.541,290.146 c -3.811,0 -7.072,-2.891 -7.455,-6.763 C 48.08,273.208 47.57,262.817 47.57,252.499 47.57,185.351 68.696,122.155 107.056,74.552 145.797,26.477 197.45,0 252.5,0 c 48.643,0 95.785,21.331 132.741,60.063 2.859,2.997 2.748,7.744 -0.248,10.604 -2.996,2.86 -7.744,2.749 -10.604,-0.249 C 340.29,34.681 297.003,15 252.5,15 147.772,15 62.57,121.542 62.57,252.5 c 0,9.827 0.485,19.721 1.443,29.408 0.407,4.122 -2.604,7.794 -6.726,8.202 -0.25,0.024 -0.499,0.036 -0.746,0.036 z"
         inkscape:connector-curvature="0"
         style="stroke:#000000" /><g
         id="g4626"
         style="stroke:#000000"><path
           id="path4624"
           d="m 252.5,94.785 c -19.225,0 -34.866,-15.641 -34.866,-34.866 0,-19.226 15.641,-34.867 34.866,-34.867 19.225,0 34.867,15.641 34.867,34.867 -0.001,19.225 -15.642,34.866 -34.867,34.866 z m 0,-54.733 c -10.954,0 -19.866,8.912 -19.866,19.867 0,10.954 8.912,19.866 19.866,19.866 10.955,0 19.867,-8.912 19.867,-19.866 C 272.366,48.964 263.454,40.052 252.5,40.052 Z"
           inkscape:connector-curvature="0"
           style="stroke:#000000" /></g><g
         id="g4636"
         style="stroke:#000000"><g
           id="g4630"
           style="stroke:#000000"><path
             id="path4628"
             d="m 198.744,166.547 c -19.225,0 -34.866,-15.641 -34.866,-34.867 0,-19.225 15.641,-34.866 34.866,-34.866 19.226,0 34.867,15.641 34.867,34.866 0,19.226 -15.641,34.867 -34.867,34.867 z m 0,-54.733 c -10.954,0 -19.866,8.912 -19.866,19.866 0,10.955 8.912,19.867 19.866,19.867 10.955,0 19.867,-8.912 19.867,-19.867 0,-10.954 -8.912,-19.866 -19.867,-19.866 z"
             inkscape:connector-curvature="0"
             style="stroke:#000000" /></g><g
           id="g4634"
           style="stroke:#000000"><path
             id="path4632"
             d="m 306.255,166.547 c -19.226,0 -34.866,-15.641 -34.866,-34.867 0,-19.225 15.641,-34.866 34.866,-34.866 19.225,0 34.867,15.641 34.867,34.866 0,19.226 -15.642,34.867 -34.867,34.867 z m 0,-54.733 c -10.954,0 -19.866,8.912 -19.866,19.866 0,10.955 8.912,19.867 19.866,19.867 10.955,0 19.867,-8.912 19.867,-19.867 0,-10.954 -8.912,-19.866 -19.867,-19.866 z"
             inkscape:connector-curvature="0"
             style="stroke:#000000" /></g></g><g
         id="g4644"
         style="stroke:#000000"><path
           id="path4638"
           d="m 126.463,401.549 c -6.746,0 -10.028,-8.648 -4.963,-13.124 2.244,-1.983 5.548,-2.423 8.238,-1.123 2.961,1.431 4.67,4.737 4.12,7.981 -0.603,3.562 -3.771,6.266 -7.395,6.266 z"
           inkscape:connector-curvature="0"
           style="stroke:#000000" /><path
           id="path4640"
           d="m 113.513,377.809 c -6.578,0 -9.977,-8.32 -5.195,-12.903 4.972,-4.765 13.507,-0.542 12.634,6.322 -0.472,3.71 -3.684,6.581 -7.439,6.581 z"
           inkscape:connector-curvature="0"
           style="stroke:#000000" /><path
           id="path4642"
           d="m 138.003,377.599 c -3.269,0 -6.213,-2.199 -7.169,-5.319 -0.96,-3.132 0.309,-6.655 3.058,-8.443 5.182,-3.37 12.163,0.836 11.575,6.997 -0.363,3.794 -3.66,6.765 -7.464,6.765 z"
           inkscape:connector-curvature="0"
           style="stroke:#000000" /></g><g
         id="g4652"
         style="stroke:#000000"><path
           id="path4646"
           d="m 417.743,200.269 c -6.705,0 -10.026,-8.556 -5.036,-13.061 2.478,-2.237 6.221,-2.556 9.042,-0.777 2.662,1.679 4.015,4.958 3.296,8.026 -0.784,3.349 -3.848,5.812 -7.302,5.812 z"
           inkscape:connector-curvature="0"
           style="stroke:#000000" /><path
           id="path4648"
           d="m 393.692,187.909 c -6.844,0 -10.017,-8.776 -4.873,-13.201 5.085,-4.374 13.15,0.014 12.313,6.62 -0.47,3.708 -3.687,6.581 -7.44,6.581 z"
           inkscape:connector-curvature="0"
           style="stroke:#000000" /><path
           id="path4650"
           d="m 413.833,173.979 c -6.795,0 -10.042,-8.755 -4.896,-13.181 2.434,-2.093 5.997,-2.387 8.753,-0.754 2.64,1.564 4.052,4.7 3.533,7.714 -0.61,3.539 -3.793,6.221 -7.39,6.221 z"
           inkscape:connector-curvature="0"
           style="stroke:#000000" /></g></g></g></svg>