<?xml version="1.0" encoding="UTF-8" standalone="no"?>
<svg
   xmlns:dc="http://purl.org/dc/elements/1.1/"
   xmlns:cc="http://creativecommons.org/ns#"
   xmlns:rdf="http://www.w3.org/1999/02/22-rdf-syntax-ns#"
   xmlns:svg="http://www.w3.org/2000/svg"
   xmlns="http://www.w3.org/2000/svg"
   xmlns:sodipodi="http://sodipodi.sourceforge.net/DTD/sodipodi-0.dtd"
   xmlns:inkscape="http://www.inkscape.org/namespaces/inkscape"
   xml:space="preserve"
   style="enable-background:new 0 0 512.001 512.001;"
   viewBox="0 0 512.001 512.001"
   y="0px"
   x="0px"
   id="Layer_1"
   version="1.1"
   sodipodi:docname="resource-ship-2.svg"
   inkscape:version="0.92.1 r15371"><defs
     id="defs33"><style
       id="style4513"
       type="text/css">
   
    .fil0 {fill:black}
   
  </style></defs><sodipodi:namedview
     pagecolor="#ffffff"
     bordercolor="#666666"
     borderopacity="1"
     objecttolerance="10"
     gridtolerance="10"
     guidetolerance="10"
     inkscape:pageopacity="0"
     inkscape:pageshadow="2"
     inkscape:window-width="1920"
     inkscape:window-height="1001"
     id="namedview31"
     showgrid="false"
     inkscape:zoom="16.000001"
     inkscape:cx="-32.146685"
     inkscape:cy="521.71891"
     inkscape:window-x="-9"
     inkscape:window-y="-9"
     inkscape:window-maximized="1"
     inkscape:current-layer="Layer_1" /><metadata
     id="metadata159"><rdf:RDF><cc:Work
         rdf:about=""><dc:format>image/svg+xml</dc:format><dc:type
           rdf:resource="http://purl.org/dc/dcmitype/StillImage" /><dc:title /></cc:Work></rdf:RDF></metadata><rect
     style="opacity:1;fill:#0000ff;fill-opacity:1;stroke:#ffffff;stroke-width:1.09480357;stroke-linejoin:round;stroke-miterlimit:4;stroke-dasharray:none;stroke-dashoffset:0;stroke-opacity:1"
     id="rect4511"
     width="20.905197"
     height="20.905195"
     x="-9.2043858"
     y="-9.4533854"
     transform="rotate(-90)" /><g
     style="clip-rule:evenodd;fill:#ffffff;fill-rule:evenodd;image-rendering:optimizeQuality;shape-rendering:geometricPrecision;text-rendering:geometricPrecision"
     id="g4519"
     transform="matrix(0.05456138,0,0,0.05456138,-8.6458668,-4.967987)"><path
       style="fill:#ffffff"
       inkscape:connector-curvature="0"
       class="fil0"
       d="m 167,194 c 15,-3 47,-10 47,-10 v -22 c -9,4 -27,22 -34,28 19,-23 50,-48 3,-99 7,4 21,5 29,7 l -1,-15 -28,8 c 5,-3 16,-14 16,-23 1,-11 -9,-21 -14,-26 l 25,6 c 1,-11 -1,-21 -1,-30 0,1 5,28 5,31 57,9 58,45 33,51 -5,2 -23,3 -27,-1 0,0 -2,-12 -2,-18 18,-1 29,1 29,19 3,4 5,4 9,8 2,3 4,4 6,8 20,32 -13,56 -17,62 0,0 -20,5 -20,5 l -2,-23 c 26,-9 27,6 22,18 16,-3 58,-36 74,-47 -6,9 -60,53 -60,53 -11,22 -36,29 -43,60 H 85 C 54,226 73,207 47,205 33,204 32,196 26,186 c -5,-8 -59,-22 6,-14 0,0 0,0 0,0 l 26,3 c -3,-36 -6,-72 -9,-110 0,0 11,93 13,111 l 17,1 c 3,36 66,20 66,20 l -6,-43 c -20,3 -39,10 -57,19 43,-23 8,-95 -21,-120 14,9 51,19 70,23 L 129,53 C 120,52 94,56 82,58 127,44 81,16 74,4 l 50,13 -1,-17 3,18 c 42,9 67,27 25,61 l -16,-3 c 0,0 -3,-15 -3,-22 16,2 25,7 19,25 44,5 49,86 16,115 l -14,2 c 0,0 -6,-43 -6,-43 23,2 41,8 20,41 z"
       id="path4517" /></g><g
     id="g4960"
     transform="matrix(0.01191085,0,0,0.01191085,2.7482616,-9.0148663)"
     style="fill:#ffffff"><path
       id="path4943"
       d="m 447.73828,74.660156 c -0.64844,0 -1.30078,-0.0625 -1.94922,-0.191406 -0.64062,-0.128906 -1.27344,-0.320312 -1.87109,-0.570312 -0.60156,-0.25 -1.19141,-0.558594 -1.73047,-0.917969 -0.53906,-0.371094 -1.05859,-0.78125 -1.51953,-1.25 -1.85938,-1.863281 -2.92969,-4.429688 -2.92969,-7.0625 0,-0.660157 0.0703,-1.308594 0.19922,-1.957031 0.12891,-0.640626 0.32031,-1.273438 0.57031,-1.871094 0.25,-0.601563 0.5586,-1.191406 0.91797,-1.730469 0.36328,-0.550781 0.78125,-1.058594 1.24219,-1.519531 0.46094,-0.460938 0.97656,-0.878906 1.51953,-1.242188 0.53906,-0.359375 1.12891,-0.667968 1.73047,-0.917968 0.59765,-0.25 1.22656,-0.441407 1.87109,-0.570313 1.28906,-0.261719 2.61719,-0.261719 3.91016,0 0.63672,0.128906 1.25781,0.320313 1.86719,0.570313 0.60156,0.25 1.17968,0.558593 1.72265,0.917968 0.54688,0.363282 1.0586,0.78125 1.51953,1.242188 0.45703,0.460937 0.87891,0.96875 1.25,1.519531 0.35938,0.539063 0.66797,1.128906 0.91797,1.730469 0.25,0.597656 0.44141,1.230468 0.57031,1.871094 0.12891,0.648437 0.19141,1.296874 0.19141,1.957031 0,2.632812 -1.0625,5.199219 -2.93359,7.0625 -0.45703,0.46875 -0.96875,0.878906 -1.51953,1.25 -0.53907,0.359375 -1.11719,0.667969 -1.71875,0.917969 -0.60157,0.25 -1.23047,0.441406 -1.8711,0.570312 -0.64844,0.128906 -1.29687,0.191406 -1.95703,0.191406 z m 0,0"
       inkscape:connector-curvature="0"
       style="fill:#ffffff" /><path
       id="path4945"
       d="m 65.179688,74.660156 c -0.660157,0 -1.3125,-0.0625 -1.960938,-0.191406 -0.640625,-0.128906 -1.269531,-0.320312 -1.871094,-0.570312 -0.597656,-0.25 -1.179687,-0.558594 -1.71875,-0.917969 -0.550781,-0.371094 -1.0625,-0.78125 -1.519531,-1.25 -0.472656,-0.460938 -0.882813,-0.972657 -1.25,-1.519531 C 56.5,69.667969 56.1875,69.089844 55.9375,68.488281 55.6875,67.890625 55.5,67.257812 55.367188,66.617188 c -0.128907,-0.648438 -0.1875,-1.296876 -0.1875,-1.957032 0,-0.652344 0.05859,-1.300781 0.1875,-1.949218 C 55.5,62.070312 55.6875,61.4375 55.9375,60.839844 c 0.25,-0.601563 0.5625,-1.179688 0.921875,-1.730469 0.367187,-0.539063 0.777344,-1.050781 1.25,-1.519531 0.457031,-0.460938 0.96875,-0.871094 1.519531,-1.242188 0.539063,-0.359375 1.121094,-0.667968 1.71875,-0.917968 0.601563,-0.25 1.230469,-0.441407 1.871094,-0.570313 1.289062,-0.261719 2.621094,-0.261719 3.910156,0 0.640625,0.128906 1.269532,0.320313 1.871094,0.570313 0.597656,0.25 1.179688,0.558593 1.726562,0.917968 0.542969,0.371094 1.0625,0.78125 1.523438,1.242188 0.457031,0.46875 0.878906,0.980468 1.238281,1.519531 0.359375,0.550781 0.671875,1.128906 0.921875,1.730469 0.25,0.597656 0.4375,1.230468 0.566406,1.871094 0.132813,0.648437 0.203126,1.296874 0.203126,1.949218 0,0.660156 -0.07031,1.308594 -0.203126,1.957032 -0.128906,0.640624 -0.316406,1.273437 -0.566406,1.871093 -0.25,0.601563 -0.5625,1.179688 -0.921875,1.722657 -0.359375,0.546874 -0.78125,1.058593 -1.238281,1.519531 -0.460938,0.46875 -0.980469,0.878906 -1.523438,1.25 -0.546874,0.359375 -1.128906,0.667969 -1.726562,0.917969 -0.601562,0.25 -1.230469,0.441406 -1.871094,0.570312 -0.652344,0.128906 -1.300781,0.191406 -1.949218,0.191406 z m 0,0"
       inkscape:connector-curvature="0"
       style="fill:#ffffff" /><path
       id="path4947"
       d="m 504.21094,399.79687 -9.23828,-9.23828 c -5.30079,-5.30468 -12.35157,-8.22656 -19.85157,-8.22656 -4.75781,0 -9.33203,1.17578 -13.39453,3.38672 l -39.19922,-39.20313 12.05469,-12.05468 c 10.97656,-10.98047 10.97656,-28.84766 0,-39.82422 l -9.12109,-9.125 c -5.31641,-5.32031 -12.39063,-8.25 -19.91016,-8.25 -7.52344,0 -14.59375,2.92969 -19.91016,8.25 l -8.3164,8.3164 -30.67969,-33.08984 162.47656,-147.57812 c 2.13672,-1.94141 3.33203,-4.71485 3.27344,-7.60157 L 510.51562,11.675781 C 510.41016,6.3125 506.08594,1.984375 500.71875,1.878906 L 406.85547,0.00390625 C 403.92578,-0.0703125 401.19141,1.140625 399.25391,3.277344 L 256.41406,160.59766 113.66406,3.28125 c -1.9414,-2.140625 -4.73437,-3.3398438 -7.60547,-3.27734375 L 12.195312,1.878906 C 6.828125,1.984375 2.503906,6.3125 2.398438,11.675781 l -1.875,93.882809 c -0.058594,2.88672 1.136718,5.66016 3.277343,7.60157 l 162.089839,147.14062 -30.375,33.44922 -8.29296,-8.29297 c -5.30079,-5.30469 -12.35157,-8.22656 -19.85547,-8.22656 -7.500002,0 -14.550784,2.92187 -19.855471,8.22656 l -9.234375,9.23438 c -10.945313,10.94921 -10.945313,28.76171 0,39.70703 l 12.113281,12.11328 -39.199219,39.20703 c -4.0625,-2.21094 -8.636718,-3.38672 -13.390625,-3.38672 -7.503906,0 -14.554687,2.92188 -19.859375,8.22656 l -9.234375,9.23438 c -10.945312,10.94922 -10.945312,28.76172 0,39.70703 L 72.96875,503.77344 C 78.273438,509.07813 85.324219,512 92.824219,512 c 7.503901,0 14.554691,-2.92187 19.855471,-8.22656 l 9.23828,-9.23828 c 8.98437,-8.98438 10.59375,-22.59766 4.82422,-33.24219 l 39.20312,-39.21094 12.10547,12.10938 c 5.30469,5.30468 12.35547,8.22656 19.85547,8.22656 7.50391,0 14.55469,-2.92188 19.85547,-8.22656 L 227,424.95313 c 10.94141,-10.94532 10.94141,-28.75782 0,-39.70313 l -8.30078,-8.30469 37.27344,-33.85547 38.16406,33.9336 -8.16016,8.16406 C 275,396.16797 275,414.03516 285.97656,425.01172 l 9.1211,9.125 c 5.3164,5.32031 12.38671,8.25 19.91015,8.25 7.51953,0 14.59375,-2.92969 19.91016,-8.25 l 12.05078,-12.05469 39.20312,39.21094 c -5.76953,10.64453 -4.16015,24.25781 4.82813,33.24609 l 9.23047,9.23438 c 5.30469,5.30469 12.35547,8.22656 19.85937,8.22656 7.5,0 14.55078,-2.92188 19.85547,-8.22656 L 504.20703,439.5 c 10.94922,-10.94531 10.94922,-28.75781 0.004,-39.70313 z m -141.03907,-91.8164 -20.29296,20.29687 -33.59766,-33.60547 22.55859,-20.48828 z M 20.609375,101.41016 22.203125,21.683594 101.91016,20.089844 242.90625,175.47266 217.77734,203.15234 100.65234,86.007812 c -3.90234,-3.90625 -10.234371,-3.90625 -14.140621,0 -3.90625,3.902344 -3.90625,10.234376 0,14.140628 l 117.804691,117.82812 -24.98047,27.51563 z m 390.394535,-81.320316 79.71093,1.59375 1.59375,79.726566 -287.76562,261.3789 -20.36328,-20.36719 242.22656,-242.27343 c 3.90234,-3.906252 3.90234,-10.238284 0,-14.144534 -3.90625,-3.902344 -10.23828,-3.902344 -14.14453,0.0039 L 170.03516,328.27734 149.67187,307.91016 Z M 107.77344,480.39453 98.539062,489.63281 C 97.011719,491.16016 94.984375,492 92.824219,492 c -2.15625,0 -4.1875,-0.83984 -5.710938,-2.36719 L 22.851562,425.35937 c -3.148437,-3.14843 -3.148437,-8.27343 0,-11.42578 l 9.234376,-9.23437 c 1.527343,-1.52735 3.554687,-2.36719 5.714843,-2.36719 2.15625,0 4.183594,0.83984 5.710938,2.36719 l 1.414062,1.41015 c 0,0.004 0.0039,0.008 0.0078,0.008 l 61.414069,61.42968 c 0.004,0.004 0.008,0.004 0.0117,0.008 l 1.41406,1.41797 c 3.14844,3.14843 3.14844,8.27343 0,11.42187 z m 5.64453,-34.0625 -47.273439,-47.28125 38.386719,-38.39453 47.27344,47.28516 z m 99.4375,-35.51953 -9.23438,9.23828 c -1.52734,1.52344 -3.55468,2.36719 -5.71484,2.36719 -2.15625,0 -4.1875,-0.83985 -5.71094,-2.36719 L 92.417969,320.25781 c -3.148438,-3.14843 -3.148438,-8.27343 0,-11.42187 l 9.238281,-9.23828 c 1.52344,-1.52344 3.55469,-2.36719 5.71094,-2.36719 2.15625,0 4.1875,0.83984 5.71484,2.36719 l 99.77344,99.79296 c 3.14844,3.14844 3.14844,8.27344 0,11.42188 z m 58.00781,-81.24609 23.59375,-21.4336 34.28125,34.28907 -20.43359,20.4375 z m 49.91406,90.42968 c -1.54297,1.54297 -3.58984,2.39063 -5.76953,2.39063 -2.17578,0 -4.22656,-0.84766 -5.76562,-2.39063 l -9.1211,-9.12109 c -3.18359,-3.18359 -3.18359,-8.36328 0,-11.54297 l 99.66016,-99.67969 c 1.53906,-1.54297 3.58984,-2.39062 5.76562,-2.39062 2.17969,0 4.23047,0.84765 5.76954,2.39062 l 9.12109,9.1211 c 3.18359,3.18359 3.18359,8.35937 0,11.54297 z m 87.60938,-59.33984 38.38672,38.39453 -47.27735,47.28125 -38.38281,-38.39062 z m 81.67969,64.70312 -64.26172,64.27344 C 424.27734,491.16016 422.25,492 420.08984,492 c -2.15625,0 -4.18359,-0.83984 -5.71093,-2.36719 l -9.23438,-9.23437 c -3.14844,-3.15235 -3.14844,-8.27344 -0.004,-11.42578 l 1.41796,-1.41407 c 0,-0.004 0.004,-0.008 0.008,-0.0117 l 62.83593,-62.84765 c 1.52735,-1.52344 3.5586,-2.36719 5.71485,-2.36719 2.15625,0 4.1875,0.83984 5.71484,2.36719 l 9.23047,9.23828 c 3.15234,3.14844 3.15234,8.27344 0.004,11.42187 z m 0,0"
       inkscape:connector-curvature="0"
       style="fill:#ffffff" /></g></svg>