<?xml version="1.0" encoding="UTF-8" standalone="no"?>
<svg
   xmlns:dc="http://purl.org/dc/elements/1.1/"
   xmlns:cc="http://creativecommons.org/ns#"
   xmlns:rdf="http://www.w3.org/1999/02/22-rdf-syntax-ns#"
   xmlns:svg="http://www.w3.org/2000/svg"
   xmlns="http://www.w3.org/2000/svg"
   xmlns:sodipodi="http://sodipodi.sourceforge.net/DTD/sodipodi-0.dtd"
   xmlns:inkscape="http://www.inkscape.org/namespaces/inkscape"
   xml:space="preserve"
   style="enable-background:new 0 0 512.001 512.001;"
   viewBox="0 0 512.001 512.001"
   y="0px"
   x="0px"
   id="Layer_1"
   version="1.1"
   sodipodi:docname="resource-barrel.svg"
   inkscape:version="0.92.1 r15371"><defs
     id="defs33" /><sodipodi:namedview
     pagecolor="#ffffff"
     bordercolor="#666666"
     borderopacity="1"
     objecttolerance="10"
     gridtolerance="10"
     guidetolerance="10"
     inkscape:pageopacity="0"
     inkscape:pageshadow="2"
     inkscape:window-width="1920"
     inkscape:window-height="1001"
     id="namedview31"
     showgrid="false"
     inkscape:zoom="11.313709"
     inkscape:cx="22.738432"
     inkscape:cy="503.59786"
     inkscape:window-x="-9"
     inkscape:window-y="-9"
     inkscape:window-maximized="1"
     inkscape:current-layer="Layer_1" /><metadata
     id="metadata159"><rdf:RDF><cc:Work
         rdf:about=""><dc:format>image/svg+xml</dc:format><dc:type
           rdf:resource="http://purl.org/dc/dcmitype/StillImage" /><dc:title></dc:title></cc:Work></rdf:RDF></metadata><g
     id="g4783"
     transform="matrix(0.03818969,0,0,0.03818969,-8.9670919,-9.9956312)"><path
       id="path4709"
       d="m 473.63672,256 c 0,52.66016 -7.62891,102.62109 -21.28906,147.5 -7.66016,25.12109 -17.21094,48.64844 -28.3711,70.16016 -4.48828,8.64062 -9.23047,16.96093 -14.21875,24.92968 -2.30078,3.67969 -6.33984,5.91016 -10.6914,5.91016 H 82.066406 c -4.347656,0 -8.390625,-2.23047 -10.6875,-5.91016 C 66.386719,490.62109 61.648438,482.30078 57.15625,473.66016 45.996094,452.14844 36.445312,428.62109 28.785156,403.5 15.128906,358.62109 7.496094,308.66016 7.496094,256 c 0,-36.08984 3.582031,-70.92188 10.242187,-103.71094 5,-24.64843 11.738281,-48.14062 20,-70.160154 9.359375,-24.957031 20.6875,-48.027344 33.640625,-68.71875 C 73.675781,9.730469 77.71875,7.5 82.066406,7.5 H 399.06641 c 4.35156,0 8.39062,2.230469 10.6914,5.910156 12.94922,20.691406 24.27735,43.761719 33.64063,68.71875 8.25781,22.019534 15,45.511724 20,70.160154 6.66015,32.78906 10.23828,67.6211 10.23828,103.71094 z m 0,0"
       inkscape:connector-curvature="0"
       style="fill:#ac5e33" /><g
       id="g4717"
       style="fill:#9e552e"><path
         id="path4711"
         d="M 462.69531,149 C 457.77344,125.55469 451.28906,103.16406 443.39844,82.128906 H 37.738281 C 29.847656,103.16406 23.363281,125.55469 18.4375,149 Z m 0,0"
         inkscape:connector-curvature="0" /><path
         id="path4713"
         d="m 425.82031,470 c 10.36328,-20.51563 19.29688,-42.78906 26.52735,-66.5 H 28.785156 c 7.234375,23.71094 16.164063,45.98437 26.527344,66.5 z m 0,0"
         inkscape:connector-curvature="0" /><path
         id="path4715"
         d="m 473.63281,256 c 0,93.98437 -24.28906,179.375 -63.87109,242.58984 -2.3086,3.67969 -6.35156,5.91016 -10.69531,5.91016 h -25.83985 c 4.34375,0 8.37891,-2.23047 10.6836,-5.91016 C 423.50391,435.37109 447.79687,349.98047 447.79687,256 447.79687,162.01953 423.50781,76.625 383.91016,13.410156 381.60547,9.730469 377.57422,7.5 373.22656,7.5 h 25.83985 c 4.34375,0 8.38671,2.230469 10.69531,5.910156 C 449.34375,76.625 473.63281,162.01562 473.63281,256 Z m 0,0"
         inkscape:connector-curvature="0" /></g><path
       id="path4719"
       d="m 398.04687,256 c 0,52.66016 -7.6289,102.62109 -21.30078,147.5 -7.64843,25.12109 -17.19922,48.64844 -28.35937,70.16016 -5.60938,10.80859 -11.6211,21.10156 -18.00781,30.83984 H 150.75781 C 144.36719,494.76172 138.35547,484.46875 132.74609,473.66016 121.58594,452.14844 112.03516,428.62109 104.38672,403.5 90.71875,358.62109 83.085938,308.66016 83.085938,256 c 0,-36.08984 3.582031,-70.92188 10.242187,-103.71094 5,-24.64843 11.738285,-48.14062 19.999995,-70.160154 C 123.59766,54.761719 136.20703,29.679688 150.75781,7.5 h 179.6211 c 14.54687,22.179688 27.15625,47.261719 37.42968,74.628906 8.25782,22.019534 15,45.511724 20,70.160154 6.66016,32.78906 10.23828,67.6211 10.23828,103.71094 z m 0,0"
       inkscape:connector-curvature="0"
       style="fill:#db885d" /><path
       id="path4721"
       d="M 387.10547,149 C 382.18359,125.55469 375.69922,103.16406 367.80859,82.128906 H 113.32813 C 105.4375,103.16406 98.953125,125.55469 94.027344,149 Z m 0,0"
       inkscape:connector-curvature="0"
       style="fill:#c86d3d" /><path
       id="path4723"
       d="m 350.23047,470 c 10.36328,-20.51563 19.29687,-42.78906 26.51562,-66.5 H 104.38672 c 7.22266,23.71094 16.15234,45.98437 26.51562,66.5 z m 0,0"
       inkscape:connector-curvature="0"
       style="fill:#c86d3d" /><path
       id="path4725"
       d="m 295.99609,256 c 0,52.66016 -2.67968,102.62109 -7.48828,147.5 -2.69922,25.12109 -6.0625,48.64844 -9.99219,70.16016 -1.96875,10.80859 -4.08984,21.10156 -6.33984,30.83984 h -63.21875 c -2.25,-9.73828 -4.37109,-20.03125 -6.33984,-30.83984 -3.92969,-21.51172 -7.28907,-45.03907 -9.98828,-70.16016 -4.8125,-44.87891 -7.49219,-94.83984 -7.49219,-147.5 0,-36.08984 1.26172,-70.92188 3.60156,-103.71094 1.75781,-24.64843 4.12891,-48.14062 7.04688,-70.160154 C 199.38672,54.761719 203.82812,29.679688 208.95703,7.5 h 63.21875 c 5.13281,22.179688 9.57031,47.261719 13.17188,74.628906 2.91796,22.019534 5.28906,45.511724 7.05078,70.160154 2.33984,32.78906 3.59765,67.6211 3.59765,103.71094 z m 0,0"
       inkscape:connector-curvature="0"
       style="fill:#ac5e33" /><path
       id="path4727"
       d="m 292.14844,149 c -1.73047,-23.44531 -4.01172,-45.83594 -6.80078,-66.871094 h -89.5625 C 192.99609,103.16406 190.71875,125.55469 188.98437,149 Z m 0,0"
       inkscape:connector-curvature="0"
       style="fill:#9e552e" /><path
       id="path4729"
       d="m 279.16406,470 c 3.65235,-20.51563 6.79297,-42.78906 9.34375,-66.5 h -95.8789 c 2.54687,23.71094 5.6914,45.98437 9.33984,66.5 z m 0,0"
       inkscape:connector-curvature="0"
       style="fill:#9e552e" /><path
       id="path4731"
       d="M 452.73828,130.50391 H 28.394531 c -8.550781,0 -14.617187,-8.33985 -11.988281,-16.47266 L 30.941406,69.058594 c 1.679688,-5.199219 6.523438,-8.722656 11.988282,-8.722656 H 438.20312 c 5.46875,0 10.3086,3.523437 11.98829,8.722656 l 14.53515,44.972656 c 2.62891,8.13281 -3.4375,16.47266 -11.98828,16.47266 z m 0,0"
       inkscape:connector-curvature="0"
       style="fill:#898383" /><path
       id="path4733"
       d="m 452.73437,130.49609 h -30.23828 c 8.55469,0 14.62891,-8.32812 11.9961,-16.46484 L 419.95312,69.054688 c -1.67578,-5.191407 -6.51171,-8.71875 -11.98046,-8.71875 h 30.23828 c 5.46484,0 10.30468,3.527343 11.98047,8.71875 l 14.53515,44.976562 c 2.63281,8.13672 -3.4375,16.46484 -11.99219,16.46484 z m 0,0"
       inkscape:connector-curvature="0"
       style="fill:#756f6f" /><path
       id="path4735"
       d="M 28.394531,381.49609 H 452.73828 c 8.55078,0 14.61719,8.33985 11.98828,16.47657 l -14.53515,44.96875 c -1.67969,5.19922 -6.51953,8.72265 -11.98829,8.72265 H 42.929688 c -5.464844,0 -10.308594,-3.52343 -11.988282,-8.72265 L 16.40625,397.97266 c -2.628906,-8.13672 3.4375,-16.47657 11.988281,-16.47657 z m 0,0"
       inkscape:connector-curvature="0"
       style="fill:#898383" /><path
       id="path4737"
       d="m 464.72656,397.96875 -14.53906,44.97656 c -1.67578,5.19141 -6.51172,8.71875 -11.98047,8.71875 h -30.23437 c 5.46875,0 10.30468,-3.52734 11.98046,-8.71875 l 14.53907,-44.97656 c 2.63281,-8.13672 -3.44141,-16.46484 -11.9961,-16.46484 h 30.23828 c 8.55469,0 14.625,8.32812 11.99219,16.46484 z m 0,0"
       inkscape:connector-curvature="0"
       style="fill:#756f6f" /><path
       id="path4739"
       d="M 466.64453,379.57031 C 476.25391,340.05078 481.13281,298.48828 481.13281,256 c 0,-20.92969 -1.21094,-41.95313 -3.60156,-62.49219 -0.48047,-4.11328 -4.22266,-7.0625 -8.31641,-6.58203 -4.11328,0.47656 -7.0625,4.20313 -6.58203,8.31641 2.32422,19.96484 3.50391,40.40625 3.50391,60.75781 0,40.56641 -4.57813,80.24219 -13.58594,117.99609 h -15.95312 c -4.14063,0 -7.5,3.35938 -7.5,7.5 0,4.14453 3.35937,7.5 7.5,7.5 h 16.14062 c 1.65234,0 3.15234,0.76563 4.125,2.09766 0.96875,1.33594 1.23438,3 0.72656,4.57031 l -14.53125,44.96875 c -0.68359,2.10938 -2.63281,3.53125 -4.85156,3.53125 H 42.929688 c -2.21875,0 -4.167969,-1.42187 -4.851563,-3.53125 L 23.542969,395.66406 c -0.507813,-1.57031 -0.242188,-3.23437 0.730469,-4.57031 0.96875,-1.33203 2.472656,-2.09766 4.121093,-2.09766 H 401.20312 c 4.14454,0 7.5,-3.35547 7.5,-7.5 0,-4.14062 -3.35546,-7.5 -7.5,-7.5 h -8.82031 c 8.73438,-37.84765 13.16406,-77.5039 13.16406,-117.99609 0,-40.5 -4.42968,-80.15234 -13.16406,-118 h 60.15625 c 1.80469,7.57031 3.45313,15.27734 4.89844,22.98828 0.67578,3.60547 3.82422,6.12109 7.36328,6.12109 0.45703,0 0.92188,-0.043 1.38672,-0.1289 4.07422,-0.76172 6.75391,-4.6836 5.99219,-8.75391 -1.6211,-8.66015 -3.4961,-17.30469 -5.55469,-25.78125 0.85547,-0.82422 1.64453,-1.73047 2.36328,-2.71484 3.82422,-5.25781 4.875,-11.82031 2.875,-18.00781 L 457.32812,66.753906 C 454.76172,58.804688 447.63281,53.359375 439.37891,52.882812 432.39844,37.566406 424.58203,22.949219 416.11328,9.429688 412.41406,3.523438 406.04687,0 399.07031,0 H 82.0625 C 75.089844,0 68.71875,3.523438 65.019531,9.429688 56.550781,22.953125 48.730469,37.570312 41.753906,52.882812 33.5,53.359375 26.371094,58.804688 23.804688,66.753906 L 9.269531,111.72266 c -2,6.1875 -0.953125,12.75 2.875,18.00781 0.714844,0.98047 1.5,1.88281 2.351563,2.70312 C 4.886719,171.94922 0,213.49609 0,256 c 0,42.50391 4.886719,84.05078 14.496094,123.56641 -0.851563,0.82031 -1.636719,1.72265 -2.351563,2.70312 -3.824219,5.25781 -4.871093,11.82031 -2.875,18.00781 l 14.535157,44.96875 c 2.570312,7.94922 9.695312,13.39453 17.953124,13.8711 6.976563,15.3125 14.792969,29.92578 23.265626,43.45312 C 68.71875,508.47656 75.089844,512 82.0625,512 h 317.00781 c 6.97657,0 13.34375,-3.52344 17.04297,-9.42969 8.47266,-13.52344 16.28906,-28.14062 23.26953,-43.45312 8.25391,-0.47657 15.37891,-5.92188 17.94532,-13.8711 l 14.53515,-44.96875 c 2,-6.1875 0.95313,-12.75 -2.875,-18.00781 -0.71094,-0.98047 -1.49609,-1.87891 -2.34375,-2.69922 z M 28.578125,138.00391 H 88.761719 C 80.023438,175.85156 75.589844,215.51172 75.589844,256 c 0,40.49219 4.429687,80.15234 13.164062,117.99609 H 28.578125 C 19.574219,336.24609 15,296.58594 15,256 15,215.41406 19.574219,175.75391 28.578125,138.00391 Z M 192.63672,256 c 0,-40.54688 1.60156,-80.21484 4.74219,-117.99609 h 86.375 C 286.89453,175.78906 288.5,215.45703 288.5,256 c 0,40.54297 -1.60937,80.20312 -4.74609,117.99609 h -86.3711 C 194.24219,336.20703 192.63672,296.55078 192.63672,256 Z m 197.91015,0 c 0,40.56641 -4.57812,80.24219 -13.58593,117.99609 H 298.80078 C 301.90625,336.16406 303.5,296.51562 303.5,256 c 0,-40.51172 -1.58984,-80.17188 -4.69531,-117.99609 h 78.15625 c 9.00781,37.75 13.58594,77.42187 13.58593,117.99609 z M 403.39844,17.390625 C 410.35937,28.5 416.86328,40.398438 422.80078,52.835938 H 363.76953 C 357.74219,39.613281 351.10156,26.9375 343.93359,15 h 55.13672 c 1.77344,0 3.39453,0.894531 4.32813,2.390625 z M 288.625,52.835938 C 286.46875,39.585938 284.08984,26.910156 281.52734,15 h 44.75391 c 7.54687,11.824219 14.57031,24.503906 20.94141,37.835938 z M 266.18359,15 c 2.61328,11.851562 5.03907,24.535156 7.2461,37.835938 H 207.70312 C 209.90625,39.535156 212.33594,26.855469 214.94922,15 Z m -66.57812,0 c -2.5625,11.914062 -4.94141,24.589844 -7.09375,37.835938 H 133.91406 C 140.28516,39.503906 147.30469,26.824219 154.85547,15 Z M 77.734375,17.390625 C 78.671875,15.894531 80.289062,15 82.0625,15 h 55.13672 c -7.16406,11.9375 -13.8086,24.613281 -19.83594,37.835938 H 58.328125 C 64.269531,40.402344 70.773438,28.503906 77.734375,17.390625 Z M 23.542969,116.33594 38.078125,71.367188 c 0.683594,-2.113282 2.632813,-3.53125 4.851563,-3.53125 H 438.20703 c 2.21875,0 4.16797,1.417968 4.85156,3.53125 l 14.53125,44.968752 c 0.50782,1.57031 0.24219,3.23437 -0.72656,4.5664 -0.97266,1.33594 -2.47266,2.10157 -4.125,2.10157 H 160.59766 c -4.14063,0 -7.5,3.35547 -7.5,7.5 0,4.14062 3.35937,7.5 7.5,7.5 h 21.73437 c -3.10547,37.82421 -4.69531,77.48046 -4.69531,117.99609 0,40.51953 1.58984,80.16797 4.69922,117.99609 H 104.17187 C 95.167969,336.24219 90.589844,296.56641 90.589844,256 c 0,-40.55859 4.574218,-80.24219 13.582026,-117.99609 h 21.03125 c 4.14063,0 7.5,-3.35938 7.5,-7.5 0,-4.14454 -3.35937,-7.5 -7.5,-7.5 H 28.394531 c -1.648437,0 -3.152343,-0.76563 -4.121093,-2.10157 -0.972657,-1.33203 -1.238282,-2.99609 -0.730469,-4.5664 z M 281.52734,497 c 2.5625,-11.91406 4.94141,-24.58594 7.09766,-37.83594 h 58.58984 C 340.84375,472.49609 333.82812,485.17578 326.27734,497 Z m -126.67578,0 c -7.54687,-11.82813 -14.57812,-24.50781 -20.94531,-37.83594 h 58.60547 c 2.15625,13.25391 4.53125,25.92578 7.09375,37.83594 z M 77.734375,494.60937 C 70.773438,483.49609 64.273438,471.59766 58.328125,459.16406 h 59.031245 c 0.0195,0.043 0.0312,0.0859 0.0508,0.125 6.01171,13.17578 12.64062,25.8086 19.78515,37.71094 H 82.0625 c -1.773438,0 -3.390625,-0.89453 -4.328125,-2.39063 z M 214.94922,497 c -2.61328,-11.85156 -5.03906,-24.53516 -7.24219,-37.83594 h 65.72266 c -2.20703,13.30078 -4.63282,25.98047 -7.2461,37.83594 z m 188.44922,-2.39063 C 402.46094,496.10547 400.84375,497 399.07031,497 h -55.13672 c 7.16407,-11.93359 13.80078,-24.60938 19.83203,-37.83594 h 59.03907 c -5.94141,12.4336 -12.44532,24.33203 -19.40625,35.44531 z m 0,0"
       inkscape:connector-curvature="0" /><path
       id="path4741"
       d="m 99.394531,416.50781 v 0.14453 c 0,4.14453 3.359379,7.5 7.499999,7.5 4.14063,0 7.5,-3.35547 7.5,-7.5 v -0.14453 c 0,-4.14062 -3.35937,-7.5 -7.5,-7.5 -4.14062,0 -7.499999,3.35938 -7.499999,7.5 z m 0,0"
       inkscape:connector-curvature="0" /><path
       id="path4743"
       d="m 233.06641,416.50781 v 0.14453 c 0,4.14453 3.35937,7.5 7.5,7.5 4.14453,0 7.5,-3.35547 7.5,-7.5 v -0.14453 c 0,-4.14062 -3.35547,-7.5 -7.5,-7.5 -4.14063,0 -7.5,3.35938 -7.5,7.5 z m 0,0"
       inkscape:connector-curvature="0" /><path
       id="path4745"
       d="m 366.74219,416.50781 v 0.14453 c 0,4.14453 3.35547,7.5 7.5,7.5 4.14062,0 7.5,-3.35547 7.5,-7.5 v -0.14453 c 0,-4.14062 -3.35938,-7.5 -7.5,-7.5 -4.14453,0 -7.5,3.35938 -7.5,7.5 z m 0,0"
       inkscape:connector-curvature="0" /><path
       id="path4747"
       d="m 106.89453,102.70313 c 4.14063,0 7.5,-3.355474 7.5,-7.500005 v -0.144531 c 0,-4.144532 -3.35937,-7.5 -7.5,-7.5 -4.14062,0 -7.499999,3.355468 -7.499999,7.5 v 0.144531 c 0,4.144531 3.359379,7.500005 7.499999,7.500005 z m 0,0"
       inkscape:connector-curvature="0" /><path
       id="path4749"
       d="m 240.56641,102.70313 c 4.14453,0 7.5,-3.355474 7.5,-7.500005 v -0.144531 c 0,-4.144532 -3.35547,-7.5 -7.5,-7.5 -4.14063,0 -7.5,3.355468 -7.5,7.5 v 0.144531 c 0,4.144531 3.35937,7.500005 7.5,7.500005 z m 0,0"
       inkscape:connector-curvature="0" /><path
       id="path4751"
       d="m 374.24219,102.70313 c 4.14062,0 7.5,-3.355474 7.5,-7.500005 v -0.144531 c 0,-4.144532 -3.35938,-7.5 -7.5,-7.5 -4.14453,0 -7.5,3.355468 -7.5,7.5 v 0.144531 c 0,4.144531 3.35547,7.500005 7.5,7.500005 z m 0,0"
       inkscape:connector-curvature="0" /></g></svg>