<?xml version="1.0" encoding="UTF-8" standalone="no"?>
<svg
   xmlns:dc="http://purl.org/dc/elements/1.1/"
   xmlns:cc="http://creativecommons.org/ns#"
   xmlns:rdf="http://www.w3.org/1999/02/22-rdf-syntax-ns#"
   xmlns:svg="http://www.w3.org/2000/svg"
   xmlns="http://www.w3.org/2000/svg"
   xmlns:sodipodi="http://sodipodi.sourceforge.net/DTD/sodipodi-0.dtd"
   xmlns:inkscape="http://www.inkscape.org/namespaces/inkscape"
   xml:space="preserve"
   style="enable-background:new 0 0 512.001 512.001;"
   viewBox="0 0 512.001 512.001"
   y="0px"
   x="0px"
   id="Layer_1"
   version="1.1"
   sodipodi:docname="resource-barrel-1.svg"
   inkscape:version="0.92.1 r15371"><defs
     id="defs33" /><sodipodi:namedview
     pagecolor="#ffffff"
     bordercolor="#666666"
     borderopacity="1"
     objecttolerance="10"
     gridtolerance="10"
     guidetolerance="10"
     inkscape:pageopacity="0"
     inkscape:pageshadow="2"
     inkscape:window-width="1920"
     inkscape:window-height="1001"
     id="namedview31"
     showgrid="false"
     inkscape:zoom="8.0000004"
     inkscape:cx="2.6048794"
     inkscape:cy="511.15688"
     inkscape:window-x="-9"
     inkscape:window-y="-9"
     inkscape:window-maximized="1"
     inkscape:current-layer="Layer_1" /><metadata
     id="metadata159"><rdf:RDF><cc:Work
         rdf:about=""><dc:format>image/svg+xml</dc:format><dc:type
           rdf:resource="http://purl.org/dc/dcmitype/StillImage" /><dc:title /></cc:Work></rdf:RDF></metadata><g
     id="g4655"
     transform="matrix(0.04565943,0,0,0.04565943,-11.46964,-9.7658152)"><path
       id="path4572"
       d="m 503.48437,153.61719 -16.04296,240.04297 c -0.58203,8.95703 -8.00391,15.93359 -16.98047,15.95703 H 41.574219 c -8.972657,-0.0234 -16.394531,-7 -16.980469,-15.95703 L 8.550781,153.61719 251.32422,129.38281 l 13.22656,-1.36328 z m 0,0"
       inkscape:connector-curvature="0"
       style="fill:#f57c00" /><path
       id="path4574"
       d="m 477.88672,153.61719 -16.04297,240.04297 c -0.58594,8.95703 -8.00781,15.93359 -16.98438,15.95703 H 41.574219 c -8.972657,-0.0234 -16.394531,-7 -16.980469,-15.95703 L 8.550781,153.61719 251.32422,129.38281 Z m 0,0"
       inkscape:connector-curvature="0"
       style="fill:#ff9801" /><path
       id="path4576"
       d="m 448.1875,213.94922 -2.8125,42.07031 H 66.664062 l -2.816406,-42.07031 c -0.164062,-2.36328 0.660156,-4.69141 2.277344,-6.42578 1.621094,-1.73047 3.886719,-2.71094 6.257812,-2.70313 H 439.65625 c 2.37109,-0.008 4.63672,0.97266 6.25391,2.70313 1.62109,1.73437 2.44531,4.0625 2.27734,6.42578 z m 0,0"
       inkscape:connector-curvature="0"
       style="fill:#4e342e" /><path
       id="path4578"
       d="m 445.375,256.01953 -3.41406,51.19922 -2.90235,43.26562 c -0.3125,4.47657 -4.04297,7.94532 -8.53515,7.9336 H 81.511719 c -4.488281,0.0117 -8.21875,-3.45703 -8.53125,-7.9336 l -2.902344,-43.26562 -3.414063,-51.19922 189.355468,-17.0664 z m 0,0"
       inkscape:connector-curvature="0"
       style="fill:#4e342e" /><path
       id="path4580"
       d="m 445.375,256.01953 -3.41406,51.19922 H 70.078125 l -3.414063,-51.19922 z m 0,0"
       inkscape:connector-curvature="0"
       style="fill:#795548" /><path
       id="path4582"
       d="m 204.82031,145.08594 h 102.39844 v 76.80078 c 0,28.27734 -22.92188,51.19922 -51.19922,51.19922 -28.27734,0 -51.19922,-22.92188 -51.19922,-51.19922 z m 0,0"
       inkscape:connector-curvature="0"
       style="fill:#fec108" /><path
       id="path4584"
       d="m 273.08594,204.82031 c 0,9.42578 -7.64063,17.06641 -17.06641,17.06641 -9.42578,0 -17.06641,-7.64063 -17.06641,-17.06641 0,-9.42578 7.64063,-17.0664 17.06641,-17.0664 9.42578,0 17.06641,7.64062 17.06641,17.0664 z m 0,0"
       inkscape:connector-curvature="0"
       style="fill:#607d8b" /><path
       id="path4586"
       d="m 153.61719,8.550781 c -30.37891,0 -40.95703,13.140625 -59.730471,34.132813 C 81.257812,56.765625 88.59375,74.34375 85.351562,93.886719 84.414062,99.433594 68.285156,105.14844 68.285156,110.95313 L 51.21875,153.61719 H 8.550781 V 102.41797 C 8.539062,77.519531 18.421875,53.636719 36.03125,36.03125 53.636719,18.421875 77.519531,8.539062 102.41797,8.550781 Z m 0,0"
       inkscape:connector-curvature="0"
       style="fill:#fec108" /><path
       id="path4588"
       d="m 503.48437,102.41797 v 51.19922 h -42.66406 l -17.0664,-42.66406 c 0,-5.80469 -7.59766,-11.519536 -8.53516,-17.066411 C 431.97656,74.34375 430.78125,56.765625 418.15234,42.683594 399.37891,21.691406 388.79687,8.550781 358.41797,8.550781 h 51.19922 c 24.90234,-0.011719 48.78515,9.871094 66.39062,27.480469 17.60547,17.605469 27.49219,41.488281 27.47656,66.38672 z m 0,0"
       inkscape:connector-curvature="0"
       style="fill:#ff9801" /><path
       id="path4590"
       d="m 477.88672,102.41797 v 51.19922 h -17.06641 l -17.0664,-42.66406 c 0,-5.80469 -7.59766,-11.519536 -8.53516,-17.066411 C 431.97656,74.34375 430.78125,56.765625 418.15234,42.683594 399.37891,21.691406 388.79687,8.550781 358.41797,8.550781 h 25.60156 c 24.89844,-0.011719 48.78125,9.871094 66.38672,27.480469 17.60937,17.605469 27.49219,41.488281 27.48047,66.38672 z m 0,0"
       inkscape:connector-curvature="0"
       style="fill:#fec108" /><path
       id="path4592"
       d="m 460.82031,110.95313 v 42.66406 H 51.21875 v -42.66406 c 0.0078,-5.71875 0.492188,-11.429692 1.449219,-17.066411 L 256.01953,68.285156 459.36719,93.886719 c 0.96094,5.636719 1.44531,11.347661 1.45312,17.066411 z m 0,0"
       inkscape:connector-curvature="0"
       style="fill:#795548" /><path
       id="path4594"
       d="M 434.79297,42.683594 256.01953,51.21875 77.246094,42.683594 C 96.65625,20.917969 124.45313,8.492188 153.61719,8.550781 h 204.80078 c 29.16797,-0.058593 56.96484,12.367188 76.375,34.132813 z m 0,0"
       inkscape:connector-curvature="0"
       style="fill:#795548" /><path
       id="path4596"
       d="M 459.36719,93.886719 H 52.667969 C 55.8125,74.824219 64.339844,57.058594 77.246094,42.683594 H 434.79297 c 12.90234,14.375 21.42969,32.140625 24.57422,51.203125 z m 0,0"
       inkscape:connector-curvature="0"
       style="fill:#4e342e" /><path
       id="path4598"
       d="M 470.45312,418.15234 H 41.585938 C 28.121094,418.11719 16.976562,407.6875 16.042969,394.25781 L 0.0195312,154.18359 c -0.1562502,-2.35937 0.6718748,-4.67968 2.2890628,-6.40234 1.617187,-1.72656 3.878906,-2.69922 6.242187,-2.69531 H 503.48437 c 2.36329,-0.004 4.625,0.96875 6.24219,2.69531 1.61719,1.72266 2.44922,4.04297 2.29297,6.40234 l -16.02734,240.07422 c -0.92969,13.42969 -12.07813,23.85938 -25.53907,23.89453 z m -452.777339,-256 15.359375,230.96094 c 0.296875,4.49219 4.03125,7.98047 8.53125,7.97266 H 470.45312 c 4.5,0.008 8.23438,-3.48047 8.53125,-7.97266 l 15.37891,-230.96094 z m 0,0"
       inkscape:connector-curvature="0" /><path
       id="path4600"
       d="M 430.56641,366.95312 H 81.46875 c -8.972656,-0.0273 -16.402344,-6.98046 -17.023438,-15.93359 L 55.339844,214.48828 c -0.3125,-4.72265 1.34375,-9.35937 4.578125,-12.80859 3.238281,-3.45313 7.757812,-5.40625 12.488281,-5.39453 h 132.41406 c 4.71094,0 8.53125,3.82031 8.53125,8.53515 0,4.71094 -3.82031,8.53125 -8.53125,8.53125 H 72.371094 l 9.097656,136.53516 h 349.09766 l 9.09765,-136.53516 H 307.21875 c -4.71484,0 -8.53516,-3.82031 -8.53516,-8.53125 0,-4.71484 3.82032,-8.53515 8.53516,-8.53515 h 132.44531 c 4.73047,-0.0117 9.25391,1.9414 12.48828,5.39453 3.23438,3.44922 4.89453,8.08594 4.57813,12.80859 L 447.625,351.01953 c -0.62109,8.96484 -8.07031,15.92188 -17.05859,15.93359 z m 0,0"
       inkscape:connector-curvature="0" /><path
       id="path4602"
       d="M 503.48437,162.15234 H 8.550781 c -4.710937,0 -8.5312498,-3.82031 -8.5312498,-8.53515 V 102.41797 C 0.078125,45.890625 45.890625,0.078125 102.41797,0.0195312 H 409.61719 C 466.14844,0.078125 511.95703,45.890625 512.01953,102.41797 v 51.19922 c 0,4.71484 -3.82031,8.53515 -8.53516,8.53515 z M 17.085938,145.08594 H 494.95312 V 102.41797 C 494.89844,55.3125 456.72656,17.136719 409.61719,17.085938 H 102.41797 C 55.3125,17.136719 17.136719,55.3125 17.085938,102.41797 Z m 0,0"
       inkscape:connector-curvature="0" /><path
       id="path4604"
       d="M 460.82031,162.15234 H 51.21875 c -4.714844,0 -8.535156,-3.82031 -8.535156,-8.53515 V 110.95313 C 42.753906,49.714844 92.382812,0.0898438 153.61719,0.0195312 H 358.41797 C 419.65625,0.0898438 469.28125,49.714844 469.35156,110.95313 v 42.66406 c 0,2.26562 -0.89844,4.43359 -2.5,6.03515 -1.59765,1.60157 -3.76953,2.5 -6.03125,2.5 z M 59.753906,145.08594 H 452.28516 V 110.95313 C 452.22266,59.136719 410.23437,17.144531 358.41797,17.085938 H 153.61719 c -51.8125,0.05859 -93.80469,42.050781 -93.863284,93.867192 z m 0,0"
       inkscape:connector-curvature="0" /><path
       id="path4606"
       d="m 256.01953,281.61719 c -32.97656,-0.0352 -59.69531,-26.75782 -59.73437,-59.73047 v -68.26953 c 0,-4.71094 3.82031,-8.53125 8.53515,-8.53125 h 102.39844 c 4.71094,0 8.53516,3.82031 8.53516,8.53125 v 68.26953 c -0.0391,32.97265 -26.76172,59.69531 -59.73438,59.73047 z M 213.35156,162.15234 v 59.73438 c 0,23.5625 19.10156,42.66406 42.66797,42.66406 23.5625,0 42.66406,-19.10156 42.66406,-42.66406 v -59.73438 z m 0,0"
       inkscape:connector-curvature="0" /><path
       id="path4608"
       d="m 256.01953,230.41797 c -14.14062,0 -25.60156,-11.46094 -25.60156,-25.59766 0,-14.14062 11.46094,-25.60156 25.60156,-25.60156 14.13672,0 25.59766,11.46094 25.59766,25.60156 0,14.13672 -11.46094,25.59766 -25.59766,25.59766 z m 0,-34.13281 c -4.71484,0 -8.53516,3.82031 -8.53516,8.53515 0,4.71094 3.82032,8.53125 8.53516,8.53125 4.71094,0 8.53125,-3.82031 8.53125,-8.53125 0,-4.71484 -3.82031,-8.53515 -8.53125,-8.53515 z m 0,0"
       inkscape:connector-curvature="0" /><path
       id="path4610"
       d="M 459.36719,102.41797 H 52.667969 c -4.710938,0 -8.53125,-3.820314 -8.53125,-8.531251 0,-4.714844 3.820312,-8.535157 8.53125,-8.535157 H 459.36719 c 4.71484,0 8.53515,3.820313 8.53515,8.535157 0,4.710937 -3.82031,8.531251 -8.53515,8.531251 z m 0,0"
       inkscape:connector-curvature="0" /><path
       id="path4612"
       d="M 434.79297,51.21875 H 77.246094 c -4.714844,0 -8.535156,-3.820312 -8.535156,-8.535156 0,-4.710938 3.820312,-8.53125 8.535156,-8.53125 H 434.79297 c 4.71094,0 8.53125,3.820312 8.53125,8.53125 0,4.714844 -3.82031,8.535156 -8.53125,8.535156 z m 0,0"
       inkscape:connector-curvature="0" /><path
       id="path4614"
       d="m 256.01953,247.48437 c -4.71484,0 -8.53516,-3.82031 -8.53516,-8.53125 v -17.0664 c 0,-4.71485 3.82032,-8.53516 8.53516,-8.53516 4.71094,0 8.53125,3.82031 8.53125,8.53516 v 17.0664 c 0,4.71094 -3.82031,8.53125 -8.53125,8.53125 z m 0,0"
       inkscape:connector-curvature="0" /><path
       id="path4616"
       d="M 445.375,264.55078 H 294.07812 c -4.71484,0 -8.53515,-3.82031 -8.53515,-8.53125 0,-4.71484 3.82031,-8.53516 8.53515,-8.53516 H 445.375 c 4.71094,0 8.53125,3.82032 8.53125,8.53516 0,4.71094 -3.82031,8.53125 -8.53125,8.53125 z m 0,0"
       inkscape:connector-curvature="0" /><path
       id="path4618"
       d="M 217.96094,264.55078 H 66.664062 c -4.714843,0 -8.535156,-3.82031 -8.535156,-8.53125 0,-4.71484 3.820313,-8.53516 8.535156,-8.53516 H 217.96094 c 4.71093,0 8.53125,3.82032 8.53125,8.53516 0,4.71094 -3.82032,8.53125 -8.53125,8.53125 z m 0,0"
       inkscape:connector-curvature="0" /><path
       id="path4620"
       d="M 441.96094,315.75391 H 70.078125 c -4.714844,0 -8.535156,-3.82422 -8.535156,-8.53516 0,-4.71484 3.820312,-8.53516 8.535156,-8.53516 H 441.96094 c 4.71093,0 8.53125,3.82032 8.53125,8.53516 0,4.71094 -3.82032,8.53516 -8.53125,8.53516 z m 0,0"
       inkscape:connector-curvature="0" /></g><circle
     style="opacity:1;fill:#607d8b;fill-opacity:1;stroke:#000000;stroke-width:1.00157475;stroke-linejoin:round;stroke-miterlimit:4;stroke-dasharray:none;stroke-dashoffset:0;stroke-opacity:1"
     id="path4665"
     cx="11.667261"
     cy="-13.556115"
     r="9.0156107" /><g
     transform="matrix(0.43750003,0,0,0.43750003,4.6672606,-466.96421)"
     id="g4523"
     style="fill:#ffffff"><path
       inkscape:connector-curvature="0"
       style="color:#000000;font-style:normal;font-variant:normal;font-weight:normal;font-stretch:normal;font-size:medium;line-height:normal;font-family:sans-serif;text-indent:0;text-align:start;text-decoration:none;text-decoration-line:none;text-decoration-style:solid;text-decoration-color:#000000;letter-spacing:normal;word-spacing:normal;text-transform:none;writing-mode:lr-tb;direction:ltr;baseline-shift:baseline;text-anchor:start;white-space:normal;clip-rule:nonzero;display:inline;overflow:visible;visibility:visible;opacity:1;isolation:auto;mix-blend-mode:normal;color-interpolation:sRGB;color-interpolation-filters:linearRGB;solid-color:#000000;solid-opacity:1;fill:#ffffff;fill-opacity:1;fill-rule:evenodd;stroke:none;stroke-width:1px;stroke-linecap:round;stroke-linejoin:round;stroke-miterlimit:4;stroke-dasharray:none;stroke-dashoffset:0;stroke-opacity:1;color-rendering:auto;image-rendering:auto;shape-rendering:auto;text-rendering:auto;enable-background:accumulate"
       d="m 25.990234,1030.8613 a 0.50005,0.50005 0 0 0 -0.03516,0 l -10.091797,0.9179 c -0.768217,0.07 -1.363286,0.7228 -1.363281,1.4942 v 6.1738 c -5e-6,0.7714 0.595064,1.4243 1.363281,1.4942 l 10.091797,0.916 a 0.50007178,0.50007178 0 1 0 0.08984,-0.9961 l -10.089844,-0.916 c -0.261946,-0.024 -0.45508,-0.2351 -0.455078,-0.4981 v -6.1738 c -2e-6,-0.263 0.193132,-0.4742 0.455078,-0.4981 l 10.089844,-0.9179 a 0.50005,0.50005 0 0 0 -0.05469,-0.9981 z"
       id="path4511" /><path
       inkscape:connector-curvature="0"
       style="color:#000000;font-style:normal;font-variant:normal;font-weight:normal;font-stretch:normal;font-size:medium;line-height:normal;font-family:sans-serif;text-indent:0;text-align:start;text-decoration:none;text-decoration-line:none;text-decoration-style:solid;text-decoration-color:#000000;letter-spacing:normal;word-spacing:normal;text-transform:none;writing-mode:lr-tb;direction:ltr;baseline-shift:baseline;text-anchor:start;white-space:normal;clip-rule:nonzero;display:inline;overflow:visible;visibility:visible;opacity:1;isolation:auto;mix-blend-mode:normal;color-interpolation:sRGB;color-interpolation-filters:linearRGB;solid-color:#000000;solid-opacity:1;fill:#ffffff;fill-opacity:1;fill-rule:nonzero;stroke:none;stroke-width:1;stroke-linecap:round;stroke-linejoin:round;stroke-miterlimit:4;stroke-dasharray:none;stroke-dashoffset:0;stroke-opacity:1;color-rendering:auto;image-rendering:auto;shape-rendering:auto;text-rendering:auto;enable-background:accumulate"
       d="m 27,1029.3613 c -0.822351,0 -1.5,0.6777 -1.5,1.5 v 11 c 0,0.8224 0.677649,1.5 1.5,1.5 h 2 c 0.822351,0 1.5,-0.6776 1.5,-1.5 v -11 c 0,-0.8223 -0.677649,-1.5 -1.5,-1.5 z m 0,1 h 2 c 0.285647,0 0.5,0.2144 0.5,0.5 v 11 c 0,0.2857 -0.214353,0.5 -0.5,0.5 h -2 c -0.285647,0 -0.5,-0.2143 -0.5,-0.5 v -11 c 0,-0.2856 0.214353,-0.5 0.5,-0.5 z"
       id="path4513" /><path
       inkscape:connector-curvature="0"
       style="color:#000000;font-style:normal;font-variant:normal;font-weight:normal;font-stretch:normal;font-size:medium;line-height:normal;font-family:sans-serif;text-indent:0;text-align:start;text-decoration:none;text-decoration-line:none;text-decoration-style:solid;text-decoration-color:#000000;letter-spacing:normal;word-spacing:normal;text-transform:none;writing-mode:lr-tb;direction:ltr;baseline-shift:baseline;text-anchor:start;white-space:normal;clip-rule:nonzero;display:inline;overflow:visible;visibility:visible;opacity:1;isolation:auto;mix-blend-mode:normal;color-interpolation:sRGB;color-interpolation-filters:linearRGB;solid-color:#000000;solid-opacity:1;fill:#ffffff;fill-opacity:1;fill-rule:evenodd;stroke:none;stroke-width:1px;stroke-linecap:butt;stroke-linejoin:miter;stroke-miterlimit:4;stroke-dasharray:none;stroke-dashoffset:0;stroke-opacity:1;color-rendering:auto;image-rendering:auto;shape-rendering:auto;text-rendering:auto;enable-background:accumulate"
       d="M 14.953125,1032.8652 4,1033.9082 v 4.9082 l 10.953125,1.043 0.09375,-0.9942 L 5,1037.9082 v -3.0918 l 10.046875,-0.957 z"
       id="path4515" /><path
       inkscape:connector-curvature="0"
       style="color:#000000;font-style:normal;font-variant:normal;font-weight:normal;font-stretch:normal;font-size:medium;line-height:normal;font-family:sans-serif;text-indent:0;text-align:start;text-decoration:none;text-decoration-line:none;text-decoration-style:solid;text-decoration-color:#000000;letter-spacing:normal;word-spacing:normal;text-transform:none;writing-mode:lr-tb;direction:ltr;baseline-shift:baseline;text-anchor:start;white-space:normal;clip-rule:nonzero;display:inline;overflow:visible;visibility:visible;opacity:1;isolation:auto;mix-blend-mode:normal;color-interpolation:sRGB;color-interpolation-filters:linearRGB;solid-color:#000000;solid-opacity:1;fill:#ffffff;fill-opacity:1;fill-rule:nonzero;stroke:none;stroke-width:1;stroke-linecap:round;stroke-linejoin:round;stroke-miterlimit:4;stroke-dasharray:none;stroke-dashoffset:0;stroke-opacity:1;color-rendering:auto;image-rendering:auto;shape-rendering:auto;text-rendering:auto;enable-background:accumulate"
       d="m 2,1032.8613 a 0.50005,0.50005 0 0 0 -0.5,0.5 v 6 a 0.50005,0.50005 0 0 0 0.5,0.5 h 2.5 a 0.50005,0.50005 0 0 0 0.5,-0.5 v -6 a 0.50005,0.50005 0 0 0 -0.5,-0.5 z m 0.5,1 H 4 v 5 H 2.5 Z"
       id="path4517" /><path
       inkscape:connector-curvature="0"
       style="color:#000000;font-style:normal;font-variant:normal;font-weight:normal;font-stretch:normal;font-size:medium;line-height:normal;font-family:sans-serif;text-indent:0;text-align:start;text-decoration:none;text-decoration-line:none;text-decoration-style:solid;text-decoration-color:#000000;letter-spacing:normal;word-spacing:normal;text-transform:none;writing-mode:lr-tb;direction:ltr;baseline-shift:baseline;text-anchor:start;white-space:normal;clip-rule:nonzero;display:inline;overflow:visible;visibility:visible;opacity:1;isolation:auto;mix-blend-mode:normal;color-interpolation:sRGB;color-interpolation-filters:linearRGB;solid-color:#000000;solid-opacity:1;fill:#ffffff;fill-opacity:1;fill-rule:evenodd;stroke:none;stroke-width:1px;stroke-linecap:round;stroke-linejoin:round;stroke-miterlimit:4;stroke-dasharray:none;stroke-dashoffset:0;stroke-opacity:1;color-rendering:auto;image-rendering:auto;shape-rendering:auto;text-rendering:auto;enable-background:accumulate"
       d="M 23.992188,1036.3555 A 0.50005,0.50005 0 0 0 23.5,1036.8613 v 2.5 a 0.50005,0.50005 0 1 0 1,0 v -2.5 a 0.50005,0.50005 0 0 0 -0.507812,-0.5058 z"
       id="path4519" /><path
       inkscape:connector-curvature="0"
       style="color:#000000;font-style:normal;font-variant:normal;font-weight:normal;font-stretch:normal;font-size:medium;line-height:normal;font-family:sans-serif;text-indent:0;text-align:start;text-decoration:none;text-decoration-line:none;text-decoration-style:solid;text-decoration-color:#000000;letter-spacing:normal;word-spacing:normal;text-transform:none;writing-mode:lr-tb;direction:ltr;baseline-shift:baseline;text-anchor:start;white-space:normal;clip-rule:nonzero;display:inline;overflow:visible;visibility:visible;opacity:1;isolation:auto;mix-blend-mode:normal;color-interpolation:sRGB;color-interpolation-filters:linearRGB;solid-color:#000000;solid-opacity:1;fill:#ffffff;fill-opacity:1;fill-rule:evenodd;stroke:none;stroke-width:1px;stroke-linecap:round;stroke-linejoin:round;stroke-miterlimit:4;stroke-dasharray:none;stroke-dashoffset:0;stroke-opacity:1;color-rendering:auto;image-rendering:auto;shape-rendering:auto;text-rendering:auto;enable-background:accumulate"
       d="M 12.992188,1035.6055 A 0.50005,0.50005 0 0 0 12.5,1036.1113 v 1.5 a 0.50005,0.50005 0 1 0 1,0 v -1.5 a 0.50005,0.50005 0 0 0 -0.507812,-0.5058 z"
       id="path4521" /></g></svg>