<?xml version="1.0" encoding="UTF-8" standalone="no"?>
<svg
   xmlns:dc="http://purl.org/dc/elements/1.1/"
   xmlns:cc="http://creativecommons.org/ns#"
   xmlns:rdf="http://www.w3.org/1999/02/22-rdf-syntax-ns#"
   xmlns:svg="http://www.w3.org/2000/svg"
   xmlns="http://www.w3.org/2000/svg"
   xmlns:sodipodi="http://sodipodi.sourceforge.net/DTD/sodipodi-0.dtd"
   xmlns:inkscape="http://www.inkscape.org/namespaces/inkscape"
   xml:space="preserve"
   style="enable-background:new 0 0 512.001 512.001;"
   viewBox="0 0 512.001 512.001"
   y="0px"
   x="0px"
   id="Layer_1"
   version="1.1"
   sodipodi:docname="resource-ship-1.svg"
   inkscape:version="0.92.1 r15371"><defs
     id="defs33"><style
       id="style4513"
       type="text/css">
   
    .fil0 {fill:black}
   
  </style></defs><sodipodi:namedview
     pagecolor="#ffffff"
     bordercolor="#666666"
     borderopacity="1"
     objecttolerance="10"
     gridtolerance="10"
     guidetolerance="10"
     inkscape:pageopacity="0"
     inkscape:pageshadow="2"
     inkscape:window-width="1920"
     inkscape:window-height="1001"
     id="namedview31"
     showgrid="false"
     inkscape:zoom="11.313709"
     inkscape:cx="18.634909"
     inkscape:cy="518.37228"
     inkscape:window-x="-9"
     inkscape:window-y="-9"
     inkscape:window-maximized="1"
     inkscape:current-layer="Layer_1" /><metadata
     id="metadata159"><rdf:RDF><cc:Work
         rdf:about=""><dc:format>image/svg+xml</dc:format><dc:type
           rdf:resource="http://purl.org/dc/dcmitype/StillImage" /><dc:title /></cc:Work></rdf:RDF></metadata><path
     style="opacity:1;fill:#89a02c;fill-opacity:1;stroke:#89a02c;stroke-width:0.648;stroke-linejoin:round;stroke-miterlimit:4;stroke-dasharray:none;stroke-dashoffset:0;stroke-opacity:1"
     d="m 10.530106,-13.124461 c -0.498613,-0.04423 -1.7545249,-0.247936 -2.1338649,-0.346117 l -0.239698,-0.06204 -0.01227,-3.849257 c -0.01112,-3.486676 -0.0052,-3.846527 0.06324,-3.820279 0.121184,0.0465 0.957231,0.208985 1.555005,0.30221 0.7917249,0.123472 2.6849859,0.122872 3.2501119,-10e-4 0.502965,-0.110273 0.960372,-0.265608 1.328113,-0.451024 0.775243,-0.39088 1.755381,-0.549559 2.792454,-0.452084 0.558453,0.05249 1.432865,0.21935 1.821342,0.347559 l 0.156188,0.05155 v 3.834675 c 0,3.630154 -0.0045,3.83327 -0.08389,3.808319 -0.842475,-0.264684 -1.731243,-0.3803 -2.696599,-0.35079 -0.954173,0.02917 -1.444619,0.140904 -2.2392,0.510146 -0.28834,0.133992 -0.690426,0.286121 -0.893524,0.338064 -0.704612,0.18021 -1.653356,0.23004 -2.667404,0.1401 z"
     id="path4642-7"
     inkscape:connector-curvature="0" /><rect
     style="opacity:1;fill:#89a02c;fill-opacity:1;stroke:#ffffff;stroke-width:1.00157475;stroke-linejoin:round;stroke-miterlimit:4;stroke-dasharray:none;stroke-dashoffset:0;stroke-opacity:1"
     id="rect4511"
     width="19.124998"
     height="19.124998"
     x="-9.2510004"
     y="-9.5"
     transform="rotate(-90)" /><g
     style="clip-rule:evenodd;fill-rule:evenodd;image-rendering:optimizeQuality;shape-rendering:geometricPrecision;text-rendering:geometricPrecision;fill:#ffffff"
     id="g4519"
     transform="matrix(0.05456138,0,0,0.05456138,-8.6458668,-6.967987)"><path
       style="fill:#ffffff"
       inkscape:connector-curvature="0"
       class="fil0"
       d="m 167,194 c 15,-3 47,-10 47,-10 v -22 c -9,4 -27,22 -34,28 19,-23 50,-48 3,-99 7,4 21,5 29,7 l -1,-15 -28,8 c 5,-3 16,-14 16,-23 1,-11 -9,-21 -14,-26 l 25,6 c 1,-11 -1,-21 -1,-30 0,1 5,28 5,31 57,9 58,45 33,51 -5,2 -23,3 -27,-1 0,0 -2,-12 -2,-18 18,-1 29,1 29,19 3,4 5,4 9,8 2,3 4,4 6,8 20,32 -13,56 -17,62 0,0 -20,5 -20,5 l -2,-23 c 26,-9 27,6 22,18 16,-3 58,-36 74,-47 -6,9 -60,53 -60,53 -11,22 -36,29 -43,60 H 85 C 54,226 73,207 47,205 33,204 32,196 26,186 c -5,-8 -59,-22 6,-14 0,0 0,0 0,0 l 26,3 c -3,-36 -6,-72 -9,-110 0,0 11,93 13,111 l 17,1 c 3,36 66,20 66,20 l -6,-43 c -20,3 -39,10 -57,19 43,-23 8,-95 -21,-120 14,9 51,19 70,23 L 129,53 C 120,52 94,56 82,58 127,44 81,16 74,4 l 50,13 -1,-17 3,18 c 42,9 67,27 25,61 l -16,-3 c 0,0 -3,-15 -3,-22 16,2 25,7 19,25 44,5 49,86 16,115 l -14,2 c 0,0 -6,-43 -6,-43 23,2 41,8 20,41 z"
       id="path4517" /></g><g
     id="g4636"
     transform="matrix(0.27654885,0,0,0.27654885,5.3285338,-22.732963)"
     style="fill:#89a02c;fill-opacity:1"><path
       id="path4581"
       d="M 51.371,3.146 C 50.912,2.961 40.012,-1.306 31.531,3.191 24.811,6.758 13.015,4.082 10,3.308 V 1 C 10,0.447 9.553,0 9,0 8.447,0 8,0.447 8,1 V 4 C 8,4.014 8.007,4.026 8.008,4.04 8.008,4.052 8,4.062 8,4.074 V 33 34.074 59 c 0,0.553 0.447,1 1,1 0.553,0 1,-0.447 1,-1 V 35.375 c 2.273,0.567 7.227,1.632 12.368,1.632 3.557,0 7.2,-0.511 10.101,-2.049 7.652,-4.061 18.056,0.004 18.16,0.045 0.309,0.124 0.657,0.086 0.932,-0.102 C 51.835,34.716 52,34.406 52,34.074 v -30 C 52,3.665 51.751,3.298 51.371,3.146 Z M 50,32.665 C 46.74,31.627 38.354,29.569 31.531,33.19 24.812,36.756 13.02,34.082 10,33.308 V 33 5.375 C 13.853,6.336 25.381,8.718 32.469,4.958 39.035,1.475 47.627,3.973 50,4.777 Z"
       inkscape:connector-curvature="0"
       style="fill:#89a02c;fill-opacity:1" /><g
       id="g4583"
       style="fill:#89a02c;fill-opacity:1" /><g
       id="g4585"
       style="fill:#89a02c;fill-opacity:1" /><g
       id="g4587"
       style="fill:#89a02c;fill-opacity:1" /><g
       id="g4589"
       style="fill:#89a02c;fill-opacity:1" /><g
       id="g4591"
       style="fill:#89a02c;fill-opacity:1" /><g
       id="g4593"
       style="fill:#89a02c;fill-opacity:1" /><g
       id="g4595"
       style="fill:#89a02c;fill-opacity:1" /><g
       id="g4597"
       style="fill:#89a02c;fill-opacity:1" /><g
       id="g4599"
       style="fill:#89a02c;fill-opacity:1" /><g
       id="g4601"
       style="fill:#89a02c;fill-opacity:1" /><g
       id="g4603"
       style="fill:#89a02c;fill-opacity:1" /><g
       id="g4605"
       style="fill:#89a02c;fill-opacity:1" /><g
       id="g4607"
       style="fill:#89a02c;fill-opacity:1" /><g
       id="g4609"
       style="fill:#89a02c;fill-opacity:1" /><g
       id="g4611"
       style="fill:#89a02c;fill-opacity:1" /></g><g
     id="g4941"
     transform="matrix(0.01239012,0,0,0.01239012,10.662788,-20.418647)"
     style="fill:#ffffff"><g
       id="g4885"
       style="fill:#ffffff"><path
         id="path4883"
         d="m 457.575,325.1 c 9.8,-12.5 14.5,-25.9 13.9,-39.7 -0.6,-15.2 -7.4,-27.1 -13,-34.4 6.5,-16.2 9,-41.7 -12.7,-61.5 -15.9,-14.5 -42.9,-21 -80.3,-19.2 -26.3,1.2 -48.3,6.1 -49.2,6.3 h -0.1 c -5,0.9 -10.3,2 -15.7,3.2 -0.4,-6.4 0.7,-22.3 12.5,-58.1 14,-42.6 13.2,-75.2 -2.6,-97 -16.6,-22.9 -43.1,-24.7 -50.9,-24.7 -7.5,0 -14.4,3.1 -19.3,8.8 -11.1,12.9 -9.8,36.7 -8.4,47.7 -13.2,35.4 -50.2,122.2 -81.5,146.3 -0.6,0.4 -1.1,0.9 -1.6,1.4 -9.2,9.7 -15.4,20.2 -19.6,29.4 -5.9,-3.2 -12.6,-5 -19.8,-5 h -61 c -23,0 -41.6,18.7 -41.6,41.6 v 162.5 c 0,23 18.7,41.6 41.6,41.6 h 61 c 8.9,0 17.2,-2.8 24,-7.6 l 23.5,2.8 c 3.6,0.5 67.6,8.6 133.3,7.3 11.9,0.9 23.1,1.4 33.5,1.4 17.9,0 33.5,-1.4 46.5,-4.2 30.6,-6.5 51.5,-19.5 62.1,-38.6 8.1,-14.6 8.1,-29.1 6.8,-38.3 19.9,-18 23.4,-37.9 22.7,-51.9 -0.4,-8.1 -2.2,-15 -4.1,-20.1 z m -409.3,122.2 c -8.1,0 -14.6,-6.6 -14.6,-14.6 V 270.1 c 0,-8.1 6.6,-14.6 14.6,-14.6 h 61 c 8.1,0 14.6,6.6 14.6,14.6 v 162.5 c 0,8.1 -6.6,14.6 -14.6,14.6 h -61 z m 383.7,-133.9 c -4.2,4.4 -5,11.1 -1.8,16.3 0,0.1 4.1,7.1 4.6,16.7 0.7,13.1 -5.6,24.7 -18.8,34.6 -4.7,3.6 -6.6,9.8 -4.6,15.4 0,0.1 4.3,13.3 -2.7,25.8 -6.7,12 -21.6,20.6 -44.2,25.4 -18.1,3.9 -42.7,4.6 -72.9,2.2 -0.4,0 -0.9,0 -1.4,0 -64.3,1.4 -129.3,-7 -130,-7.1 h -0.1 l -10.1,-1.2 c 0.6,-2.8 0.9,-5.8 0.9,-8.8 V 270.1 c 0,-4.3 -0.7,-8.5 -1.9,-12.4 1.8,-6.7 6.8,-21.6 18.6,-34.3 44.9,-35.6 88.8,-155.7 90.7,-160.9 0.8,-2.1 1,-4.4 0.6,-6.7 -1.7,-11.2 -1.1,-24.9 1.3,-29 5.3,0.1 19.6,1.6 28.2,13.5 10.2,14.1 9.8,39.3 -1.2,72.7 -16.8,50.9 -18.2,77.7 -4.9,89.5 6.6,5.9 15.4,6.2 21.8,3.9 6.1,-1.4 11.9,-2.6 17.4,-3.5 0.4,-0.1 0.9,-0.2 1.3,-0.3 30.7,-6.7 85.7,-10.8 104.8,6.6 16.2,14.8 4.7,34.4 3.4,36.5 -3.7,5.6 -2.6,12.9 2.4,17.4 0.1,0.1 10.6,10 11.1,23.3 0.4,8.9 -3.8,18 -12.5,27 z"
         inkscape:connector-curvature="0"
         style="fill:#ffffff" /></g><g
       id="g4887"
       style="fill:#ffffff" /><g
       id="g4889"
       style="fill:#ffffff" /><g
       id="g4891"
       style="fill:#ffffff" /><g
       id="g4893"
       style="fill:#ffffff" /><g
       id="g4895"
       style="fill:#ffffff" /><g
       id="g4897"
       style="fill:#ffffff" /><g
       id="g4899"
       style="fill:#ffffff" /><g
       id="g4901"
       style="fill:#ffffff" /><g
       id="g4903"
       style="fill:#ffffff" /><g
       id="g4905"
       style="fill:#ffffff" /><g
       id="g4907"
       style="fill:#ffffff" /><g
       id="g4909"
       style="fill:#ffffff" /><g
       id="g4911"
       style="fill:#ffffff" /><g
       id="g4913"
       style="fill:#ffffff" /><g
       id="g4915"
       style="fill:#ffffff" /></g></svg>