<?xml version="1.0" encoding="UTF-8" standalone="no"?>
<svg
   xmlns:dc="http://purl.org/dc/elements/1.1/"
   xmlns:cc="http://creativecommons.org/ns#"
   xmlns:rdf="http://www.w3.org/1999/02/22-rdf-syntax-ns#"
   xmlns:svg="http://www.w3.org/2000/svg"
   xmlns="http://www.w3.org/2000/svg"
   xmlns:sodipodi="http://sodipodi.sourceforge.net/DTD/sodipodi-0.dtd"
   xmlns:inkscape="http://www.inkscape.org/namespaces/inkscape"
   xml:space="preserve"
   style="enable-background:new 0 0 512.001 512.001;"
   viewBox="0 0 512.001 512.001"
   y="0px"
   x="0px"
   id="Layer_1"
   version="1.1"
   sodipodi:docname="resource-quest-1.svg"
   inkscape:version="0.92.1 r15371"><defs
     id="defs33" /><sodipodi:namedview
     pagecolor="#ffffff"
     bordercolor="#666666"
     borderopacity="1"
     objecttolerance="10"
     gridtolerance="10"
     guidetolerance="10"
     inkscape:pageopacity="0"
     inkscape:pageshadow="2"
     inkscape:window-width="1920"
     inkscape:window-height="1001"
     id="namedview31"
     showgrid="false"
     inkscape:zoom="8"
     inkscape:cx="32.155321"
     inkscape:cy="509.90798"
     inkscape:window-x="-9"
     inkscape:window-y="-9"
     inkscape:window-maximized="1"
     inkscape:current-layer="Layer_1" /><metadata
     id="metadata159"><rdf:RDF><cc:Work
         rdf:about=""><dc:format>image/svg+xml</dc:format><dc:type
           rdf:resource="http://purl.org/dc/dcmitype/StillImage" /><dc:title></dc:title></cc:Work></rdf:RDF></metadata><rect
     style="opacity:1;fill:#aa0000;fill-opacity:1;stroke:#ffffff;stroke-width:1.00157475;stroke-linejoin:round;stroke-miterlimit:4;stroke-dasharray:none;stroke-dashoffset:0;stroke-opacity:1"
     id="rect15684"
     width="16.573565"
     height="16.573565"
     x="-8.2860794"
     y="-8.5972977"
     transform="rotate(45)" /><g
     id="g4527"
     transform="matrix(-0.01467094,0.01467094,-0.01467094,-0.01467094,7.7313279,-0.82994811)"
     style="fill:#ffffff"><path
       id="path4513"
       d="m 511.95703,10.640625 c 0.39453,-6.148437 -5.0625,-11.3125 -11.18359,-10.5703125 l -81.82422,9.9570315 c -1.9961,0.242187 -3.875,1.082031 -5.38672,2.410156 L 166.97656,228.95312 125.34375,187.32031 c -1.875,-1.875 -4.41797,-2.92969 -7.07031,-2.92969 -2.65235,0 -5.19532,1.05469 -7.07032,2.92969 l -29.945308,29.94531 c -3.90625,3.90625 -3.90625,10.23829 0,14.14454 l 52.289058,52.28906 c -7.75,9.875 -71.656245,92.05469 -72.210932,92.78906 -14.96875,-11.39844 -36.492188,-10.27344 -50.160157,3.39453 -14.902343,14.90235 -14.902343,39.15235 0,54.0586 l 66.867188,66.86328 C 85.261719,508.02734 94.863281,512 105.07422,512 c 10.20703,0 19.80859,-3.97656 27.02734,-11.19531 7.21875,-7.21875 11.19531,-16.81641 11.19531,-27.02735 0,-8.46875 -2.74609,-16.51562 -7.80078,-23.13281 0.73438,-0.55469 73.95703,-57.42969 92.78516,-72.20703 l 52.28906,52.28906 c 1.95313,1.95313 4.51172,2.92969 7.07031,2.92969 2.5625,0 5.1211,-0.97656 7.07422,-2.92969 l 29.94532,-29.94531 c 1.875,-1.875 2.92578,-4.41797 2.92578,-7.07031 0,-2.65235 -1.05078,-5.19532 -2.92578,-7.07032 L 283.02734,345.00781 499.54297,98.421875 c 1.32812,-1.515625 2.16797,-3.394531 2.41015,-5.390625 l 9.95704,-81.824219 c 0.0156,-0.191406 0.0312,-0.378906 0.0469,-0.566406 z m -394,476.019535 C 114.51562,490.10547 109.9375,492 105.07031,492 c -4.86719,0 -9.441404,-1.89453 -12.886716,-5.33594 0,-0.004 0,-0.004 0,-0.004 L 25.316406,419.79687 c -7.101562,-7.10546 -7.101562,-18.66796 0,-25.77343 3.554688,-3.55078 8.222656,-5.32813 12.886719,-5.32813 4.667969,0 9.335937,1.77735 12.886719,5.32813 l 66.867186,66.86718 c 3.44141,3.44141 5.33984,8.01954 5.33984,12.88672 0,4.86719 -1.89453,9.44141 -5.33984,12.88282 z M 121.5,436.14844 75.828125,390.46875 c 3.050781,-4.05078 8.042969,-10.58203 16.050781,-20.92969 l 29.312504,29.3125 c 1.95312,1.94922 4.51171,2.92578 7.07031,2.92578 2.55859,0 5.11719,-0.97656 7.07031,-2.92578 3.90625,-3.90625 3.90625,-10.23828 0,-14.14453 l -31.08984,-31.08984 c 4.74609,-6.09375 10.16797,-13.04297 16.33593,-20.9375 l 29.98829,29.98828 c 1.95312,1.95312 4.51171,2.92969 7.07031,2.92969 2.55859,0 5.11719,-0.97657 7.07031,-2.92969 3.90625,-3.90625 3.90625,-10.23828 0,-14.14063 L 132.99609,316.8125 c 4.58985,-5.86328 9.50391,-12.12891 14.79297,-18.87109 l 66.2461,66.25 C 154.57422,410.86328 130.90234,429.07422 121.5,436.14844 Z M 287.64453,409.51172 102.46875,224.33984 118.27344,208.53516 303.44531,393.70703 Z m -18.78906,-78.67969 -36.78516,-36.78125 45.14453,-45.14453 c 3.90625,-3.90234 3.90625,-10.23438 0,-14.14063 -3.90625,-3.90234 -10.23437,-3.90625 -14.14453,0 L 217.92969,279.90625 181.14844,243.125 424.43359,29.507812 474.41016,23.425781 326.69922,171.14062 c -3.90625,3.90235 -3.90625,10.23438 0,14.14063 3.90625,3.90625 10.23437,3.90625 14.14062,0 L 488.55469,37.570312 482.47266,87.546875 Z m 0,0"
       inkscape:connector-curvature="0"
       style="fill:#ffffff" /><path
       id="path4515"
       d="m 311.73047,206.16797 c -2.0625,-5.04297 -8.03516,-7.48828 -13.0586,-5.41016 -5.04296,2.08985 -7.47656,8.02735 -5.39843,13.0625 2.07422,5.03516 8.01953,7.48438 13.05078,5.41016 5.02344,-2.07813 7.5039,-8.03906 5.40625,-13.0625 z m 0,0"
       inkscape:connector-curvature="0"
       style="fill:#ffffff" /></g></svg>