<?xml version="1.0" encoding="UTF-8" standalone="no"?>
<svg
   xmlns:dc="http://purl.org/dc/elements/1.1/"
   xmlns:cc="http://creativecommons.org/ns#"
   xmlns:rdf="http://www.w3.org/1999/02/22-rdf-syntax-ns#"
   xmlns:svg="http://www.w3.org/2000/svg"
   xmlns="http://www.w3.org/2000/svg"
   xmlns:sodipodi="http://sodipodi.sourceforge.net/DTD/sodipodi-0.dtd"
   xmlns:inkscape="http://www.inkscape.org/namespaces/inkscape"
   xml:space="preserve"
   style="enable-background:new 0 0 512.001 512.001;"
   viewBox="0 0 512.001 512.001"
   y="0px"
   x="0px"
   id="Layer_1"
   version="1.1"
   sodipodi:docname="resource-book.svg"
   inkscape:version="0.92.1 r15371"><defs
     id="defs33" /><sodipodi:namedview
     pagecolor="#ffffff"
     bordercolor="#666666"
     borderopacity="1"
     objecttolerance="10"
     gridtolerance="10"
     guidetolerance="10"
     inkscape:pageopacity="0"
     inkscape:pageshadow="2"
     inkscape:window-width="1920"
     inkscape:window-height="1001"
     id="namedview31"
     showgrid="false"
     inkscape:zoom="8"
     inkscape:cx="31.096198"
     inkscape:cy="520.78092"
     inkscape:window-x="-9"
     inkscape:window-y="-9"
     inkscape:window-maximized="1"
     inkscape:current-layer="Layer_1" /><metadata
     id="metadata159"><rdf:RDF><cc:Work
         rdf:about=""><dc:format>image/svg+xml</dc:format><dc:type
           rdf:resource="http://purl.org/dc/dcmitype/StillImage" /><dc:title></dc:title></cc:Work></rdf:RDF></metadata><g
     id="g4900"
     transform="matrix(0.42732558,0,0,0.42732558,-12.172377,-12.611512)"><path
       id="path4827"
       d="M 12,0 C 9.694,0 7.781,1.758 7.53,4 L 7.5,5 c 0,2.2 1.8,4 4,4 h 1 3 2 l 2,-4 h 12 L 29.539,8.921 C 29.521,8.958 29.548,9 29.588,9 H 29.799 50.5 V 0 Z"
       style="fill:#ead8bb"
       inkscape:connector-curvature="0" /><path
       id="path4829"
       d="m 29.5,9 v 26.201 c 0,0.505 -0.665,0.69 -0.925,0.256 L 23.5,27 18.425,35.458 C 18.165,35.891 17.5,35.707 17.5,35.202 V 9 h -6 C 9.3,9 7.5,7.2 7.5,5 V 53.958 C 7.5,56.19 9.31,58 11.542,58 H 50.5 V 9 Z"
       style="fill:#6b4842"
       inkscape:connector-curvature="0" /><path
       id="path4831"
       d="m 12.5,9 h -1 C 9.3,9 7.5,7.2 7.5,5 V 53.958 C 7.5,56.19 9.31,58 11.542,58 H 12.5 Z"
       style="fill:#513531"
       inkscape:connector-curvature="0" /><path
       id="path4833"
       d="m 50.5,2 h -9 c -0.553,0 -1,0.447 -1,1 0,0.553 0.447,1 1,1 h 9 z"
       style="fill:#d3bea1"
       inkscape:connector-curvature="0" /><path
       id="path4835"
       d="m 50.5,5 h -8 c -0.553,0 -1,0.447 -1,1 0,0.553 0.447,1 1,1 h 8 z"
       style="fill:#d3bea1"
       inkscape:connector-curvature="0" /><path
       id="path4837"
       d="m 19.5,5 -2,4 v 26.201 c 0,0.505 0.666,0.69 0.925,0.256 L 23.5,27 l 5.075,8.458 c 0.26,0.433 0.925,0.249 0.925,-0.256 V 9 l 2,-4 z"
       style="fill:#dd352e"
       inkscape:connector-curvature="0" /><polygon
       id="polygon4839"
       points="29.5,9 31.5,5 19.5,5 17.5,9 "
       style="fill:#b02721" /><g
       id="g4841" /><g
       id="g4843" /><g
       id="g4845" /><g
       id="g4847" /><g
       id="g4849" /><g
       id="g4851" /><g
       id="g4853" /><g
       id="g4855" /><g
       id="g4857" /><g
       id="g4859" /><g
       id="g4861" /><g
       id="g4863" /><g
       id="g4865" /><g
       id="g4867" /><g
       id="g4869" /></g></svg>