<?xml version="1.0" encoding="UTF-8" standalone="no"?>
<svg
   xmlns:dc="http://purl.org/dc/elements/1.1/"
   xmlns:cc="http://creativecommons.org/ns#"
   xmlns:rdf="http://www.w3.org/1999/02/22-rdf-syntax-ns#"
   xmlns:svg="http://www.w3.org/2000/svg"
   xmlns="http://www.w3.org/2000/svg"
   xmlns:sodipodi="http://sodipodi.sourceforge.net/DTD/sodipodi-0.dtd"
   xmlns:inkscape="http://www.inkscape.org/namespaces/inkscape"
   xml:space="preserve"
   style="enable-background:new 0 0 512.001 512.001;"
   viewBox="0 0 512.001 512.001"
   y="0px"
   x="0px"
   id="Layer_1"
   version="1.1"
   sodipodi:docname="resource-banner.svg"
   inkscape:version="0.92.1 r15371"><defs
     id="defs33" /><sodipodi:namedview
     pagecolor="#ffffff"
     bordercolor="#666666"
     borderopacity="1"
     objecttolerance="10"
     gridtolerance="10"
     guidetolerance="10"
     inkscape:pageopacity="0"
     inkscape:pageshadow="2"
     inkscape:window-width="1920"
     inkscape:window-height="1001"
     id="namedview31"
     showgrid="false"
     inkscape:zoom="8"
     inkscape:cx="31.096198"
     inkscape:cy="520.78092"
     inkscape:window-x="-9"
     inkscape:window-y="-9"
     inkscape:window-maximized="1"
     inkscape:current-layer="Layer_1" /><metadata
     id="metadata159"><rdf:RDF><cc:Work
         rdf:about=""><dc:format>image/svg+xml</dc:format><dc:type
           rdf:resource="http://purl.org/dc/dcmitype/StillImage" /><dc:title></dc:title></cc:Work></rdf:RDF></metadata><g
     id="g4825"
     transform="matrix(0.05288883,0,0,0.05288883,-13.319476,-13.758644)"><path
       id="path4785"
       d="m 35.982,15.5 h 440.017 v 30 H 35.982 Z"
       inkscape:connector-curvature="0"
       style="fill:#cc814a" /><path
       id="path4787"
       d="M 410.9,504.343 257.1,460.369 c -0.719,-0.205 -1.481,-0.205 -2.199,0 L 101.1,504.343 C 98.545,505.074 96,503.155 96,500.497 V 7.5 h 320 v 492.998 c 0,2.657 -2.544,4.576 -5.1,3.845 z"
       inkscape:connector-curvature="0"
       style="fill:#ffd740" /><path
       id="path4789"
       d="m 386,7.5 v 489.724 l 24.9,7.12 c 2.555,0.731 5.1,-1.188 5.1,-3.846 V 7.5 Z"
       inkscape:connector-curvature="0"
       style="fill:#ffc400" /><path
       id="path4791"
       d="M 126,7.5 H 386 V 466.021 L 265.347,431.524 c -3.04,-0.869 -6.185,-1.31 -9.347,-1.31 -3.162,0 -6.307,0.441 -9.348,1.311 L 126,466.022 Z"
       inkscape:connector-curvature="0"
       style="fill:#ef5350" /><path
       id="path4793"
       d="m 356,7.5 v 449.944 l 30,8.577 V 7.5 Z"
       inkscape:connector-curvature="0"
       style="fill:#f44336" /><circle
       id="circle4795"
       r="23"
       cy="30.5"
       cx="481.49899"
       style="fill:#ffc400" /><circle
       id="circle4797"
       r="23"
       cy="30.5"
       cx="30.500999"
       style="fill:#ffd740" /><path
       id="path4799"
       d="m 329.942,252.544 -43.691,-5.209 c -4.58,-0.546 -8.463,3.338 -7.917,7.917 l 5.214,43.684 c 0.327,2.74 -1.273,5.339 -3.864,6.287 -5.293,1.937 -14.6,4.776 -23.681,4.776 -9.081,0 -18.389,-2.839 -23.681,-4.776 -2.591,-0.948 -4.191,-3.547 -3.864,-6.286 l 5.209,-43.686 c 0.546,-4.579 -3.337,-8.463 -7.917,-7.917 l -43.692,5.209 c -2.741,0.327 -5.34,-1.274 -6.287,-3.866 C 173.836,243.386 171,234.08 171,225 c 0,-9.08 2.836,-18.386 4.771,-23.678 0.948,-2.592 3.547,-4.193 6.287,-3.866 l 43.693,5.209 c 4.579,0.546 8.463,-3.337 7.917,-7.916 l -5.209,-43.691 c -0.327,-2.74 1.274,-5.339 3.866,-6.287 5.293,-1.935 14.599,-4.771 23.679,-4.771 9.08,0 18.386,2.836 23.679,4.77 2.592,0.948 4.193,3.547 3.866,6.288 l -5.214,43.69 c -0.547,4.58 3.337,8.463 7.917,7.917 l 43.692,-5.209 c 2.741,-0.327 5.34,1.274 6.287,3.866 1.933,5.292 4.769,14.598 4.769,23.678 0,9.08 -2.836,18.386 -4.771,23.678 -0.947,2.593 -3.547,4.193 -6.287,3.866 z"
       inkscape:connector-curvature="0"
       style="fill:#80d8ff" /><path
       id="path4801"
       d="m 416,120.473 c -4.142,0 -7.5,3.358 -7.5,7.5 V 495.852 L 259.162,453.154 c -2.069,-0.592 -4.256,-0.592 -6.323,0 L 103.5,495.852 V 15 h 15 v 369.074 c 0,4.142 3.358,7.5 7.5,7.5 4.142,0 7.5,-3.358 7.5,-7.5 V 15 h 26.68 c 4.142,0 7.5,-3.358 7.5,-7.5 0,-4.142 -3.358,-7.5 -7.5,-7.5 H 96 C 91.858,0 88.5,3.358 88.5,7.5 V 8 H 51.072 C 45.644,3.034 38.42,0 30.501,0 13.683,0 0,13.682 0,30.5 0,47.318 13.683,61 30.501,61 38.42,61 45.644,57.966 51.072,53 H 88.5 v 447.494 c 0,7.66 7.323,13.155 14.661,11.057 L 256,467.851 408.838,511.549 c 7.352,2.1 14.662,-3.408 14.662,-11.057 v -372.52 c 0,-4.141 -3.358,-7.499 -7.5,-7.499 z M 15,30.5 C 15,21.953 21.954,15 30.501,15 39.048,15 46.002,21.953 46.002,30.5 46.002,39.046 39.048,46 30.501,46 21.954,46 15,39.047 15,30.5 Z M 60.069,38 c 0.609,-2.4 0.933,-4.913 0.933,-7.5 0,-2.587 -0.324,-5.1 -0.933,-7.5 H 88.5 v 15 z"
       inkscape:connector-curvature="0" /><path
       id="path4803"
       d="M 481.499,0 C 473.58,0 466.356,3.034 460.928,8 H 423.5 V 7.5 C 423.5,3.358 420.142,0 416,0 H 191.974 c -4.142,0 -7.5,3.358 -7.5,7.5 0,4.142 3.358,7.5 7.5,7.5 H 378.5 V 456.073 L 267.409,424.31 c -7.422,-2.122 -15.397,-2.122 -22.818,0 L 133.5,456.073 v -40.308 c 0,-4.142 -3.358,-7.5 -7.5,-7.5 -4.142,0 -7.5,3.358 -7.5,7.5 v 50.253 c 0,4.985 4.78,8.578 9.562,7.211 l 120.653,-34.496 c 4.739,-1.355 9.831,-1.355 14.57,0 l 120.653,34.496 c 4.782,1.368 9.562,-2.226 9.562,-7.211 V 15 h 15 v 0.281 c -0.002,0.073 -0.003,0.146 -0.003,0.219 0,0.073 10e-4,0.146 0.003,0.219 V 45.28 c -0.002,0.073 -0.003,0.146 -0.003,0.219 0,0.073 10e-4,0.146 0.003,0.219 v 50.665 c 0,4.142 3.358,7.5 7.5,7.5 4.142,0 7.5,-3.358 7.5,-7.5 V 53 h 37.428 c 5.428,4.966 12.651,8 20.571,8 C 498.317,61 512,47.318 512,30.5 512,13.682 498.317,0 481.499,0 Z M 423.5,23 h 28.431 c -0.609,2.4 -0.933,4.913 -0.933,7.5 0,2.587 0.324,5.1 0.933,7.5 H 423.5 Z m 57.999,23 c -8.576,0 -15.501,-6.981 -15.501,-15.5 0,-8.51 6.918,-15.5 15.501,-15.5 8.547,0 15.501,6.953 15.501,15.5 0,8.547 -6.954,15.5 -15.501,15.5 z"
       inkscape:connector-curvature="0" /><path
       id="path4805"
       d="m 168.727,251.251 c 2.152,5.887 8.004,9.474 14.219,8.738 l 43.218,-5.153 -5.153,43.211 c -0.741,6.218 2.85,12.065 8.733,14.217 6.523,2.388 16.375,5.233 26.259,5.233 9.882,0 19.733,-2.845 26.258,-5.232 5.884,-2.153 9.476,-8 8.734,-14.22 l -5.158,-43.209 43.216,5.153 c 6.228,0.746 12.068,-2.852 14.219,-8.738 2.385,-6.522 5.227,-16.371 5.227,-26.254 0,-9.883 -2.842,-19.732 -5.227,-26.252 -2.151,-5.888 -8,-9.481 -14.219,-8.739 l -43.217,5.152 5.158,-43.213 c 0.742,-6.221 -2.851,-12.068 -8.738,-14.221 -6.522,-2.384 -16.371,-5.227 -26.254,-5.227 -9.88,0 -19.73,2.842 -26.255,5.227 -5.886,2.152 -9.479,7.999 -8.737,14.219 l 5.153,43.215 -43.216,-5.152 c -6.223,-0.743 -12.069,2.851 -14.22,8.737 -2.385,6.522 -5.227,16.371 -5.227,26.254 0,9.883 2.842,19.732 5.227,26.254 z m 13.676,-46.203 42.459,5.062 c 4.481,0.534 8.881,-0.99 12.072,-4.181 3.191,-3.19 4.714,-7.59 4.18,-12.071 l -5.063,-42.457 c 4.649,-1.621 12.517,-3.903 19.951,-3.903 7.437,0 15.303,2.282 19.95,3.903 l -5.067,42.456 c -0.535,4.481 0.989,8.881 4.18,12.072 3.191,3.192 7.591,4.718 12.072,4.181 l 42.458,-5.062 c 1.621,4.647 3.903,12.513 3.903,19.95 0,7.435 -2.282,15.302 -3.903,19.95 l -42.458,-5.062 c -4.48,-0.534 -8.882,0.99 -12.073,4.182 -3.19,3.191 -4.714,7.591 -4.179,12.072 l 5.067,42.451 c -4.648,1.622 -12.517,3.907 -19.951,3.907 -7.436,0 -15.303,-2.285 -19.951,-3.907 l 5.063,-42.453 c 0.534,-4.48 -0.989,-8.88 -4.18,-12.071 -3.19,-3.191 -7.589,-4.714 -12.072,-4.181 l -42.459,5.062 c -1.621,-4.647 -3.903,-12.514 -3.903,-19.95 0.001,-7.436 2.283,-15.302 3.904,-19.95 z"
       inkscape:connector-curvature="0" /></g></svg>