<?xml version="1.0" encoding="UTF-8" standalone="no"?>
<svg
   xmlns:dc="http://purl.org/dc/elements/1.1/"
   xmlns:cc="http://creativecommons.org/ns#"
   xmlns:rdf="http://www.w3.org/1999/02/22-rdf-syntax-ns#"
   xmlns:svg="http://www.w3.org/2000/svg"
   xmlns="http://www.w3.org/2000/svg"
   xmlns:sodipodi="http://sodipodi.sourceforge.net/DTD/sodipodi-0.dtd"
   xmlns:inkscape="http://www.inkscape.org/namespaces/inkscape"
   xml:space="preserve"
   style="enable-background:new 0 0 512.001 512.001;"
   viewBox="0 0 512.001 512.001"
   y="0px"
   x="0px"
   id="Layer_1"
   version="1.1"
   sodipodi:docname="resource-ship-1.svg"
   inkscape:version="0.92.1 r15371"><defs
     id="defs33"><style
       id="style4513"
       type="text/css">
   
    .fil0 {fill:black}
   
  </style></defs><sodipodi:namedview
     pagecolor="#ffffff"
     bordercolor="#666666"
     borderopacity="1"
     objecttolerance="10"
     gridtolerance="10"
     guidetolerance="10"
     inkscape:pageopacity="0"
     inkscape:pageshadow="2"
     inkscape:window-width="1920"
     inkscape:window-height="1001"
     id="namedview31"
     showgrid="false"
     inkscape:zoom="11.313709"
     inkscape:cx="-20.344351"
     inkscape:cy="518.37228"
     inkscape:window-x="-9"
     inkscape:window-y="-9"
     inkscape:window-maximized="1"
     inkscape:current-layer="Layer_1" /><metadata
     id="metadata159"><rdf:RDF><cc:Work
         rdf:about=""><dc:format>image/svg+xml</dc:format><dc:type
           rdf:resource="http://purl.org/dc/dcmitype/StillImage" /><dc:title /></cc:Work></rdf:RDF></metadata><rect
     style="opacity:1;fill:#ff0000;fill-opacity:1;stroke:#ffffff;stroke-width:1.09480357;stroke-linejoin:round;stroke-miterlimit:4;stroke-dasharray:none;stroke-dashoffset:0;stroke-opacity:1"
     id="rect4511"
     width="20.905195"
     height="20.905197"
     x="-9.2043858"
     y="-9.4533854"
     transform="rotate(-90)" /><g
     style="clip-rule:evenodd;fill:#ffffff;fill-rule:evenodd;image-rendering:optimizeQuality;shape-rendering:geometricPrecision;text-rendering:geometricPrecision"
     id="g4519"
     transform="matrix(0.05456138,0,0,0.05456138,-8.6458668,-4.967987)"><path
       style="fill:#ffffff"
       inkscape:connector-curvature="0"
       class="fil0"
       d="m 167,194 c 15,-3 47,-10 47,-10 v -22 c -9,4 -27,22 -34,28 19,-23 50,-48 3,-99 7,4 21,5 29,7 l -1,-15 -28,8 c 5,-3 16,-14 16,-23 1,-11 -9,-21 -14,-26 l 25,6 c 1,-11 -1,-21 -1,-30 0,1 5,28 5,31 57,9 58,45 33,51 -5,2 -23,3 -27,-1 0,0 -2,-12 -2,-18 18,-1 29,1 29,19 3,4 5,4 9,8 2,3 4,4 6,8 20,32 -13,56 -17,62 0,0 -20,5 -20,5 l -2,-23 c 26,-9 27,6 22,18 16,-3 58,-36 74,-47 -6,9 -60,53 -60,53 -11,22 -36,29 -43,60 H 85 C 54,226 73,207 47,205 33,204 32,196 26,186 c -5,-8 -59,-22 6,-14 0,0 0,0 0,0 l 26,3 c -3,-36 -6,-72 -9,-110 0,0 11,93 13,111 l 17,1 c 3,36 66,20 66,20 l -6,-43 c -20,3 -39,10 -57,19 43,-23 8,-95 -21,-120 14,9 51,19 70,23 L 129,53 C 120,52 94,56 82,58 127,44 81,16 74,4 l 50,13 -1,-17 3,18 c 42,9 67,27 25,61 l -16,-3 c 0,0 -3,-15 -3,-22 16,2 25,7 19,25 44,5 49,86 16,115 l -14,2 c 0,0 -6,-43 -6,-43 23,2 41,8 20,41 z"
       id="path4517" /></g><g
     id="g4941"
     transform="matrix(0.01239012,0,0,0.01239012,3.1497788,-9.016551)"
     style="fill:#ffffff"><g
       id="g4885"
       style="fill:#ffffff"><path
         id="path4883"
         d="m 457.575,325.1 c 9.8,-12.5 14.5,-25.9 13.9,-39.7 -0.6,-15.2 -7.4,-27.1 -13,-34.4 6.5,-16.2 9,-41.7 -12.7,-61.5 -15.9,-14.5 -42.9,-21 -80.3,-19.2 -26.3,1.2 -48.3,6.1 -49.2,6.3 h -0.1 c -5,0.9 -10.3,2 -15.7,3.2 -0.4,-6.4 0.7,-22.3 12.5,-58.1 14,-42.6 13.2,-75.2 -2.6,-97 -16.6,-22.9 -43.1,-24.7 -50.9,-24.7 -7.5,0 -14.4,3.1 -19.3,8.8 -11.1,12.9 -9.8,36.7 -8.4,47.7 -13.2,35.4 -50.2,122.2 -81.5,146.3 -0.6,0.4 -1.1,0.9 -1.6,1.4 -9.2,9.7 -15.4,20.2 -19.6,29.4 -5.9,-3.2 -12.6,-5 -19.8,-5 h -61 c -23,0 -41.6,18.7 -41.6,41.6 v 162.5 c 0,23 18.7,41.6 41.6,41.6 h 61 c 8.9,0 17.2,-2.8 24,-7.6 l 23.5,2.8 c 3.6,0.5 67.6,8.6 133.3,7.3 11.9,0.9 23.1,1.4 33.5,1.4 17.9,0 33.5,-1.4 46.5,-4.2 30.6,-6.5 51.5,-19.5 62.1,-38.6 8.1,-14.6 8.1,-29.1 6.8,-38.3 19.9,-18 23.4,-37.9 22.7,-51.9 -0.4,-8.1 -2.2,-15 -4.1,-20.1 z m -409.3,122.2 c -8.1,0 -14.6,-6.6 -14.6,-14.6 V 270.1 c 0,-8.1 6.6,-14.6 14.6,-14.6 h 61 c 8.1,0 14.6,6.6 14.6,14.6 v 162.5 c 0,8.1 -6.6,14.6 -14.6,14.6 h -61 z m 383.7,-133.9 c -4.2,4.4 -5,11.1 -1.8,16.3 0,0.1 4.1,7.1 4.6,16.7 0.7,13.1 -5.6,24.7 -18.8,34.6 -4.7,3.6 -6.6,9.8 -4.6,15.4 0,0.1 4.3,13.3 -2.7,25.8 -6.7,12 -21.6,20.6 -44.2,25.4 -18.1,3.9 -42.7,4.6 -72.9,2.2 -0.4,0 -0.9,0 -1.4,0 -64.3,1.4 -129.3,-7 -130,-7.1 h -0.1 l -10.1,-1.2 c 0.6,-2.8 0.9,-5.8 0.9,-8.8 V 270.1 c 0,-4.3 -0.7,-8.5 -1.9,-12.4 1.8,-6.7 6.8,-21.6 18.6,-34.3 44.9,-35.6 88.8,-155.7 90.7,-160.9 0.8,-2.1 1,-4.4 0.6,-6.7 -1.7,-11.2 -1.1,-24.9 1.3,-29 5.3,0.1 19.6,1.6 28.2,13.5 10.2,14.1 9.8,39.3 -1.2,72.7 -16.8,50.9 -18.2,77.7 -4.9,89.5 6.6,5.9 15.4,6.2 21.8,3.9 6.1,-1.4 11.9,-2.6 17.4,-3.5 0.4,-0.1 0.9,-0.2 1.3,-0.3 30.7,-6.7 85.7,-10.8 104.8,6.6 16.2,14.8 4.7,34.4 3.4,36.5 -3.7,5.6 -2.6,12.9 2.4,17.4 0.1,0.1 10.6,10 11.1,23.3 0.4,8.9 -3.8,18 -12.5,27 z"
         inkscape:connector-curvature="0"
         style="fill:#ffffff" /></g><g
       id="g4887"
       style="fill:#ffffff" /><g
       id="g4889"
       style="fill:#ffffff" /><g
       id="g4891"
       style="fill:#ffffff" /><g
       id="g4893"
       style="fill:#ffffff" /><g
       id="g4895"
       style="fill:#ffffff" /><g
       id="g4897"
       style="fill:#ffffff" /><g
       id="g4899"
       style="fill:#ffffff" /><g
       id="g4901"
       style="fill:#ffffff" /><g
       id="g4903"
       style="fill:#ffffff" /><g
       id="g4905"
       style="fill:#ffffff" /><g
       id="g4907"
       style="fill:#ffffff" /><g
       id="g4909"
       style="fill:#ffffff" /><g
       id="g4911"
       style="fill:#ffffff" /><g
       id="g4913"
       style="fill:#ffffff" /><g
       id="g4915"
       style="fill:#ffffff" /></g></svg>