<?xml version="1.0" encoding="UTF-8" standalone="no"?>
<svg
   xmlns:dc="http://purl.org/dc/elements/1.1/"
   xmlns:cc="http://creativecommons.org/ns#"
   xmlns:rdf="http://www.w3.org/1999/02/22-rdf-syntax-ns#"
   xmlns:svg="http://www.w3.org/2000/svg"
   xmlns="http://www.w3.org/2000/svg"
   xmlns:sodipodi="http://sodipodi.sourceforge.net/DTD/sodipodi-0.dtd"
   xmlns:inkscape="http://www.inkscape.org/namespaces/inkscape"
   xml:space="preserve"
   style="enable-background:new 0 0 512.001 512.001;"
   viewBox="0 0 512.001 512.001"
   y="0px"
   x="0px"
   id="Layer_1"
   version="1.1"
   sodipodi:docname="rond-village-2.svg"
   inkscape:version="0.92.1 r15371"><defs
     id="defs33" /><sodipodi:namedview
     pagecolor="#ffffff"
     bordercolor="#666666"
     borderopacity="1"
     objecttolerance="10"
     gridtolerance="10"
     guidetolerance="10"
     inkscape:pageopacity="0"
     inkscape:pageshadow="2"
     inkscape:window-width="1920"
     inkscape:window-height="1001"
     id="namedview31"
     showgrid="false"
     inkscape:zoom="3.687493"
     inkscape:cx="-42.382154"
     inkscape:cy="507.59518"
     inkscape:window-x="-9"
     inkscape:window-y="-9"
     inkscape:window-maximized="1"
     inkscape:current-layer="Layer_1" /><metadata
     id="metadata159"><rdf:RDF><cc:Work
         rdf:about=""><dc:format>image/svg+xml</dc:format><dc:type
           rdf:resource="http://purl.org/dc/dcmitype/StillImage" /><dc:title /></cc:Work></rdf:RDF></metadata><ellipse
     ry="15.47317"
     rx="15.659593"
     cy="1.3989621"
     cx="2.403769"
     id="path1322"
     style="display:inline;fill:#ffffff;fill-opacity:1;stroke:#ffcc00;stroke-width:1.70032859;stroke-miterlimit:4;stroke-dasharray:none;stroke-dashoffset:0;stroke-opacity:1" /><g
     id="g4618"
     transform="matrix(0.04034672,0,0,0.04034672,-7.9249913,-8.9297982)"
     style="fill:#ffcc00"><g
       id="g4552"
       style="fill:#ffcc00"><g
         id="g4550"
         style="fill:#ffcc00"><path
           id="path4548"
           d="M 271.956,80.274 319.652,32.578 298.439,11.365 271,38.804 V 0 H 241 V 38.804 L 213.562,11.366 192.349,32.579 240.045,80.275 C 127.606,120.562 45.189,219.023 45.189,219.023 c 26.35,0 26.35,18.999 52.7,18.999 26.352,0 26.352,-18.999 52.703,-18.999 26.35,0 26.35,18.999 52.699,18.999 26.35,0 26.35,-18.999 52.7,-18.999 26.351,0 26.351,18.999 52.703,18.999 26.35,0 26.35,-18.999 52.701,-18.999 26.354,0 26.354,18.999 52.708,18.999 26.354,0 26.354,-18.999 52.708,-18.999 0,0 -82.417,-98.462 -194.855,-138.749 z"
           inkscape:connector-curvature="0"
           style="fill:#ffcc00" /></g></g><g
       id="g4558"
       style="fill:#ffcc00"><g
         id="g4556"
         style="fill:#ffcc00"><path
           id="path4554"
           d="m 414.103,268.022 c -22.864,0 -36.031,-9.492 -43.898,-15.164 -5.019,-3.618 -5.32,-3.835 -8.81,-3.835 -3.488,0 -3.788,0.216 -8.805,3.834 -7.867,5.672 -21.033,15.165 -43.896,15.165 -22.863,0 -36.029,-9.493 -43.896,-15.164 -5.017,-3.618 -5.318,-3.834 -8.807,-3.834 -3.488,0 -3.788,0.216 -8.805,3.834 -7.867,5.672 -21.033,15.165 -43.895,15.165 -22.862,0 -36.029,-9.493 -43.895,-15.165 -5.016,-3.617 -5.317,-3.833 -8.804,-3.833 -3.488,0 -3.789,0.216 -8.806,3.834 -7.867,5.672 -21.033,15.165 -43.896,15.165 -8.774,0 -16.116,-1.401 -22.282,-3.445 V 512 h 135.818 v -88.259 c 0,-23.875 19.355,-43.23 43.23,-43.23 h 2.69 c 23.875,0 43.23,19.355 43.23,43.23 V 512 H 436.394 V 264.575 c -6.168,2.045 -13.512,3.447 -22.291,3.447 z"
           inkscape:connector-curvature="0"
           style="fill:#ffcc00" /></g></g><g
       id="g4560"
       style="fill:#ffcc00" /><g
       id="g4562"
       style="fill:#ffcc00" /><g
       id="g4564"
       style="fill:#ffcc00" /><g
       id="g4566"
       style="fill:#ffcc00" /><g
       id="g4568"
       style="fill:#ffcc00" /><g
       id="g4570"
       style="fill:#ffcc00" /><g
       id="g4572"
       style="fill:#ffcc00" /><g
       id="g4574"
       style="fill:#ffcc00" /><g
       id="g4576"
       style="fill:#ffcc00" /><g
       id="g4578"
       style="fill:#ffcc00" /><g
       id="g4580"
       style="fill:#ffcc00" /><g
       id="g4582"
       style="fill:#ffcc00" /><g
       id="g4584"
       style="fill:#ffcc00" /><g
       id="g4586"
       style="fill:#ffcc00" /><g
       id="g4588"
       style="fill:#ffcc00" /></g></svg>