<?xml version="1.0" encoding="UTF-8" standalone="no"?>
<svg
   xmlns:dc="http://purl.org/dc/elements/1.1/"
   xmlns:cc="http://creativecommons.org/ns#"
   xmlns:rdf="http://www.w3.org/1999/02/22-rdf-syntax-ns#"
   xmlns:svg="http://www.w3.org/2000/svg"
   xmlns="http://www.w3.org/2000/svg"
   xmlns:sodipodi="http://sodipodi.sourceforge.net/DTD/sodipodi-0.dtd"
   xmlns:inkscape="http://www.inkscape.org/namespaces/inkscape"
   xml:space="preserve"
   style="enable-background:new 0 0 512.001 512.001;"
   viewBox="0 0 512.001 512.001"
   y="0px"
   x="0px"
   id="Layer_1"
   version="1.1"
   sodipodi:docname="rond-orange.svg"
   inkscape:version="0.92.1 r15371"><defs
     id="defs33" /><sodipodi:namedview
     pagecolor="#ffffff"
     bordercolor="#666666"
     borderopacity="1"
     objecttolerance="10"
     gridtolerance="10"
     guidetolerance="10"
     inkscape:pageopacity="0"
     inkscape:pageshadow="2"
     inkscape:window-width="1920"
     inkscape:window-height="1001"
     id="namedview31"
     showgrid="false"
     inkscape:zoom="14.749972"
     inkscape:cx="5.8789381"
     inkscape:cy="508.1201"
     inkscape:window-x="-9"
     inkscape:window-y="-9"
     inkscape:window-maximized="1"
     inkscape:current-layer="Layer_1" /><metadata
     id="metadata159"><rdf:RDF><cc:Work
         rdf:about=""><dc:format>image/svg+xml</dc:format><dc:type
           rdf:resource="http://purl.org/dc/dcmitype/StillImage" /><dc:title /></cc:Work></rdf:RDF></metadata><ellipse
     ry="15.47317"
     rx="15.659593"
     cy="1.3989621"
     cx="2.403769"
     id="path1322"
     style="display:inline;fill:#ffffff;fill-opacity:1;stroke:#ffcc00;stroke-width:1.70032859;stroke-miterlimit:4;stroke-dasharray:none;stroke-dashoffset:0;stroke-opacity:1" /><g
     id="g4579"
     transform="matrix(0.04167407,0,0,0.04167407,-8.2647929,-9.2695998)"
     style="fill:#ffcc00;fill-opacity:1"><path
       id="path4536"
       d="M 111,208.5 H 64 v 63 h 47 z m -15,48 H 79 v -33 h 17 z"
       inkscape:connector-curvature="0"
       style="fill:#ffcc00;fill-opacity:1" /><path
       id="path4538"
       d="m 168,327.5 h 47 v -47 h -47 z m 15,-32 h 17 v 17 h -17 z"
       inkscape:connector-curvature="0"
       style="fill:#ffcc00;fill-opacity:1" /><path
       id="path4540"
       d="m 232,327.5 h 47 v -47 h -47 z m 15,-32 h 17 v 17 h -17 z"
       inkscape:connector-curvature="0"
       style="fill:#ffcc00;fill-opacity:1" /><path
       id="path4542"
       d="m 343,280.5 h -47 v 47 h 47 z m -15,32 h -17 v -17 h 17 z"
       inkscape:connector-curvature="0"
       style="fill:#ffcc00;fill-opacity:1" /><path
       id="path4544"
       d="m 447,208.5 h -47 v 63 h 47 z m -15,48 h -17 v -33 h 17 z"
       inkscape:connector-curvature="0"
       style="fill:#ffcc00;fill-opacity:1" /><path
       id="path4546"
       d="m 487,424.5 v -233 h 24 v -119 h -47 v 40 h -17 v -40 h -47 v 40 h -17 v -40 h -47 v 119 h 24 v 17 h -32 v 40 h -17 v -40 h -47 v 40 h -17 v -40 h -47 v 40 h -17 v -40 h -32 v -17 h 24 v -119 h -47 v 40 h -17 v -40 H 64 v 40 H 47 v -40 H 0 v 119 h 24 v 40 h 15 v -40 h 97 v 233 H 39 v -49 h 25 v 16 h 15 v -16 h 17 v -15 H 71 v -17 h 9 v -15 H 39 v -81 H 24 v 177 H 0 v 15 h 416 v -15 h -41 v -233 h 97 v 145 h -48 v 15 h 16 v 17 h -24 v 15 h 16 v 16 h 15 v -16 h 25 v 41 h -40 v 15 h 80 v -15 z M 15,87.5 h 17 v 40 h 47 v -40 h 17 v 40 h 47 v -40 h 17 v 89 H 15 Z m 41,256 v 17 H 39 v -17 z m 304,49 h -17 v -17 h 17 z m -209,-16 v -17 h 17 v 17 z m 121,48 h -33 v -33 c 0,-9.098 7.402,-16.5 16.5,-16.5 9.098,0 16.5,7.402 16.5,16.5 z m 15,0 v -33 C 287,374.131 272.869,360 255.5,360 238.131,360 224,374.131 224,391.5 v 33 h -73 v -33 h 25 v 16 h 15 v -16 h 17 v -15 h -25 v -17 h 17 v -15 h -49 v -121 h 17 v 40 h 47 v -40 h 17 v 40 h 47 v -40 h 17 v 40 h 47 v -40 h 17 v 137 h -25 v -17 h -15 v 17 h -8 v 15 h 16 v 17 h -16 v 15 h 48 v 17 z m 64,-337 h 17 v 40 h 47 v -40 h 17 v 40 h 47 v -40 h 17 v 89 H 351 Z m 104,281 v -17 h 17 v 17 z"
       inkscape:connector-curvature="0"
       style="fill:#ffcc00;fill-opacity:1" /><path
       id="path4548"
       d="m 48,144.5 h 16 v 15 H 48 Z"
       inkscape:connector-curvature="0"
       style="fill:#ffcc00;fill-opacity:1" /><path
       id="path4550"
       d="m 80,144.5 h 16 v 15 H 80 Z"
       inkscape:connector-curvature="0"
       style="fill:#ffcc00;fill-opacity:1" /><path
       id="path4552"
       d="m 112,144.5 h 16 v 15 h -16 z"
       inkscape:connector-curvature="0"
       style="fill:#ffcc00;fill-opacity:1" /><path
       id="path4554"
       d="m 384,144.5 h 16 v 15 h -16 z"
       inkscape:connector-curvature="0"
       style="fill:#ffcc00;fill-opacity:1" /><path
       id="path4556"
       d="m 416,144.5 h 16 v 15 h -16 z"
       inkscape:connector-curvature="0"
       style="fill:#ffcc00;fill-opacity:1" /><path
       id="path4558"
       d="m 448,144.5 h 16 v 15 h -16 z"
       inkscape:connector-curvature="0"
       style="fill:#ffcc00;fill-opacity:1" /></g><path
     style="opacity:1;fill:#ffcc00;fill-opacity:1;stroke:#ffcc00;stroke-width:0.648;stroke-linejoin:round;stroke-miterlimit:4;stroke-dasharray:none;stroke-dashoffset:0;stroke-opacity:1"
     d="m -1.8005265,-9.9818694 c -0.4986131,-0.04423 -1.754525,-0.2479356 -2.1338651,-0.3461166 l -0.239698,-0.06204 -0.01227,-3.849257 c -0.01112,-3.486676 -0.0052,-3.846527 0.06324,-3.820279 0.121184,0.0465 0.957231,0.208985 1.555005,0.30221 0.791725,0.123472 2.68498592,0.122872 3.25011192,-10e-4 0.50296498,-0.110273 0.96037198,-0.265608 1.32811308,-0.451024 0.775243,-0.39088 1.755381,-0.549559 2.7924539,-0.452084 0.558453,0.05249 1.432865,0.21935 1.821342,0.347559 l 0.156188,0.05155 v 3.834675 c 0,3.630154 -0.0045,3.83327 -0.08389,3.808319 -0.842475,-0.264684 -1.731243,-0.3803 -2.6965989,-0.35079 -0.954173,0.02917 -1.444619,0.140904 -2.2392001,0.510146 -0.28834,0.133992 -0.690426,0.286121 -0.89352398,0.338064 -0.704612,0.1802096 -1.65335597,0.2300396 -2.66740392,0.1400996 z"
     id="path4642"
     inkscape:connector-curvature="0" /><g
     id="g4636"
     transform="matrix(0.27654885,0,0,0.27654885,-7.0020986,-19.590371)"
     style="fill:#ffcc00;fill-opacity:1"><path
       id="path4581"
       d="M 51.371,3.146 C 50.912,2.961 40.012,-1.306 31.531,3.191 24.811,6.758 13.015,4.082 10,3.308 V 1 C 10,0.447 9.553,0 9,0 8.447,0 8,0.447 8,1 V 4 C 8,4.014 8.007,4.026 8.008,4.04 8.008,4.052 8,4.062 8,4.074 V 33 34.074 59 c 0,0.553 0.447,1 1,1 0.553,0 1,-0.447 1,-1 V 35.375 c 2.273,0.567 7.227,1.632 12.368,1.632 3.557,0 7.2,-0.511 10.101,-2.049 7.652,-4.061 18.056,0.004 18.16,0.045 0.309,0.124 0.657,0.086 0.932,-0.102 C 51.835,34.716 52,34.406 52,34.074 v -30 C 52,3.665 51.751,3.298 51.371,3.146 Z M 50,32.665 C 46.74,31.627 38.354,29.569 31.531,33.19 24.812,36.756 13.02,34.082 10,33.308 V 33 5.375 C 13.853,6.336 25.381,8.718 32.469,4.958 39.035,1.475 47.627,3.973 50,4.777 Z"
       inkscape:connector-curvature="0"
       style="fill:#ffcc00;fill-opacity:1" /><g
       id="g4583"
       style="fill:#ffcc00;fill-opacity:1" /><g
       id="g4585"
       style="fill:#ffcc00;fill-opacity:1" /><g
       id="g4587"
       style="fill:#ffcc00;fill-opacity:1" /><g
       id="g4589"
       style="fill:#ffcc00;fill-opacity:1" /><g
       id="g4591"
       style="fill:#ffcc00;fill-opacity:1" /><g
       id="g4593"
       style="fill:#ffcc00;fill-opacity:1" /><g
       id="g4595"
       style="fill:#ffcc00;fill-opacity:1" /><g
       id="g4597"
       style="fill:#ffcc00;fill-opacity:1" /><g
       id="g4599"
       style="fill:#ffcc00;fill-opacity:1" /><g
       id="g4601"
       style="fill:#ffcc00;fill-opacity:1" /><g
       id="g4603"
       style="fill:#ffcc00;fill-opacity:1" /><g
       id="g4605"
       style="fill:#ffcc00;fill-opacity:1" /><g
       id="g4607"
       style="fill:#ffcc00;fill-opacity:1" /><g
       id="g4609"
       style="fill:#ffcc00;fill-opacity:1" /><g
       id="g4611"
       style="fill:#ffcc00;fill-opacity:1" /></g><path
     style="opacity:1;fill:#ffffff;fill-opacity:1;stroke:#ffffff;stroke-width:0.04801503;stroke-linejoin:round;stroke-miterlimit:4;stroke-dasharray:none;stroke-dashoffset:0;stroke-opacity:1"
     d="m -7.6017661,-3.7681101 v -1.845672 h 0.3355767 0.3355767 v 0.8389418 0.8389419 h 0.9827605 0.9827605 v -0.8389419 -0.8389418 h 0.3355767 0.3355767 v 0.8389418 0.8389419 h 1.0067303 1.0067302 v -0.8389419 -0.8389418 h 0.3355767 0.3355768 v 1.845672 1.8456721 h -2.9962209 -2.9962209 z m 2.0134604,0.8389419 V -3.264745 h -0.3595465 -0.3595465 v 0.3355768 0.3355767 h 0.3595465 0.3595465 z m 1.342307,0 V -3.264745 h -0.3595465 -0.3595465 v 0.3355768 0.3355767 h 0.3595465 0.3595465 z m 1.3423069,0 V -3.264745 h -0.3595465 -0.3595465 v 0.3355768 0.3355767 h 0.3595465 0.3595465 z"
     id="path4664"
     inkscape:connector-curvature="0" /><g
     id="g4881"
     transform="matrix(0.08921458,0,0,0.08921458,-1.292584,-16.900801)"
     style="fill:#ffffff"><g
       id="g4809"
       style="fill:#ffffff"><path
         id="path4775"
         d="M 32,0 C 30.979,0 29.975,0.076 28.985,0.21 27.953,0.072 26.972,0 26,0 18.638,0 11.999,3.571 7.34,9.264 7.293,9.306 7.259,9.356 7.221,9.406 5.736,11.245 4.46,13.304 3.428,15.532 3.402,15.581 3.379,15.629 3.36,15.682 2.649,17.239 2.056,18.875 1.6,20.579 1.555,20.675 1.535,20.78 1.522,20.889 0.861,23.465 0.5,26.185 0.5,29 c 0,4.404 0.872,8.579 2.423,12.321 0.014,0.04 0.027,0.078 0.046,0.116 0.93,2.218 2.1,4.28 3.473,6.145 0.035,0.048 0.064,0.099 0.107,0.14 1.39,1.865 2.983,3.526 4.74,4.942 0.05,0.055 0.11,0.096 0.172,0.139 C 15.588,56.075 20.599,58 26,58 26.972,58 27.953,57.928 28.985,57.79 29.975,57.924 30.979,58 32,58 46.061,58 57.5,44.991 57.5,29 57.5,13.009 46.061,0 32,0 Z M 21.44,2.614 C 21.109,2.786 20.782,2.966 20.459,3.153 20.278,3.258 20.096,3.359 19.918,3.469 19.641,3.639 19.37,3.819 19.1,4 H 17.175 C 18.637,3.316 20.163,2.777 21.754,2.442 21.647,2.495 21.546,2.559 21.44,2.614 Z M 11.36,46 H 7.774 C 6.892,44.754 6.109,43.415 5.429,42 h 3.788 c 0.157,0.354 0.318,0.705 0.487,1.051 0.073,0.149 0.149,0.296 0.225,0.444 0.205,0.402 0.417,0.797 0.638,1.186 0.082,0.145 0.161,0.292 0.246,0.436 0.176,0.299 0.361,0.591 0.547,0.883 z M 4.968,17 H 8.795 C 8.62,17.437 8.454,17.879 8.297,18.327 8.254,18.451 8.21,18.574 8.168,18.698 8.024,19.128 7.89,19.562 7.763,20 H 3.857 c 0.318,-1.031 0.69,-2.031 1.111,-3 z M 2.5,29 c 0,-0.674 0.036,-1.338 0.078,-2 H 6.565 C 6.564,27.016 6.564,27.032 6.563,27.048 6.526,27.694 6.5,28.343 6.5,29 c 0,0.335 0.012,0.667 0.022,1 H 2.539 C 2.528,29.666 2.5,29.337 2.5,29 Z m 4.136,3 c 0.038,0.421 0.087,0.839 0.141,1.255 0.004,0.03 0.006,0.061 0.01,0.092 0.074,0.556 0.164,1.107 0.265,1.653 H 3.108 C 2.913,34.018 2.759,33.019 2.66,32 Z m 0.62,-10 c -0.026,0.118 -0.048,0.238 -0.072,0.356 -0.027,0.132 -0.055,0.263 -0.081,0.395 -0.122,0.627 -0.23,1.26 -0.315,1.902 -0.004,0.03 -0.006,0.061 -0.01,0.092 C 6.766,24.83 6.759,24.915 6.748,25 H 2.779 c 0.132,-1.018 0.299,-2.022 0.528,-3 z m 0.239,15 c 0.031,0.122 0.06,0.246 0.092,0.367 0.012,0.044 0.022,0.09 0.034,0.134 0.165,0.609 0.35,1.208 0.548,1.8 0.042,0.125 0.086,0.247 0.129,0.371 0.037,0.11 0.074,0.22 0.113,0.328 H 4.558 C 4.179,39.029 3.853,38.027 3.575,37 Z m 3.317,-24.116 c -0.084,0.143 -0.164,0.291 -0.246,0.436 -0.221,0.389 -0.434,0.785 -0.638,1.186 C 9.853,14.654 9.776,14.8 9.703,14.95 9.695,14.966 9.686,14.983 9.678,15 H 5.929 c 0.757,-1.427 1.629,-2.762 2.596,-4 h 3.503 c -0.122,0.175 -0.245,0.349 -0.364,0.527 -0.295,0.443 -0.579,0.895 -0.852,1.357 z M 13.732,6 h 2.762 c -0.248,0.217 -0.496,0.435 -0.737,0.662 -0.201,0.19 -0.396,0.387 -0.592,0.584 -0.198,0.199 -0.394,0.401 -0.586,0.606 -0.185,0.197 -0.37,0.393 -0.55,0.596 C 13.869,8.628 13.716,8.815 13.561,9 H 10.259 C 11.333,7.883 12.492,6.876 13.732,6 Z M 9.324,48 h 3.432 c 0.113,0.148 0.225,0.296 0.341,0.441 0.302,0.38 0.613,0.75 0.932,1.111 0.179,0.203 0.365,0.399 0.55,0.596 0.193,0.206 0.389,0.408 0.588,0.607 0.08,0.08 0.156,0.166 0.237,0.245 H 12.396 C 11.297,50.101 10.27,49.097 9.324,48 Z m 12.429,7.558 C 19.46,55.075 17.293,54.189 15.283,53 h 2.419 c 0.128,0.099 0.26,0.192 0.389,0.288 0.207,0.154 0.414,0.309 0.625,0.456 0.393,0.274 0.794,0.537 1.201,0.787 0.178,0.109 0.36,0.211 0.541,0.316 0.323,0.187 0.65,0.367 0.981,0.539 0.107,0.055 0.208,0.119 0.314,0.172 z M 32,56 c -0.795,0 -1.58,-0.047 -2.354,-0.136 L 29.259,55.81 C 29.205,55.803 29.152,55.794 29.099,55.787 28.753,55.738 28.41,55.681 28.07,55.615 28.041,55.609 28.013,55.603 27.985,55.597 27.654,55.532 27.326,55.459 27.001,55.378 26.952,55.366 26.903,55.352 26.854,55.339 26.551,55.261 26.249,55.179 25.951,55.088 25.86,55.06 25.769,55.028 25.678,54.999 25.423,54.918 25.169,54.835 24.918,54.744 24.714,54.67 24.513,54.588 24.312,54.508 24.175,54.454 24.036,54.403 23.901,54.346 18.524,52.071 14.065,47.598 11.352,41.88 11.327,41.828 11.304,41.773 11.28,41.721 11.135,41.41 10.994,41.096 10.859,40.778 10.805,40.651 10.755,40.522 10.703,40.394 10.602,40.146 10.502,39.897 10.408,39.645 10.347,39.483 10.29,39.318 10.232,39.154 10.153,38.932 10.075,38.709 10.002,38.484 9.942,38.3 9.885,38.114 9.828,37.929 9.763,37.718 9.7,37.506 9.64,37.293 9.584,37.098 9.531,36.9 9.48,36.703 9.426,36.494 9.374,36.283 9.324,36.072 9.276,35.87 9.23,35.668 9.186,35.464 9.14,35.251 9.098,35.037 9.057,34.822 9.018,34.617 8.979,34.412 8.943,34.205 8.905,33.984 8.872,33.762 8.839,33.539 8.809,33.337 8.778,33.136 8.752,32.932 8.721,32.692 8.697,32.449 8.672,32.207 8.652,32.018 8.63,31.83 8.614,31.64 8.59,31.362 8.574,31.082 8.558,30.801 8.549,30.643 8.536,30.487 8.529,30.329 8.511,29.889 8.5,29.446 8.5,29 c 0,-0.446 0.011,-0.889 0.029,-1.33 0.007,-0.158 0.02,-0.315 0.029,-0.472 0.016,-0.28 0.032,-0.561 0.056,-0.839 0.016,-0.19 0.038,-0.378 0.058,-0.567 0.025,-0.242 0.05,-0.484 0.08,-0.725 0.026,-0.203 0.057,-0.405 0.087,-0.607 0.033,-0.223 0.066,-0.445 0.104,-0.666 0.035,-0.207 0.074,-0.412 0.114,-0.617 0.041,-0.215 0.084,-0.429 0.129,-0.642 0.044,-0.204 0.09,-0.406 0.138,-0.608 0.05,-0.211 0.102,-0.422 0.156,-0.631 0.051,-0.198 0.104,-0.395 0.159,-0.591 0.06,-0.213 0.123,-0.425 0.188,-0.636 0.057,-0.186 0.114,-0.371 0.174,-0.555 0.074,-0.225 0.152,-0.448 0.231,-0.671 0.058,-0.164 0.115,-0.328 0.176,-0.49 0.095,-0.252 0.194,-0.501 0.295,-0.749 0.052,-0.128 0.102,-0.257 0.156,-0.384 0.135,-0.318 0.276,-0.632 0.421,-0.943 0.025,-0.053 0.047,-0.107 0.072,-0.159 C 14.065,10.4 18.524,5.928 23.901,3.652 24.037,3.595 24.175,3.544 24.312,3.49 24.513,3.41 24.714,3.328 24.918,3.254 25.169,3.163 25.423,3.081 25.678,2.999 25.769,2.97 25.859,2.938 25.951,2.91 26.249,2.819 26.551,2.736 26.854,2.659 26.902,2.648 26.951,2.633 27,2.621 27.325,2.54 27.653,2.468 27.984,2.402 28.013,2.396 28.041,2.39 28.069,2.384 28.409,2.318 28.752,2.261 29.098,2.212 29.151,2.204 29.205,2.196 29.258,2.189 L 29.645,2.135 C 30.42,2.047 31.205,2 32,2 44.958,2 55.5,14.112 55.5,29 55.5,43.888 44.958,56 32,56 Z"
         inkscape:connector-curvature="0"
         style="fill:#ffffff" /><path
         id="path4777"
         d="m 14.167,29 c 0,-0.629 0.025,-1.261 0.074,-1.879 0.043,-0.55 -0.367,-1.032 -0.918,-1.076 -0.553,-0.04 -1.032,0.368 -1.076,0.918 -0.053,0.669 -0.08,1.355 -0.08,2.037 v 0.021 c 0,0.552 0.448,0.989 1,0.989 0.552,0 1,-0.458 1,-1.01 z"
         inkscape:connector-curvature="0"
         style="fill:#ffffff" /><path
         id="path4779"
         d="m 49.134,23.292 c 0.114,0.454 0.521,0.756 0.969,0.756 0.081,0 0.163,-0.01 0.245,-0.03 0.535,-0.135 0.86,-0.678 0.726,-1.214 -0.168,-0.668 -0.365,-1.334 -0.587,-1.98 -0.179,-0.522 -0.747,-0.803 -1.27,-0.622 -0.522,0.179 -0.801,0.748 -0.622,1.27 0.203,0.593 0.384,1.206 0.539,1.82 z"
         inkscape:connector-curvature="0"
         style="fill:#ffffff" /><path
         id="path4781"
         d="m 45.022,43.019 c -0.4,0.492 -0.823,0.963 -1.257,1.402 -0.389,0.392 -0.386,1.025 0.006,1.414 0.195,0.193 0.45,0.29 0.704,0.29 0.257,0 0.515,-0.099 0.71,-0.296 0.481,-0.485 0.948,-1.006 1.389,-1.548 0.349,-0.429 0.283,-1.059 -0.145,-1.407 -0.428,-0.349 -1.058,-0.283 -1.407,0.145 z"
         inkscape:connector-curvature="0"
         style="fill:#ffffff" /><path
         id="path4783"
         d="m 14.856,34.669 c -0.133,-0.536 -0.678,-0.864 -1.212,-0.729 -0.536,0.133 -0.862,0.676 -0.729,1.212 0.166,0.667 0.362,1.334 0.583,1.982 0.142,0.416 0.53,0.678 0.946,0.678 0.107,0 0.216,-0.018 0.323,-0.054 0.522,-0.178 0.802,-0.746 0.624,-1.269 -0.202,-0.594 -0.382,-1.207 -0.535,-1.82 z"
         inkscape:connector-curvature="0"
         style="fill:#ffffff" /><path
         id="path4785"
         d="M 41.858,9.449 C 41.274,9.068 40.664,8.717 40.046,8.406 39.552,8.156 38.952,8.357 38.703,8.848 c -0.249,0.493 -0.051,1.095 0.442,1.343 0.553,0.279 1.098,0.593 1.621,0.934 0.168,0.11 0.358,0.162 0.545,0.162 0.327,0 0.647,-0.16 0.839,-0.454 0.301,-0.462 0.171,-1.082 -0.292,-1.384 z"
         inkscape:connector-curvature="0"
         style="fill:#ffffff" /><path
         id="path4787"
         d="m 39.254,47.753 c -0.556,0.285 -1.13,0.54 -1.706,0.757 -0.517,0.194 -0.778,0.771 -0.583,1.288 0.151,0.401 0.531,0.648 0.936,0.648 0.117,0 0.236,-0.021 0.353,-0.065 0.647,-0.244 1.291,-0.529 1.914,-0.849 0.491,-0.252 0.686,-0.855 0.433,-1.346 -0.253,-0.491 -0.856,-0.686 -1.347,-0.433 z"
         inkscape:connector-curvature="0"
         style="fill:#ffffff" /><path
         id="path4789"
         d="m 47.73,15.277 c -0.389,-0.575 -0.807,-1.134 -1.243,-1.663 -0.351,-0.426 -0.982,-0.488 -1.408,-0.136 -0.426,0.351 -0.487,0.981 -0.136,1.408 0.396,0.481 0.776,0.99 1.13,1.512 0.193,0.286 0.508,0.439 0.829,0.439 0.193,0 0.388,-0.056 0.56,-0.172 0.458,-0.31 0.578,-0.931 0.268,-1.388 z"
         inkscape:connector-curvature="0"
         style="fill:#ffffff" /><path
         id="path4791"
         d="m 50.833,27.968 c -0.552,0 -1,0.48 -1,1.032 0,0.613 -0.024,1.232 -0.071,1.838 -0.042,0.551 0.369,1.032 0.92,1.074 0.026,0.002 0.052,0.003 0.078,0.003 0.517,0 0.956,-0.398 0.996,-0.923 0.051,-0.658 0.077,-1.328 0.077,-1.993 v -0.065 c 0,-0.551 -0.447,-0.966 -1,-0.966 z"
         inkscape:connector-curvature="0"
         style="fill:#ffffff" /><path
         id="path4793"
         d="m 49.901,35.782 c -0.524,-0.176 -1.09,0.106 -1.267,0.629 -0.202,0.599 -0.431,1.194 -0.681,1.769 -0.22,0.506 0.011,1.096 0.518,1.316 0.13,0.057 0.266,0.083 0.399,0.083 0.386,0 0.753,-0.225 0.917,-0.601 0.273,-0.627 0.523,-1.277 0.743,-1.93 0.177,-0.523 -0.105,-1.09 -0.629,-1.266 z"
         inkscape:connector-curvature="0"
         style="fill:#ffffff" /><path
         id="path4795"
         d="M 34.049,6.595 C 33.371,6.516 32.682,6.476 32,6.476 h -0.042 c -0.552,0 -0.979,0.448 -0.979,1 0,0.552 0.469,1 1.021,1 0.605,0 1.217,0.035 1.819,0.105 0.039,0.005 0.078,0.007 0.117,0.007 0.5,0 0.933,-0.375 0.992,-0.885 0.063,-0.549 -0.33,-1.045 -0.879,-1.108 z"
         inkscape:connector-curvature="0"
         style="fill:#ffffff" /><path
         id="path4797"
         d="m 17.903,41.568 c -0.309,-0.459 -0.931,-0.579 -1.388,-0.27 -0.458,0.309 -0.579,0.93 -0.27,1.388 0.388,0.575 0.805,1.135 1.239,1.665 0.198,0.241 0.485,0.366 0.774,0.366 0.223,0 0.448,-0.074 0.634,-0.227 0.427,-0.351 0.489,-0.98 0.139,-1.408 -0.395,-0.48 -0.775,-0.99 -1.128,-1.514 z"
         inkscape:connector-curvature="0"
         style="fill:#ffffff" /><path
         id="path4799"
         d="m 15.547,18.465 c -0.507,-0.22 -1.095,0.009 -1.317,0.516 -0.275,0.629 -0.526,1.278 -0.747,1.928 -0.177,0.523 0.103,1.091 0.626,1.269 0.106,0.036 0.215,0.053 0.321,0.053 0.417,0 0.806,-0.263 0.947,-0.679 0.202,-0.597 0.433,-1.192 0.685,-1.77 0.223,-0.506 -0.008,-1.096 -0.515,-1.317 z"
         inkscape:connector-curvature="0"
         style="fill:#ffffff" /><path
         id="path4801"
         d="m 32,49.524 c -0.622,0 -1.247,-0.037 -1.858,-0.11 -0.545,-0.058 -1.046,0.326 -1.112,0.875 -0.065,0.548 0.326,1.046 0.875,1.112 0.69,0.082 1.396,0.124 2.096,0.124 h 0.086 c 0.552,0 0.957,-0.448 0.957,-1 0,-0.552 -0.492,-1.001 -1.044,-1.001 z"
         inkscape:connector-curvature="0"
         style="fill:#ffffff" /><path
         id="path4803"
         d="m 18.846,12.139 c -0.481,0.485 -0.95,1.004 -1.391,1.545 -0.35,0.428 -0.286,1.058 0.142,1.407 0.186,0.152 0.41,0.226 0.632,0.226 0.29,0 0.577,-0.125 0.775,-0.367 0.401,-0.491 0.825,-0.962 1.261,-1.4 0.389,-0.392 0.387,-1.025 -0.004,-1.415 -0.392,-0.389 -1.024,-0.386 -1.415,0.004 z"
         inkscape:connector-curvature="0"
         style="fill:#ffffff" /><path
         id="path4805"
         d="m 25.789,7.602 c -0.648,0.243 -1.293,0.527 -1.916,0.845 -0.492,0.25 -0.688,0.853 -0.437,1.345 0.176,0.347 0.527,0.546 0.892,0.546 0.153,0 0.308,-0.035 0.453,-0.109 0.556,-0.283 1.131,-0.537 1.708,-0.753 0.517,-0.194 0.78,-0.77 0.586,-1.287 C 26.883,7.67 26.305,7.408 25.789,7.602 Z"
         inkscape:connector-curvature="0"
         style="fill:#ffffff" /><path
         id="path4807"
         d="m 24.819,47.791 c -0.55,-0.279 -1.095,-0.595 -1.619,-0.938 -0.463,-0.302 -1.081,-0.172 -1.385,0.289 -0.302,0.462 -0.173,1.082 0.289,1.384 0.585,0.383 1.194,0.736 1.809,1.048 0.145,0.074 0.3,0.108 0.452,0.108 0.365,0 0.716,-0.2 0.893,-0.547 0.25,-0.492 0.053,-1.094 -0.439,-1.344 z"
         inkscape:connector-curvature="0"
         style="fill:#ffffff" /></g><g
       id="g4811"
       style="fill:#ffffff" /><g
       id="g4813"
       style="fill:#ffffff" /><g
       id="g4815"
       style="fill:#ffffff" /><g
       id="g4817"
       style="fill:#ffffff" /><g
       id="g4819"
       style="fill:#ffffff" /><g
       id="g4821"
       style="fill:#ffffff" /><g
       id="g4823"
       style="fill:#ffffff" /><g
       id="g4825"
       style="fill:#ffffff" /><g
       id="g4827"
       style="fill:#ffffff" /><g
       id="g4829"
       style="fill:#ffffff" /><g
       id="g4831"
       style="fill:#ffffff" /><g
       id="g4833"
       style="fill:#ffffff" /><g
       id="g4835"
       style="fill:#ffffff" /><g
       id="g4837"
       style="fill:#ffffff" /><g
       id="g4839"
       style="fill:#ffffff" /></g><rect
     style="opacity:1;fill:#ffffff;fill-opacity:1;stroke:#000000;stroke-width:1.00157475;stroke-linejoin:round;stroke-miterlimit:4;stroke-dasharray:none;stroke-dashoffset:0;stroke-opacity:1"
     id="rect4531"
     width="9.4920282"
     height="9.4920282"
     x="-2.3422451"
     y="11.660801" /></svg>