<?xml version="1.0" encoding="UTF-8" standalone="no"?>
<svg
   xmlns:dc="http://purl.org/dc/elements/1.1/"
   xmlns:cc="http://creativecommons.org/ns#"
   xmlns:rdf="http://www.w3.org/1999/02/22-rdf-syntax-ns#"
   xmlns:svg="http://www.w3.org/2000/svg"
   xmlns="http://www.w3.org/2000/svg"
   xmlns:sodipodi="http://sodipodi.sourceforge.net/DTD/sodipodi-0.dtd"
   xmlns:inkscape="http://www.inkscape.org/namespaces/inkscape"
   xml:space="preserve"
   style="enable-background:new 0 0 512.001 512.001;"
   viewBox="0 0 512.001 512.001"
   y="0px"
   x="0px"
   id="Layer_1"
   version="1.1"
   sodipodi:docname="rond-village-5.svg"
   inkscape:version="0.92.1 r15371"><defs
     id="defs33" /><sodipodi:namedview
     pagecolor="#ffffff"
     bordercolor="#666666"
     borderopacity="1"
     objecttolerance="10"
     gridtolerance="10"
     guidetolerance="10"
     inkscape:pageopacity="0"
     inkscape:pageshadow="2"
     inkscape:window-width="1920"
     inkscape:window-height="1001"
     id="namedview31"
     showgrid="false"
     inkscape:zoom="14.749972"
     inkscape:cx="37.04993"
     inkscape:cy="517.80797"
     inkscape:window-x="-9"
     inkscape:window-y="-9"
     inkscape:window-maximized="1"
     inkscape:current-layer="Layer_1" /><metadata
     id="metadata159"><rdf:RDF><cc:Work
         rdf:about=""><dc:format>image/svg+xml</dc:format><dc:type
           rdf:resource="http://purl.org/dc/dcmitype/StillImage" /><dc:title></dc:title></cc:Work></rdf:RDF></metadata><rect
     style="opacity:1;fill:#aa0000;fill-opacity:1;stroke:#ffffff;stroke-width:1.00157475;stroke-linejoin:round;stroke-miterlimit:4;stroke-dasharray:none;stroke-dashoffset:0;stroke-opacity:1"
     id="rect15684"
     width="16.573565"
     height="16.573565"
     x="-5.5062895"
     y="-31.201878"
     transform="rotate(45)" /><g
     id="g5392"
     transform="matrix(0.02242141,0,0,0.02242141,12.42963,-19.97721)"
     style="fill:#ffffff"><g
       id="g5326"
       style="fill:#ffffff"><g
         id="g5324"
         style="fill:#ffffff"><path
           id="path5322"
           d="m 488.468,152.307 h -12.925 l -4.444,-4.445 c -7.473,-7.472 -17.409,-11.587 -27.977,-11.587 h -106.96 c -4.142,0 -7.5,3.358 -7.5,7.5 0,4.142 3.358,7.5 7.5,7.5 h 20.144 l 11.945,17.064 h -8.041 c -4.142,0 -7.5,3.358 -7.5,7.5 0,4.142 3.358,7.5 7.5,7.5 h 18.541 l 11.945,17.064 h -6.437 c -4.142,0 -7.5,3.358 -7.5,7.5 0,4.142 3.358,7.5 7.5,7.5 h 17.327 c 4.99,5.63 11.214,9.947 18.11,12.677 -3.661,6.249 -4.254,13.847 -1.542,20.627 l 20.606,51.515 c 9.72,24.302 1.634,51.899 -19.664,67.112 l -3.289,2.349 v -17.49 c 0,-4.142 -3.358,-7.5 -7.5,-7.5 -4.142,0 -7.5,3.358 -7.5,7.5 v 54.039 l -9.87,-9.87 c -4.64,-4.64 -7.195,-10.809 -7.195,-17.37 v -26.799 c 0,-4.142 -3.358,-7.5 -7.5,-7.5 -4.142,0 -7.5,3.358 -7.5,7.5 v 24.565 h -15.569 c -10.231,0 -20.161,-2.107 -29.511,-6.263 l -52.731,-23.436 c 1.507,-3.608 -0.011,-7.816 -3.561,-9.59 -3.705,-1.853 -8.21,-0.351 -10.062,3.354 l -16.741,33.482 c -4.142,8.283 -10.529,15.18 -18.47,19.945 l -10.542,6.326 19.657,-78.628 c 1.005,-4.018 -1.438,-8.09 -5.457,-9.095 -4.014,-1.004 -8.09,1.438 -9.095,5.457 l -2.599,10.396 c -12.008,0.453 -23.236,5.334 -31.783,13.876 -8.989,8.983 -13.939,20.93 -13.939,33.66 0,35.646 -29,64.645 -64.646,64.645 -21.373,0 -40.359,-10.429 -52.135,-26.462 9.27,5.946 20.288,9.398 32.095,9.398 32.866,0 59.605,-26.739 59.605,-59.605 0,-21.131 9.107,-41.246 24.985,-55.188 15.878,-13.942 37.002,-20.371 57.955,-17.637 l 92.96,12.125 c 3.112,0.407 6.15,-1.17 7.61,-3.95 1.46,-2.78 1.034,-6.174 -1.068,-8.507 -33.155,-36.798 -73.078,-45.769 -100.73,-46.813 -8.045,-0.303 -15.512,0.021 -22.147,0.662 l 93.774,-77.226 v 48.602 c 0,17.142 8.112,33.615 21.699,44.068 l 85.438,65.721 c 3.283,2.525 7.992,1.912 10.518,-1.372 2.525,-3.283 1.911,-7.992 -1.372,-10.518 l -21.121,-16.247 v -57.97 c 0,-4.142 -3.358,-7.5 -7.5,-7.5 -4.142,0 -7.5,3.358 -7.5,7.5 v 46.431 l -49.317,-37.936 c -9.921,-7.632 -15.845,-19.662 -15.845,-32.179 V 151.79 c 0,-3.184 -2.01,-6.021 -5.014,-7.076 L 9.987,40.505 c -3.583,-1.258 -7.542,0.361 -9.218,3.771 -1.674,3.41 -0.533,7.534 2.655,9.6 0.874,0.567 84.544,55.417 94.057,114.205 l -2.664,0.307 c -4.115,0.475 -7.065,4.195 -6.591,8.311 0.441,3.823 3.684,6.641 7.441,6.641 0.287,0 0.577,-0.016 0.869,-0.05 l 10.589,-1.222 c 53.778,16.559 59.593,60.649 60.165,72.671 l -4.236,3.488 c -3.198,2.633 -3.655,7.36 -1.022,10.557 1.483,1.801 3.63,2.732 5.794,2.732 1.678,0 3.367,-0.561 4.763,-1.71 l 6.348,-5.228 c 5.361,-1.587 23.321,-6.262 46.011,-5.321 27.978,1.163 52.511,10.023 73.199,26.393 l -70.009,-9.131 c -25.232,-3.291 -50.671,4.45 -69.792,21.239 -19.121,16.789 -30.088,41.013 -30.088,66.46 0,24.595 -20.01,44.605 -44.605,44.605 -24.595,0 -44.605,-20.01 -44.605,-44.605 V 323.236 L 60.9,301.384 c 2.08,-2.08 2.752,-5.183 1.719,-7.937 L 38.571,229.318 c -1.098,-2.927 -3.896,-4.867 -7.022,-4.867 -3.126,0 -5.925,1.939 -7.022,4.867 l -24.049,64.13 c -1.033,2.754 -0.36,5.857 1.719,7.937 l 21.852,21.852 v 53.007 c 0,43.917 35.729,79.645 79.646,79.645 43.917,0 79.645,-35.729 79.645,-79.667 0,-8.7 3.389,-16.878 9.542,-23.029 4.782,-4.78 10.791,-7.88 17.314,-9.026 l -17.584,70.338 c -0.435,1.737 -0.233,3.572 0.568,5.173 l 18.621,37.243 h -7.906 c -4.142,0 -7.5,3.358 -7.5,7.5 0,4.142 3.358,7.5 7.5,7.5 h 24.048 c 1.876,0 3.684,-0.703 5.067,-1.97 3.01,-2.758 8.051,-6.046 14.974,-6.046 6.923,0 11.964,3.288 14.974,6.046 1.44,1.319 3.255,1.97 5.065,1.97 2.029,0 4.053,-0.819 5.532,-2.433 2.798,-3.054 2.591,-7.798 -0.463,-10.597 -7.028,-6.44 -15.945,-9.986 -25.107,-9.986 -7.185,0 -14.217,2.182 -20.307,6.228 l -17.975,-35.951 20.114,-12.068 c 10.392,-6.235 18.749,-15.26 24.168,-26.099 l 10.255,-20.515 53.331,23.703 c 11.28,5.014 23.259,7.556 35.603,7.556 h 17.674 c 1.925,5.664 5.129,10.857 9.483,15.21 l 13.282,13.282 c 4.64,4.64 7.195,10.809 7.195,17.37 v 19.299 h -12.541 c -4.142,0 -7.5,3.358 -7.5,7.5 0,4.142 3.358,7.5 7.5,7.5 h 24.048 c 1.876,0 3.684,-0.703 5.067,-1.971 3.01,-2.758 8.051,-6.045 14.974,-6.045 6.923,0 11.963,3.288 14.973,6.045 1.439,1.319 3.255,1.971 5.065,1.971 2.029,0 4.052,-0.819 5.531,-2.433 2.799,-3.054 2.592,-7.798 -0.462,-10.596 -7.027,-6.44 -15.944,-9.987 -25.107,-9.987 -5.749,0 -11.399,1.401 -16.548,4.032 v -64.818 l 12.008,-8.577 c 26.939,-19.243 37.167,-54.15 24.872,-84.889 l -20.606,-51.515 c -1.068,-2.671 -0.756,-5.569 0.857,-7.952 1.613,-2.383 4.188,-3.749 7.065,-3.749 h 48.465 c 4.142,0 7.5,-3.358 7.5,-7.5 0,-4.142 -3.358,-7.5 -7.5,-7.5 h -40.597 v -8.532 c 0,-4.705 3.828,-8.532 8.532,-8.532 h 32.581 v 0.516 c 0,4.142 3.358,7.5 7.5,7.5 4.142,0 7.5,-3.358 7.5,-7.5 v -0.516 h 0.516 c 4.142,0 7.5,-3.358 7.5,-7.5 V 175.84 C 512,162.864 501.444,152.307 488.468,152.307 Z m -314.556,67.928 c -5.935,-13.205 -16.973,-29.407 -37.384,-41.56 l 72.238,-8.335 c 4.115,-0.475 7.065,-4.195 6.591,-8.311 -0.476,-4.114 -4.194,-7.071 -8.311,-6.591 l -94.664,10.923 C 106.514,128.359 74.991,93.292 48.704,70.007 l 222.184,78.065 -31.787,3.667 c -4.115,0.475 -7.065,4.195 -6.591,8.311 0.441,3.823 3.684,6.641 7.441,6.641 0.287,0 0.577,-0.016 0.869,-0.05 l 38.894,-4.488 -98.705,81.286 c -1.138,-6.509 -3.236,-14.613 -7.097,-23.204 z m -157.694,73.957 15.33,-40.88 15.33,40.88 -15.33,15.331 z M 497.001,184.372 H 497 456.403 c -12.976,0 -23.532,10.557 -23.532,23.532 v 8.235 c -8.962,-1.201 -17.115,-6.09 -22.372,-13.6 l -13.44,-19.2 h 11.247 c 4.142,0 7.5,-3.358 7.5,-7.5 0,-4.142 -3.358,-7.5 -7.5,-7.5 H 386.56 l -11.945,-17.064 h 68.507 c 6.562,0 12.73,2.555 17.37,7.194 l 6.641,6.641 c 1.407,1.407 3.314,2.197 5.304,2.197 h 16.032 c 4.705,0 8.532,3.828 8.532,8.532 z"
           inkscape:connector-curvature="0"
           style="fill:#ffffff" /></g></g><g
       id="g5332"
       style="fill:#ffffff"><g
         id="g5330"
         style="fill:#ffffff"><path
           id="path5328"
           d="m 448.467,160.323 h -0.08 c -4.142,0 -7.46,3.358 -7.46,7.5 0,4.142 3.398,7.5 7.54,7.5 4.142,0 7.5,-3.358 7.5,-7.5 0,-4.142 -3.357,-7.5 -7.5,-7.5 z"
           inkscape:connector-curvature="0"
           style="fill:#ffffff" /></g></g><g
       id="g5334"
       style="fill:#ffffff" /><g
       id="g5336"
       style="fill:#ffffff" /><g
       id="g5338"
       style="fill:#ffffff" /><g
       id="g5340"
       style="fill:#ffffff" /><g
       id="g5342"
       style="fill:#ffffff" /><g
       id="g5344"
       style="fill:#ffffff" /><g
       id="g5346"
       style="fill:#ffffff" /><g
       id="g5348"
       style="fill:#ffffff" /><g
       id="g5350"
       style="fill:#ffffff" /><g
       id="g5352"
       style="fill:#ffffff" /><g
       id="g5354"
       style="fill:#ffffff" /><g
       id="g5356"
       style="fill:#ffffff" /><g
       id="g5358"
       style="fill:#ffffff" /><g
       id="g5360"
       style="fill:#ffffff" /><g
       id="g5362"
       style="fill:#ffffff" /></g><ellipse
     ry="15.47317"
     rx="15.659593"
     cy="1.3989621"
     cx="2.403769"
     id="path1322"
     style="display:inline;fill:#ffffff;fill-opacity:1;stroke:#000000;stroke-width:1.70032859;stroke-miterlimit:4;stroke-dasharray:none;stroke-dashoffset:0;stroke-opacity:1" /><path
     style="opacity:1;fill:#ffffff;fill-opacity:1;stroke:#ffffff;stroke-width:0.04801503;stroke-linejoin:round;stroke-miterlimit:4;stroke-dasharray:none;stroke-dashoffset:0;stroke-opacity:1"
     d="m -7.6017661,-3.7681101 v -1.845672 h 0.3355767 0.3355767 v 0.8389418 0.8389419 h 0.9827605 0.9827605 v -0.8389419 -0.8389418 h 0.3355767 0.3355767 v 0.8389418 0.8389419 h 1.0067303 1.0067302 v -0.8389419 -0.8389418 h 0.3355767 0.3355768 v 1.845672 1.8456721 h -2.9962209 -2.9962209 z m 2.0134604,0.8389419 V -3.264745 h -0.3595465 -0.3595465 v 0.3355768 0.3355767 h 0.3595465 0.3595465 z m 1.342307,0 V -3.264745 h -0.3595465 -0.3595465 v 0.3355768 0.3355767 h 0.3595465 0.3595465 z m 1.3423069,0 V -3.264745 h -0.3595465 -0.3595465 v 0.3355768 0.3355767 h 0.3595465 0.3595465 z"
     id="path4664"
     inkscape:connector-curvature="0" /><g
     id="g4981"
     transform="matrix(0.05079539,0,0,0.05079539,-9.9245409,-6.3323789)"><path
       id="path4964"
       d="m 298.69141,224.20703 h -32 c -4.41797,0 -8,3.58203 -8,8 v 32 c 0,4.41797 3.58203,8 8,8 h 32 c 4.41796,0 8,-3.58203 8,-8 v -32 c 0,-4.41797 -3.58204,-8 -8,-8 z m -8,32 h -16 v -16 h 16 z m 0,0"
       inkscape:connector-curvature="0" /><path
       id="path4966"
       d="m 274.69141,176.20703 c 0,-17.67187 -14.32813,-32 -32,-32 -17.67579,0 -32,14.32813 -32,32 0,17.67188 14.32421,32 32,32 17.67187,0 32,-14.32812 32,-32 z m -32,16 c -8.83594,0 -16,-7.16406 -16,-16 0,-8.83594 7.16406,-16 16,-16 8.83593,0 16,7.16406 16,16 0,8.83594 -7.16407,16 -16,16 z m 0,0"
       inkscape:connector-curvature="0" /><path
       id="path4968"
       d="m 475.94531,89.671875 -124.64062,-88 c -2.76563,-1.957031 -6.46485,-1.957031 -9.23047,0 l -92.71875,65.441406 -2.05078,-1.441406 c -2.76563,-1.957031 -6.46485,-1.957031 -9.23047,0 l -2.04688,1.441406 -92.72265,-65.441406 c -2.76563,-1.957031 -6.46485,-1.957031 -9.23047,0 l -124.648439,88 c -9.882812,7 -12.386719,20.601565 -5.648437,30.664065 3.425781,5.0039 8.726562,8.41406 14.699218,9.45312 5.976563,1.03906 12.117188,-0.3789 17.03125,-3.93359 l 15.183594,-11.13672 v 109.48828 c 0,8.83594 7.164063,16 16,16 h 88.000004 v 48 c 0,8.83594 7.16406,16 16,16 h 144 c 8.83593,0 16,-7.16406 16,-16 v -48 h 88 c 8.83593,0 16,-7.16406 16,-16 V 114.71875 l 15.19921,11.15234 c 3.79297,2.78907 8.375,4.28907 13.07813,4.28907 7.53516,0.004 14.57422,-3.75391 18.76172,-10.01563 6.63281,-10.05078 4.07031,-23.55078 -5.78516,-30.472655 z m -113.2539,77.039065 c 2.07812,1.45703 3.07812,4.02343 2.52734,6.5039 -0.55078,2.48047 -2.53906,4.38282 -5.03906,4.82422 -1.6875,0.28125 -3.41406,-0.12109 -4.80078,-1.12109 L 247.42578,97.71875 c -2.8125,-2.0625 -6.64062,-2.0625 -9.45703,0 l -107.94922,79.19922 c -1.38672,1 -3.11719,1.40234 -4.80078,1.12109 -2.5,-0.4375 -4.48828,-2.33984 -5.04297,-4.8164 -0.55078,-2.47657 0.44141,-5.04297 2.51563,-6.50391 L 242.69141,82 Z m -32,-54.50391 c 0,-8.83594 7.16406,-15.999999 16,-15.999999 8.83593,0 16,7.164059 16,15.999999 0,8.83594 -7.16407,16 -16,16 -8.83594,0 -16,-7.16406 -16,-16 z m 64,64 v 16 h -16 v -9.97656 c 1.05078,-1.88672 1.8164,-3.91406 2.27734,-6.02344 z m -256,-48 c -8.83594,0 -16,-7.16406 -16,-16 0,-8.83594 7.16406,-15.999999 16,-15.999999 8.83593,0 16,7.164059 16,15.999999 0,8.83594 -7.16407,16 -16,16 z M 26.105469,112.91016 c -1.085938,0.78906 -2.394531,1.21484 -3.734375,1.21875 -2.097656,-0.004 -4.0625,-1.01563 -5.28125,-2.72266 -1.886719,-2.84766 -1.179688,-6.67578 1.601562,-8.66406 L 138.69141,18 222.15234,76.910156 211.96875,84.113281 143.42578,33.765625 c -2.8164,-2.066406 -6.65234,-2.066406 -9.47265,0 z m 40.585937,-9.9336 72.000004,-52.847654 59.49609,43.679688 -27.60937,19.496096 c 0,-0.37891 0.11328,-0.73828 0.11328,-1.11328 0.0625,-16.433598 -12.32813,-30.242191 -28.67188,-31.953129 -16.34375,-1.707031 -31.32812,9.238281 -34.66406,25.332029 -3.33594,16.08985 6.05859,32.08985 21.73437,37.01953 l -15.6875,11.07422 c -2.47265,1.7461 -4.5625,3.97656 -6.15234,6.55078 H 90.691406 c -4.417968,0 -8,3.58203 -8,8 v 56 h -16 z m 32,121.23047 v -48 h 5.718754 c 0.58203,2.85938 1.71484,5.57422 3.33593,8 4.99219,7.55078 14.08594,11.28906 22.94532,9.44141 v 30.55859 z m 48.000004,0 v -39.67969 l 8,-5.86328 v 45.54297 z m 56,64 v -48 h 32 v 48 z m 112,0 h -64 v -56 c 0,-4.41797 -3.58203,-8 -8,-8 h -48 c -4.41797,0 -8,3.58203 -8,8 v 56 h -16 V 166.92578 l 72,-52.79687 72,52.79687 z m 16,-64 v -45.54297 l 8,5.86328 v 39.67969 z m 88,0 h -64 v -30.54297 c 2.6289,0.58203 5.34765,0.63672 8,0.15235 v 6.39062 c 0,4.41797 3.58203,8 8,8 h 32 c 4.41797,0 8,-3.58203 8,-8 v -32 c 0,-4.41797 -3.58203,-8 -8,-8 h -24.59375 c -1.58594,-2.58203 -3.6836,-4.8125 -6.16016,-6.55859 l -15.64844,-11.03906 c 15.60938,-4.95704 24.94141,-20.91797 21.60157,-36.95313 -3.33985,-16.035156 -18.26563,-26.941406 -34.5586,-25.253906 -16.28906,1.6875 -28.66016,15.425781 -28.64062,31.804686 0,0.375 0.0937,0.72656 0.10937,1.10547 l -27.60547,-19.503906 59.4961,-43.679688 72,52.847654 z m 49.69531,-112.88672 c -0.98828,1.45313 -2.52344,2.44141 -4.25781,2.73438 -1.67969,0.30469 -3.41407,-0.0898 -4.79688,-1.09375 L 351.41016,33.757812 c -2.81641,-2.066406 -6.65235,-2.066406 -9.47266,0 L 273.40234,84.09375 263.21875,76.894531 346.69141,18 l 120,84.71094 c 2.8125,1.92969 3.57031,5.7539 1.70312,8.60937 z m 0,0"
       inkscape:connector-curvature="0" /></g></svg>