<?xml version="1.0" encoding="UTF-8" standalone="no"?>
<svg
   xmlns:dc="http://purl.org/dc/elements/1.1/"
   xmlns:cc="http://creativecommons.org/ns#"
   xmlns:rdf="http://www.w3.org/1999/02/22-rdf-syntax-ns#"
   xmlns:svg="http://www.w3.org/2000/svg"
   xmlns="http://www.w3.org/2000/svg"
   xmlns:sodipodi="http://sodipodi.sourceforge.net/DTD/sodipodi-0.dtd"
   xmlns:inkscape="http://www.inkscape.org/namespaces/inkscape"
   xml:space="preserve"
   style="enable-background:new 0 0 512.001 512.001;"
   viewBox="0 0 512.001 512.001"
   y="0px"
   x="0px"
   id="Layer_1"
   version="1.1"
   sodipodi:docname="rond-village-2.svg"
   inkscape:version="0.92.1 r15371"><defs
     id="defs33" /><sodipodi:namedview
     pagecolor="#ffffff"
     bordercolor="#666666"
     borderopacity="1"
     objecttolerance="10"
     gridtolerance="10"
     guidetolerance="10"
     inkscape:pageopacity="0"
     inkscape:pageshadow="2"
     inkscape:window-width="1920"
     inkscape:window-height="1001"
     id="namedview31"
     showgrid="false"
     inkscape:zoom="14.749972"
     inkscape:cx="37.194933"
     inkscape:cy="511.87327"
     inkscape:window-x="-9"
     inkscape:window-y="-9"
     inkscape:window-maximized="1"
     inkscape:current-layer="Layer_1" /><metadata
     id="metadata159"><rdf:RDF><cc:Work
         rdf:about=""><dc:format>image/svg+xml</dc:format><dc:type
           rdf:resource="http://purl.org/dc/dcmitype/StillImage" /><dc:title /></cc:Work></rdf:RDF></metadata><rect
     style="opacity:1;fill:#aa0000;fill-opacity:1;stroke:#ffffff;stroke-width:1.00157475;stroke-linejoin:round;stroke-miterlimit:4;stroke-dasharray:none;stroke-dashoffset:0;stroke-opacity:1"
     id="rect15684"
     width="16.573565"
     height="16.573565"
     x="-5.5062895"
     y="-31.201878"
     transform="rotate(45)" /><g
     id="g4538"
     transform="matrix(0.02230224,0,0,0.02230224,12.460144,-19.946687)"
     style="fill:#ffffff"><path
       id="path4513"
       d="m 430.099,466.292 c -31.802,-11.849 -45.698,-36.351 -51.713,-57.046 l 0.875,-0.265 c 27.978,-8.468 46.777,-33.797 46.777,-63.029 V 221.099 c 0,-5.151 -1.707,-9.911 -4.583,-13.744 4.927,-4.312 8.045,-10.652 8.045,-17.719 0,-12.945 -10.532,-23.478 -23.477,-23.478 h -9.733 c -2.963,-19.044 -8.3,-34.697 -16.245,-47.69 -2.161,-3.536 -6.779,-4.649 -10.31,-2.486 -3.534,2.16 -4.647,6.777 -2.486,10.311 6.583,10.767 11.14,23.868 13.847,39.866 H 130.885 c 6.232,-37.979 24.73,-75.381 96.723,-82.972 4.719,6.735 16.544,31.934 19.916,38.673 1.708,3.416 3.474,6.948 8.263,6.948 4.755,0 6.529,-3.493 8.246,-6.872 3.119,-6.139 15.531,-32.086 20.314,-38.763 27.068,2.838 47.807,9.902 63.313,21.551 3.31,2.487 8.013,1.821 10.501,-1.491 2.488,-3.312 1.82,-8.013 -1.491,-10.501 C 339.192,79.6 316.427,71.618 287.201,68.393 285.2,62.728 280.828,50.413 276.356,38.213 272.789,28.484 269.851,20.717 267.626,15.129 263.363,4.429 261.598,0 255.787,0 c -5.842,0 -7.583,4.44 -11.788,15.17 -2.191,5.589 -5.08,13.357 -8.587,23.091 -4.385,12.171 -8.67,24.458 -10.642,30.144 -36.511,4.036 -63.21,15.563 -81.505,35.161 -14.539,15.575 -23.371,35.582 -27.554,62.593 h -9.73 c -12.945,0 -23.477,10.532 -23.477,23.522 0,7.042 3.117,13.37 8.044,17.677 -2.876,3.833 -4.582,8.592 -4.582,13.741 v 124.854 c 0,29.232 18.799,54.562 46.777,63.029 l 0.873,0.264 c -6.017,20.699 -19.912,45.201 -51.713,57.048 -6.199,2.313 -9.951,8.285 -9.337,14.86 0.617,6.598 5.43,11.788 11.972,12.916 38.747,6.697 112.546,17.93 171.454,17.93 58.924,0 132.728,-11.233 171.473,-17.93 6.54,-1.127 11.35,-6.315 11.969,-12.909 0.617,-6.576 -3.131,-12.55 -9.335,-14.869 z M 255.838,26.177 c 4.636,12.071 11.155,29.99 17.203,47.156 -3.49,4.482 -8.321,13.39 -17.201,31.343 -8.729,-17.944 -13.479,-26.844 -16.913,-31.321 5.939,-17.167 12.347,-35.093 16.911,-47.178 z M 105.981,181.158 h 300.042 c 4.675,0 8.477,3.803 8.477,8.522 0,4.675 -3.803,8.478 -8.477,8.478 H 105.981 c -4.675,0 -8.477,-3.803 -8.477,-8.522 0,-4.675 3.802,-8.478 8.477,-8.478 z M 255.992,497 c -56.808,0 -128.157,-10.723 -166.955,-17.377 36.151,-14.216 52.032,-42.292 58.94,-66.031 l 13.853,4.192 c 3.965,1.196 8.151,-1.042 9.351,-5.006 1.199,-3.965 -1.042,-8.151 -5.006,-9.352 -1.772,-0.536 7.137,2.16 -29.088,-8.803 -21.606,-6.539 -36.123,-26.099 -36.123,-48.672 V 221.099 c 0,-4.378 3.562,-7.94 7.94,-7.94 h 294.193 c 4.378,0 7.939,3.563 7.939,7.94 v 124.854 c 0,22.573 -14.517,42.133 -36.122,48.672 l -105.928,32.057 c -8.497,2.571 -17.478,2.57 -25.973,0 l -45.84,-13.872 c -3.96,-1.197 -8.151,1.041 -9.351,5.007 -1.199,3.964 1.042,8.15 5.007,9.351 l 45.84,13.872 c 11.117,3.363 23.095,3.498 34.662,0 l 90.691,-27.445 c 6.905,23.733 22.784,51.805 58.945,66.031 C 384.213,486.271 312.834,497 255.992,497 Z"
       inkscape:connector-curvature="0"
       style="fill:#ffffff" /><path
       id="path4515"
       d="m 137.503,228.296 c -12.406,0 -22.5,10.094 -22.5,22.5 v 102.001 c 0,12.406 10.094,22.499 22.5,22.499 12.406,0 22.5,-10.093 22.5,-22.499 V 250.796 c 0,-12.406 -10.093,-22.5 -22.5,-22.5 z m 7.5,124.501 c 0,4.135 -3.364,7.499 -7.5,7.499 -4.136,0 -7.5,-3.364 -7.5,-7.499 V 250.796 c 0,-4.136 3.364,-7.5 7.5,-7.5 4.136,0 7.5,3.364 7.5,7.5 z"
       inkscape:connector-curvature="0"
       style="fill:#ffffff" /><path
       id="path4517"
       d="m 374.501,375.296 c 12.406,0 22.5,-10.093 22.5,-22.499 V 250.796 c 0,-12.406 -10.094,-22.5 -22.5,-22.5 -12.406,0 -22.5,10.094 -22.5,22.5 v 102.001 c 0,12.406 10.094,22.499 22.5,22.499 z m -7.5,-124.5 c 0,-4.136 3.364,-7.5 7.5,-7.5 4.136,0 7.5,3.364 7.5,7.5 v 102.001 c 0,4.135 -3.364,7.499 -7.5,7.499 -4.136,0 -7.5,-3.364 -7.5,-7.499 z"
       inkscape:connector-curvature="0"
       style="fill:#ffffff" /><path
       id="path4519"
       d="m 217.503,366.065 v -115.27 c 0,-12.406 -10.094,-22.5 -22.5,-22.5 -12.406,0 -22.5,10.094 -22.5,22.5 v 115.27 c 0,12.406 10.094,22.5 22.5,22.5 12.406,0 22.5,-10.093 22.5,-22.5 z m -30,0 v -115.27 c 0,-4.136 3.364,-7.5 7.5,-7.5 4.136,0 7.5,3.364 7.5,7.5 v 115.27 c 0,4.136 -3.364,7.5 -7.5,7.5 -4.136,0 -7.5,-3.364 -7.5,-7.5 z"
       inkscape:connector-curvature="0"
       style="fill:#ffffff" /><path
       id="path4521"
       d="m 317.001,388.565 c 12.406,0 22.5,-10.094 22.5,-22.5 v -115.27 c 0,-12.406 -10.094,-22.5 -22.5,-22.5 -12.406,0 -22.499,10.094 -22.499,22.5 v 115.27 c 0,12.407 10.093,22.5 22.499,22.5 z m -7.499,-137.769 c 0,-4.136 3.364,-7.5 7.499,-7.5 4.136,0 7.5,3.364 7.5,7.5 v 115.27 c 0,4.136 -3.364,7.5 -7.5,7.5 -4.135,0 -7.499,-3.364 -7.499,-7.5 z"
       inkscape:connector-curvature="0"
       style="fill:#ffffff" /><path
       id="path4523"
       d="m 256.05,416.053 c 12.38,0 22.452,-10.072 22.452,-22.452 V 287.975 c 0,-4.143 -3.357,-7.5 -7.5,-7.5 -4.143,0 -7.5,3.357 -7.5,7.5 v 105.626 c 0,4.109 -3.343,7.452 -7.549,7.452 -4.108,0 -7.451,-3.343 -7.451,-7.452 V 250.504 c 0,-4.108 3.343,-7.451 7.548,-7.451 4.109,0 7.452,3.343 7.452,7.451 V 256 c 0,4.143 3.357,7.5 7.5,7.5 4.143,0 7.5,-3.357 7.5,-7.5 v -5.496 c 0,-12.38 -10.072,-22.451 -22.549,-22.451 -12.38,0 -22.451,10.071 -22.451,22.451 v 143.097 c 10e-4,12.379 10.072,22.452 22.548,22.452 z"
       inkscape:connector-curvature="0"
       style="fill:#ffffff" /></g><ellipse
     ry="15.47317"
     rx="15.659593"
     cy="1.3989621"
     cx="2.403769"
     id="path1322"
     style="display:inline;fill:#ffffff;fill-opacity:1;stroke:#000000;stroke-width:1.70032859;stroke-miterlimit:4;stroke-dasharray:none;stroke-dashoffset:0;stroke-opacity:1" /><path
     style="opacity:1;fill:#ffffff;fill-opacity:1;stroke:#ffffff;stroke-width:0.04801503;stroke-linejoin:round;stroke-miterlimit:4;stroke-dasharray:none;stroke-dashoffset:0;stroke-opacity:1"
     d="m -7.6017661,-3.7681101 v -1.845672 h 0.3355767 0.3355767 v 0.8389418 0.8389419 h 0.9827605 0.9827605 v -0.8389419 -0.8389418 h 0.3355767 0.3355767 v 0.8389418 0.8389419 h 1.0067303 1.0067302 v -0.8389419 -0.8389418 h 0.3355767 0.3355768 v 1.845672 1.8456721 h -2.9962209 -2.9962209 z m 2.0134604,0.8389419 V -3.264745 h -0.3595465 -0.3595465 v 0.3355768 0.3355767 h 0.3595465 0.3595465 z m 1.342307,0 V -3.264745 h -0.3595465 -0.3595465 v 0.3355768 0.3355767 h 0.3595465 0.3595465 z m 1.3423069,0 V -3.264745 h -0.3595465 -0.3595465 v 0.3355768 0.3355767 h 0.3595465 0.3595465 z"
     id="path4664"
     inkscape:connector-curvature="0" /><g
     id="g4981"
     transform="matrix(0.05079539,0,0,0.05079539,-9.9245409,-6.3323789)"><path
       id="path4964"
       d="m 298.69141,224.20703 h -32 c -4.41797,0 -8,3.58203 -8,8 v 32 c 0,4.41797 3.58203,8 8,8 h 32 c 4.41796,0 8,-3.58203 8,-8 v -32 c 0,-4.41797 -3.58204,-8 -8,-8 z m -8,32 h -16 v -16 h 16 z m 0,0"
       inkscape:connector-curvature="0" /><path
       id="path4966"
       d="m 274.69141,176.20703 c 0,-17.67187 -14.32813,-32 -32,-32 -17.67579,0 -32,14.32813 -32,32 0,17.67188 14.32421,32 32,32 17.67187,0 32,-14.32812 32,-32 z m -32,16 c -8.83594,0 -16,-7.16406 -16,-16 0,-8.83594 7.16406,-16 16,-16 8.83593,0 16,7.16406 16,16 0,8.83594 -7.16407,16 -16,16 z m 0,0"
       inkscape:connector-curvature="0" /><path
       id="path4968"
       d="m 475.94531,89.671875 -124.64062,-88 c -2.76563,-1.957031 -6.46485,-1.957031 -9.23047,0 l -92.71875,65.441406 -2.05078,-1.441406 c -2.76563,-1.957031 -6.46485,-1.957031 -9.23047,0 l -2.04688,1.441406 -92.72265,-65.441406 c -2.76563,-1.957031 -6.46485,-1.957031 -9.23047,0 l -124.648439,88 c -9.882812,7 -12.386719,20.601565 -5.648437,30.664065 3.425781,5.0039 8.726562,8.41406 14.699218,9.45312 5.976563,1.03906 12.117188,-0.3789 17.03125,-3.93359 l 15.183594,-11.13672 v 109.48828 c 0,8.83594 7.164063,16 16,16 h 88.000004 v 48 c 0,8.83594 7.16406,16 16,16 h 144 c 8.83593,0 16,-7.16406 16,-16 v -48 h 88 c 8.83593,0 16,-7.16406 16,-16 V 114.71875 l 15.19921,11.15234 c 3.79297,2.78907 8.375,4.28907 13.07813,4.28907 7.53516,0.004 14.57422,-3.75391 18.76172,-10.01563 6.63281,-10.05078 4.07031,-23.55078 -5.78516,-30.472655 z m -113.2539,77.039065 c 2.07812,1.45703 3.07812,4.02343 2.52734,6.5039 -0.55078,2.48047 -2.53906,4.38282 -5.03906,4.82422 -1.6875,0.28125 -3.41406,-0.12109 -4.80078,-1.12109 L 247.42578,97.71875 c -2.8125,-2.0625 -6.64062,-2.0625 -9.45703,0 l -107.94922,79.19922 c -1.38672,1 -3.11719,1.40234 -4.80078,1.12109 -2.5,-0.4375 -4.48828,-2.33984 -5.04297,-4.8164 -0.55078,-2.47657 0.44141,-5.04297 2.51563,-6.50391 L 242.69141,82 Z m -32,-54.50391 c 0,-8.83594 7.16406,-15.999999 16,-15.999999 8.83593,0 16,7.164059 16,15.999999 0,8.83594 -7.16407,16 -16,16 -8.83594,0 -16,-7.16406 -16,-16 z m 64,64 v 16 h -16 v -9.97656 c 1.05078,-1.88672 1.8164,-3.91406 2.27734,-6.02344 z m -256,-48 c -8.83594,0 -16,-7.16406 -16,-16 0,-8.83594 7.16406,-15.999999 16,-15.999999 8.83593,0 16,7.164059 16,15.999999 0,8.83594 -7.16407,16 -16,16 z M 26.105469,112.91016 c -1.085938,0.78906 -2.394531,1.21484 -3.734375,1.21875 -2.097656,-0.004 -4.0625,-1.01563 -5.28125,-2.72266 -1.886719,-2.84766 -1.179688,-6.67578 1.601562,-8.66406 L 138.69141,18 222.15234,76.910156 211.96875,84.113281 143.42578,33.765625 c -2.8164,-2.066406 -6.65234,-2.066406 -9.47265,0 z m 40.585937,-9.9336 72.000004,-52.847654 59.49609,43.679688 -27.60937,19.496096 c 0,-0.37891 0.11328,-0.73828 0.11328,-1.11328 0.0625,-16.433598 -12.32813,-30.242191 -28.67188,-31.953129 -16.34375,-1.707031 -31.32812,9.238281 -34.66406,25.332029 -3.33594,16.08985 6.05859,32.08985 21.73437,37.01953 l -15.6875,11.07422 c -2.47265,1.7461 -4.5625,3.97656 -6.15234,6.55078 H 90.691406 c -4.417968,0 -8,3.58203 -8,8 v 56 h -16 z m 32,121.23047 v -48 h 5.718754 c 0.58203,2.85938 1.71484,5.57422 3.33593,8 4.99219,7.55078 14.08594,11.28906 22.94532,9.44141 v 30.55859 z m 48.000004,0 v -39.67969 l 8,-5.86328 v 45.54297 z m 56,64 v -48 h 32 v 48 z m 112,0 h -64 v -56 c 0,-4.41797 -3.58203,-8 -8,-8 h -48 c -4.41797,0 -8,3.58203 -8,8 v 56 h -16 V 166.92578 l 72,-52.79687 72,52.79687 z m 16,-64 v -45.54297 l 8,5.86328 v 39.67969 z m 88,0 h -64 v -30.54297 c 2.6289,0.58203 5.34765,0.63672 8,0.15235 v 6.39062 c 0,4.41797 3.58203,8 8,8 h 32 c 4.41797,0 8,-3.58203 8,-8 v -32 c 0,-4.41797 -3.58203,-8 -8,-8 h -24.59375 c -1.58594,-2.58203 -3.6836,-4.8125 -6.16016,-6.55859 l -15.64844,-11.03906 c 15.60938,-4.95704 24.94141,-20.91797 21.60157,-36.95313 -3.33985,-16.035156 -18.26563,-26.941406 -34.5586,-25.253906 -16.28906,1.6875 -28.66016,15.425781 -28.64062,31.804686 0,0.375 0.0937,0.72656 0.10937,1.10547 l -27.60547,-19.503906 59.4961,-43.679688 72,52.847654 z m 49.69531,-112.88672 c -0.98828,1.45313 -2.52344,2.44141 -4.25781,2.73438 -1.67969,0.30469 -3.41407,-0.0898 -4.79688,-1.09375 L 351.41016,33.757812 c -2.81641,-2.066406 -6.65235,-2.066406 -9.47266,0 L 273.40234,84.09375 263.21875,76.894531 346.69141,18 l 120,84.71094 c 2.8125,1.92969 3.57031,5.7539 1.70312,8.60937 z m 0,0"
       inkscape:connector-curvature="0" /></g></svg>