<?xml version="1.0" encoding="UTF-8" standalone="no"?>
<svg
   xmlns:dc="http://purl.org/dc/elements/1.1/"
   xmlns:cc="http://creativecommons.org/ns#"
   xmlns:rdf="http://www.w3.org/1999/02/22-rdf-syntax-ns#"
   xmlns:svg="http://www.w3.org/2000/svg"
   xmlns="http://www.w3.org/2000/svg"
   xmlns:sodipodi="http://sodipodi.sourceforge.net/DTD/sodipodi-0.dtd"
   xmlns:inkscape="http://www.inkscape.org/namespaces/inkscape"
   xml:space="preserve"
   style="enable-background:new 0 0 512.001 512.001;"
   viewBox="0 0 512.001 512.001"
   y="0px"
   x="0px"
   id="Layer_1"
   version="1.1"
   sodipodi:docname="rond-village-3.svg"
   inkscape:version="0.92.1 r15371"><defs
     id="defs33" /><sodipodi:namedview
     pagecolor="#ffffff"
     bordercolor="#666666"
     borderopacity="1"
     objecttolerance="10"
     gridtolerance="10"
     guidetolerance="10"
     inkscape:pageopacity="0"
     inkscape:pageshadow="2"
     inkscape:window-width="1920"
     inkscape:window-height="1001"
     id="namedview31"
     showgrid="false"
     inkscape:zoom="14.749972"
     inkscape:cx="19.637373"
     inkscape:cy="522.80195"
     inkscape:window-x="-9"
     inkscape:window-y="-9"
     inkscape:window-maximized="1"
     inkscape:current-layer="Layer_1" /><metadata
     id="metadata159"><rdf:RDF><cc:Work
         rdf:about=""><dc:format>image/svg+xml</dc:format><dc:type
           rdf:resource="http://purl.org/dc/dcmitype/StillImage" /><dc:title /></cc:Work></rdf:RDF></metadata><rect
     style="opacity:1;fill:#aa0000;fill-opacity:1;stroke:#ffffff;stroke-width:1.00157475;stroke-linejoin:round;stroke-miterlimit:4;stroke-dasharray:none;stroke-dashoffset:0;stroke-opacity:1"
     id="rect15684"
     width="16.573565"
     height="16.573565"
     x="-5.5062895"
     y="-31.201878"
     transform="rotate(45)" /><g
     id="g4529"
     transform="matrix(0.03085605,0,0,0.03085605,12.707109,-19.699746)"
     style="fill:#ffffff"><path
       id="path4513"
       d="m 343.984,47.928 c 6.892,-6.904 6.892,-18.128 0,-25.032 L 333.752,12.664 c -3.93,-3.93 -9.335,-5.742 -14.864,-5.033 -5.517,0.738 -10.262,3.936 -13.023,8.763 l -1.286,2.248 C 293.928,11.337 282.321,5.849 269.852,2.527 L 261.16,0.208 c -1.776,-0.49 -3.664,-0.1 -5.116,1.021 -1.452,1.121 -2.301,2.844 -2.301,4.679 v 25.858 l -2.939,-1.469 -16.906,-11.271 -17.29,-17.29 c -1.251,-1.251 -2.974,-1.865 -4.756,-1.699 -1.758,0.171 -3.346,1.127 -4.325,2.596 L 197.477,17.71 H 156.584 L 146.534,2.633 c -0.98,-1.469 -2.573,-2.425 -4.325,-2.596 -1.776,-0.153 -3.505,0.448 -4.756,1.699 l -17.29,17.29 -16.906,11.271 -2.939,1.469 V 5.908 c 0,-1.835 -0.856,-3.564 -2.307,-4.679 C 96.553,0.114 94.677,-0.276 92.895,0.208 L 84.209,2.527 C 71.74,5.849 60.133,11.337 49.482,18.648 L 48.196,16.4 C 45.44,11.567 40.69,8.369 35.173,7.631 29.662,6.917 24.239,8.734 20.309,12.664 L 10.076,22.897 c -6.892,6.904 -6.892,18.128 0,25.032 l 6.066,6.066 C 5.615,71.597 0.004,91.571 0.004,112.124 c 0,2.673 1.8,5.016 4.378,5.7 l 60.413,16.109 0.118,53.391 c 0,6.426 2.986,12.262 8.196,16.021 3.458,2.496 7.494,3.653 11.595,3.629 1.145,12.976 3.906,27.681 6.485,40.987 2.272,11.737 4.426,22.825 4.762,29.664 0.348,7.105 -2.856,13.92 -4.833,17.419 h -2.602 c -3.257,0 -5.901,2.638 -5.901,5.901 v 47.207 c 0,3.263 2.644,5.901 5.901,5.901 h 41.306 c 1.564,0 3.068,-0.62 4.172,-1.729 l 4.172,-4.166 h 77.726 l 4.172,4.172 c 1.103,1.109 2.608,1.729 4.172,1.729 h 41.306 c 3.257,0 5.901,-2.638 5.901,-5.901 v -47.207 c 0,-3.263 -2.644,-5.901 -5.901,-5.901 h -2.526 c -2.284,-4.213 -5.382,-11.371 -5.104,-17.443 0.313,-6.839 2.437,-17.738 4.685,-29.268 2.585,-13.253 5.352,-27.929 6.509,-41.271 0.118,0 0.23,0.03 0.348,0.03 4.066,0 8.055,-1.28 11.489,-3.753 5.216,-3.759 8.202,-9.595 8.202,-16.074 l -0.466,-53.185 60.997,-16.269 c 2.579,-0.679 4.378,-3.021 4.378,-5.694 0,-20.553 -5.612,-40.521 -16.139,-58.124 z M 320.451,19.327 c 1.835,-0.248 3.641,0.372 4.957,1.676 l 10.232,10.232 c 2.301,2.301 2.301,6.043 0,8.344 l -50.122,50.122 c -1.434,-1.894 -3.228,-3.47 -5.293,-4.662 l 35.883,-62.785 c 0.92,-1.611 2.502,-2.679 4.343,-2.927 z m -49.007,75.094 c 3.251,0 5.901,2.644 5.901,5.901 0,3.257 -2.65,5.901 -5.901,5.901 -3.251,0 -5.901,-2.644 -5.901,-5.901 0,-3.257 2.65,-5.901 5.901,-5.901 z m -4.632,-80.499 c 11.471,3.063 22.134,8.173 31.888,15 l -30.903,54.082 c -0.779,0.165 -1.517,0.443 -2.254,0.702 V 13.591 Z M 127.197,28.52 c 0.325,-0.212 0.626,-0.46 0.897,-0.738 l 12.616,-12.616 7.807,11.713 c 1.098,1.646 2.939,2.632 4.91,2.632 h 47.207 c 1.971,0 3.812,-0.985 4.91,-2.626 l 7.807,-11.713 12.616,12.616 c 0.271,0.277 0.578,0.525 0.897,0.738 l 10.987,7.323 -21.585,17.266 h -78.47 L 116.21,35.843 Z M 82.616,94.421 c 3.251,0 5.901,2.644 5.901,5.901 0,3.257 -2.649,5.901 -5.901,5.901 -3.252,0 -5.901,-2.644 -5.901,-5.901 0,-3.257 2.65,-5.901 5.901,-5.901 z m 4.632,-80.499 1.269,-0.33 v 70.12 C 87.779,83.446 87.042,83.175 86.263,83.01 L 55.36,28.928 C 65.108,22.094 75.777,16.984 87.248,13.922 Z M 18.42,31.241 28.652,21.009 c 1.31,-1.31 3.092,-1.918 4.957,-1.676 1.841,0.248 3.423,1.316 4.343,2.921 l 35.883,62.791 c -2.065,1.192 -3.859,2.768 -5.293,4.662 L 18.426,39.584 C 16.125,37.283 16.125,33.542 18.42,31.241 Z m 6.314,31.345 40.456,40.456 c 1.316,8.462 8.592,14.982 17.425,14.982 2.077,0 4.048,-0.425 5.901,-1.086 v 11.111 L 11.905,107.614 C 12.602,91.778 16.998,76.418 24.734,62.586 Z m 51.981,124.727 -0.112,-50.234 16.292,4.343 c 0.502,0.142 1.015,0.207 1.522,0.207 1.286,0 2.555,-0.419 3.594,-1.221 1.452,-1.115 2.307,-2.844 2.307,-4.679 V 73.633 l 47.207,18.883 v 56.92 l -55.303,22.116 4.384,10.958 59.009,-23.604 c 2.242,-0.897 3.712,-3.063 3.712,-5.476 V 88.52 c 0,-2.413 -1.469,-4.579 -3.706,-5.482 L 100.318,60.922 V 44.96 l 5.163,-2.579 26.56,21.249 c 1.044,0.832 2.343,1.286 3.682,1.286 h 35.405 V 166.883 L 87.17,194.865 c -2.455,0.838 -5.063,0.413 -7.158,-1.092 -2.093,-1.515 -3.297,-3.858 -3.297,-6.46 z M 127.38,342.258 H 94.418 v -35.405 h 32.962 l 11.802,11.802 h -15.26 v 11.802 h 15.26 z m 22.589,-5.901 7.63,-7.63 c 2.307,-2.307 2.307,-6.037 0,-8.344 l -7.63,-7.63 h 54.123 l -7.63,7.63 c -2.307,2.307 -2.307,6.037 0,8.344 l 7.63,7.63 z m 109.673,5.901 H 226.68 l -11.802,-11.802 h 15.26 v -11.802 h -15.26 l 11.802,-11.802 h 32.962 z m -35.405,-47.207 c -1.564,0 -3.068,0.62 -4.172,1.729 l -4.172,4.172 h -77.726 l -4.172,-4.172 c -1.103,-1.109 -2.608,-1.729 -4.172,-1.729 h -25.616 c 2.042,-4.892 3.871,-11.223 3.535,-18.01 -0.378,-7.677 -2.502,-18.635 -4.963,-31.322 -2.626,-13.584 -5.559,-28.761 -6.538,-41.442 l 80.789,-26.926 80.476,26.831 c -0.974,13.159 -3.841,28.295 -6.491,41.896 -2.437,12.492 -4.538,23.273 -4.892,30.986 -0.295,6.432 1.688,12.941 3.818,17.986 h -25.704 z m 53.108,-107.726 c 0,2.585 -1.204,4.933 -3.299,6.45 -2.089,1.517 -4.703,1.912 -7.158,1.098 L 182.93,166.885 V 64.917 h 35.405 c 1.34,0 2.638,-0.454 3.688,-1.292 l 26.56,-21.249 5.157,2.585 v 15.956 l -55.303,22.122 c -2.236,0.903 -3.706,3.068 -3.706,5.482 v 64.91 c 0,2.413 1.469,4.579 3.706,5.482 l 59.009,23.604 4.384,-10.958 -55.297,-22.122 V 92.517 L 253.74,73.634 v 62.095 c 0,1.835 0.856,3.564 2.307,4.679 1.039,0.803 2.307,1.221 3.594,1.221 0.507,0 1.021,-0.065 1.522,-0.201 l 15.744,-4.196 z m 64.809,-79.709 -76.611,20.429 v -11.111 c 1.853,0.667 3.824,1.092 5.901,1.092 8.834,0 16.109,-6.52 17.425,-14.982 l 40.456,-40.451 c 7.743,13.825 12.133,29.185 12.829,45.023 z"
       inkscape:connector-curvature="0"
       style="fill:#ffffff" /><path
       id="path4515"
       d="m 210.158,220.901 36.249,9.064 2.862,-11.442 -36.243,-9.07 c -23.545,-5.889 -48.44,-5.889 -71.985,0 l -36.249,9.064 2.862,11.442 36.249,-9.064 c 21.668,-5.411 44.587,-5.399 66.255,0.006 z"
       inkscape:connector-curvature="0"
       style="fill:#ffffff" /><path
       id="path4517"
       d="m 141.035,238.957 -30.348,7.589 2.862,11.442 30.348,-7.589 c 21.668,-5.411 44.587,-5.411 66.261,0 l 30.348,7.589 2.862,-11.442 -30.342,-7.589 c -23.551,-5.889 -48.441,-5.889 -71.991,0 z"
       inkscape:connector-curvature="0"
       style="fill:#ffffff" /></g><ellipse
     ry="15.47317"
     rx="15.659593"
     cy="1.3989621"
     cx="2.403769"
     id="path1322"
     style="display:inline;fill:#ffffff;fill-opacity:1;stroke:#000000;stroke-width:1.70032859;stroke-miterlimit:4;stroke-dasharray:none;stroke-dashoffset:0;stroke-opacity:1" /><path
     style="opacity:1;fill:#ffffff;fill-opacity:1;stroke:#ffffff;stroke-width:0.04801503;stroke-linejoin:round;stroke-miterlimit:4;stroke-dasharray:none;stroke-dashoffset:0;stroke-opacity:1"
     d="m -7.6017661,-3.7681101 v -1.845672 h 0.3355767 0.3355767 v 0.8389418 0.8389419 h 0.9827605 0.9827605 v -0.8389419 -0.8389418 h 0.3355767 0.3355767 v 0.8389418 0.8389419 h 1.0067303 1.0067302 v -0.8389419 -0.8389418 h 0.3355767 0.3355768 v 1.845672 1.8456721 h -2.9962209 -2.9962209 z m 2.0134604,0.8389419 V -3.264745 h -0.3595465 -0.3595465 v 0.3355768 0.3355767 h 0.3595465 0.3595465 z m 1.342307,0 V -3.264745 h -0.3595465 -0.3595465 v 0.3355768 0.3355767 h 0.3595465 0.3595465 z m 1.3423069,0 V -3.264745 h -0.3595465 -0.3595465 v 0.3355768 0.3355767 h 0.3595465 0.3595465 z"
     id="path4664"
     inkscape:connector-curvature="0" /><g
     id="g4981"
     transform="matrix(0.05079539,0,0,0.05079539,-9.9245409,-6.3323789)"><path
       id="path4964"
       d="m 298.69141,224.20703 h -32 c -4.41797,0 -8,3.58203 -8,8 v 32 c 0,4.41797 3.58203,8 8,8 h 32 c 4.41796,0 8,-3.58203 8,-8 v -32 c 0,-4.41797 -3.58204,-8 -8,-8 z m -8,32 h -16 v -16 h 16 z m 0,0"
       inkscape:connector-curvature="0" /><path
       id="path4966"
       d="m 274.69141,176.20703 c 0,-17.67187 -14.32813,-32 -32,-32 -17.67579,0 -32,14.32813 -32,32 0,17.67188 14.32421,32 32,32 17.67187,0 32,-14.32812 32,-32 z m -32,16 c -8.83594,0 -16,-7.16406 -16,-16 0,-8.83594 7.16406,-16 16,-16 8.83593,0 16,7.16406 16,16 0,8.83594 -7.16407,16 -16,16 z m 0,0"
       inkscape:connector-curvature="0" /><path
       id="path4968"
       d="m 475.94531,89.671875 -124.64062,-88 c -2.76563,-1.957031 -6.46485,-1.957031 -9.23047,0 l -92.71875,65.441406 -2.05078,-1.441406 c -2.76563,-1.957031 -6.46485,-1.957031 -9.23047,0 l -2.04688,1.441406 -92.72265,-65.441406 c -2.76563,-1.957031 -6.46485,-1.957031 -9.23047,0 l -124.648439,88 c -9.882812,7 -12.386719,20.601565 -5.648437,30.664065 3.425781,5.0039 8.726562,8.41406 14.699218,9.45312 5.976563,1.03906 12.117188,-0.3789 17.03125,-3.93359 l 15.183594,-11.13672 v 109.48828 c 0,8.83594 7.164063,16 16,16 h 88.000004 v 48 c 0,8.83594 7.16406,16 16,16 h 144 c 8.83593,0 16,-7.16406 16,-16 v -48 h 88 c 8.83593,0 16,-7.16406 16,-16 V 114.71875 l 15.19921,11.15234 c 3.79297,2.78907 8.375,4.28907 13.07813,4.28907 7.53516,0.004 14.57422,-3.75391 18.76172,-10.01563 6.63281,-10.05078 4.07031,-23.55078 -5.78516,-30.472655 z m -113.2539,77.039065 c 2.07812,1.45703 3.07812,4.02343 2.52734,6.5039 -0.55078,2.48047 -2.53906,4.38282 -5.03906,4.82422 -1.6875,0.28125 -3.41406,-0.12109 -4.80078,-1.12109 L 247.42578,97.71875 c -2.8125,-2.0625 -6.64062,-2.0625 -9.45703,0 l -107.94922,79.19922 c -1.38672,1 -3.11719,1.40234 -4.80078,1.12109 -2.5,-0.4375 -4.48828,-2.33984 -5.04297,-4.8164 -0.55078,-2.47657 0.44141,-5.04297 2.51563,-6.50391 L 242.69141,82 Z m -32,-54.50391 c 0,-8.83594 7.16406,-15.999999 16,-15.999999 8.83593,0 16,7.164059 16,15.999999 0,8.83594 -7.16407,16 -16,16 -8.83594,0 -16,-7.16406 -16,-16 z m 64,64 v 16 h -16 v -9.97656 c 1.05078,-1.88672 1.8164,-3.91406 2.27734,-6.02344 z m -256,-48 c -8.83594,0 -16,-7.16406 -16,-16 0,-8.83594 7.16406,-15.999999 16,-15.999999 8.83593,0 16,7.164059 16,15.999999 0,8.83594 -7.16407,16 -16,16 z M 26.105469,112.91016 c -1.085938,0.78906 -2.394531,1.21484 -3.734375,1.21875 -2.097656,-0.004 -4.0625,-1.01563 -5.28125,-2.72266 -1.886719,-2.84766 -1.179688,-6.67578 1.601562,-8.66406 L 138.69141,18 222.15234,76.910156 211.96875,84.113281 143.42578,33.765625 c -2.8164,-2.066406 -6.65234,-2.066406 -9.47265,0 z m 40.585937,-9.9336 72.000004,-52.847654 59.49609,43.679688 -27.60937,19.496096 c 0,-0.37891 0.11328,-0.73828 0.11328,-1.11328 0.0625,-16.433598 -12.32813,-30.242191 -28.67188,-31.953129 -16.34375,-1.707031 -31.32812,9.238281 -34.66406,25.332029 -3.33594,16.08985 6.05859,32.08985 21.73437,37.01953 l -15.6875,11.07422 c -2.47265,1.7461 -4.5625,3.97656 -6.15234,6.55078 H 90.691406 c -4.417968,0 -8,3.58203 -8,8 v 56 h -16 z m 32,121.23047 v -48 h 5.718754 c 0.58203,2.85938 1.71484,5.57422 3.33593,8 4.99219,7.55078 14.08594,11.28906 22.94532,9.44141 v 30.55859 z m 48.000004,0 v -39.67969 l 8,-5.86328 v 45.54297 z m 56,64 v -48 h 32 v 48 z m 112,0 h -64 v -56 c 0,-4.41797 -3.58203,-8 -8,-8 h -48 c -4.41797,0 -8,3.58203 -8,8 v 56 h -16 V 166.92578 l 72,-52.79687 72,52.79687 z m 16,-64 v -45.54297 l 8,5.86328 v 39.67969 z m 88,0 h -64 v -30.54297 c 2.6289,0.58203 5.34765,0.63672 8,0.15235 v 6.39062 c 0,4.41797 3.58203,8 8,8 h 32 c 4.41797,0 8,-3.58203 8,-8 v -32 c 0,-4.41797 -3.58203,-8 -8,-8 h -24.59375 c -1.58594,-2.58203 -3.6836,-4.8125 -6.16016,-6.55859 l -15.64844,-11.03906 c 15.60938,-4.95704 24.94141,-20.91797 21.60157,-36.95313 -3.33985,-16.035156 -18.26563,-26.941406 -34.5586,-25.253906 -16.28906,1.6875 -28.66016,15.425781 -28.64062,31.804686 0,0.375 0.0937,0.72656 0.10937,1.10547 l -27.60547,-19.503906 59.4961,-43.679688 72,52.847654 z m 49.69531,-112.88672 c -0.98828,1.45313 -2.52344,2.44141 -4.25781,2.73438 -1.67969,0.30469 -3.41407,-0.0898 -4.79688,-1.09375 L 351.41016,33.757812 c -2.81641,-2.066406 -6.65235,-2.066406 -9.47266,0 L 273.40234,84.09375 263.21875,76.894531 346.69141,18 l 120,84.71094 c 2.8125,1.92969 3.57031,5.7539 1.70312,8.60937 z m 0,0"
       inkscape:connector-curvature="0" /></g></svg>