<?xml version="1.0" encoding="UTF-8" standalone="no"?>
<svg
   xmlns:dc="http://purl.org/dc/elements/1.1/"
   xmlns:cc="http://creativecommons.org/ns#"
   xmlns:rdf="http://www.w3.org/1999/02/22-rdf-syntax-ns#"
   xmlns:svg="http://www.w3.org/2000/svg"
   xmlns="http://www.w3.org/2000/svg"
   xmlns:sodipodi="http://sodipodi.sourceforge.net/DTD/sodipodi-0.dtd"
   xmlns:inkscape="http://www.inkscape.org/namespaces/inkscape"
   xml:space="preserve"
   style="enable-background:new 0 0 512.001 512.001;"
   viewBox="0 0 512.001 512.001"
   y="0px"
   x="0px"
   id="Layer_1"
   version="1.1"
   sodipodi:docname="rond-village-3.svg"
   inkscape:version="0.92.1 r15371"><defs
     id="defs33"><pattern
       y="0"
       x="0"
       height="6"
       width="6"
       patternUnits="userSpaceOnUse"
       id="EMFhbasepattern" /></defs><sodipodi:namedview
     pagecolor="#ffffff"
     bordercolor="#666666"
     borderopacity="1"
     objecttolerance="10"
     gridtolerance="10"
     guidetolerance="10"
     inkscape:pageopacity="0"
     inkscape:pageshadow="2"
     inkscape:window-width="1920"
     inkscape:window-height="1001"
     id="namedview31"
     showgrid="false"
     inkscape:zoom="14.749972"
     inkscape:cx="10.60885"
     inkscape:cy="515.75523"
     inkscape:window-x="-9"
     inkscape:window-y="-9"
     inkscape:window-maximized="1"
     inkscape:current-layer="Layer_1" /><metadata
     id="metadata159"><rdf:RDF><cc:Work
         rdf:about=""><dc:format>image/svg+xml</dc:format><dc:type
           rdf:resource="http://purl.org/dc/dcmitype/StillImage" /><dc:title /></cc:Work></rdf:RDF></metadata><ellipse
     ry="15.47317"
     rx="15.659593"
     cy="1.3989621"
     cx="2.403769"
     id="path1322"
     style="display:inline;fill:#ffffff;fill-opacity:1;stroke:#0000ff;stroke-width:1.70032859;stroke-miterlimit:4;stroke-dasharray:none;stroke-dashoffset:0;stroke-opacity:1" /><path
     style="opacity:1;fill:#ffffff;fill-opacity:1;stroke:#ffffff;stroke-width:0.04801503;stroke-linejoin:round;stroke-miterlimit:4;stroke-dasharray:none;stroke-dashoffset:0;stroke-opacity:1"
     d="m -7.6017661,-3.7681101 v -1.845672 h 0.3355767 0.3355767 v 0.8389418 0.8389419 h 0.9827605 0.9827605 v -0.8389419 -0.8389418 h 0.3355767 0.3355767 v 0.8389418 0.8389419 h 1.0067303 1.0067302 v -0.8389419 -0.8389418 h 0.3355767 0.3355768 v 1.845672 1.8456721 h -2.9962209 -2.9962209 z m 2.0134604,0.8389419 V -3.264745 h -0.3595465 -0.3595465 v 0.3355768 0.3355767 h 0.3595465 0.3595465 z m 1.342307,0 V -3.264745 h -0.3595465 -0.3595465 v 0.3355768 0.3355767 h 0.3595465 0.3595465 z m 1.3423069,0 V -3.264745 h -0.3595465 -0.3595465 v 0.3355768 0.3355767 h 0.3595465 0.3595465 z"
     id="path4664"
     inkscape:connector-curvature="0" /><path
     style="fill:#0000ff;stroke-width:0.04025033"
     inkscape:connector-curvature="0"
     d="M -0.22696763,-0.4355724 H 0.5827559 v 0.80956615 h -0.80972353 z m 0,0"
     id="path4495" /><path
     style="fill:#0000ff;stroke-width:0.04488488"
     inkscape:connector-curvature="0"
     d="M 13.894296,10.43555 V 9.0890042 H 11.811883 V 4.7607699 l 0.595427,0.4067691 0.75112,-1.0993288 0.0084,-0.012448 -0.0084,-0.00579 L 11.811883,3.1300092 8.5216125,0.88225924 5.2315163,3.1300092 3.8849701,4.0499737 v -6.547756 l 1.3104277,1.1149332 0.8724497,-1.025514 -6.14624673,-5.2292631 -6.14624707,5.2292631 0.8724497,1.025514 1.3104281,-1.1149332 V 9.0890042 h -2.229516 V 7.2778296 c 0.852462,-0.2829852 1.469103,-1.087231 1.469103,-2.0333197 0,-1.404581 -1.4983833,-2.924355 -1.6693316,-3.0930238 L -6.9445575,1.6847535 -7.4174266,2.1514861 c -0.1709483,0.1686688 -1.6693316,1.6884428 -1.6693316,3.0930238 0,0.9460887 0.6166409,1.7503345 1.469103,2.0333197 V 9.0890042 H -9.0864075 V 10.43555 Z M -1.8764244,-1.9933514 H 1.7196255 V 1.6025231 H -1.8764244 Z M 0.52929967,9.0890042 v -1.760153 c 0,-0.3350589 -0.2726405,-0.6076994 -0.6076989,-0.6076994 -0.33505888,0 -0.60769903,0.2726405 -0.60769903,0.6076994 v 1.760153 H -2.0326444 v -1.760153 c 0,-1.077588 0.8766576,-1.9542456 1.95424517,-1.9542456 1.0775874,0 1.95424523,0.8766576 1.95424523,1.9542456 v 1.760153 z m 3.35567043,0 v -5.020794 l 0.75112,1.0993288 0.5954262,-0.4067691 v 4.3282343 z m 5.2445172,0 V 6.8985874 H 7.9140885 V 9.0890042 H 6.5675423 v -3.536963 h 3.9084907 v 3.536963 z m 0,0"
     id="path4497" /></svg>