<?xml version="1.0" encoding="UTF-8" standalone="no"?>
<svg
   xmlns:dc="http://purl.org/dc/elements/1.1/"
   xmlns:cc="http://creativecommons.org/ns#"
   xmlns:rdf="http://www.w3.org/1999/02/22-rdf-syntax-ns#"
   xmlns:svg="http://www.w3.org/2000/svg"
   xmlns="http://www.w3.org/2000/svg"
   xmlns:sodipodi="http://sodipodi.sourceforge.net/DTD/sodipodi-0.dtd"
   xmlns:inkscape="http://www.inkscape.org/namespaces/inkscape"
   xml:space="preserve"
   style="enable-background:new 0 0 512.001 512.001;"
   viewBox="0 0 512.001 512.001"
   y="0px"
   x="0px"
   id="Layer_1"
   version="1.1"
   sodipodi:docname="rond-village-1.svg"
   inkscape:version="0.92.1 r15371"><defs
     id="defs33" /><sodipodi:namedview
     pagecolor="#ffffff"
     bordercolor="#666666"
     borderopacity="1"
     objecttolerance="10"
     gridtolerance="10"
     guidetolerance="10"
     inkscape:pageopacity="0"
     inkscape:pageshadow="2"
     inkscape:window-width="1920"
     inkscape:window-height="1001"
     id="namedview31"
     showgrid="false"
     inkscape:zoom="14.749972"
     inkscape:cx="15.039145"
     inkscape:cy="518.69298"
     inkscape:window-x="-9"
     inkscape:window-y="-9"
     inkscape:window-maximized="1"
     inkscape:current-layer="Layer_1" /><metadata
     id="metadata159"><rdf:RDF><cc:Work
         rdf:about=""><dc:format>image/svg+xml</dc:format><dc:type
           rdf:resource="http://purl.org/dc/dcmitype/StillImage" /><dc:title /></cc:Work></rdf:RDF></metadata><rect
     style="opacity:1;fill:#aa0000;fill-opacity:1;stroke:#ffffff;stroke-width:1.00157475;stroke-linejoin:round;stroke-miterlimit:4;stroke-dasharray:none;stroke-dashoffset:0;stroke-opacity:1"
     id="rect15684"
     width="16.573565"
     height="16.573565"
     x="-5.5062895"
     y="-31.201878"
     transform="rotate(45)" /><ellipse
     ry="15.47317"
     rx="15.659593"
     cy="1.3989621"
     cx="2.403769"
     id="path1322"
     style="display:inline;fill:#ffffff;fill-opacity:1;stroke:#000000;stroke-width:1.70032859;stroke-miterlimit:4;stroke-dasharray:none;stroke-dashoffset:0;stroke-opacity:1" /><path
     style="opacity:1;fill:#ffffff;fill-opacity:1;stroke:#ffffff;stroke-width:0.04801503;stroke-linejoin:round;stroke-miterlimit:4;stroke-dasharray:none;stroke-dashoffset:0;stroke-opacity:1"
     d="m -7.6017661,-3.7681101 v -1.845672 h 0.3355767 0.3355767 v 0.8389418 0.8389419 h 0.9827605 0.9827605 v -0.8389419 -0.8389418 h 0.3355767 0.3355767 v 0.8389418 0.8389419 h 1.0067303 1.0067302 v -0.8389419 -0.8389418 h 0.3355767 0.3355768 v 1.845672 1.8456721 h -2.9962209 -2.9962209 z m 2.0134604,0.8389419 V -3.264745 h -0.3595465 -0.3595465 v 0.3355768 0.3355767 h 0.3595465 0.3595465 z m 1.342307,0 V -3.264745 h -0.3595465 -0.3595465 v 0.3355768 0.3355767 h 0.3595465 0.3595465 z m 1.3423069,0 V -3.264745 h -0.3595465 -0.3595465 v 0.3355768 0.3355767 h 0.3595465 0.3595465 z"
     id="path4664"
     inkscape:connector-curvature="0" /><g
     id="g4981"
     transform="matrix(0.05079539,0,0,0.05079539,-9.9245409,-6.3323789)"><path
       id="path4964"
       d="m 298.69141,224.20703 h -32 c -4.41797,0 -8,3.58203 -8,8 v 32 c 0,4.41797 3.58203,8 8,8 h 32 c 4.41796,0 8,-3.58203 8,-8 v -32 c 0,-4.41797 -3.58204,-8 -8,-8 z m -8,32 h -16 v -16 h 16 z m 0,0"
       inkscape:connector-curvature="0" /><path
       id="path4966"
       d="m 274.69141,176.20703 c 0,-17.67187 -14.32813,-32 -32,-32 -17.67579,0 -32,14.32813 -32,32 0,17.67188 14.32421,32 32,32 17.67187,0 32,-14.32812 32,-32 z m -32,16 c -8.83594,0 -16,-7.16406 -16,-16 0,-8.83594 7.16406,-16 16,-16 8.83593,0 16,7.16406 16,16 0,8.83594 -7.16407,16 -16,16 z m 0,0"
       inkscape:connector-curvature="0" /><path
       id="path4968"
       d="m 475.94531,89.671875 -124.64062,-88 c -2.76563,-1.957031 -6.46485,-1.957031 -9.23047,0 l -92.71875,65.441406 -2.05078,-1.441406 c -2.76563,-1.957031 -6.46485,-1.957031 -9.23047,0 l -2.04688,1.441406 -92.72265,-65.441406 c -2.76563,-1.957031 -6.46485,-1.957031 -9.23047,0 l -124.648439,88 c -9.882812,7 -12.386719,20.601565 -5.648437,30.664065 3.425781,5.0039 8.726562,8.41406 14.699218,9.45312 5.976563,1.03906 12.117188,-0.3789 17.03125,-3.93359 l 15.183594,-11.13672 v 109.48828 c 0,8.83594 7.164063,16 16,16 h 88.000004 v 48 c 0,8.83594 7.16406,16 16,16 h 144 c 8.83593,0 16,-7.16406 16,-16 v -48 h 88 c 8.83593,0 16,-7.16406 16,-16 V 114.71875 l 15.19921,11.15234 c 3.79297,2.78907 8.375,4.28907 13.07813,4.28907 7.53516,0.004 14.57422,-3.75391 18.76172,-10.01563 6.63281,-10.05078 4.07031,-23.55078 -5.78516,-30.472655 z m -113.2539,77.039065 c 2.07812,1.45703 3.07812,4.02343 2.52734,6.5039 -0.55078,2.48047 -2.53906,4.38282 -5.03906,4.82422 -1.6875,0.28125 -3.41406,-0.12109 -4.80078,-1.12109 L 247.42578,97.71875 c -2.8125,-2.0625 -6.64062,-2.0625 -9.45703,0 l -107.94922,79.19922 c -1.38672,1 -3.11719,1.40234 -4.80078,1.12109 -2.5,-0.4375 -4.48828,-2.33984 -5.04297,-4.8164 -0.55078,-2.47657 0.44141,-5.04297 2.51563,-6.50391 L 242.69141,82 Z m -32,-54.50391 c 0,-8.83594 7.16406,-15.999999 16,-15.999999 8.83593,0 16,7.164059 16,15.999999 0,8.83594 -7.16407,16 -16,16 -8.83594,0 -16,-7.16406 -16,-16 z m 64,64 v 16 h -16 v -9.97656 c 1.05078,-1.88672 1.8164,-3.91406 2.27734,-6.02344 z m -256,-48 c -8.83594,0 -16,-7.16406 -16,-16 0,-8.83594 7.16406,-15.999999 16,-15.999999 8.83593,0 16,7.164059 16,15.999999 0,8.83594 -7.16407,16 -16,16 z M 26.105469,112.91016 c -1.085938,0.78906 -2.394531,1.21484 -3.734375,1.21875 -2.097656,-0.004 -4.0625,-1.01563 -5.28125,-2.72266 -1.886719,-2.84766 -1.179688,-6.67578 1.601562,-8.66406 L 138.69141,18 222.15234,76.910156 211.96875,84.113281 143.42578,33.765625 c -2.8164,-2.066406 -6.65234,-2.066406 -9.47265,0 z m 40.585937,-9.9336 72.000004,-52.847654 59.49609,43.679688 -27.60937,19.496096 c 0,-0.37891 0.11328,-0.73828 0.11328,-1.11328 0.0625,-16.433598 -12.32813,-30.242191 -28.67188,-31.953129 -16.34375,-1.707031 -31.32812,9.238281 -34.66406,25.332029 -3.33594,16.08985 6.05859,32.08985 21.73437,37.01953 l -15.6875,11.07422 c -2.47265,1.7461 -4.5625,3.97656 -6.15234,6.55078 H 90.691406 c -4.417968,0 -8,3.58203 -8,8 v 56 h -16 z m 32,121.23047 v -48 h 5.718754 c 0.58203,2.85938 1.71484,5.57422 3.33593,8 4.99219,7.55078 14.08594,11.28906 22.94532,9.44141 v 30.55859 z m 48.000004,0 v -39.67969 l 8,-5.86328 v 45.54297 z m 56,64 v -48 h 32 v 48 z m 112,0 h -64 v -56 c 0,-4.41797 -3.58203,-8 -8,-8 h -48 c -4.41797,0 -8,3.58203 -8,8 v 56 h -16 V 166.92578 l 72,-52.79687 72,52.79687 z m 16,-64 v -45.54297 l 8,5.86328 v 39.67969 z m 88,0 h -64 v -30.54297 c 2.6289,0.58203 5.34765,0.63672 8,0.15235 v 6.39062 c 0,4.41797 3.58203,8 8,8 h 32 c 4.41797,0 8,-3.58203 8,-8 v -32 c 0,-4.41797 -3.58203,-8 -8,-8 h -24.59375 c -1.58594,-2.58203 -3.6836,-4.8125 -6.16016,-6.55859 l -15.64844,-11.03906 c 15.60938,-4.95704 24.94141,-20.91797 21.60157,-36.95313 -3.33985,-16.035156 -18.26563,-26.941406 -34.5586,-25.253906 -16.28906,1.6875 -28.66016,15.425781 -28.64062,31.804686 0,0.375 0.0937,0.72656 0.10937,1.10547 l -27.60547,-19.503906 59.4961,-43.679688 72,52.847654 z m 49.69531,-112.88672 c -0.98828,1.45313 -2.52344,2.44141 -4.25781,2.73438 -1.67969,0.30469 -3.41407,-0.0898 -4.79688,-1.09375 L 351.41016,33.757812 c -2.81641,-2.066406 -6.65235,-2.066406 -9.47266,0 L 273.40234,84.09375 263.21875,76.894531 346.69141,18 l 120,84.71094 c 2.8125,1.92969 3.57031,5.7539 1.70312,8.60937 z m 0,0"
       inkscape:connector-curvature="0" /></g><g
     id="g4527"
     transform="matrix(-0.01467094,0.01467094,-0.01467094,-0.01467094,25.680788,-14.848192)"
     style="fill:#ffffff"><path
       id="path4513"
       d="m 511.95703,10.640625 c 0.39453,-6.148437 -5.0625,-11.3125 -11.18359,-10.5703125 l -81.82422,9.9570315 c -1.9961,0.242187 -3.875,1.082031 -5.38672,2.410156 L 166.97656,228.95312 125.34375,187.32031 c -1.875,-1.875 -4.41797,-2.92969 -7.07031,-2.92969 -2.65235,0 -5.19532,1.05469 -7.07032,2.92969 l -29.945308,29.94531 c -3.90625,3.90625 -3.90625,10.23829 0,14.14454 l 52.289058,52.28906 c -7.75,9.875 -71.656245,92.05469 -72.210932,92.78906 -14.96875,-11.39844 -36.492188,-10.27344 -50.160157,3.39453 -14.902343,14.90235 -14.902343,39.15235 0,54.0586 l 66.867188,66.86328 C 85.261719,508.02734 94.863281,512 105.07422,512 c 10.20703,0 19.80859,-3.97656 27.02734,-11.19531 7.21875,-7.21875 11.19531,-16.81641 11.19531,-27.02735 0,-8.46875 -2.74609,-16.51562 -7.80078,-23.13281 0.73438,-0.55469 73.95703,-57.42969 92.78516,-72.20703 l 52.28906,52.28906 c 1.95313,1.95313 4.51172,2.92969 7.07031,2.92969 2.5625,0 5.1211,-0.97656 7.07422,-2.92969 l 29.94532,-29.94531 c 1.875,-1.875 2.92578,-4.41797 2.92578,-7.07031 0,-2.65235 -1.05078,-5.19532 -2.92578,-7.07032 L 283.02734,345.00781 499.54297,98.421875 c 1.32812,-1.515625 2.16797,-3.394531 2.41015,-5.390625 l 9.95704,-81.824219 c 0.0156,-0.191406 0.0312,-0.378906 0.0469,-0.566406 z m -394,476.019535 C 114.51562,490.10547 109.9375,492 105.07031,492 c -4.86719,0 -9.441404,-1.89453 -12.886716,-5.33594 0,-0.004 0,-0.004 0,-0.004 L 25.316406,419.79687 c -7.101562,-7.10546 -7.101562,-18.66796 0,-25.77343 3.554688,-3.55078 8.222656,-5.32813 12.886719,-5.32813 4.667969,0 9.335937,1.77735 12.886719,5.32813 l 66.867186,66.86718 c 3.44141,3.44141 5.33984,8.01954 5.33984,12.88672 0,4.86719 -1.89453,9.44141 -5.33984,12.88282 z M 121.5,436.14844 75.828125,390.46875 c 3.050781,-4.05078 8.042969,-10.58203 16.050781,-20.92969 l 29.312504,29.3125 c 1.95312,1.94922 4.51171,2.92578 7.07031,2.92578 2.55859,0 5.11719,-0.97656 7.07031,-2.92578 3.90625,-3.90625 3.90625,-10.23828 0,-14.14453 l -31.08984,-31.08984 c 4.74609,-6.09375 10.16797,-13.04297 16.33593,-20.9375 l 29.98829,29.98828 c 1.95312,1.95312 4.51171,2.92969 7.07031,2.92969 2.55859,0 5.11719,-0.97657 7.07031,-2.92969 3.90625,-3.90625 3.90625,-10.23828 0,-14.14063 L 132.99609,316.8125 c 4.58985,-5.86328 9.50391,-12.12891 14.79297,-18.87109 l 66.2461,66.25 C 154.57422,410.86328 130.90234,429.07422 121.5,436.14844 Z M 287.64453,409.51172 102.46875,224.33984 118.27344,208.53516 303.44531,393.70703 Z m -18.78906,-78.67969 -36.78516,-36.78125 45.14453,-45.14453 c 3.90625,-3.90234 3.90625,-10.23438 0,-14.14063 -3.90625,-3.90234 -10.23437,-3.90625 -14.14453,0 L 217.92969,279.90625 181.14844,243.125 424.43359,29.507812 474.41016,23.425781 326.69922,171.14062 c -3.90625,3.90235 -3.90625,10.23438 0,14.14063 3.90625,3.90625 10.23437,3.90625 14.14062,0 L 488.55469,37.570312 482.47266,87.546875 Z m 0,0"
       inkscape:connector-curvature="0"
       style="fill:#ffffff" /><path
       id="path4515"
       d="m 311.73047,206.16797 c -2.0625,-5.04297 -8.03516,-7.48828 -13.0586,-5.41016 -5.04296,2.08985 -7.47656,8.02735 -5.39843,13.0625 2.07422,5.03516 8.01953,7.48438 13.05078,5.41016 5.02344,-2.07813 7.5039,-8.03906 5.40625,-13.0625 z m 0,0"
       inkscape:connector-curvature="0"
       style="fill:#ffffff" /></g></svg>