<?xml version="1.0" encoding="UTF-8" standalone="no"?>
<svg
   xmlns:dc="http://purl.org/dc/elements/1.1/"
   xmlns:cc="http://creativecommons.org/ns#"
   xmlns:rdf="http://www.w3.org/1999/02/22-rdf-syntax-ns#"
   xmlns:svg="http://www.w3.org/2000/svg"
   xmlns="http://www.w3.org/2000/svg"
   xmlns:sodipodi="http://sodipodi.sourceforge.net/DTD/sodipodi-0.dtd"
   xmlns:inkscape="http://www.inkscape.org/namespaces/inkscape"
   xml:space="preserve"
   style="enable-background:new 0 0 512.001 512.001;"
   viewBox="0 0 512.001 512.001"
   y="0px"
   x="0px"
   id="Layer_1"
   version="1.1"
   sodipodi:docname="rond-port.svg"
   inkscape:version="0.92.1 r15371"><defs
     id="defs33" /><sodipodi:namedview
     pagecolor="#ffffff"
     bordercolor="#666666"
     borderopacity="1"
     objecttolerance="10"
     gridtolerance="10"
     guidetolerance="10"
     inkscape:pageopacity="0"
     inkscape:pageshadow="2"
     inkscape:window-width="1920"
     inkscape:window-height="1001"
     id="namedview31"
     showgrid="false"
     inkscape:zoom="3.6874929"
     inkscape:cx="80.585184"
     inkscape:cy="553.66012"
     inkscape:window-x="-9"
     inkscape:window-y="-9"
     inkscape:window-maximized="1"
     inkscape:current-layer="Layer_1" /><metadata
     id="metadata159"><rdf:RDF><cc:Work
         rdf:about=""><dc:format>image/svg+xml</dc:format><dc:type
           rdf:resource="http://purl.org/dc/dcmitype/StillImage" /><dc:title /></cc:Work></rdf:RDF></metadata><ellipse
     ry="15.47317"
     rx="15.659593"
     cy="1.3989621"
     cx="2.403769"
     id="path1322"
     style="display:inline;fill:#ffffff;fill-opacity:1;stroke:#000000;stroke-width:1.70032859;stroke-miterlimit:4;stroke-dasharray:none;stroke-dashoffset:0;stroke-opacity:1" /><path
     style="opacity:1;fill:#ffffff;fill-opacity:1;stroke:#ffffff;stroke-width:0.04801503;stroke-linejoin:round;stroke-miterlimit:4;stroke-dasharray:none;stroke-dashoffset:0;stroke-opacity:1"
     d="m -7.6017661,-3.7681101 v -1.845672 h 0.3355767 0.3355767 v 0.8389418 0.8389419 h 0.9827605 0.9827605 v -0.8389419 -0.8389418 h 0.3355767 0.3355767 v 0.8389418 0.8389419 h 1.0067303 1.0067302 v -0.8389419 -0.8389418 h 0.3355767 0.3355768 v 1.845672 1.8456721 h -2.9962209 -2.9962209 z m 2.0134604,0.8389419 V -3.264745 h -0.3595465 -0.3595465 v 0.3355768 0.3355767 h 0.3595465 0.3595465 z m 1.342307,0 V -3.264745 h -0.3595465 -0.3595465 v 0.3355768 0.3355767 h 0.3595465 0.3595465 z m 1.3423069,0 V -3.264745 h -0.3595465 -0.3595465 v 0.3355768 0.3355767 h 0.3595465 0.3595465 z"
     id="path4664"
     inkscape:connector-curvature="0" /><g
     style="fill:#000000"
     id="g4522"
     transform="matrix(0.19276146,0,0,0.19276146,-5.9266102,-8.2391109)"><path
       id="path4511"
       d="m 82.409,55.703 -12.24,11.706 3.711,1.08 C 68.561,77.239 58.945,81.081 47.994,81.836 V 37.5 H 58.15 c 0.854,0.853 2.025,1.374 3.32,1.374 2.578,0 4.682,-2.09 4.682,-4.674 0,-2.584 -2.104,-4.681 -4.682,-4.681 -1.295,0 -2.467,0.527 -3.32,1.38 H 47.995 V 25.554 C 52.936,23.627 56.459,18.848 56.459,13.237 56.458,5.944 50.521,0 43.216,0 35.911,0 29.974,5.944 29.974,13.236 c 0,6.002 4.043,11.035 9.531,12.649 v 5.013 h -11.23 c -0.846,-0.853 -2.018,-1.38 -3.314,-1.38 -2.578,0 -4.681,2.097 -4.681,4.681 0,2.584 2.103,4.674 4.681,4.674 1.296,0 2.468,-0.521 3.314,-1.374 h 11.23 v 44.31 C 27.962,80.95 17.89,76.464 12.838,66.992 L 16.536,66.172 5.091,53.691 0,69.837 4.316,68.88 C 10.625,82.695 24.993,93.821 41.23,94.896 L 43.75,100 46.263,94.909 C 61.705,93.874 75.443,83.723 82.246,70.937 l 4.186,1.224 z M 36.426,13.236 c 0,-3.744 3.047,-6.784 6.791,-6.784 3.743,0 6.79,3.041 6.79,6.784 0,3.743 -3.047,6.79 -6.79,6.79 -3.744,0 -6.791,-3.047 -6.791,-6.79 z"
       inkscape:connector-curvature="0" /></g></svg>