<?xml version="1.0" encoding="UTF-8" standalone="no"?>
<svg
   xmlns:dc="http://purl.org/dc/elements/1.1/"
   xmlns:cc="http://creativecommons.org/ns#"
   xmlns:rdf="http://www.w3.org/1999/02/22-rdf-syntax-ns#"
   xmlns:svg="http://www.w3.org/2000/svg"
   xmlns="http://www.w3.org/2000/svg"
   xmlns:sodipodi="http://sodipodi.sourceforge.net/DTD/sodipodi-0.dtd"
   xmlns:inkscape="http://www.inkscape.org/namespaces/inkscape"
   xml:space="preserve"
   style="enable-background:new 0 0 512.001 512.001;"
   viewBox="0 0 512.001 512.001"
   y="0px"
   x="0px"
   id="Layer_1"
   version="1.1"
   sodipodi:docname="rond-village-4.svg"
   inkscape:version="0.92.1 r15371"><defs
     id="defs33" /><sodipodi:namedview
     pagecolor="#ffffff"
     bordercolor="#666666"
     borderopacity="1"
     objecttolerance="10"
     gridtolerance="10"
     guidetolerance="10"
     inkscape:pageopacity="0"
     inkscape:pageshadow="2"
     inkscape:window-width="1920"
     inkscape:window-height="1001"
     id="namedview31"
     showgrid="false"
     inkscape:zoom="14.749972"
     inkscape:cx="36.077527"
     inkscape:cy="513.22725"
     inkscape:window-x="-9"
     inkscape:window-y="-9"
     inkscape:window-maximized="1"
     inkscape:current-layer="Layer_1" /><metadata
     id="metadata159"><rdf:RDF><cc:Work
         rdf:about=""><dc:format>image/svg+xml</dc:format><dc:type
           rdf:resource="http://purl.org/dc/dcmitype/StillImage" /><dc:title /></cc:Work></rdf:RDF></metadata><rect
     style="opacity:1;fill:#aa0000;fill-opacity:1;stroke:#ffffff;stroke-width:1.00157475;stroke-linejoin:round;stroke-miterlimit:4;stroke-dasharray:none;stroke-dashoffset:0;stroke-opacity:1"
     id="rect15684"
     width="16.573565"
     height="16.573565"
     x="-5.5062895"
     y="-31.201878"
     transform="rotate(45)" /><ellipse
     ry="15.47317"
     rx="15.659593"
     cy="1.3989621"
     cx="2.403769"
     id="path1322"
     style="display:inline;fill:#ffffff;fill-opacity:1;stroke:#000000;stroke-width:1.70032859;stroke-miterlimit:4;stroke-dasharray:none;stroke-dashoffset:0;stroke-opacity:1" /><path
     style="opacity:1;fill:#ffffff;fill-opacity:1;stroke:#ffffff;stroke-width:0.04801503;stroke-linejoin:round;stroke-miterlimit:4;stroke-dasharray:none;stroke-dashoffset:0;stroke-opacity:1"
     d="m -7.6017661,-3.7681101 v -1.845672 h 0.3355767 0.3355767 v 0.8389418 0.8389419 h 0.9827605 0.9827605 v -0.8389419 -0.8389418 h 0.3355767 0.3355767 v 0.8389418 0.8389419 h 1.0067303 1.0067302 v -0.8389419 -0.8389418 h 0.3355767 0.3355768 v 1.845672 1.8456721 h -2.9962209 -2.9962209 z m 2.0134604,0.8389419 V -3.264745 h -0.3595465 -0.3595465 v 0.3355768 0.3355767 h 0.3595465 0.3595465 z m 1.342307,0 V -3.264745 h -0.3595465 -0.3595465 v 0.3355768 0.3355767 h 0.3595465 0.3595465 z m 1.3423069,0 V -3.264745 h -0.3595465 -0.3595465 v 0.3355768 0.3355767 h 0.3595465 0.3595465 z"
     id="path4664"
     inkscape:connector-curvature="0" /><g
     id="g4981"
     transform="matrix(0.05079539,0,0,0.05079539,-9.9245409,-6.3323789)"><path
       id="path4964"
       d="m 298.69141,224.20703 h -32 c -4.41797,0 -8,3.58203 -8,8 v 32 c 0,4.41797 3.58203,8 8,8 h 32 c 4.41796,0 8,-3.58203 8,-8 v -32 c 0,-4.41797 -3.58204,-8 -8,-8 z m -8,32 h -16 v -16 h 16 z m 0,0"
       inkscape:connector-curvature="0" /><path
       id="path4966"
       d="m 274.69141,176.20703 c 0,-17.67187 -14.32813,-32 -32,-32 -17.67579,0 -32,14.32813 -32,32 0,17.67188 14.32421,32 32,32 17.67187,0 32,-14.32812 32,-32 z m -32,16 c -8.83594,0 -16,-7.16406 -16,-16 0,-8.83594 7.16406,-16 16,-16 8.83593,0 16,7.16406 16,16 0,8.83594 -7.16407,16 -16,16 z m 0,0"
       inkscape:connector-curvature="0" /><path
       id="path4968"
       d="m 475.94531,89.671875 -124.64062,-88 c -2.76563,-1.957031 -6.46485,-1.957031 -9.23047,0 l -92.71875,65.441406 -2.05078,-1.441406 c -2.76563,-1.957031 -6.46485,-1.957031 -9.23047,0 l -2.04688,1.441406 -92.72265,-65.441406 c -2.76563,-1.957031 -6.46485,-1.957031 -9.23047,0 l -124.648439,88 c -9.882812,7 -12.386719,20.601565 -5.648437,30.664065 3.425781,5.0039 8.726562,8.41406 14.699218,9.45312 5.976563,1.03906 12.117188,-0.3789 17.03125,-3.93359 l 15.183594,-11.13672 v 109.48828 c 0,8.83594 7.164063,16 16,16 h 88.000004 v 48 c 0,8.83594 7.16406,16 16,16 h 144 c 8.83593,0 16,-7.16406 16,-16 v -48 h 88 c 8.83593,0 16,-7.16406 16,-16 V 114.71875 l 15.19921,11.15234 c 3.79297,2.78907 8.375,4.28907 13.07813,4.28907 7.53516,0.004 14.57422,-3.75391 18.76172,-10.01563 6.63281,-10.05078 4.07031,-23.55078 -5.78516,-30.472655 z m -113.2539,77.039065 c 2.07812,1.45703 3.07812,4.02343 2.52734,6.5039 -0.55078,2.48047 -2.53906,4.38282 -5.03906,4.82422 -1.6875,0.28125 -3.41406,-0.12109 -4.80078,-1.12109 L 247.42578,97.71875 c -2.8125,-2.0625 -6.64062,-2.0625 -9.45703,0 l -107.94922,79.19922 c -1.38672,1 -3.11719,1.40234 -4.80078,1.12109 -2.5,-0.4375 -4.48828,-2.33984 -5.04297,-4.8164 -0.55078,-2.47657 0.44141,-5.04297 2.51563,-6.50391 L 242.69141,82 Z m -32,-54.50391 c 0,-8.83594 7.16406,-15.999999 16,-15.999999 8.83593,0 16,7.164059 16,15.999999 0,8.83594 -7.16407,16 -16,16 -8.83594,0 -16,-7.16406 -16,-16 z m 64,64 v 16 h -16 v -9.97656 c 1.05078,-1.88672 1.8164,-3.91406 2.27734,-6.02344 z m -256,-48 c -8.83594,0 -16,-7.16406 -16,-16 0,-8.83594 7.16406,-15.999999 16,-15.999999 8.83593,0 16,7.164059 16,15.999999 0,8.83594 -7.16407,16 -16,16 z M 26.105469,112.91016 c -1.085938,0.78906 -2.394531,1.21484 -3.734375,1.21875 -2.097656,-0.004 -4.0625,-1.01563 -5.28125,-2.72266 -1.886719,-2.84766 -1.179688,-6.67578 1.601562,-8.66406 L 138.69141,18 222.15234,76.910156 211.96875,84.113281 143.42578,33.765625 c -2.8164,-2.066406 -6.65234,-2.066406 -9.47265,0 z m 40.585937,-9.9336 72.000004,-52.847654 59.49609,43.679688 -27.60937,19.496096 c 0,-0.37891 0.11328,-0.73828 0.11328,-1.11328 0.0625,-16.433598 -12.32813,-30.242191 -28.67188,-31.953129 -16.34375,-1.707031 -31.32812,9.238281 -34.66406,25.332029 -3.33594,16.08985 6.05859,32.08985 21.73437,37.01953 l -15.6875,11.07422 c -2.47265,1.7461 -4.5625,3.97656 -6.15234,6.55078 H 90.691406 c -4.417968,0 -8,3.58203 -8,8 v 56 h -16 z m 32,121.23047 v -48 h 5.718754 c 0.58203,2.85938 1.71484,5.57422 3.33593,8 4.99219,7.55078 14.08594,11.28906 22.94532,9.44141 v 30.55859 z m 48.000004,0 v -39.67969 l 8,-5.86328 v 45.54297 z m 56,64 v -48 h 32 v 48 z m 112,0 h -64 v -56 c 0,-4.41797 -3.58203,-8 -8,-8 h -48 c -4.41797,0 -8,3.58203 -8,8 v 56 h -16 V 166.92578 l 72,-52.79687 72,52.79687 z m 16,-64 v -45.54297 l 8,5.86328 v 39.67969 z m 88,0 h -64 v -30.54297 c 2.6289,0.58203 5.34765,0.63672 8,0.15235 v 6.39062 c 0,4.41797 3.58203,8 8,8 h 32 c 4.41797,0 8,-3.58203 8,-8 v -32 c 0,-4.41797 -3.58203,-8 -8,-8 h -24.59375 c -1.58594,-2.58203 -3.6836,-4.8125 -6.16016,-6.55859 l -15.64844,-11.03906 c 15.60938,-4.95704 24.94141,-20.91797 21.60157,-36.95313 -3.33985,-16.035156 -18.26563,-26.941406 -34.5586,-25.253906 -16.28906,1.6875 -28.66016,15.425781 -28.64062,31.804686 0,0.375 0.0937,0.72656 0.10937,1.10547 l -27.60547,-19.503906 59.4961,-43.679688 72,52.847654 z m 49.69531,-112.88672 c -0.98828,1.45313 -2.52344,2.44141 -4.25781,2.73438 -1.67969,0.30469 -3.41407,-0.0898 -4.79688,-1.09375 L 351.41016,33.757812 c -2.81641,-2.066406 -6.65235,-2.066406 -9.47266,0 L 273.40234,84.09375 263.21875,76.894531 346.69141,18 l 120,84.71094 c 2.8125,1.92969 3.57031,5.7539 1.70312,8.60937 z m 0,0"
       inkscape:connector-curvature="0" /></g><g
     id="g4637"
     transform="matrix(0.02078379,0,0,0.02078379,12.848874,-19.557975)"
     style="fill:#ffffff"><g
       id="g4517"
       style="fill:#ffffff"><g
         id="g4515"
         style="fill:#ffffff"><path
           id="path4513"
           d="m 511.982,97.701 c -0.51,-43.455 -22.748,-67.388 -62.619,-67.388 -15.432,0 -30.302,3.592 -40.023,6.589 0.968,-17.762 0.983,-28.726 0.983,-29.271 l 0.001,-7.604 H 101.683 V 7.63 c 0,0.26 0.026,11.397 1.005,29.281 -9.72,-2.999 -24.604,-6.598 -40.051,-6.598 -39.87,0 -62.109,23.932 -62.619,67.388 -0.502,42.75 9.248,80.804 28.977,113.107 19.37,31.715 44.128,50.826 61.487,61.271 27.803,16.732 55.59,20.244 74.006,20.244 4.54,0 8.914,-0.214 13.005,-0.636 0.271,-0.028 0.522,-0.06 0.787,-0.089 8.904,9.589 18.503,17.27 28.76,22.978 7.561,4.207 12.82,11.544 14.622,19.977 -10.195,3.173 -17.618,12.698 -17.618,23.923 0,11.477 7.763,21.17 18.31,24.12 v 31.91 h -41.142 v 33.301 h -40.6 v 64.167 h 230.781 v -64.167 h -40.6 v -33.301 h -41.142 v -31.91 c 10.548,-2.951 18.311,-12.643 18.311,-24.12 0,-11.226 -7.423,-20.75 -17.618,-23.923 1.802,-8.433 7.06,-15.769 14.622,-19.977 10.232,-5.693 19.897,-13.416 28.779,-22.974 3.147,0.349 7.866,0.72 13.766,0.72 0.002,0 10e-4,0 0.004,0 18.414,0 46.2,-3.514 74.001,-20.244 17.358,-10.446 42.117,-29.556 61.487,-61.271 19.732,-32.302 29.481,-70.357 28.979,-113.106 z M 394.992,15.233 c -0.068,2.781 -0.176,6.277 -0.342,10.369 H 117.387 C 117.215,21.511 117.1,18.01 117.026,15.233 Z m 10.342,69.813 c 10.302,-3.429 23.654,-6.887 35.615,-6.887 10.029,0 17.25,2.45 21.463,7.282 4.842,5.554 6.403,14.884 4.637,27.734 -7.353,53.526 -30.562,95.308 -65.354,117.647 -12.119,7.782 -25.171,10.997 -36.109,12.139 23.137,-48.631 34.335,-109.647 39.748,-157.915 z m -290.839,52.963 c 7.479,40.115 17.805,74.563 30.693,102.386 0.399,0.864 0.805,1.715 1.209,2.566 -10.934,-1.145 -23.978,-4.359 -36.092,-12.137 -34.791,-22.34 -58.001,-64.121 -65.354,-117.647 -1.765,-12.851 -0.205,-22.182 4.638,-27.734 4.213,-4.832 11.435,-7.281 21.463,-7.281 11.971,0 25.335,3.463 35.641,6.894 1.841,16.462 4.358,34.481 7.802,52.953 z m 49.993,139.108 c -16.488,0 -41.353,-3.135 -66.164,-18.066 -25.375,-15.27 -84.27,-61.544 -83.1,-161.171 0.414,-35.233 15.923,-52.36 47.413,-52.36 16.841,0 33.474,5.077 41.077,7.755 0.379,5.101 0.804,10.217 1.274,15.312 -10.335,-3.036 -22.512,-5.634 -33.936,-5.634 -14.618,0 -25.695,4.203 -32.925,12.493 -7.859,9.013 -10.632,22.403 -8.242,39.798 4.094,29.801 12.65,56.141 25.431,78.287 12.201,21.142 27.938,37.994 46.772,50.086 18.396,11.813 38.293,14.792 52.486,15.077 0.048,0.084 0.097,0.164 0.145,0.247 0.778,1.363 1.564,2.703 2.358,4.026 0.247,0.413 0.496,0.823 0.745,1.232 0.757,1.244 1.52,2.476 2.291,3.683 0.29,0.454 0.584,0.897 0.876,1.347 0.525,0.807 1.053,1.607 1.585,2.398 0.514,0.765 1.03,1.522 1.549,2.271 0.509,0.733 1.019,1.462 1.533,2.181 0.241,0.338 0.478,0.689 0.719,1.023 -0.612,0.01 -1.241,0.015 -1.887,0.015 z m 191.7,185.898 v 33.753 H 155.82 v -33.753 h 25.393 149.581 z m -66.535,-33.301 h 25.934 v 18.094 H 196.42 v -18.094 h 25.935 z m -52.092,-15.207 v -30.982 h 36.885 v 30.982 z m 55.196,-56.031 c 0,5.427 -4.416,9.842 -9.842,9.842 h -53.822 c -5.427,0 -9.842,-4.415 -9.842,-9.842 0,-5.427 4.415,-9.842 9.842,-9.842 h 53.822 c 5.427,0 9.842,4.415 9.842,9.842 z m 38.034,-86.924 c -0.084,0.109 -0.168,0.218 -0.252,0.327 -0.748,0.968 -1.502,1.912 -2.26,2.843 -0.186,0.227 -0.369,0.458 -0.556,0.684 -0.833,1.012 -1.673,2.002 -2.517,2.968 -0.041,0.046 -0.079,0.094 -0.12,0.14 -8.479,9.673 -17.735,17.334 -27.512,22.774 -12.051,6.704 -20.245,18.611 -22.499,32.139 h -38.142 c -2.255,-13.529 -10.449,-25.435 -22.5,-32.139 -9.436,-5.249 -17.958,-12.266 -25.657,-20.651 l -1.86,-2.122 c -7.56,-8.622 -14.686,-19.068 -21.179,-31.045 l -1.989,-3.671 C 131.051,180.622 121.161,89.311 118.179,40.808 h 275.705 c -0.127,2.11 -0.266,4.289 -0.42,6.552 -0.007,0.105 -0.015,0.213 -0.022,0.318 -0.168,2.452 -0.348,4.911 -0.539,7.372 -0.005,0.072 -0.011,0.144 -0.016,0.217 -0.608,7.8 -1.328,15.629 -2.149,23.365 l -0.497,4.678 c -5.525,49.528 -17.194,112.625 -41.801,160.153 l -2.173,4.006 c -4.835,8.916 -10.021,16.982 -15.476,24.083 z m 82.886,-12.501 c -24.813,14.932 -49.673,18.066 -66.16,18.066 -10e-4,0 -0.003,0 -0.004,0 -0.647,0 -1.276,-0.005 -1.889,-0.015 0.01,-0.014 0.02,-0.029 0.03,-0.043 0.987,-1.362 1.959,-2.744 2.916,-4.145 0.117,-0.171 0.232,-0.346 0.349,-0.517 0.809,-1.192 1.606,-2.4 2.394,-3.62 0.203,-0.313 0.406,-0.627 0.607,-0.942 0.872,-1.369 1.735,-2.747 2.581,-4.149 0.133,-0.219 0.262,-0.444 0.394,-0.665 0.693,-1.158 1.378,-2.327 2.054,-3.507 0.158,-0.276 0.321,-0.54 0.48,-0.818 14.193,-0.285 34.09,-3.264 52.486,-15.077 18.834,-12.094 34.571,-28.946 46.772,-50.086 12.78,-22.146 21.336,-48.486 25.431,-78.287 2.388,-17.396 -0.384,-30.786 -8.242,-39.798 -7.229,-8.291 -18.307,-12.494 -32.925,-12.494 -11.423,0 -23.602,2.596 -33.936,5.633 0.479,-5.195 0.89,-10.178 1.242,-14.914 0.01,-0.132 0.021,-0.265 0.031,-0.396 7.605,-2.679 24.237,-7.755 41.077,-7.755 31.49,0 46.999,17.127 47.414,52.358 1.166,99.627 -57.727,145.9 -83.102,161.171 z"
           inkscape:connector-curvature="0"
           style="fill:#ffffff" /></g></g><g
       id="g4523"
       style="fill:#ffffff"><g
         id="g4521"
         style="fill:#ffffff"><path
           id="path4519"
           d="m 192.356,246.237 -12.7,8.367 c 4.336,6.583 8.996,12.564 13.851,17.776 l 11.128,-10.366 c -4.277,-4.591 -8.408,-9.9 -12.279,-15.777 z"
           inkscape:connector-curvature="0"
           style="fill:#ffffff" /></g></g><g
       id="g4529"
       style="fill:#ffffff"><g
         id="g4527"
         style="fill:#ffffff"><path
           id="path4525"
           d="m 159.716,161.922 -14.826,3.382 c 7.292,31.965 17.027,58.799 28.933,79.756 l 13.222,-7.512 c -11.172,-19.665 -20.367,-45.109 -27.329,-75.626 z"
           inkscape:connector-curvature="0"
           style="fill:#ffffff" /></g></g><g
       id="g4535"
       style="fill:#ffffff"><g
         id="g4533"
         style="fill:#ffffff"><polygon
           id="polygon4531"
           points="415.63,346.364 430.837,346.354 430.828,333.517 443.666,333.509 443.655,318.302 430.818,318.31 430.809,305.473 415.602,305.483 415.611,318.321 402.774,318.33 402.784,333.537 415.621,333.528 "
           style="fill:#ffffff" /></g></g><g
       id="g4541"
       style="fill:#ffffff"><g
         id="g4539"
         style="fill:#ffffff"><polygon
           id="polygon4537"
           points="86.816,423.275 102.023,423.259 102.012,412.486 112.785,412.475 112.769,397.268 101.997,397.279 101.986,386.506 86.779,386.522 86.79,397.294 76.016,397.305 76.033,412.512 86.805,412.501 "
           style="fill:#ffffff" /></g></g><g
       id="g4547"
       style="fill:#ffffff"><g
         id="g4545"
         style="fill:#ffffff"><rect
           id="rect4543"
           height="15.207"
           width="14.345"
           y="288.16101"
           x="48.845001"
           style="fill:#ffffff" /></g></g><g
       id="g4553"
       style="fill:#ffffff"><g
         id="g4551"
         style="fill:#ffffff"><rect
           id="rect4549"
           height="15.207"
           width="14.345"
           y="333.15302"
           x="141.039"
           style="fill:#ffffff" /></g></g><g
       id="g4559"
       style="fill:#ffffff"><g
         id="g4557"
         style="fill:#ffffff"><rect
           id="rect4555"
           height="15.207"
           width="14.345"
           y="378.905"
           x="372.254"
           style="fill:#ffffff" /></g></g><g
       id="g4561"
       style="fill:#ffffff" /><g
       id="g4563"
       style="fill:#ffffff" /><g
       id="g4565"
       style="fill:#ffffff" /><g
       id="g4567"
       style="fill:#ffffff" /><g
       id="g4569"
       style="fill:#ffffff" /><g
       id="g4571"
       style="fill:#ffffff" /><g
       id="g4573"
       style="fill:#ffffff" /><g
       id="g4575"
       style="fill:#ffffff" /><g
       id="g4577"
       style="fill:#ffffff" /><g
       id="g4579"
       style="fill:#ffffff" /><g
       id="g4581"
       style="fill:#ffffff" /><g
       id="g4583"
       style="fill:#ffffff" /><g
       id="g4585"
       style="fill:#ffffff" /><g
       id="g4587"
       style="fill:#ffffff" /><g
       id="g4589"
       style="fill:#ffffff" /></g></svg>