<?xml version="1.0" encoding="UTF-8" standalone="no"?>
<svg
   xmlns:dc="http://purl.org/dc/elements/1.1/"
   xmlns:cc="http://creativecommons.org/ns#"
   xmlns:rdf="http://www.w3.org/1999/02/22-rdf-syntax-ns#"
   xmlns:svg="http://www.w3.org/2000/svg"
   xmlns="http://www.w3.org/2000/svg"
   xmlns:sodipodi="http://sodipodi.sourceforge.net/DTD/sodipodi-0.dtd"
   xmlns:inkscape="http://www.inkscape.org/namespaces/inkscape"
   xml:space="preserve"
   style="enable-background:new 0 0 512.001 512.001;"
   viewBox="0 0 512.001 512.001"
   y="0px"
   x="0px"
   id="Layer_1"
   version="1.1"
   sodipodi:docname="rond-village-3.svg"
   inkscape:version="0.92.1 r15371"><defs
     id="defs33"><pattern
       y="0"
       x="0"
       height="6"
       width="6"
       patternUnits="userSpaceOnUse"
       id="EMFhbasepattern" /></defs><sodipodi:namedview
     pagecolor="#ffffff"
     bordercolor="#666666"
     borderopacity="1"
     objecttolerance="10"
     gridtolerance="10"
     guidetolerance="10"
     inkscape:pageopacity="0"
     inkscape:pageshadow="2"
     inkscape:window-width="1920"
     inkscape:window-height="1001"
     id="namedview31"
     showgrid="false"
     inkscape:zoom="14.749972"
     inkscape:cx="-10.260989"
     inkscape:cy="514.66634"
     inkscape:window-x="-9"
     inkscape:window-y="-9"
     inkscape:window-maximized="1"
     inkscape:current-layer="Layer_1" /><metadata
     id="metadata159"><rdf:RDF><cc:Work
         rdf:about=""><dc:format>image/svg+xml</dc:format><dc:type
           rdf:resource="http://purl.org/dc/dcmitype/StillImage" /><dc:title /></cc:Work></rdf:RDF></metadata><ellipse
     ry="15.47317"
     rx="15.659593"
     cy="1.3989621"
     cx="2.403769"
     id="path1322"
     style="display:inline;fill:#ffffff;fill-opacity:1;stroke:#000000;stroke-width:1.70032859;stroke-miterlimit:4;stroke-dasharray:none;stroke-dashoffset:0;stroke-opacity:1" /><path
     style="opacity:1;fill:#ffffff;fill-opacity:1;stroke:#ffffff;stroke-width:0.04801503;stroke-linejoin:round;stroke-miterlimit:4;stroke-dasharray:none;stroke-dashoffset:0;stroke-opacity:1"
     d="m -7.6017661,-3.7681101 v -1.845672 h 0.3355767 0.3355767 v 0.8389418 0.8389419 h 0.9827605 0.9827605 v -0.8389419 -0.8389418 h 0.3355767 0.3355767 v 0.8389418 0.8389419 h 1.0067303 1.0067302 v -0.8389419 -0.8389418 h 0.3355767 0.3355768 v 1.845672 1.8456721 h -2.9962209 -2.9962209 z m 2.0134604,0.8389419 V -3.264745 h -0.3595465 -0.3595465 v 0.3355768 0.3355767 h 0.3595465 0.3595465 z m 1.342307,0 V -3.264745 h -0.3595465 -0.3595465 v 0.3355768 0.3355767 h 0.3595465 0.3595465 z m 1.3423069,0 V -3.264745 h -0.3595465 -0.3595465 v 0.3355768 0.3355767 h 0.3595465 0.3595465 z"
     id="path4664"
     inkscape:connector-curvature="0" /><g
     id="g4981"
     transform="matrix(0.05079539,0,0,0.05079539,-9.9245409,-6.3323789)"><path
       id="path4964"
       d="m 298.69141,224.20703 h -32 c -4.41797,0 -8,3.58203 -8,8 v 32 c 0,4.41797 3.58203,8 8,8 h 32 c 4.41796,0 8,-3.58203 8,-8 v -32 c 0,-4.41797 -3.58204,-8 -8,-8 z m -8,32 h -16 v -16 h 16 z m 0,0"
       inkscape:connector-curvature="0" /><path
       id="path4966"
       d="m 274.69141,176.20703 c 0,-17.67187 -14.32813,-32 -32,-32 -17.67579,0 -32,14.32813 -32,32 0,17.67188 14.32421,32 32,32 17.67187,0 32,-14.32812 32,-32 z m -32,16 c -8.83594,0 -16,-7.16406 -16,-16 0,-8.83594 7.16406,-16 16,-16 8.83593,0 16,7.16406 16,16 0,8.83594 -7.16407,16 -16,16 z m 0,0"
       inkscape:connector-curvature="0" /><path
       id="path4968"
       d="m 475.94531,89.671875 -124.64062,-88 c -2.76563,-1.957031 -6.46485,-1.957031 -9.23047,0 l -92.71875,65.441406 -2.05078,-1.441406 c -2.76563,-1.957031 -6.46485,-1.957031 -9.23047,0 l -2.04688,1.441406 -92.72265,-65.441406 c -2.76563,-1.957031 -6.46485,-1.957031 -9.23047,0 l -124.648439,88 c -9.882812,7 -12.386719,20.601565 -5.648437,30.664065 3.425781,5.0039 8.726562,8.41406 14.699218,9.45312 5.976563,1.03906 12.117188,-0.3789 17.03125,-3.93359 l 15.183594,-11.13672 v 109.48828 c 0,8.83594 7.164063,16 16,16 h 88.000004 v 48 c 0,8.83594 7.16406,16 16,16 h 144 c 8.83593,0 16,-7.16406 16,-16 v -48 h 88 c 8.83593,0 16,-7.16406 16,-16 V 114.71875 l 15.19921,11.15234 c 3.79297,2.78907 8.375,4.28907 13.07813,4.28907 7.53516,0.004 14.57422,-3.75391 18.76172,-10.01563 6.63281,-10.05078 4.07031,-23.55078 -5.78516,-30.472655 z m -113.2539,77.039065 c 2.07812,1.45703 3.07812,4.02343 2.52734,6.5039 -0.55078,2.48047 -2.53906,4.38282 -5.03906,4.82422 -1.6875,0.28125 -3.41406,-0.12109 -4.80078,-1.12109 L 247.42578,97.71875 c -2.8125,-2.0625 -6.64062,-2.0625 -9.45703,0 l -107.94922,79.19922 c -1.38672,1 -3.11719,1.40234 -4.80078,1.12109 -2.5,-0.4375 -4.48828,-2.33984 -5.04297,-4.8164 -0.55078,-2.47657 0.44141,-5.04297 2.51563,-6.50391 L 242.69141,82 Z m -32,-54.50391 c 0,-8.83594 7.16406,-15.999999 16,-15.999999 8.83593,0 16,7.164059 16,15.999999 0,8.83594 -7.16407,16 -16,16 -8.83594,0 -16,-7.16406 -16,-16 z m 64,64 v 16 h -16 v -9.97656 c 1.05078,-1.88672 1.8164,-3.91406 2.27734,-6.02344 z m -256,-48 c -8.83594,0 -16,-7.16406 -16,-16 0,-8.83594 7.16406,-15.999999 16,-15.999999 8.83593,0 16,7.164059 16,15.999999 0,8.83594 -7.16407,16 -16,16 z M 26.105469,112.91016 c -1.085938,0.78906 -2.394531,1.21484 -3.734375,1.21875 -2.097656,-0.004 -4.0625,-1.01563 -5.28125,-2.72266 -1.886719,-2.84766 -1.179688,-6.67578 1.601562,-8.66406 L 138.69141,18 222.15234,76.910156 211.96875,84.113281 143.42578,33.765625 c -2.8164,-2.066406 -6.65234,-2.066406 -9.47265,0 z m 40.585937,-9.9336 72.000004,-52.847654 59.49609,43.679688 -27.60937,19.496096 c 0,-0.37891 0.11328,-0.73828 0.11328,-1.11328 0.0625,-16.433598 -12.32813,-30.242191 -28.67188,-31.953129 -16.34375,-1.707031 -31.32812,9.238281 -34.66406,25.332029 -3.33594,16.08985 6.05859,32.08985 21.73437,37.01953 l -15.6875,11.07422 c -2.47265,1.7461 -4.5625,3.97656 -6.15234,6.55078 H 90.691406 c -4.417968,0 -8,3.58203 -8,8 v 56 h -16 z m 32,121.23047 v -48 h 5.718754 c 0.58203,2.85938 1.71484,5.57422 3.33593,8 4.99219,7.55078 14.08594,11.28906 22.94532,9.44141 v 30.55859 z m 48.000004,0 v -39.67969 l 8,-5.86328 v 45.54297 z m 56,64 v -48 h 32 v 48 z m 112,0 h -64 v -56 c 0,-4.41797 -3.58203,-8 -8,-8 h -48 c -4.41797,0 -8,3.58203 -8,8 v 56 h -16 V 166.92578 l 72,-52.79687 72,52.79687 z m 16,-64 v -45.54297 l 8,5.86328 v 39.67969 z m 88,0 h -64 v -30.54297 c 2.6289,0.58203 5.34765,0.63672 8,0.15235 v 6.39062 c 0,4.41797 3.58203,8 8,8 h 32 c 4.41797,0 8,-3.58203 8,-8 v -32 c 0,-4.41797 -3.58203,-8 -8,-8 h -24.59375 c -1.58594,-2.58203 -3.6836,-4.8125 -6.16016,-6.55859 l -15.64844,-11.03906 c 15.60938,-4.95704 24.94141,-20.91797 21.60157,-36.95313 -3.33985,-16.035156 -18.26563,-26.941406 -34.5586,-25.253906 -16.28906,1.6875 -28.66016,15.425781 -28.64062,31.804686 0,0.375 0.0937,0.72656 0.10937,1.10547 l -27.60547,-19.503906 59.4961,-43.679688 72,52.847654 z m 49.69531,-112.88672 c -0.98828,1.45313 -2.52344,2.44141 -4.25781,2.73438 -1.67969,0.30469 -3.41407,-0.0898 -4.79688,-1.09375 L 351.41016,33.757812 c -2.81641,-2.066406 -6.65235,-2.066406 -9.47266,0 L 273.40234,84.09375 263.21875,76.894531 346.69141,18 l 120,84.71094 c 2.8125,1.92969 3.57031,5.7539 1.70312,8.60937 z m 0,0"
       inkscape:connector-curvature="0" /></g><path
     style="opacity:1;fill:#5a2ca0;fill-opacity:1;stroke:#5a2ca0;stroke-width:0.648;stroke-linejoin:round;stroke-miterlimit:4;stroke-dasharray:none;stroke-dashoffset:0;stroke-opacity:1"
     d="M -0.62359954,20.263947 C -1.1222127,20.219717 -2.3781246,20.016012 -2.7574647,19.917831 l -0.239698,-0.06204 -0.01227,-3.849257 c -0.01112,-3.486676 -0.0052,-3.846527 0.06324,-3.820279 0.121184,0.0465 0.957231,0.208985 1.555005,0.30221 0.79172506,0.123472 2.6849859,0.122872 3.2501119,-10e-4 0.502965,-0.110273 0.960372,-0.265608 1.3281131,-0.451024 0.775243,-0.39088 1.755381,-0.549559 2.7924539,-0.452084 0.558453,0.05249 1.432865,0.21935 1.821342,0.347559 l 0.156188,0.05155 v 3.834675 c 0,3.630154 -0.0045,3.83327 -0.08389,3.808319 -0.842475,-0.264684 -1.731243,-0.3803 -2.6965989,-0.35079 -0.954173,0.02917 -1.444619,0.140904 -2.2392001,0.510146 -0.28834,0.133992 -0.690426,0.286121 -0.893524,0.338064 -0.704612,0.180209 -1.65335582,0.230039 -2.66740384,0.140099 z"
     id="path4642"
     inkscape:connector-curvature="0" /><g
     id="g4960"
     transform="matrix(0.01191085,0,0,0.01191085,1.4169241,12.883057)"
     style="fill:#ffffff"><path
       id="path4943"
       d="m 447.73828,74.660156 c -0.64844,0 -1.30078,-0.0625 -1.94922,-0.191406 -0.64062,-0.128906 -1.27344,-0.320312 -1.87109,-0.570312 -0.60156,-0.25 -1.19141,-0.558594 -1.73047,-0.917969 -0.53906,-0.371094 -1.05859,-0.78125 -1.51953,-1.25 -1.85938,-1.863281 -2.92969,-4.429688 -2.92969,-7.0625 0,-0.660157 0.0703,-1.308594 0.19922,-1.957031 0.12891,-0.640626 0.32031,-1.273438 0.57031,-1.871094 0.25,-0.601563 0.5586,-1.191406 0.91797,-1.730469 0.36328,-0.550781 0.78125,-1.058594 1.24219,-1.519531 0.46094,-0.460938 0.97656,-0.878906 1.51953,-1.242188 0.53906,-0.359375 1.12891,-0.667968 1.73047,-0.917968 0.59765,-0.25 1.22656,-0.441407 1.87109,-0.570313 1.28906,-0.261719 2.61719,-0.261719 3.91016,0 0.63672,0.128906 1.25781,0.320313 1.86719,0.570313 0.60156,0.25 1.17968,0.558593 1.72265,0.917968 0.54688,0.363282 1.0586,0.78125 1.51953,1.242188 0.45703,0.460937 0.87891,0.96875 1.25,1.519531 0.35938,0.539063 0.66797,1.128906 0.91797,1.730469 0.25,0.597656 0.44141,1.230468 0.57031,1.871094 0.12891,0.648437 0.19141,1.296874 0.19141,1.957031 0,2.632812 -1.0625,5.199219 -2.93359,7.0625 -0.45703,0.46875 -0.96875,0.878906 -1.51953,1.25 -0.53907,0.359375 -1.11719,0.667969 -1.71875,0.917969 -0.60157,0.25 -1.23047,0.441406 -1.8711,0.570312 -0.64844,0.128906 -1.29687,0.191406 -1.95703,0.191406 z m 0,0"
       inkscape:connector-curvature="0"
       style="fill:#ffffff" /><path
       id="path4945"
       d="m 65.179688,74.660156 c -0.660157,0 -1.3125,-0.0625 -1.960938,-0.191406 -0.640625,-0.128906 -1.269531,-0.320312 -1.871094,-0.570312 -0.597656,-0.25 -1.179687,-0.558594 -1.71875,-0.917969 -0.550781,-0.371094 -1.0625,-0.78125 -1.519531,-1.25 -0.472656,-0.460938 -0.882813,-0.972657 -1.25,-1.519531 C 56.5,69.667969 56.1875,69.089844 55.9375,68.488281 55.6875,67.890625 55.5,67.257812 55.367188,66.617188 c -0.128907,-0.648438 -0.1875,-1.296876 -0.1875,-1.957032 0,-0.652344 0.05859,-1.300781 0.1875,-1.949218 C 55.5,62.070312 55.6875,61.4375 55.9375,60.839844 c 0.25,-0.601563 0.5625,-1.179688 0.921875,-1.730469 0.367187,-0.539063 0.777344,-1.050781 1.25,-1.519531 0.457031,-0.460938 0.96875,-0.871094 1.519531,-1.242188 0.539063,-0.359375 1.121094,-0.667968 1.71875,-0.917968 0.601563,-0.25 1.230469,-0.441407 1.871094,-0.570313 1.289062,-0.261719 2.621094,-0.261719 3.910156,0 0.640625,0.128906 1.269532,0.320313 1.871094,0.570313 0.597656,0.25 1.179688,0.558593 1.726562,0.917968 0.542969,0.371094 1.0625,0.78125 1.523438,1.242188 0.457031,0.46875 0.878906,0.980468 1.238281,1.519531 0.359375,0.550781 0.671875,1.128906 0.921875,1.730469 0.25,0.597656 0.4375,1.230468 0.566406,1.871094 0.132813,0.648437 0.203126,1.296874 0.203126,1.949218 0,0.660156 -0.07031,1.308594 -0.203126,1.957032 -0.128906,0.640624 -0.316406,1.273437 -0.566406,1.871093 -0.25,0.601563 -0.5625,1.179688 -0.921875,1.722657 -0.359375,0.546874 -0.78125,1.058593 -1.238281,1.519531 -0.460938,0.46875 -0.980469,0.878906 -1.523438,1.25 -0.546874,0.359375 -1.128906,0.667969 -1.726562,0.917969 -0.601562,0.25 -1.230469,0.441406 -1.871094,0.570312 -0.652344,0.128906 -1.300781,0.191406 -1.949218,0.191406 z m 0,0"
       inkscape:connector-curvature="0"
       style="fill:#ffffff" /><path
       id="path4947"
       d="m 504.21094,399.79687 -9.23828,-9.23828 c -5.30079,-5.30468 -12.35157,-8.22656 -19.85157,-8.22656 -4.75781,0 -9.33203,1.17578 -13.39453,3.38672 l -39.19922,-39.20313 12.05469,-12.05468 c 10.97656,-10.98047 10.97656,-28.84766 0,-39.82422 l -9.12109,-9.125 c -5.31641,-5.32031 -12.39063,-8.25 -19.91016,-8.25 -7.52344,0 -14.59375,2.92969 -19.91016,8.25 l -8.3164,8.3164 -30.67969,-33.08984 162.47656,-147.57812 c 2.13672,-1.94141 3.33203,-4.71485 3.27344,-7.60157 L 510.51562,11.675781 C 510.41016,6.3125 506.08594,1.984375 500.71875,1.878906 L 406.85547,0.00390625 C 403.92578,-0.0703125 401.19141,1.140625 399.25391,3.277344 L 256.41406,160.59766 113.66406,3.28125 c -1.9414,-2.140625 -4.73437,-3.3398438 -7.60547,-3.27734375 L 12.195312,1.878906 C 6.828125,1.984375 2.503906,6.3125 2.398438,11.675781 l -1.875,93.882809 c -0.058594,2.88672 1.136718,5.66016 3.277343,7.60157 l 162.089839,147.14062 -30.375,33.44922 -8.29296,-8.29297 c -5.30079,-5.30469 -12.35157,-8.22656 -19.85547,-8.22656 -7.500002,0 -14.550784,2.92187 -19.855471,8.22656 l -9.234375,9.23438 c -10.945313,10.94921 -10.945313,28.76171 0,39.70703 l 12.113281,12.11328 -39.199219,39.20703 c -4.0625,-2.21094 -8.636718,-3.38672 -13.390625,-3.38672 -7.503906,0 -14.554687,2.92188 -19.859375,8.22656 l -9.234375,9.23438 c -10.945312,10.94922 -10.945312,28.76172 0,39.70703 L 72.96875,503.77344 C 78.273438,509.07813 85.324219,512 92.824219,512 c 7.503901,0 14.554691,-2.92187 19.855471,-8.22656 l 9.23828,-9.23828 c 8.98437,-8.98438 10.59375,-22.59766 4.82422,-33.24219 l 39.20312,-39.21094 12.10547,12.10938 c 5.30469,5.30468 12.35547,8.22656 19.85547,8.22656 7.50391,0 14.55469,-2.92188 19.85547,-8.22656 L 227,424.95313 c 10.94141,-10.94532 10.94141,-28.75782 0,-39.70313 l -8.30078,-8.30469 37.27344,-33.85547 38.16406,33.9336 -8.16016,8.16406 C 275,396.16797 275,414.03516 285.97656,425.01172 l 9.1211,9.125 c 5.3164,5.32031 12.38671,8.25 19.91015,8.25 7.51953,0 14.59375,-2.92969 19.91016,-8.25 l 12.05078,-12.05469 39.20312,39.21094 c -5.76953,10.64453 -4.16015,24.25781 4.82813,33.24609 l 9.23047,9.23438 c 5.30469,5.30469 12.35547,8.22656 19.85937,8.22656 7.5,0 14.55078,-2.92188 19.85547,-8.22656 L 504.20703,439.5 c 10.94922,-10.94531 10.94922,-28.75781 0.004,-39.70313 z m -141.03907,-91.8164 -20.29296,20.29687 -33.59766,-33.60547 22.55859,-20.48828 z M 20.609375,101.41016 22.203125,21.683594 101.91016,20.089844 242.90625,175.47266 217.77734,203.15234 100.65234,86.007812 c -3.90234,-3.90625 -10.234371,-3.90625 -14.140621,0 -3.90625,3.902344 -3.90625,10.234376 0,14.140628 l 117.804691,117.82812 -24.98047,27.51563 z m 390.394535,-81.320316 79.71093,1.59375 1.59375,79.726566 -287.76562,261.3789 -20.36328,-20.36719 242.22656,-242.27343 c 3.90234,-3.906252 3.90234,-10.238284 0,-14.144534 -3.90625,-3.902344 -10.23828,-3.902344 -14.14453,0.0039 L 170.03516,328.27734 149.67187,307.91016 Z M 107.77344,480.39453 98.539062,489.63281 C 97.011719,491.16016 94.984375,492 92.824219,492 c -2.15625,0 -4.1875,-0.83984 -5.710938,-2.36719 L 22.851562,425.35937 c -3.148437,-3.14843 -3.148437,-8.27343 0,-11.42578 l 9.234376,-9.23437 c 1.527343,-1.52735 3.554687,-2.36719 5.714843,-2.36719 2.15625,0 4.183594,0.83984 5.710938,2.36719 l 1.414062,1.41015 c 0,0.004 0.0039,0.008 0.0078,0.008 l 61.414069,61.42968 c 0.004,0.004 0.008,0.004 0.0117,0.008 l 1.41406,1.41797 c 3.14844,3.14843 3.14844,8.27343 0,11.42187 z m 5.64453,-34.0625 -47.273439,-47.28125 38.386719,-38.39453 47.27344,47.28516 z m 99.4375,-35.51953 -9.23438,9.23828 c -1.52734,1.52344 -3.55468,2.36719 -5.71484,2.36719 -2.15625,0 -4.1875,-0.83985 -5.71094,-2.36719 L 92.417969,320.25781 c -3.148438,-3.14843 -3.148438,-8.27343 0,-11.42187 l 9.238281,-9.23828 c 1.52344,-1.52344 3.55469,-2.36719 5.71094,-2.36719 2.15625,0 4.1875,0.83984 5.71484,2.36719 l 99.77344,99.79296 c 3.14844,3.14844 3.14844,8.27344 0,11.42188 z m 58.00781,-81.24609 23.59375,-21.4336 34.28125,34.28907 -20.43359,20.4375 z m 49.91406,90.42968 c -1.54297,1.54297 -3.58984,2.39063 -5.76953,2.39063 -2.17578,0 -4.22656,-0.84766 -5.76562,-2.39063 l -9.1211,-9.12109 c -3.18359,-3.18359 -3.18359,-8.36328 0,-11.54297 l 99.66016,-99.67969 c 1.53906,-1.54297 3.58984,-2.39062 5.76562,-2.39062 2.17969,0 4.23047,0.84765 5.76954,2.39062 l 9.12109,9.1211 c 3.18359,3.18359 3.18359,8.35937 0,11.54297 z m 87.60938,-59.33984 38.38672,38.39453 -47.27735,47.28125 -38.38281,-38.39062 z m 81.67969,64.70312 -64.26172,64.27344 C 424.27734,491.16016 422.25,492 420.08984,492 c -2.15625,0 -4.18359,-0.83984 -5.71093,-2.36719 l -9.23438,-9.23437 c -3.14844,-3.15235 -3.14844,-8.27344 -0.004,-11.42578 l 1.41796,-1.41407 c 0,-0.004 0.004,-0.008 0.008,-0.0117 l 62.83593,-62.84765 c 1.52735,-1.52344 3.5586,-2.36719 5.71485,-2.36719 2.15625,0 4.1875,0.83984 5.71484,2.36719 l 9.23047,9.23828 c 3.15234,3.14844 3.15234,8.27344 0.004,11.42187 z m 0,0"
       inkscape:connector-curvature="0"
       style="fill:#ffffff" /></g><text
     xml:space="preserve"
     style="font-style:normal;font-variant:normal;font-weight:normal;font-stretch:normal;font-size:6.44422579px;line-height:1.25;font-family:Arial;-inkscape-font-specification:'Arial, Normal';font-variant-ligatures:normal;font-variant-caps:normal;font-variant-numeric:normal;font-feature-settings:normal;text-align:center;letter-spacing:0px;word-spacing:0px;writing-mode:lr-tb;text-anchor:middle;fill:#ffffff;fill-opacity:1;stroke:none;stroke-width:1.20829237"
     x="-0.53976977"
     y="18.830853"
     id="text4665"><tspan
       sodipodi:role="line"
       id="tspan4663"
       x="-0.53976983"
       y="18.830853"
       style="font-size:10.66666698px;fill:#ffffff;stroke:none;stroke-width:1.20829237">-</tspan></text>
</svg>