<?xml version="1.0" encoding="UTF-8" standalone="no"?>
<svg
   xmlns:dc="http://purl.org/dc/elements/1.1/"
   xmlns:cc="http://creativecommons.org/ns#"
   xmlns:rdf="http://www.w3.org/1999/02/22-rdf-syntax-ns#"
   xmlns:svg="http://www.w3.org/2000/svg"
   xmlns="http://www.w3.org/2000/svg"
   xmlns:sodipodi="http://sodipodi.sourceforge.net/DTD/sodipodi-0.dtd"
   xmlns:inkscape="http://www.inkscape.org/namespaces/inkscape"
   xml:space="preserve"
   style="enable-background:new 0 0 512.001 512.001;"
   viewBox="0 0 512.001 512.001"
   y="0px"
   x="0px"
   id="Layer_1"
   version="1.1"
   sodipodi:docname="rond-green.svg"
   inkscape:version="0.92.1 r15371"><defs
     id="defs33" /><sodipodi:namedview
     pagecolor="#ffffff"
     bordercolor="#666666"
     borderopacity="1"
     objecttolerance="10"
     gridtolerance="10"
     guidetolerance="10"
     inkscape:pageopacity="0"
     inkscape:pageshadow="2"
     inkscape:window-width="1920"
     inkscape:window-height="1001"
     id="namedview31"
     showgrid="false"
     inkscape:zoom="7.374986"
     inkscape:cx="16.865791"
     inkscape:cy="530.18944"
     inkscape:window-x="-9"
     inkscape:window-y="-9"
     inkscape:window-maximized="1"
     inkscape:current-layer="Layer_1" /><metadata
     id="metadata159"><rdf:RDF><cc:Work
         rdf:about=""><dc:format>image/svg+xml</dc:format><dc:type
           rdf:resource="http://purl.org/dc/dcmitype/StillImage" /><dc:title /></cc:Work></rdf:RDF></metadata><ellipse
     ry="15.47317"
     rx="15.659593"
     cy="1.3989621"
     cx="2.403769"
     id="path1322"
     style="display:inline;fill:#ffffff;fill-opacity:1;stroke:#d40000;stroke-width:1.70032859;stroke-miterlimit:4;stroke-dasharray:none;stroke-dashoffset:0;stroke-opacity:1" /><g
     id="g4684"
     transform="matrix(0.04320169,0,0,0.04320169,-8.655842,-11.660692)"
     style="fill:#d40000"><g
       id="g4537"
       style="fill:#d40000"><g
         id="g4535"
         style="fill:#d40000"><path
           id="path4533"
           d="m 504.396,210.617 h -27.174 c -4.199,0 -7.604,3.405 -7.604,7.604 v 21.201 H 457.253 V 218.22 c 0,-4.199 -3.405,-7.604 -7.604,-7.604 h -30.014 c -4.199,0 -7.604,3.405 -7.604,7.604 v 21.201 H 399.666 V 218.22 c 0,-4.199 -3.405,-7.604 -7.604,-7.604 h -27.174 c -4.199,0 -7.604,3.405 -7.604,7.604 v 57.609 24.334 H 336.697 V 184.589 h 18.595 c 2.495,0 4.92,-1.105 6.373,-3.133 2.248,-3.138 1.803,-7.297 -0.811,-9.879 L 263.603,75.469 V 59.888 h 62.735 c 2.256,0 4.468,-0.891 5.945,-2.597 2.32,-2.681 2.468,-6.481 0.558,-9.286 L 320.546,29.944 332.841,11.883 c 1.91,-2.805 1.762,-6.605 -0.558,-9.286 C 330.806,0.891 328.594,0 326.338,0 H 256 c -4.199,0 -7.604,3.405 -7.604,7.604 v 44.68 23.185 l -97.094,95.953 c -1.775,1.754 -2.723,4.246 -2.332,6.711 0.606,3.812 3.847,6.455 7.521,6.455 h 18.811 v 43.589 c 0,4.199 3.405,7.604 7.604,7.604 4.199,0 7.604,-3.405 7.604,-7.604 v -43.589 h 130.98 v 123.14 c 0,0.013 -0.002,0.026 -0.002,0.04 v 23.501 H 309.13 v -23.501 c 0,-4.199 -3.405,-7.604 -7.604,-7.604 h -31.745 c -4.199,0 -7.604,3.405 -7.604,7.604 v 23.501 h -12.359 v -23.501 c 0,-4.199 -3.405,-7.604 -7.604,-7.604 H 210.48 c -4.199,0 -7.604,3.405 -7.604,7.604 v 23.501 h -12.369 v -23.501 c 0,-10e-4 0,-0.002 0,-0.002 l 0.002,-0.001 v -44.101 c 0,-4.199 -3.405,-7.604 -7.604,-7.604 -4.199,0 -7.604,3.405 -7.604,7.604 v 36.499 H 154.714 V 275.829 218.22 c 0,-4.199 -3.405,-7.604 -7.604,-7.604 h -27.174 c -4.199,0 -7.604,3.405 -7.604,7.604 v 21.201 H 99.969 V 218.22 c 0,-4.199 -3.405,-7.604 -7.604,-7.604 H 62.35 c -4.199,0 -7.604,3.405 -7.604,7.604 v 21.201 H 42.381 V 218.22 c 0,-4.199 -3.405,-7.604 -7.604,-7.604 H 7.604 C 3.405,210.616 0,214.021 0,218.22 v 57.609 c 0,4.199 3.405,7.604 7.604,7.604 h 17.849 v 220.964 c 0,4.199 3.405,7.604 7.604,7.604 H 147.11 c 0.007,0 0.013,-10e-4 0.019,-10e-4 h 217.74 c 0.006,0 0.013,10e-4 0.019,10e-4 h 114.054 c 4.199,0 7.604,-3.405 7.604,-7.604 V 363.019 c 0,-4.199 -3.405,-7.604 -7.604,-7.604 -4.199,0 -7.604,3.405 -7.604,7.604 V 496.792 H 372.495 V 307.767 c 0,-0.02 -0.003,-0.039 -0.003,-0.059 v -24.275 h 98.846 v 44.1 c 0,4.199 3.405,7.604 7.604,7.604 4.199,0 7.604,-3.405 7.604,-7.604 v -44.1 h 17.849 c 4.199,0 7.604,-3.405 7.604,-7.604 V 218.22 c 10e-4,-4.199 -3.403,-7.603 -7.603,-7.603 z M 263.604,15.208 h 48.576 l -7.118,10.457 c -1.759,2.582 -1.759,5.977 -0.001,8.558 l 7.118,10.457 H 263.604 Z M 139.506,496.792 H 40.661 V 283.433 h 98.845 z m 0.001,-228.567 H 33.057 15.208 v -42.401 h 11.966 v 21.201 c 0,4.199 3.405,7.604 7.604,7.604 H 62.35 c 4.199,0 7.604,-3.405 7.604,-7.604 V 225.824 H 84.76 v 21.201 c 0,4.199 3.405,7.604 7.604,7.604 h 27.573 c 4.199,0 7.604,-3.405 7.604,-7.604 v -21.201 h 11.966 z m 43.399,-98.844 h -7.903 L 256,89.336 336.997,169.38 h -7.903 -146.188 z m 65.49,326.952 h -36.497 v -66.912 c 0,-21.723 15.792,-39.815 36.497,-43.431 z m 51.704,10e-4 H 263.604 V 385.991 c 20.704,3.615 36.496,21.708 36.496,43.431 z m 57.187,0.457 H 315.31 v -67.37 c 0,-32.702 -26.605,-59.308 -59.308,-59.308 -32.702,0 -59.308,26.606 -59.308,59.308 v 67.37 H 154.721 V 315.371 H 175.3 v 23.501 c 0,4.199 3.405,7.604 7.604,7.604 h 27.577 c 4.199,0 7.604,-3.405 7.604,-7.604 v -23.501 h 16.526 v 23.501 c 0,4.199 3.405,7.604 7.604,7.604 h 27.567 c 4.2,0 7.604,-3.405 7.604,-7.604 v -23.501 h 16.537 v 23.501 c 0,4.199 3.404,7.604 7.604,7.604 h 27.566 c 4.2,0 7.604,-3.405 7.604,-7.604 v -23.501 h 20.59 z M 496.792,268.225 h -17.848 -106.45 v -42.401 h 11.966 v 21.201 c 0,4.199 3.404,7.604 7.604,7.604 h 27.573 c 4.2,0 7.604,-3.405 7.604,-7.604 v -21.201 h 14.806 v 21.201 c 0,4.199 3.404,7.604 7.604,7.604 h 27.573 c 4.2,0 7.604,-3.405 7.604,-7.604 v -21.201 h 11.965 v 42.401 z"
           inkscape:connector-curvature="0"
           style="fill:#d40000" /></g></g><g
       id="g4543"
       style="fill:#d40000"><g
         id="g4541"
         style="fill:#d40000"><path
           id="path4539"
           d="m 87.802,306.243 c -15.932,0 -28.894,12.962 -28.894,28.894 v 45.622 c 0,4.199 3.405,7.604 7.604,7.604 h 42.58 c 4.199,0 7.604,-3.405 7.604,-7.604 v -45.622 c 0,-15.932 -12.962,-28.894 -28.894,-28.894 z m 13.687,66.912 H 74.116 v -38.018 c 0,-7.546 6.14,-13.686 13.686,-13.686 7.546,0 13.686,6.14 13.686,13.686 v 38.018 z"
           inkscape:connector-curvature="0"
           style="fill:#d40000" /></g></g><g
       id="g4549"
       style="fill:#d40000"><g
         id="g4547"
         style="fill:#d40000"><path
           id="path4545"
           d="m 448.212,335.137 c 0,-15.932 -12.961,-28.894 -28.894,-28.894 -15.933,0 -28.894,12.962 -28.894,28.894 v 45.622 c 0,4.199 3.404,7.604 7.604,7.604 h 42.58 c 4.2,0 7.604,-3.405 7.604,-7.604 z m -15.208,38.018 h -27.372 v -38.018 c 0,-7.546 6.14,-13.686 13.686,-13.686 7.546,0 13.686,6.14 13.686,13.686 z"
           inkscape:connector-curvature="0"
           style="fill:#d40000" /></g></g><g
       id="g4555"
       style="fill:#d40000"><g
         id="g4553"
         style="fill:#d40000"><path
           id="path4551"
           d="m 256.001,197.259 c -15.932,0 -28.894,12.962 -28.894,28.894 v 45.622 h -0.001 c 0,4.199 3.405,7.604 7.604,7.604 h 42.581 c 4.2,0 7.604,-3.405 7.604,-7.604 v -45.622 c 0,-15.932 -12.961,-28.894 -28.894,-28.894 z m 13.686,66.912 h -27.372 v -38.018 h -0.001 c 0,-7.546 6.14,-13.686 13.686,-13.686 7.546,0 13.687,6.14 13.687,13.686 z"
           inkscape:connector-curvature="0"
           style="fill:#d40000" /></g></g><g
       id="g4561"
       style="fill:#d40000"><g
         id="g4559"
         style="fill:#d40000"><path
           id="path4557"
           d="m 80.199,415.735 h -21.29 c -4.199,0 -7.604,3.405 -7.604,7.604 0,4.199 3.404,7.604 7.604,7.604 h 21.29 c 4.199,0 7.604,-3.405 7.604,-7.604 0,-4.2 -3.404,-7.604 -7.604,-7.604 z"
           inkscape:connector-curvature="0"
           style="fill:#d40000" /></g></g><g
       id="g4567"
       style="fill:#d40000"><g
         id="g4565"
         style="fill:#d40000"><path
           id="path4563"
           d="M 104.53,440.067 H 83.241 c -4.199,0 -7.604,3.405 -7.604,7.604 0,4.199 3.405,7.604 7.604,7.604 h 21.29 c 4.199,0 7.604,-3.405 7.604,-7.604 0,-4.2 -3.405,-7.604 -7.605,-7.604 z"
           inkscape:connector-curvature="0"
           style="fill:#d40000" /></g></g><g
       id="g4573"
       style="fill:#d40000"><g
         id="g4571"
         style="fill:#d40000"><path
           id="path4569"
           d="m 414.757,415.735 h -21.29 c -4.2,0 -7.604,3.405 -7.604,7.604 0,4.199 3.404,7.604 7.604,7.604 h 21.29 c 4.2,0 7.604,-3.405 7.604,-7.604 -10e-4,-4.2 -3.404,-7.604 -7.604,-7.604 z"
           inkscape:connector-curvature="0"
           style="fill:#d40000" /></g></g><g
       id="g4579"
       style="fill:#d40000"><g
         id="g4577"
         style="fill:#d40000"><path
           id="path4575"
           d="m 439.087,440.067 h -21.29 c -4.2,0 -7.604,3.405 -7.604,7.604 0,4.199 3.405,7.604 7.604,7.604 h 21.29 c 4.2,0 7.604,-3.405 7.604,-7.604 0,-4.2 -3.403,-7.604 -7.604,-7.604 z"
           inkscape:connector-curvature="0"
           style="fill:#d40000" /></g></g><g
       id="g4585"
       style="fill:#d40000"><g
         id="g4583"
         style="fill:#d40000"><path
           id="path4581"
           d="m 340.241,370.113 h -21.29 c -4.2,0 -7.604,3.405 -7.604,7.604 0,4.199 3.405,7.604 7.604,7.604 h 21.29 c 4.2,0 7.604,-3.405 7.604,-7.604 0,-4.199 -3.404,-7.604 -7.604,-7.604 z"
           inkscape:connector-curvature="0"
           style="fill:#d40000" /></g></g><g
       id="g4591"
       style="fill:#d40000"><g
         id="g4589"
         style="fill:#d40000"><path
           id="path4587"
           d="m 224.179,190.669 h -21.29 c -4.199,0 -7.604,3.405 -7.604,7.604 0,4.199 3.405,7.604 7.604,7.604 h 21.29 c 4.199,0 7.604,-3.405 7.604,-7.604 0,-4.199 -3.405,-7.604 -7.604,-7.604 z"
           inkscape:connector-curvature="0"
           style="fill:#d40000" /></g></g><g
       id="g4597"
       style="fill:#d40000"><g
         id="g4595"
         style="fill:#d40000"><path
           id="path4593"
           d="m 191.211,388.362 h -21.29 c -4.199,0 -7.604,3.405 -7.604,7.604 0,4.199 3.405,7.604 7.604,7.604 h 21.29 c 4.199,0 7.604,-3.404 7.604,-7.604 0,-4.2 -3.404,-7.604 -7.604,-7.604 z"
           inkscape:connector-curvature="0"
           style="fill:#d40000" /></g></g><g
       id="g4599"
       style="fill:#d40000" /><g
       id="g4601"
       style="fill:#d40000" /><g
       id="g4603"
       style="fill:#d40000" /><g
       id="g4605"
       style="fill:#d40000" /><g
       id="g4607"
       style="fill:#d40000" /><g
       id="g4609"
       style="fill:#d40000" /><g
       id="g4611"
       style="fill:#d40000" /><g
       id="g4613"
       style="fill:#d40000" /><g
       id="g4615"
       style="fill:#d40000" /><g
       id="g4617"
       style="fill:#d40000" /><g
       id="g4619"
       style="fill:#d40000" /><g
       id="g4621"
       style="fill:#d40000" /><g
       id="g4623"
       style="fill:#d40000" /><g
       id="g4625"
       style="fill:#d40000" /><g
       id="g4627"
       style="fill:#d40000" /></g></svg>