<?xml version="1.0" encoding="UTF-8" standalone="no"?>
<svg
   xmlns:dc="http://purl.org/dc/elements/1.1/"
   xmlns:cc="http://creativecommons.org/ns#"
   xmlns:rdf="http://www.w3.org/1999/02/22-rdf-syntax-ns#"
   xmlns:svg="http://www.w3.org/2000/svg"
   xmlns="http://www.w3.org/2000/svg"
   xmlns:sodipodi="http://sodipodi.sourceforge.net/DTD/sodipodi-0.dtd"
   xmlns:inkscape="http://www.inkscape.org/namespaces/inkscape"
   xml:space="preserve"
   style="enable-background:new 0 0 512.001 512.001;"
   viewBox="0 0 512.001 512.001"
   y="0px"
   x="0px"
   id="Layer_1"
   version="1.1"
   sodipodi:docname="rond-green.svg"
   inkscape:version="0.92.1 r15371"><defs
     id="defs33" /><sodipodi:namedview
     pagecolor="#ffffff"
     bordercolor="#666666"
     borderopacity="1"
     objecttolerance="10"
     gridtolerance="10"
     guidetolerance="10"
     inkscape:pageopacity="0"
     inkscape:pageshadow="2"
     inkscape:window-width="1920"
     inkscape:window-height="1001"
     id="namedview31"
     showgrid="false"
     inkscape:zoom="14.749972"
     inkscape:cx="-28.656047"
     inkscape:cy="516.32741"
     inkscape:window-x="-9"
     inkscape:window-y="-9"
     inkscape:window-maximized="1"
     inkscape:current-layer="Layer_1" /><metadata
     id="metadata159"><rdf:RDF><cc:Work
         rdf:about=""><dc:format>image/svg+xml</dc:format><dc:type
           rdf:resource="http://purl.org/dc/dcmitype/StillImage" /><dc:title /></cc:Work></rdf:RDF></metadata><ellipse
     ry="15.47317"
     rx="15.659593"
     cy="1.3989621"
     cx="2.403769"
     id="path1322"
     style="display:inline;fill:#ffffff;fill-opacity:1;stroke:#89a02c;stroke-width:1.70032859;stroke-miterlimit:4;stroke-dasharray:none;stroke-dashoffset:0;stroke-opacity:1" /><g
     id="g4579"
     transform="matrix(0.04167407,0,0,0.04167407,-8.2647929,-9.2695998)"
     style="fill:#89a02c"><path
       id="path4536"
       d="M 111,208.5 H 64 v 63 h 47 z m -15,48 H 79 v -33 h 17 z"
       inkscape:connector-curvature="0"
       style="fill:#89a02c" /><path
       id="path4538"
       d="m 168,327.5 h 47 v -47 h -47 z m 15,-32 h 17 v 17 h -17 z"
       inkscape:connector-curvature="0"
       style="fill:#89a02c" /><path
       id="path4540"
       d="m 232,327.5 h 47 v -47 h -47 z m 15,-32 h 17 v 17 h -17 z"
       inkscape:connector-curvature="0"
       style="fill:#89a02c" /><path
       id="path4542"
       d="m 343,280.5 h -47 v 47 h 47 z m -15,32 h -17 v -17 h 17 z"
       inkscape:connector-curvature="0"
       style="fill:#89a02c" /><path
       id="path4544"
       d="m 447,208.5 h -47 v 63 h 47 z m -15,48 h -17 v -33 h 17 z"
       inkscape:connector-curvature="0"
       style="fill:#89a02c" /><path
       id="path4546"
       d="m 487,424.5 v -233 h 24 v -119 h -47 v 40 h -17 v -40 h -47 v 40 h -17 v -40 h -47 v 119 h 24 v 17 h -32 v 40 h -17 v -40 h -47 v 40 h -17 v -40 h -47 v 40 h -17 v -40 h -32 v -17 h 24 v -119 h -47 v 40 h -17 v -40 H 64 v 40 H 47 v -40 H 0 v 119 h 24 v 40 h 15 v -40 h 97 v 233 H 39 v -49 h 25 v 16 h 15 v -16 h 17 v -15 H 71 v -17 h 9 v -15 H 39 v -81 H 24 v 177 H 0 v 15 h 416 v -15 h -41 v -233 h 97 v 145 h -48 v 15 h 16 v 17 h -24 v 15 h 16 v 16 h 15 v -16 h 25 v 41 h -40 v 15 h 80 v -15 z M 15,87.5 h 17 v 40 h 47 v -40 h 17 v 40 h 47 v -40 h 17 v 89 H 15 Z m 41,256 v 17 H 39 v -17 z m 304,49 h -17 v -17 h 17 z m -209,-16 v -17 h 17 v 17 z m 121,48 h -33 v -33 c 0,-9.098 7.402,-16.5 16.5,-16.5 9.098,0 16.5,7.402 16.5,16.5 z m 15,0 v -33 C 287,374.131 272.869,360 255.5,360 238.131,360 224,374.131 224,391.5 v 33 h -73 v -33 h 25 v 16 h 15 v -16 h 17 v -15 h -25 v -17 h 17 v -15 h -49 v -121 h 17 v 40 h 47 v -40 h 17 v 40 h 47 v -40 h 17 v 40 h 47 v -40 h 17 v 137 h -25 v -17 h -15 v 17 h -8 v 15 h 16 v 17 h -16 v 15 h 48 v 17 z m 64,-337 h 17 v 40 h 47 v -40 h 17 v 40 h 47 v -40 h 17 v 89 H 351 Z m 104,281 v -17 h 17 v 17 z"
       inkscape:connector-curvature="0"
       style="fill:#89a02c" /><path
       id="path4548"
       d="m 48,144.5 h 16 v 15 H 48 Z"
       inkscape:connector-curvature="0"
       style="fill:#89a02c" /><path
       id="path4550"
       d="m 80,144.5 h 16 v 15 H 80 Z"
       inkscape:connector-curvature="0"
       style="fill:#89a02c" /><path
       id="path4552"
       d="m 112,144.5 h 16 v 15 h -16 z"
       inkscape:connector-curvature="0"
       style="fill:#89a02c" /><path
       id="path4554"
       d="m 384,144.5 h 16 v 15 h -16 z"
       inkscape:connector-curvature="0"
       style="fill:#89a02c" /><path
       id="path4556"
       d="m 416,144.5 h 16 v 15 h -16 z"
       inkscape:connector-curvature="0"
       style="fill:#89a02c" /><path
       id="path4558"
       d="m 448,144.5 h 16 v 15 h -16 z"
       inkscape:connector-curvature="0"
       style="fill:#89a02c" /></g><path
     style="opacity:1;fill:#89a02c;fill-opacity:1;stroke:#89a02c;stroke-width:0.648;stroke-linejoin:round;stroke-miterlimit:4;stroke-dasharray:none;stroke-dashoffset:0;stroke-opacity:1"
     d="m -1.8005265,-9.9818694 c -0.4986131,-0.04423 -1.754525,-0.2479356 -2.1338651,-0.3461166 l -0.239698,-0.06204 -0.01227,-3.849257 c -0.01112,-3.486676 -0.0052,-3.846527 0.06324,-3.820279 0.121184,0.0465 0.957231,0.208985 1.555005,0.30221 0.791725,0.123472 2.68498592,0.122872 3.25011192,-10e-4 0.50296498,-0.110273 0.96037198,-0.265608 1.32811308,-0.451024 0.775243,-0.39088 1.755381,-0.549559 2.7924539,-0.452084 0.558453,0.05249 1.432865,0.21935 1.821342,0.347559 l 0.156188,0.05155 v 3.834675 c 0,3.630154 -0.0045,3.83327 -0.08389,3.808319 -0.842475,-0.264684 -1.731243,-0.3803 -2.6965989,-0.35079 -0.954173,0.02917 -1.444619,0.140904 -2.2392001,0.510146 -0.28834,0.133992 -0.690426,0.286121 -0.89352398,0.338064 -0.704612,0.1802096 -1.65335597,0.2300396 -2.66740392,0.1400996 z"
     id="path4642"
     inkscape:connector-curvature="0" /><g
     id="g4636"
     transform="matrix(0.27654885,0,0,0.27654885,-7.0020986,-19.590371)"
     style="stroke:#89a02c;fill:#89a02c"><path
       id="path4581"
       d="M 51.371,3.146 C 50.912,2.961 40.012,-1.306 31.531,3.191 24.811,6.758 13.015,4.082 10,3.308 V 1 C 10,0.447 9.553,0 9,0 8.447,0 8,0.447 8,1 V 4 C 8,4.014 8.007,4.026 8.008,4.04 8.008,4.052 8,4.062 8,4.074 V 33 34.074 59 c 0,0.553 0.447,1 1,1 0.553,0 1,-0.447 1,-1 V 35.375 c 2.273,0.567 7.227,1.632 12.368,1.632 3.557,0 7.2,-0.511 10.101,-2.049 7.652,-4.061 18.056,0.004 18.16,0.045 0.309,0.124 0.657,0.086 0.932,-0.102 C 51.835,34.716 52,34.406 52,34.074 v -30 C 52,3.665 51.751,3.298 51.371,3.146 Z M 50,32.665 C 46.74,31.627 38.354,29.569 31.531,33.19 24.812,36.756 13.02,34.082 10,33.308 V 33 5.375 C 13.853,6.336 25.381,8.718 32.469,4.958 39.035,1.475 47.627,3.973 50,4.777 Z"
       inkscape:connector-curvature="0"
       style="stroke:#89a02c;fill:#89a02c" /><g
       id="g4583"
       style="stroke:#89a02c;fill:#89a02c" /><g
       id="g4585"
       style="stroke:#89a02c;fill:#89a02c" /><g
       id="g4587"
       style="stroke:#89a02c;fill:#89a02c" /><g
       id="g4589"
       style="stroke:#89a02c;fill:#89a02c" /><g
       id="g4591"
       style="stroke:#89a02c;fill:#89a02c" /><g
       id="g4593"
       style="stroke:#89a02c;fill:#89a02c" /><g
       id="g4595"
       style="stroke:#89a02c;fill:#89a02c" /><g
       id="g4597"
       style="stroke:#89a02c;fill:#89a02c" /><g
       id="g4599"
       style="stroke:#89a02c;fill:#89a02c" /><g
       id="g4601"
       style="stroke:#89a02c;fill:#89a02c" /><g
       id="g4603"
       style="stroke:#89a02c;fill:#89a02c" /><g
       id="g4605"
       style="stroke:#89a02c;fill:#89a02c" /><g
       id="g4607"
       style="stroke:#89a02c;fill:#89a02c" /><g
       id="g4609"
       style="stroke:#89a02c;fill:#89a02c" /><g
       id="g4611"
       style="stroke:#89a02c;fill:#89a02c" /></g><path
     style="opacity:1;fill:#ffffff;fill-opacity:1;stroke:#ffffff;stroke-width:0.04801503;stroke-linejoin:round;stroke-miterlimit:4;stroke-dasharray:none;stroke-dashoffset:0;stroke-opacity:1"
     d="m -7.6017661,-3.7681101 v -1.845672 h 0.3355767 0.3355767 v 0.8389418 0.8389419 h 0.9827605 0.9827605 v -0.8389419 -0.8389418 h 0.3355767 0.3355767 v 0.8389418 0.8389419 h 1.0067303 1.0067302 v -0.8389419 -0.8389418 h 0.3355767 0.3355768 v 1.845672 1.8456721 h -2.9962209 -2.9962209 z m 2.0134604,0.8389419 V -3.264745 h -0.3595465 -0.3595465 v 0.3355768 0.3355767 h 0.3595465 0.3595465 z m 1.342307,0 V -3.264745 h -0.3595465 -0.3595465 v 0.3355768 0.3355767 h 0.3595465 0.3595465 z m 1.3423069,0 V -3.264745 h -0.3595465 -0.3595465 v 0.3355768 0.3355767 h 0.3595465 0.3595465 z"
     id="path4664"
     inkscape:connector-curvature="0" /><g
     id="g4941"
     transform="matrix(0.01239012,0,0,0.01239012,0.90843108,-17.276056)"
     style="fill:#ffffff"><g
       id="g4885"
       style="fill:#ffffff"><path
         id="path4883"
         d="m 457.575,325.1 c 9.8,-12.5 14.5,-25.9 13.9,-39.7 -0.6,-15.2 -7.4,-27.1 -13,-34.4 6.5,-16.2 9,-41.7 -12.7,-61.5 -15.9,-14.5 -42.9,-21 -80.3,-19.2 -26.3,1.2 -48.3,6.1 -49.2,6.3 h -0.1 c -5,0.9 -10.3,2 -15.7,3.2 -0.4,-6.4 0.7,-22.3 12.5,-58.1 14,-42.6 13.2,-75.2 -2.6,-97 -16.6,-22.9 -43.1,-24.7 -50.9,-24.7 -7.5,0 -14.4,3.1 -19.3,8.8 -11.1,12.9 -9.8,36.7 -8.4,47.7 -13.2,35.4 -50.2,122.2 -81.5,146.3 -0.6,0.4 -1.1,0.9 -1.6,1.4 -9.2,9.7 -15.4,20.2 -19.6,29.4 -5.9,-3.2 -12.6,-5 -19.8,-5 h -61 c -23,0 -41.6,18.7 -41.6,41.6 v 162.5 c 0,23 18.7,41.6 41.6,41.6 h 61 c 8.9,0 17.2,-2.8 24,-7.6 l 23.5,2.8 c 3.6,0.5 67.6,8.6 133.3,7.3 11.9,0.9 23.1,1.4 33.5,1.4 17.9,0 33.5,-1.4 46.5,-4.2 30.6,-6.5 51.5,-19.5 62.1,-38.6 8.1,-14.6 8.1,-29.1 6.8,-38.3 19.9,-18 23.4,-37.9 22.7,-51.9 -0.4,-8.1 -2.2,-15 -4.1,-20.1 z m -409.3,122.2 c -8.1,0 -14.6,-6.6 -14.6,-14.6 V 270.1 c 0,-8.1 6.6,-14.6 14.6,-14.6 h 61 c 8.1,0 14.6,6.6 14.6,14.6 v 162.5 c 0,8.1 -6.6,14.6 -14.6,14.6 h -61 z m 383.7,-133.9 c -4.2,4.4 -5,11.1 -1.8,16.3 0,0.1 4.1,7.1 4.6,16.7 0.7,13.1 -5.6,24.7 -18.8,34.6 -4.7,3.6 -6.6,9.8 -4.6,15.4 0,0.1 4.3,13.3 -2.7,25.8 -6.7,12 -21.6,20.6 -44.2,25.4 -18.1,3.9 -42.7,4.6 -72.9,2.2 -0.4,0 -0.9,0 -1.4,0 -64.3,1.4 -129.3,-7 -130,-7.1 h -0.1 l -10.1,-1.2 c 0.6,-2.8 0.9,-5.8 0.9,-8.8 V 270.1 c 0,-4.3 -0.7,-8.5 -1.9,-12.4 1.8,-6.7 6.8,-21.6 18.6,-34.3 44.9,-35.6 88.8,-155.7 90.7,-160.9 0.8,-2.1 1,-4.4 0.6,-6.7 -1.7,-11.2 -1.1,-24.9 1.3,-29 5.3,0.1 19.6,1.6 28.2,13.5 10.2,14.1 9.8,39.3 -1.2,72.7 -16.8,50.9 -18.2,77.7 -4.9,89.5 6.6,5.9 15.4,6.2 21.8,3.9 6.1,-1.4 11.9,-2.6 17.4,-3.5 0.4,-0.1 0.9,-0.2 1.3,-0.3 30.7,-6.7 85.7,-10.8 104.8,6.6 16.2,14.8 4.7,34.4 3.4,36.5 -3.7,5.6 -2.6,12.9 2.4,17.4 0.1,0.1 10.6,10 11.1,23.3 0.4,8.9 -3.8,18 -12.5,27 z"
         inkscape:connector-curvature="0"
         style="fill:#ffffff" /></g><g
       id="g4887"
       style="fill:#ffffff" /><g
       id="g4889"
       style="fill:#ffffff" /><g
       id="g4891"
       style="fill:#ffffff" /><g
       id="g4893"
       style="fill:#ffffff" /><g
       id="g4895"
       style="fill:#ffffff" /><g
       id="g4897"
       style="fill:#ffffff" /><g
       id="g4899"
       style="fill:#ffffff" /><g
       id="g4901"
       style="fill:#ffffff" /><g
       id="g4903"
       style="fill:#ffffff" /><g
       id="g4905"
       style="fill:#ffffff" /><g
       id="g4907"
       style="fill:#ffffff" /><g
       id="g4909"
       style="fill:#ffffff" /><g
       id="g4911"
       style="fill:#ffffff" /><g
       id="g4913"
       style="fill:#ffffff" /><g
       id="g4915"
       style="fill:#ffffff" /></g><rect
     style="opacity:1;fill:#ffffff;fill-opacity:1;stroke:#000000;stroke-width:1.00157475;stroke-linejoin:round;stroke-miterlimit:4;stroke-dasharray:none;stroke-dashoffset:0;stroke-opacity:1"
     id="rect4531"
     width="9.4920282"
     height="9.4920282"
     x="-2.3422451"
     y="11.186225" /><text
     xml:space="preserve"
     style="font-style:normal;font-variant:normal;font-weight:normal;font-stretch:normal;font-size:5.33333349px;line-height:1.25;font-family:Arial;-inkscape-font-specification:'Arial, Normal';font-variant-ligatures:normal;font-variant-caps:normal;font-variant-numeric:normal;font-feature-settings:normal;text-align:center;letter-spacing:0px;word-spacing:0px;writing-mode:lr-tb;text-anchor:middle;fill:#000000;fill-opacity:1;stroke:none"
     x="-2.0339024"
     y="-10.547295"
     id="text4521"><tspan
       sodipodi:role="line"
       id="tspan4519"
       x="-2.0339024"
       y="-10.547295"
       style="font-size:10.66666698px;line-height:1.25;fill:#ffffff">+</tspan></text>
</svg>