<?xml version="1.0" encoding="UTF-8" standalone="no"?>
<!-- Generator: Adobe Illustrator 19.0.0, SVG Export Plug-In . SVG Version: 6.00 Build 0)  -->

<svg
   xmlns:dc="http://purl.org/dc/elements/1.1/"
   xmlns:cc="http://creativecommons.org/ns#"
   xmlns:rdf="http://www.w3.org/1999/02/22-rdf-syntax-ns#"
   xmlns:svg="http://www.w3.org/2000/svg"
   xmlns="http://www.w3.org/2000/svg"
   xmlns:sodipodi="http://sodipodi.sourceforge.net/DTD/sodipodi-0.dtd"
   xmlns:inkscape="http://www.inkscape.org/namespaces/inkscape"
   version="1.1"
   id="Layer_1"
   x="0px"
   y="0px"
   viewBox="0 0 511.999 511.999"
   style="enable-background:new 0 0 511.999 511.999;"
   xml:space="preserve"
   sodipodi:docname="seas_detail.svg"
   inkscape:version="0.92.1 r15371"><metadata
     id="metadata43"><rdf:RDF><cc:Work
         rdf:about=""><dc:format>image/svg+xml</dc:format><dc:type
           rdf:resource="http://purl.org/dc/dcmitype/StillImage" /></cc:Work></rdf:RDF></metadata><defs
     id="defs41" /><sodipodi:namedview
     pagecolor="#ffffff"
     bordercolor="#666666"
     borderopacity="1"
     objecttolerance="10"
     gridtolerance="10"
     guidetolerance="10"
     inkscape:pageopacity="0"
     inkscape:pageshadow="2"
     inkscape:window-width="1920"
     inkscape:window-height="1001"
     id="namedview39"
     showgrid="false"
     inkscape:zoom="0.92187681"
     inkscape:cx="-11.875202"
     inkscape:cy="319.31757"
     inkscape:window-x="-9"
     inkscape:window-y="-9"
     inkscape:window-maximized="1"
     inkscape:current-layer="Layer_1" /><path
     style="fill:#319fbc"
     d="m 249.49104,-14.68306 c -36.574,0 -36.574,-33.536 -73.147,-33.536 -36.573,0 -36.574,33.536 -73.147,33.536 -36.571998,0 -36.571998,-33.536 -73.143998,-33.536 -36.5720002,0 -36.5710002,33.536 -73.141,33.536 -36.569,0 -36.569,-33.536 -73.138002,-33.536 -36.57,0 -36.57,33.536 -73.141,33.536 -36.571,0 -36.571,-33.536 -73.141,-33.536 v 84.596 c 36.571,0 36.571,33.536 73.141,33.536 36.57,0 36.57,-33.536 73.141,-33.536 36.569002,0 36.569002,33.536 73.138002,33.536 36.5709998,0 36.5709998,-33.536 73.141,-33.536 36.572,0 36.572,33.536 73.143998,33.536 36.574,0 36.574,-33.536 73.147,-33.536 36.573,0 36.574,33.536 73.147,33.536"
     id="path2"
     inkscape:connector-curvature="0" /><path
     style="fill:#2690a8"
     d="m 395.49104,-139.27906 c -36.574,0 -36.574,-33.536 -73.147,-33.536 -36.573,0 -36.574,33.536 -73.147,33.536 -36.572,0 -36.572,-33.536 -73.144,-33.536 -36.572,0 -36.571,33.536 -73.141,33.536 -36.568998,0 -36.568998,-33.536 -73.138,-33.536 -36.57,0 -36.57,33.536 -73.141,33.536 -36.571,0 -36.571,-33.536 -73.141,-33.536 v 84.596 c 36.571,0 36.571,33.536 73.141,33.536 36.57,0 36.57,-33.536 73.141,-33.536 36.569002,0 36.569002,33.536 73.138,33.536 36.571,0 36.571,-33.536 73.141,-33.536 36.572,0 36.572,33.536 73.144,33.536 36.574,0 36.574,-33.536 73.147,-33.536 36.573,0 36.574,33.536 73.147,33.536"
     id="path4"
     inkscape:connector-curvature="0" /><path
     style="fill:#40b3db"
     d="m 103.49104,109.91394 c -36.574,0 -36.574,-33.536 -73.147,-33.536 -36.573,0 -36.574,33.536 -73.147,33.536 -36.571998,0 -36.571998,-33.536 -73.144,-33.536 -36.572,0 -36.571,33.536 -73.141,33.536 -36.569,0 -36.569,-33.536 -73.138,-33.536 -36.57,0 -36.57,33.536 -73.141,33.536 -36.571,0 -36.571,-33.537 -73.141,-33.537 v 84.596 c 36.571,0 36.571,33.536 73.141,33.536 36.57,0 36.57,-33.536 73.141,-33.536 36.569,0 36.569,33.536 73.138,33.536 36.571,0 36.571,-33.536 73.141,-33.536 36.572002,0 36.572002,33.536 73.144,33.536 36.574,0 36.574,-33.536 73.147,-33.536 36.573,0 36.574,33.536 73.147,33.536"
     id="path6"
     inkscape:connector-curvature="0" /><g
     id="g8"
     transform="translate(-262.50796,-245.15206)" /><g
     id="g10"
     transform="translate(-262.50796,-245.15206)" /><g
     id="g12"
     transform="translate(-262.50796,-245.15206)" /><g
     id="g14"
     transform="translate(-262.50796,-245.15206)" /><g
     id="g16"
     transform="translate(-262.50796,-245.15206)" /><g
     id="g18"
     transform="translate(-262.50796,-245.15206)" /><g
     id="g20"
     transform="translate(-262.50796,-245.15206)" /><g
     id="g22"
     transform="translate(-262.50796,-245.15206)" /><g
     id="g24"
     transform="translate(-262.50796,-245.15206)" /><g
     id="g26"
     transform="translate(-262.50796,-245.15206)" /><g
     id="g28"
     transform="translate(-262.50796,-245.15206)" /><g
     id="g30"
     transform="translate(-262.50796,-245.15206)" /><g
     id="g32"
     transform="translate(-262.50796,-245.15206)" /><g
     id="g34"
     transform="translate(-262.50796,-245.15206)" /><g
     id="g36"
     transform="translate(-262.50796,-245.15206)" /></svg>