<?xml version="1.0" encoding="UTF-8" standalone="no"?>
<svg
   xmlns:dc="http://purl.org/dc/elements/1.1/"
   xmlns:cc="http://creativecommons.org/ns#"
   xmlns:rdf="http://www.w3.org/1999/02/22-rdf-syntax-ns#"
   xmlns:svg="http://www.w3.org/2000/svg"
   xmlns="http://www.w3.org/2000/svg"
   xml:space="preserve"
   style="enable-background:new 0 0 511.998 511.998;"
   viewBox="0 0 511.998 511.998"
   y="0px"
   x="0px"
   id="Capa_1"
   version="1.1"><metadata
     id="metadata71"><rdf:RDF><cc:Work
         rdf:about=""><dc:format>image/svg+xml</dc:format><dc:type
           rdf:resource="http://purl.org/dc/dcmitype/StillImage" /><dc:title></dc:title></cc:Work></rdf:RDF></metadata><defs
     id="defs69" /><path
     id="path2"
     d="m 170.21842,-3.1690199 h -318.742 c -2.765,0 -5.007,-2.241 -5.007,-5.007 V -266.24802 h 328.755 V -8.1760199 c 0,2.766 -2.242,5.007 -5.006,5.007 z"
     style="fill:#b7c1ca" /><path
     id="path4"
     d="M 175.22242,-266.25002 V -8.1720199 c 0,2.765 -2.242,5.007 -5.007,5.007 h -26.394 V -266.25002 Z"
     style="fill:#a3aeb7" /><polygon
     transform="translate(-245.15158,-507.65902)"
     id="polygon6"
     points="255.992,171.074 63.264,171.074 91.629,241.411 255.992,241.411 256.005,241.411 420.368,241.411 448.733,171.074 256.005,171.074 "
     style="fill:#b7c1ca" /><polygon
     transform="translate(-245.15158,-507.65902)"
     id="polygon8"
     points="420.363,241.409 388.973,241.409 417.329,171.077 448.73,171.077 "
     style="fill:#a3aeb7" /><path
     id="path10"
     d="m 137.56442,-495.14302 v 21.786 c 0,2.765 -2.242,5.007 -5.007,5.007 H 48.623422 c -2.765,0 -5.007,-2.242 -5.007,-5.007 v -21.786 c 0,-2.765 -2.242,-5.007 -5.007,-5.007 h -27.658 -0.212 -27.658 c -2.765,0 -5.007,2.242 -5.007,5.007 v 21.786 c 0,2.765 -2.242,5.007 -5.007,5.007 h -83.934002 c -2.765,0 -5.007,-2.242 -5.007,-5.007 v -21.786 c 0,-2.765 -2.242,-5.007 -5.007,-5.007 h -56 c -2.765,0 -5.007,2.242 -5.007,5.007 v 158.558 h 192.629002 0.212 192.628998 v -158.558 c 0,-2.765 -2.241,-5.007 -5.007,-5.007 h -56.004 c -2.765,10e-4 -5.007,2.242 -5.007,5.007 z"
     style="fill:#b7c1ca" /><path
     id="path12"
     d="m 203.57842,-495.13902 v 158.558 h -31.401 v -158.558 c 0,-2.764 -2.243,-5.007 -5.007,-5.007 h 31.401 c 2.765,0 5.007,2.243 5.007,5.007 z"
     style="fill:#a3aeb7" /><path
     id="path14"
     d="m 69.627422,-3.1690199 h -117.56 V -76.93302 c 0,-32.463 26.317,-58.78 58.78,-58.78 v 0 c 32.463,0 58.78,26.317 58.78,58.78 z"
     style="fill:#ffdba9" /><path
     id="path16"
     d="m 69.624422,-76.93502 v 73.7670001 h -27.035 V -76.93502 c 0,-16.231 -6.579,-30.931 -17.213,-41.564 -7.59,-7.59 -17.243,-13.107 -28.047,-15.651 4.346,-1.021 8.862,-1.562 13.518,-1.562 16.231,0 30.92,6.579 41.564,17.213 10.634,10.633 17.213,25.332 17.213,41.564 z"
     style="fill:#ffc473" /><path
     id="path18"
     d="m 203.58142,-422.38002 c 4.148,0 7.51,-3.362 7.51,-7.51 v -65.253 c 0,-6.901 -5.614,-12.516 -12.516,-12.516 h -56.004 c -6.902,0 -12.516,5.615 -12.516,12.516 v 19.283 H 51.127422 v -19.283 c 0,-6.901 -5.615,-12.516 -12.516,-12.516 h -55.527 c -6.902,0 -12.516,5.615 -12.516,12.516 v 19.283 h -78.928002 v -19.283 c -0.001,-6.901 -5.616,-12.516 -12.517,-12.516 h -56.004 c -6.902,0 -12.517,5.615 -12.517,12.516 v 158.558 c 0,0.022 0.003,0.044 0.003,0.066 0.001,0.082 0.009,0.164 0.012,0.245 0.008,0.206 0.022,0.411 0.047,0.613 0.011,0.089 0.026,0.177 0.04,0.265 0.033,0.204 0.073,0.406 0.122,0.604 0.019,0.078 0.038,0.155 0.06,0.233 0.065,0.233 0.141,0.461 0.228,0.684 0.013,0.032 0.02,0.066 0.033,0.098 l 0.035,0.086 c 0.006,0.014 0.011,0.028 0.017,0.042 l 27.761,68.839 V -8.1770199 c 0,6.902 5.615,12.516 12.516,12.516 h 100.590002 117.561 100.590998 c 6.902,0 12.516,-5.615 12.516,-12.516 V -80.93502 c 0,-4.148 -3.362,-7.51 -7.51,-7.51 -4.148,0 -7.51,3.362 -7.51,7.51 v 70.255 H 77.137422 v -66.254 c 0,-36.553 -29.737,-66.29 -66.29,-66.29 -36.553,0 -66.29,29.738 -66.29,66.29 v 66.254 h -90.578002 v -248.058 h 313.735 v 66.068 h -23.584 c -4.148,0 -7.51,3.362 -7.51,7.51 0,4.148 3.362,7.51 7.51,7.51 h 23.584 v 50.156 c 0,4.148 3.362,7.51 7.51,7.51 4.148,0 7.51,-3.362 7.51,-7.51 v -137.315 l 27.764,-68.844 c 0.003,-0.008 0.007,-0.017 0.01,-0.025 l 0.039,-0.097 c 0.015,-0.036 0.023,-0.074 0.037,-0.11 0.084,-0.218 0.159,-0.441 0.223,-0.669 0.022,-0.08 0.042,-0.16 0.062,-0.241 0.048,-0.196 0.087,-0.394 0.12,-0.595 0.015,-0.091 0.03,-0.182 0.042,-0.273 0.024,-0.197 0.037,-0.397 0.046,-0.599 0.004,-0.087 0.012,-0.173 0.013,-0.26 0,-0.021 0.003,-0.042 0.003,-0.063 v -46.244 c 0,-4.148 -3.362,-7.51 -7.51,-7.51 -4.148,0 -7.51,3.362 -7.51,7.51 v 38.735 h -370.451 v -66.763 h 54.053 c 4.148,0 7.51,-3.362 7.51,-7.51 0,-4.148 -3.362,-7.51 -7.51,-7.51 h -54.053 v -66.762 h 50.997 v 19.283 c 0,6.902 5.615,12.516 12.516,12.516 h 83.935002 c 6.902,0 12.516,-5.615 12.516,-12.516 v -19.283 h 50.521 v 19.283 c 0,6.902 5.615,12.516 12.516,12.516 h 83.933998 c 6.902,0 12.516,-5.615 12.516,-12.516 v -19.283 h 50.997 v 62.749 c 0.002,4.147 3.364,7.51 7.511,7.51 z m -244.004998,345.448 c 0,-28.271 23,-51.271 51.271,-51.271 28.27,0 51.27,23 51.27,51.271 v 66.254 h -102.541 z m 232.879998,-252.143 -22.309,55.317 h -318.601 l -22.308,-55.317 z" /><path
     id="path20"
     d="m -98.897578,-385.94902 c -4.148002,0 -7.510002,3.362 -7.510002,7.51 0,4.148 3.362,7.51 7.510002,7.51 h 30.781 c 4.148,0 7.51,-3.362 7.51,-7.51 0,-4.148 -3.362,-7.51 -7.51,-7.51 z" /><path
     id="path22"
     d="m 140.11642,-60.19702 h -30.781 c -4.148,0 -7.51,3.362 -7.51,7.51 0,4.148 3.362,7.51 7.51,7.51 h 30.781 c 4.148,0 7.51,-3.362 7.51,-7.51 0,-4.148 -3.361,-7.51 -7.51,-7.51 z" /><path
     id="path24"
     d="m 102.33842,-427.80402 c -4.147998,0 -7.509998,3.362 -7.509998,7.51 0,4.148 3.362,7.51 7.509998,7.51 h 30.781 c 4.148,0 7.51,-3.362 7.51,-7.51 0,-4.148 -3.362,-7.51 -7.51,-7.51 z" /><path
     id="path26"
     d="m 9.369422,-192.15902 c -4.148,0 -7.51,3.362 -7.51,7.51 0,4.148 3.362,7.51 7.51,7.51 h 15.391 c 4.148,0 7.51,-3.362 7.51,-7.51 0,-4.148 -3.362,-7.51 -7.51,-7.51 z" /><path
     id="path28"
     d="m 140.81442,-132.76602 h -15.39 c -4.148,0 -7.51,3.362 -7.51,7.51 0,4.148 3.362,7.51 7.51,7.51 h 15.39 c 4.148,0 7.51,-3.362 7.51,-7.51 0,-4.148 -3.363,-7.51 -7.51,-7.51 z" /><path
     id="path30"
     d="m -120.32458,-73.47802 c -4.148,0 -7.51,3.362 -7.51,7.51 0,4.148 3.362,7.51 7.51,7.51 h 15.391 c 4.148,0 7.510002,-3.362 7.510002,-7.51 0,-4.148 -3.362002,-7.51 -7.510002,-7.51 z" /><path
     id="path32"
     d="m 90.443422,-231.83502 c 0,-4.148 -3.362,-7.51 -7.51,-7.51 h -56.392 c -4.148,0 -7.51,3.362 -7.51,7.51 0,4.148 3.362,7.51 7.51,7.51 h 56.392 c 4.148,-0.001 7.51,-3.363 7.51,-7.51 z" /><path
     id="path34"
     d="m -39.921578,-151.80002 c 4.148,0 7.51,-3.362 7.51,-7.51 0,-4.148 -3.362,-7.51 -7.51,-7.51 h -56.392 c -4.147002,0 -7.510002,3.362 -7.510002,7.51 0,4.148 3.362,7.51 7.510002,7.51 z" /><g
     transform="translate(-245.15158,-507.65902)"
     id="g36" /><g
     transform="translate(-245.15158,-507.65902)"
     id="g38" /><g
     transform="translate(-245.15158,-507.65902)"
     id="g40" /><g
     transform="translate(-245.15158,-507.65902)"
     id="g42" /><g
     transform="translate(-245.15158,-507.65902)"
     id="g44" /><g
     transform="translate(-245.15158,-507.65902)"
     id="g46" /><g
     transform="translate(-245.15158,-507.65902)"
     id="g48" /><g
     transform="translate(-245.15158,-507.65902)"
     id="g50" /><g
     transform="translate(-245.15158,-507.65902)"
     id="g52" /><g
     transform="translate(-245.15158,-507.65902)"
     id="g54" /><g
     transform="translate(-245.15158,-507.65902)"
     id="g56" /><g
     transform="translate(-245.15158,-507.65902)"
     id="g58" /><g
     transform="translate(-245.15158,-507.65902)"
     id="g60" /><g
     transform="translate(-245.15158,-507.65902)"
     id="g62" /><g
     transform="translate(-245.15158,-507.65902)"
     id="g64" /></svg>