<?xml version="1.0" encoding="UTF-8" standalone="no"?>
<svg
   xmlns:dc="http://purl.org/dc/elements/1.1/"
   xmlns:cc="http://creativecommons.org/ns#"
   xmlns:rdf="http://www.w3.org/1999/02/22-rdf-syntax-ns#"
   xmlns:svg="http://www.w3.org/2000/svg"
   xmlns="http://www.w3.org/2000/svg"
   xmlns:sodipodi="http://sodipodi.sourceforge.net/DTD/sodipodi-0.dtd"
   xmlns:inkscape="http://www.inkscape.org/namespaces/inkscape"
   xml:space="preserve"
   style="enable-background:new 0 0 512.001 512.001;"
   viewBox="0 0 512.001 512.001"
   y="0px"
   x="0px"
   id="Layer_1"
   version="1.1"
   sodipodi:docname="treasure.svg"
   inkscape:version="0.92.1 r15371"><sodipodi:namedview
     pagecolor="#ffffff"
     bordercolor="#666666"
     borderopacity="1"
     objecttolerance="10"
     gridtolerance="10"
     guidetolerance="10"
     inkscape:pageopacity="0"
     inkscape:pageshadow="2"
     inkscape:window-width="1271"
     inkscape:window-height="742"
     id="namedview81"
     showgrid="false"
     inkscape:zoom="29.499944"
     inkscape:cx="-1.6308504"
     inkscape:cy="508.96955"
     inkscape:window-x="357"
     inkscape:window-y="27"
     inkscape:window-maximized="0"
     inkscape:current-layer="Layer_1" /><metadata
     id="metadata159"><rdf:RDF><cc:Work
         rdf:about=""><dc:format>image/svg+xml</dc:format><dc:type
           rdf:resource="http://purl.org/dc/dcmitype/StillImage" /><dc:title /></cc:Work></rdf:RDF></metadata><defs
     id="defs157" /><rect
     style="opacity:0.8;fill:#ffffff;fill-opacity:1;stroke:#808080;stroke-width:1;stroke-linejoin:round;stroke-miterlimit:4;stroke-dasharray:2, 1;stroke-dashoffset:0;stroke-opacity:1"
     id="rect4558"
     width="9.5794153"
     height="9.5794153"
     x="-4.7505784"
     y="-4.6529188" /><path
     inkscape:connector-curvature="0"
     id="path2"
     d="m 2.9981049,-3.4916696 h -5.8672301 c -0.1613565,0 -0.293367,0.1320104 -0.293367,0.293367 v 3.59372215 c 0,0.16135656 0.1320105,0.293367 0.293367,0.293367 h 5.8672458 c 0.1613566,0 0.293367,-0.13201044 0.293367,-0.293367 V -3.1983026 c -1.57e-5,-0.1613566 -0.1320261,-0.293367 -0.2933827,-0.293367 z"
     style="fill:#cc7400;stroke-width:0.01569311" /><g
     transform="matrix(0.01569311,0,0,0.01569311,-3.9783142,-3.8806548)"
     id="g8"><path
       inkscape:connector-curvature="0"
       id="path4"
       d="m 127.687,272.48 v -229 c 0,-10.282 8.412,-18.694 18.694,-18.694 H 70.68 c -10.282,0 -18.694,8.412 -18.694,18.694 v 229 c 0,10.282 8.412,18.694 18.694,18.694 h 75.702 c -10.282,0 -18.695,-8.412 -18.695,-18.694 z"
       style="fill:#aa6100" /><path
       inkscape:connector-curvature="0"
       id="path6"
       d="M 435.791,42.312 H 79.443 c -5.141,0 -9.347,4.207 -9.347,9.347 v 211.474 c 0,5.14 4.207,9.347 9.347,9.347 h 356.348 c 5.14,0 9.347,-4.206 9.347,-9.347 V 51.659 c -10e-4,-5.141 -4.207,-9.347 -9.347,-9.347 z"
       style="fill:#aa6100" /></g><g
     transform="matrix(0.01569311,0,0,0.01569311,-3.9783142,-3.8806548)"
     id="g14"><path
       inkscape:connector-curvature="0"
       id="path10"
       d="m 127.687,43.48 c 0,-0.394 0.035,-0.78 0.06,-1.168 H 79.443 c -5.14,0 -9.347,4.207 -9.347,9.347 v 211.474 c 0,5.14 4.207,9.347 9.347,9.347 h 48.246 v 0 -229 z"
       style="fill:#9a4c00" /><path
       inkscape:connector-curvature="0"
       id="path12"
       d="m 70.096,51.659 v 61.454 H 445.138 V 51.659 c 0,-5.141 -4.207,-9.347 -9.347,-9.347 H 79.443 c -5.142,0 -9.347,4.206 -9.347,9.347 z"
       style="fill:#9a4c00" /></g><path
     inkscape:connector-curvature="0"
     id="path16"
     d="m -1.9735665,-3.2166479 h -0.75804 c -0.080663,0 -0.1466835,0.066021 -0.1466835,0.1466835 V -2.10556 h 0.9037976 v -1.0927583 c -1.57e-5,-0.00618 5.493e-4,-0.012225 9.259e-4,-0.01833 z"
     style="fill:#663a00;stroke-width:0.01569311" /><path
     inkscape:connector-curvature="0"
     id="path18"
     d="M 3.0072697,-0.03003635 V -0.99444073 H -2.87829 v 0.96440438 c 0,0.08066258 0.066021,0.1466835 0.1466835,0.1466835 h 5.5922084 c 0.080663,-1.57e-5 0.1466678,-0.06600522 0.1466678,-0.1466835 z"
     style="fill:#9a4c00;stroke-width:0.01569311" /><path
     inkscape:connector-curvature="0"
     id="path20"
     d="m 0.35532238,-3.2220149 h -0.58168082 c -0.0349956,0 -0.0636356,-0.02864 -0.0636356,-0.063636 v -0.4120383 c 0,-0.034996 0.0286399,-0.063636 0.0636356,-0.063636 h 0.58168082 c 0.0349956,0 0.0636356,0.02864 0.0636356,0.063636 v 0.4120069 c 0,0.035027 -0.0286399,0.063667 -0.0636356,0.063667 z"
     style="fill:#c6c5ca;stroke-width:0.01569311" /><path
     inkscape:connector-curvature="0"
     id="path22"
     d="m 0.06449766,-3.2856662 v -0.4120226 c 0,-0.034996 0.02863993,-0.063636 0.06363556,-0.063636 h -0.35447597 c -0.0349956,0 -0.0636356,0.02864 -0.0636356,0.063636 v 0.4120069 c 0,0.034996 0.0286399,0.063636 0.0636356,0.063636 h 0.35447597 c -0.03499563,3.14e-5 -0.06363556,-0.028609 -0.06363556,-0.06362 z"
     style="fill:#acabb1;stroke-width:0.01569311" /><path
     inkscape:connector-curvature="0"
     id="path24"
     d="m -1.9735665,0.11663145 h -0.75804 c -0.080663,0 -0.1466835,-0.06602091 -0.1466835,-0.14668349 v -0.96440439 h 0.9037976 V 0.0983019 c -1.57e-5,0.0061988 5.493e-4,0.01224063 9.259e-4,0.01832955 z"
     style="fill:#663a00;stroke-width:0.01569311" /><circle
     id="circle26"
     r="0.40571398"
     cy="-1.0286671"
     cx="-2.0877967"
     style="fill:#ffd422;stroke-width:0.01569311" /><circle
     id="circle28"
     r="0.40571398"
     cy="-1.0286671"
     cx="-1.378829"
     style="fill:#eebf00;stroke-width:0.01569311" /><circle
     id="circle30"
     r="0.40571398"
     cy="-1.0286671"
     cx="-0.66984576"
     style="fill:#ffd422;stroke-width:0.01569311" /><circle
     id="circle32"
     r="0.40571398"
     cy="-1.0286671"
     cx="0.03913771"
     style="fill:#eebf00;stroke-width:0.01569311" /><circle
     id="circle34"
     r="0.40571398"
     cy="-1.0286671"
     cx="0.74810541"
     style="fill:#ffd422;stroke-width:0.01569311" /><circle
     id="circle36"
     r="0.40571398"
     cy="-1.0286671"
     cx="1.4570884"
     style="fill:#eebf00;stroke-width:0.01569311" /><circle
     id="circle38"
     r="0.40571398"
     cy="-1.0286671"
     cx="2.1660719"
     style="fill:#ffd422;stroke-width:0.01569311" /><circle
     id="circle40"
     r="0.40571398"
     cy="-0.54960388"
     cx="-2.4422884"
     style="fill:#ffe477;stroke-width:0.01569311" /><circle
     id="circle42"
     r="0.40571398"
     cy="-0.54960388"
     cx="-1.7333207"
     style="fill:#ffd422;stroke-width:0.01569311" /><circle
     id="circle44"
     r="0.40571398"
     cy="-0.54960388"
     cx="-1.0243375"
     style="fill:#ffe477;stroke-width:0.01569311" /><circle
     id="circle46"
     r="0.40571398"
     cy="-0.54960388"
     cx="-0.31535405"
     style="fill:#ffd422;stroke-width:0.01569311" /><circle
     id="circle48"
     r="0.40571398"
     cy="-0.54960388"
     cx="0.39361337"
     style="fill:#ffe477;stroke-width:0.01569311" /><circle
     id="circle50"
     r="0.40571398"
     cy="-0.54960388"
     cx="1.1025969"
     style="fill:#ffd422;stroke-width:0.01569311" /><circle
     id="circle52"
     r="0.40571398"
     cy="-0.54960388"
     cx="1.8115802"
     style="fill:#ffe477;stroke-width:0.01569311" /><circle
     id="circle54"
     r="0.40571398"
     cy="-0.54960388"
     cx="2.5205481"
     style="fill:#ffd422;stroke-width:0.01569311" /><g
     transform="matrix(0.01569311,0,0,0.01569311,-3.9783142,-3.8806548)"
     id="g60"><path
       inkscape:connector-curvature="0"
       id="path56"
       d="M 49.213,322.139 H 17.667 c -5.141,0 -9.347,4.206 -9.347,9.347 v 60.553 c 0,5.141 4.207,9.347 9.347,9.347 h 31.546 c 5.141,0 9.347,-4.206 9.347,-9.347 v -60.553 c 0,-5.14 -4.206,-9.347 -9.347,-9.347 z"
       style="fill:#acabb1" /><path
       inkscape:connector-curvature="0"
       id="path58"
       d="m 494.334,322.139 h -31.546 c -5.14,0 -9.347,4.206 -9.347,9.347 v 60.553 c 0,5.141 4.206,9.347 9.347,9.347 h 31.545 c 5.14,0 9.347,-4.206 9.347,-9.347 v -60.553 c 10e-4,-5.14 -4.206,-9.347 -9.346,-9.347 z"
       style="fill:#acabb1" /></g><path
     inkscape:connector-curvature="0"
     id="path62"
     d="M 3.2200997,-0.39849488 H -3.14184 c -0.1714316,0 -0.3116966,0.14026502 -0.3116966,0.31169655 V 3.7232064 c 0,0.1714315 0.140265,0.3116965 0.3116966,0.3116965 h 6.3619397 c 0.1714315,0 0.3116965,-0.140265 0.3116965,-0.3116965 v -3.81000473 c 0,-0.17143153 -0.140265,-0.31169655 -0.3116965,-0.31169655 z"
     style="fill:#aa6100;stroke-width:0.01569311" /><path
     inkscape:connector-curvature="0"
     id="path64"
     d="m -1.7323791,3.7232064 v -3.81000473 c 0,-0.17143153 0.1402651,-0.31169655 0.3116965,-0.31169655 H -3.14184 c -0.1714316,0 -0.3116966,0.14026502 -0.3116966,0.31169655 V 3.7231907 c 0,0.1714315 0.140265,0.3116965 0.3116966,0.3116965 h 1.7211574 c -0.1714314,0 -0.3116965,-0.1402493 -0.3116965,-0.3116808 z"
     style="fill:#9a4c00;stroke-width:0.01569311" /><path
     inkscape:connector-curvature="0"
     id="path66"
     d="m 2.8533988,0.15156432 h -5.6285223 c -0.070603,0 -0.1283539,0.0577506 -0.1283539,0.12835394 V 3.3565055 c 0,0.070603 0.057751,0.1283539 0.1283539,0.1283539 h 5.628538 c 0.070603,0 0.1283539,-0.057751 0.1283539,-0.1283539 V 0.27990257 C 2.981737,0.20931496 2.9239864,0.15156432 2.8533988,0.15156432 Z"
     style="fill:#ee8700;stroke-width:0.01569311" /><g
     transform="matrix(0.01569311,0,0,0.01569311,-3.9783142,-3.8806548)"
     id="g74"><path
       inkscape:connector-curvature="0"
       id="path68"
       d="m 76.67,256.942 c -4.499,0 -8.179,3.68 -8.179,8.179 v 196.047 c 0,4.499 3.68,8.179 8.179,8.179 h 66.447 V 256.943 H 76.67 Z"
       style="fill:#cc7400" /><path
       inkscape:connector-curvature="0"
       id="path70"
       d="m 68.491,265.12 v 62.623 H 443.51 V 265.12 c 0,-4.499 -3.68,-8.179 -8.179,-8.179 H 76.67 c -4.499,0.001 -8.179,3.681 -8.179,8.179 z"
       style="fill:#cc7400" /><path
       inkscape:connector-curvature="0"
       id="path72"
       d="M 443.51,461.167 V 398.544 H 68.491 v 62.623 c 0,4.499 3.68,8.179 8.179,8.179 h 358.663 c 4.497,0 8.177,-3.68 8.177,-8.179 z"
       style="fill:#cc7400" /></g><g
     transform="matrix(0.01569311,0,0,0.01569311,-3.9783142,-3.8806548)"
     id="g80"><path
       inkscape:connector-curvature="0"
       id="path76"
       d="m 76.67,256.942 c -4.499,0 -8.179,3.68 -8.179,8.179 v 62.623 h 74.625 V 256.943 H 76.67 Z"
       style="fill:#aa6100" /><path
       inkscape:connector-curvature="0"
       id="path78"
       d="m 68.491,398.544 v 62.623 c 0,4.499 3.68,8.179 8.179,8.179 h 66.447 v -70.801 z"
       style="fill:#aa6100" /></g><rect
     id="rect82"
     height="3.3332794"
     width="0.55004352"
     style="fill:#9a4c00;stroke-width:0.01569311"
     y="0.15157995"
     x="-0.23596275" /><path
     inkscape:connector-curvature="0"
     id="path84"
     d="M -2.1838385,-0.39849488 H -3.14184 c -0.1714316,0 -0.3116966,0.14026502 -0.3116966,0.31169655 v 0.95800159 c 1.57e-5,0.12144898 0.1459459,0.0943156 0.1555658,0.091789 v 1.57e-5 c 0.3944934,-0.0878657 0.3944934,-0.6830897 0.3944934,-0.6830897 0,-0.0706033 0.057751,-0.12835394 0.1283539,-0.12835394 0,0 0.575231,0 0.6830897,-0.3944934 h -1.57e-5 c 0.00253,-0.009604 0.02966,-0.15555011 -0.091789,-0.1555658 z"
     style="fill:#c6c5ca;stroke-width:0.01569311" /><path
     inkscape:connector-curvature="0"
     id="path86"
     d="M -2.4077164,-0.39849488 H -3.14184 c -0.1714316,0 -0.3116966,0.14026502 -0.3116966,0.31169655 v 0.95800159 c 1.57e-5,0.12144898 0.1459459,0.0943156 0.1555658,0.091789 v 1.57e-5 c 0.3944934,-0.0878657 0.3944934,-0.6830897 0.3944934,-0.6830897 0,-0.0706033 0.057751,-0.12835394 0.1283539,-0.12835394 0,0 0.02106,-1.57e-5 0.055726,-0.002762 v -0.23558497 c -1.57e-5,-0.17144722 0.1402493,-0.31171224 0.3116811,-0.31171223 z"
     style="fill:#acabb1;stroke-width:0.01569311" /><g
     transform="matrix(0.01569311,0,0,0.01569311,-3.9783142,-3.8806548)"
     id="g94"><path
       inkscape:connector-curvature="0"
       id="path88"
       d="m 33.44,423.489 v 61.046 c 0,10.924 8.938,19.862 19.862,19.862 h 61.046 c 7.739,-10e-4 6.01,-9.3 5.849,-9.913 h 10e-4 C 114.599,469.346 76.67,469.346 76.67,469.346 c -4.499,0 -8.179,-3.68 -8.179,-8.179 0,0 0,-36.655 -25.138,-43.528 v 10e-4 c -0.612,-0.161 -9.912,-1.891 -9.913,5.849 z"
       style="fill:#c6c5ca" /><path
       inkscape:connector-curvature="0"
       id="path90"
       d="m 397.653,504.396 h 61.046 c 10.924,0 19.862,-8.938 19.862,-19.862 v -61.046 c -10e-4,-7.739 -9.3,-6.01 -9.913,-5.849 v -0.001 c -25.138,5.599 -25.138,43.528 -25.138,43.528 0,4.499 -3.68,8.179 -8.179,8.179 0,0 -36.655,0 -43.528,25.138 h 10e-4 c -0.161,0.613 -1.89,9.913 5.849,9.913 z"
       style="fill:#c6c5ca" /><path
       inkscape:connector-curvature="0"
       id="path92"
       d="m 478.561,302.799 v -61.046 c 0,-10.924 -8.938,-19.862 -19.862,-19.862 h -61.046 c -7.739,0.001 -6.01,9.3 -5.849,9.913 h -10e-4 c 5.599,25.138 43.528,25.138 43.528,25.138 4.499,0 8.179,3.68 8.179,8.179 0,0 0,36.655 25.138,43.528 v -10e-4 c 0.612,0.161 9.912,1.89 9.913,-5.849 z"
       style="fill:#c6c5ca" /></g><g
     transform="matrix(0.01569311,0,0,0.01569311,-3.9783142,-3.8806548)"
     id="g100"><path
       inkscape:connector-curvature="0"
       id="path96"
       d="m 456.618,255.713 c 0,-4.498 -3.68,-8.179 -8.179,-8.179 0,0 -37.93,0 -43.528,-25.138 h 10e-4 c -0.017,-0.067 -0.056,-0.253 -0.096,-0.507 h -7.162 c -7.739,10e-4 -6.01,9.3 -5.849,9.913 h -0.001 c 5.599,25.138 43.528,25.138 43.528,25.138 4.499,0 8.179,3.68 8.179,8.179 0,0 0,36.655 25.138,43.528 v -10e-4 c 0.612,0.161 9.913,1.89 9.913,-5.849 v -4.666 c -21.927,-8.974 -21.944,-42.418 -21.944,-42.418 z"
       style="fill:#acabb1" /><path
       inkscape:connector-curvature="0"
       id="path98"
       d="m 444.738,482.453 c 4.499,0 8.179,-3.68 8.179,-8.179 0,0 0,-37.93 25.138,-43.528 v 0.001 c 0.067,-0.017 0.253,-0.056 0.507,-0.096 v -7.162 c -0.001,-7.739 -9.3,-6.01 -9.913,-5.849 v -10e-4 c -25.138,5.599 -25.138,43.528 -25.138,43.528 0,4.499 -3.68,8.179 -8.179,8.179 0,0 -36.655,0 -43.528,25.138 h 0.001 c -0.161,0.612 -1.89,9.913 5.849,9.913 h 4.666 c 8.975,-21.927 42.418,-21.944 42.418,-21.944 z"
       style="fill:#acabb1" /></g><path
     inkscape:connector-curvature="0"
     id="path102"
     d="m 0.2596101,0.0406768 h -0.44097639 c -0.0706033,0 -0.12835395,0.05775065 -0.12835395,0.12835395 v 0.72663807 c 0,0.0706033 0.0577506,0.12835398 0.12835395,0.12835398 H 0.2595944 c 0.0706033,0 0.12835395,-0.0577507 0.12835395,-0.12835398 V 0.16903075 c 0,-0.07058761 -0.0577506,-0.12835395 -0.12833825,-0.12835395 z"
     style="fill:#c6c5ca;stroke-width:0.01569311" /><g
     transform="matrix(0.01569311,0,0,0.01569311,-3.9783142,-3.8806548)"
     id="g108"><path
       inkscape:connector-curvature="0"
       id="path104"
       d="m 256.36,304.358 v -46.303 c 0,-4.498 3.68,-8.179 8.179,-8.179 h -22.588 c -4.499,0 -8.179,3.68 -8.179,8.179 v 46.303 c 0,4.499 3.68,8.179 8.179,8.179 h 22.588 c -4.498,-10e-4 -8.179,-3.681 -8.179,-8.179 z"
       style="fill:#acabb1" /><path
       inkscape:connector-curvature="0"
       id="path106"
       d="m 100.082,504.396 h -46.78 c -10.924,0 -19.862,-8.938 -19.862,-19.862 v -61.046 c 0.001,-7.739 9.3,-6.01 9.913,-5.849 v -0.001 c 25.138,5.599 25.138,43.528 25.138,43.528 0,4.499 3.68,8.179 8.179,8.179 0,0 1.342,10e-4 3.551,0.176 v 15.012 c -0.001,10.926 8.937,19.863 19.861,19.863 z"
       style="fill:#acabb1" /></g><g
     transform="matrix(0.01569311,0,0,0.01569311,-3.9783142,-3.8806548)"
     id="g118"><path
       inkscape:connector-curvature="0"
       id="path110"
       d="m 54.918,255.74 c -2.358,0 -4.656,-0.953 -6.31,-2.62 -1.668,-1.656 -2.62,-3.965 -2.62,-6.31 0,-2.346 0.952,-4.656 2.62,-6.311 1.655,-1.667 3.952,-2.619 6.31,-2.619 2.357,0 4.656,0.952 6.31,2.619 1.668,1.656 2.62,3.965 2.62,6.311 0,2.345 -0.952,4.656 -2.62,6.31 -1.654,1.667 -3.952,2.62 -6.31,2.62 z"
       style="fill:#3e3d42" /><path
       inkscape:connector-curvature="0"
       id="path112"
       d="m 457.083,255.74 c -2.358,0 -4.656,-0.953 -6.31,-2.62 -1.668,-1.656 -2.62,-3.965 -2.62,-6.31 0,-2.346 0.952,-4.656 2.62,-6.311 1.655,-1.667 3.952,-2.619 6.31,-2.619 2.357,0 4.656,0.952 6.31,2.619 1.668,1.656 2.62,3.965 2.62,6.311 0,2.345 -0.952,4.656 -2.62,6.31 -1.654,1.667 -3.953,2.62 -6.31,2.62 z"
       style="fill:#3e3d42" /><path
       inkscape:connector-curvature="0"
       id="path114"
       d="m 457.083,488.407 c -2.358,0 -4.656,-0.953 -6.31,-2.62 -1.668,-1.656 -2.62,-3.965 -2.62,-6.31 0,-2.346 0.952,-4.656 2.62,-6.311 1.655,-1.667 3.952,-2.619 6.31,-2.619 2.357,0 4.656,0.952 6.31,2.619 1.668,1.656 2.62,3.965 2.62,6.311 0,2.345 -0.952,4.656 -2.62,6.31 -1.654,1.667 -3.953,2.62 -6.31,2.62 z"
       style="fill:#3e3d42" /><path
       inkscape:connector-curvature="0"
       id="path116"
       d="m 54.918,488.407 c -2.358,0 -4.656,-0.953 -6.31,-2.62 -1.668,-1.656 -2.62,-3.965 -2.62,-6.31 0,-2.346 0.952,-4.656 2.62,-6.311 1.655,-1.667 3.952,-2.619 6.31,-2.619 2.357,0 4.656,0.952 6.31,2.619 1.668,1.656 2.62,3.965 2.62,6.311 0,2.345 -0.952,4.656 -2.62,6.31 -1.654,1.667 -3.952,2.62 -6.31,2.62 z"
       style="fill:#3e3d42" /></g><path
     inkscape:connector-curvature="0"
     id="path120"
     d="M 1.7946003,2.2544254 H 1.6036779 c -0.065895,0 -0.1193304,0.053419 -0.1193304,0.1193304 0,0.065911 0.053435,0.1193304 0.1193304,0.1193304 h 0.1909224 c 0.065895,0 0.1193304,-0.053419 0.1193304,-0.1193304 0,-0.065927 -0.053435,-0.1193304 -0.1193304,-0.1193304 z"
     style="stroke-width:0.01569311" /><path
     inkscape:connector-curvature="0"
     id="path122"
     d="M 3.7793236,1.0553776 H 3.6511266 V 0.87120326 0.518532 -0.08679833 c 0,-0.16921881 -0.098066,-0.3159023 -0.2403086,-0.38639575 V -3.1983183 c 0,-0.2275501 -0.1851316,-0.4126974 -0.4126974,-0.4126974 H 0.53828835 v -0.086689 c 0,-0.100891 -0.082075,-0.1829659 -0.18296597,-0.1829659 h -0.58168082 c -0.100891,0 -0.18296597,0.082091 -0.18296597,0.1829659 v 0.086689 H -2.8691252 c -0.2275501,0 -0.4126974,0.1851316 -0.4126974,0.4126974 v 2.70395421 c -0.1691403,0.0582528 -0.2910444,0.2188875 -0.2910444,0.40755007 v 0.95801728 1.57e-5 0.18415864 h -0.128197 c -0.1466835,0 -0.2660139,0.1193304 -0.2660139,0.2660139 v 0.9502806 c 0,0.1466835 0.1193304,0.266014 0.2660139,0.266014 h 0.128197 v 0.2275344 0.9580016 c 0,0.2376721 0.1933548,0.4310269 0.431027,0.4310269 h 0.9580015 4.4459366 0.9580016 c 0.2376721,0 0.4310269,-0.1933391 0.4310269,-0.4310269 V 3.112305 2.7652205 2.5377018 h 0.128197 c 0.1466835,0 0.266014,-0.1193305 0.266014,-0.266014 V 1.3214072 c 0,-0.1466992 -0.1193305,-0.2660296 -0.266014,-0.2660296 z M 2.0466317,3.9155568 H -1.9683877 C -1.9690782,3.8858341 -1.9868115,3.70891 -2.1098297,3.6041741 H 2.1964538 C 2.0995645,3.6824043 2.0571304,3.8017347 2.0466317,3.9155568 Z M -3.3342062,1.0865127 c 0.02616,-5.649e-4 0.2124219,-0.02671 0.3113827,-0.14133212 V 2.6995134 c -0.063337,-0.062945 -0.181177,-0.1520819 -0.3113827,-0.1496338 z m 0.5989119,-1.60433799 c 0,-0.30851085 0.2723068,-0.31805226 0.2774228,-0.31930771 0.00513,6.7481e-4 0.1700662,0.002903 0.2620749,0.14152047 0.024152,0.0363923 0.084994,0.0881011 0.1635379,0.0416181 0.056715,-0.0335519 0.075295,-0.10688578 0.041634,-0.16352221 -0.081949,-0.13792674 -0.2235169,-0.23032776 -0.380244,-0.25210976 0.019977,-0.1385231 0.1391351,-0.2454089 0.2831194,-0.2454089 0.1037157,0 0.1996163,0.056401 0.250258,0.1471857 0.021076,0.037773 0.060952,0.061187 0.1042179,0.061187 0.043266,0 0.083126,-0.023414 0.104218,-0.061187 0.050642,-0.090785 0.1465422,-0.1471857 0.2502736,-0.1471857 0.1037158,0 0.1996164,0.056401 0.2502581,0.1471857 0.021076,0.037773 0.060952,0.061187 0.1042179,0.061187 0.0432659,0 0.0831264,-0.023414 0.10421794,-0.061203 0.0506417,-0.090769 0.14654226,-0.14717 0.25025803,-0.14717 0.10371576,0 0.19961635,0.056401 0.25025802,0.1471857 0.0210759,0.037773 0.060952,0.061187 0.10421794,0.061187 0.0432659,0 0.0831264,-0.023414 0.10421795,-0.061187 0.0506417,-0.090785 0.14654226,-0.1471857 0.25025802,-0.1471857 0.10371577,0 0.19961636,0.056401 0.25025803,0.1471857 0.0210758,0.037773 0.060952,0.061187 0.10421794,0.061187 0.0432659,0 0.0831264,-0.023414 0.10421794,-0.061187 0.0506417,-0.090785 0.14654227,-0.1471857 0.25025803,-0.1471857 0.10373146,0 0.19961636,0.056401 0.25025802,0.14717 0.0210758,0.037789 0.060952,0.061203 0.10421794,0.061203 0.043266,0 0.083126,-0.023414 0.104218,-0.061187 0.050642,-0.090785 0.1465422,-0.1471857 0.2502737,-0.1471857 0.1037157,0 0.1996164,0.056401 0.2502581,0.1471857 0.021076,0.037773 0.060952,0.061187 0.1042179,0.061187 0.043266,0 0.083126,-0.023414 0.1042179,-0.061187 0.050642,-0.090785 0.1465423,-0.1471857 0.2502581,-0.1471857 0.1430584,0 0.2616041,0.1055362 0.2826957,0.2427881 -0.1663627,0.015144 -0.3185231,0.10971053 -0.4047097,0.25474625 -0.033662,0.0566521 -0.013684,0.12771053 0.041634,0.16352221 0.065628,0.0424969 0.1395274,-0.005147 0.1635379,-0.0416181 0.1109189,-0.16846554 0.2671124,-0.14188141 0.2768107,-0.14443938 0.00827,0.002825 0.2796042,0.0256425 0.2796042,0.32222662 H -2.7352943 Z M 2.7686089,-2.9779871 v 0.7531124 H 0.66759957 c -0.0658954,0 -0.11933041,0.053419 -0.11933041,0.1193304 0,0.065911 0.053435,0.1193304 0.11933041,0.1193304 H 2.7686089 v 0.9736476 c -0.024811,-0.013276 -0.050767,-0.024717 -0.077869,-0.033929 -0.00945,-0.2812833 -0.2412031,-0.5072013 -0.5247462,-0.5072013 -0.1330305,0 -0.2590305,0.050563 -0.354476,0.137864 -0.095445,-0.087301 -0.2214455,-0.137864 -0.354476,-0.137864 -0.1330462,0 -0.2590305,0.050563 -0.3544917,0.137864 -0.095446,-0.087301 -0.22142977,-0.137864 -0.35447596,-0.137864 -0.13303049,0 -0.25903047,0.050563 -0.35447597,0.137864 -0.0954455,-0.087301 -0.22144547,-0.137864 -0.35447597,-0.137864 -0.13303049,0 -0.25903047,0.050563 -0.35447597,0.137864 -0.0954455,-0.087301 -0.22144547,-0.137864 -0.35447596,-0.137864 -0.13304619,0 -0.25903048,0.050563 -0.35447597,0.137864 -0.095461,-0.087301 -0.2214455,-0.137864 -0.354476,-0.137864 -0.1330461,0 -0.2590304,0.050563 -0.3544916,0.137864 -0.095446,-0.087301 -0.2214454,-0.137864 -0.3544759,-0.137864 -0.2835432,0 -0.515299,0.225918 -0.5247306,0.5072013 -0.00923,0.00314 -0.018173,0.00683 -0.027165,0.010452 V -1.986214 h 2.90148332 c 0.0658954,0 0.11933041,-0.053419 0.11933041,-0.1193304 0,-0.065911 -0.053435,-0.1193304 -0.11933041,-0.1193304 H -2.6396291 v -0.7531124 z m -4.736981,2.69882263 h 4.0150509 c 0.018424,0.15627199 0.078921,0.24715079 0.1414263,0.31138269 H 0.46588034 C 0.42145314,-0.03452458 0.34560834,-0.0786693 0.2595944,-0.0786693 h -0.44096069 c -0.0860139,0 -0.16185874,0.04411333 -0.20628593,0.11088752 H -2.1181785 c 0.062945,-0.0633374 0.1137751,-0.14332518 0.1415048,-0.24476544 6.434e-4,-0.002385 0.00744,-0.0292833 0.0083,-0.0666172 z M 2.8624066,3.3564898 c 0,0.00472 -0.0043,0.00901 -0.00902,0.00901 -0.00403,0 -2.41990904,0 -2.41990904,0 V 2.4930705 H 1.2562952 c 0.065895,0 0.1193304,-0.053419 0.1193304,-0.1193304 0,-0.065911 -0.053435,-0.1193304 -0.1193304,-0.1193304 H 0.43348976 V 1.3819669 H 2.8624223 V 2.2544097 H 2.1552437 c -0.065895,0 -0.1193304,0.053419 -0.1193304,0.1193304 0,0.065911 0.053435,0.1193304 0.1193304,0.1193304 h 0.7071629 c 0,1.57e-5 0,0.8595274 0,0.8634193 z m -5.6375301,0.00902 c -0.00472,0 -0.00902,-0.0043 -0.00902,-0.00901 V 2.4930862 h 2.42893243 v 0.8724271 z m 0,-3.09461857 c 0.00298,0 0.013637,-1.0986e-4 0.029801,-8.4743e-4 0.0045,5.0218e-4 0.00907,8.4743e-4 0.013716,8.4743e-4 h 2.30258724 v 0.62477409 c 0,0.0688457 0.0282947,0.13117868 0.073789,0.17610808 v 0.071545 h -0.440945 c -0.0658954,0 -0.11933041,0.053419 -0.11933041,0.1193304 0,0.065911 0.053435,0.1193304 0.11933041,0.1193304 h 0.44096069 V 2.2544254 H -2.784147 V 1.3819826 h 1.6220241 c 0.065895,0 0.1193304,-0.053419 0.1193304,-0.1193304 0,-0.065911 -0.053435,-0.1193304 -0.1193304,-0.1193304 H -2.784147 V 0.27990257 c 0,-0.004724 0.0043,-0.009008 0.00902,-0.009008 z m 5.6285066,0 c 0.00472,0 0.00902,0.0043 0.00902,0.009008 V 1.1433218 H 0.43348976 v -0.071545 c 0.04551,-0.044929 0.073789,-0.1072624 0.073789,-0.17610808 V 0.27089473 Z m -2.58476516,0.6247584 c 0,0.004724 -0.45899208,0.004724 -0.45899208,0 V 0.16901506 c 0,-0.004724 0.45899208,-0.004724 0.45899208,0 z M -0.11656944,1.1433375 H 0.19481325 V 3.3655133 H -0.11656944 Z M 3.1010674,0.93686324 C 3.2311947,1.0750411 3.3839985,1.085885 3.4124501,1.086497 V 2.5498639 C 3.3862426,2.5504446 3.229186,2.5427863 3.1010674,2.6912118 Z M 3.4124658,0.518532 V 0.84772637 C 3.0840247,0.7588249 3.1010988,0.28448496 3.1010831,0.27990257 c 0,-0.13656144 -0.1111072,-0.24766866 -0.2474646,-0.24766866 -0.00499,-1.569e-5 -0.4656931,0.02851438 -0.5680749,-0.31138269 H 3.220084 c 0.1060697,0 0.1923661,0.0862964 0.1923661,0.19236614 V 0.518532 Z M 2.9981049,-3.3723392 c 0.095979,0 0.1740366,0.078057 0.1740366,0.1740366 v 2.680493 H 3.0444153 c 6.434e-4,-0.0105615 0.00581,-0.13742456 -0.03713,-0.22874277 V -3.0699644 c 0,-0.080663 -0.066005,-0.1466835 -0.1466835,-0.1466835 H 0.52468242 c 0.008725,-0.021327 0.0136216,-0.0446 0.0136216,-0.069018 v -0.086673 H 2.9981206 v 0 z m -3.16876849,-0.2696547 h 0.47029112 v 0.3006486 h -0.47030682 z m -2.69846161,0.2696547 h 2.45981648 v 0.086673 c 0,0.024418 0.004896,0.047707 0.0136216,0.069018 H -2.7316065 c -0.080663,0 -0.1466835,0.066021 -0.1466835,0.1466835 v 2.22799792 c -0.1115623,0.1409869 -0.087348,0.31401913 -0.08457,0.3241255 H -3.043162 V -3.1983183 c 0,-0.095963 0.078073,-0.1740209 0.1740368,-0.1740209 z m -0.465081,3.28552518 c 0,-0.10605404 0.086296,-0.19236615 0.1923662,-0.19236615 h 0.934556 c -0.042073,0.32067301 -0.5632728,0.311367 -0.5678551,0.31138269 -0.1324342,0 -0.2406225,0.10457889 -0.2470567,0.23544373 -4.08e-4,0.004033 0.019742,0.52163898 -0.3120104,0.58004873 0,1.57e-5 0,-0.934509 0,-0.934509 z M -3.701064,2.2990095 c -0.01483,0 -0.027353,-0.012523 -0.027353,-0.027353 V 1.3213758 c 0,-0.01483 0.012523,-0.027353 0.027353,-0.027353 h 0.128197 v 1.0049711 h -0.128197 z m 0.3668578,1.4241969 V 2.7886817 c 0.00356,2.511e-4 0.00656,6.12e-4 0.00851,9.102e-4 0.2973844,0.085229 0.3028613,0.5623469 0.3028927,0.5669293 0,0.1365614 0.1111072,0.2476686 0.2474646,0.2476686 0.00499,1.57e-5 0.4862354,-0.043752 0.5680749,0.3113827 H -3.14184 c -0.1060698,-1.57e-5 -0.1923662,-0.086312 -0.1923662,-0.1923661 z m 6.746672,0 c 0,0.106054 -0.086296,0.1923661 -0.1923661,0.1923661 H 2.2855436 c 0.060638,-0.3710479 0.5632728,-0.311367 0.5678552,-0.3113827 0.1365614,0 0.2476843,-0.1111072 0.2476843,-0.2476686 0,-0.00499 -0.00312,-0.4716251 0.3113827,-0.5678238 V 3.112305 Z M 3.8066767,2.2716721 c 0,0.01483 -0.012523,0.027353 -0.027353,0.027353 H 3.6511266 v -1.004971 h 0.128197 c 0.01483,0 0.027353,0.012523 0.027353,0.027353 z"
     style="stroke-width:0.01569311;stroke:#000000" /><g
     transform="translate(-258.16998,-507.66199)"
     id="g124" /><g
     transform="translate(-258.16998,-507.66199)"
     id="g126" /><g
     transform="translate(-258.16998,-507.66199)"
     id="g128" /><g
     transform="translate(-258.16998,-507.66199)"
     id="g130" /><g
     transform="translate(-258.16998,-507.66199)"
     id="g132" /><g
     transform="translate(-258.16998,-507.66199)"
     id="g134" /><g
     transform="translate(-258.16998,-507.66199)"
     id="g136" /><g
     transform="translate(-258.16998,-507.66199)"
     id="g138" /><g
     transform="translate(-258.16998,-507.66199)"
     id="g140" /><g
     transform="translate(-258.16998,-507.66199)"
     id="g142" /><g
     transform="translate(-258.16998,-507.66199)"
     id="g144" /><g
     transform="translate(-258.16998,-507.66199)"
     id="g146" /><g
     transform="translate(-258.16998,-507.66199)"
     id="g148" /><g
     transform="translate(-258.16998,-507.66199)"
     id="g150" /><g
     transform="translate(-258.16998,-507.66199)"
     id="g152" /></svg>