<?xml version="1.0" encoding="UTF-8" standalone="no"?>
<svg
   xmlns:dc="http://purl.org/dc/elements/1.1/"
   xmlns:cc="http://creativecommons.org/ns#"
   xmlns:rdf="http://www.w3.org/1999/02/22-rdf-syntax-ns#"
   xmlns:svg="http://www.w3.org/2000/svg"
   xmlns="http://www.w3.org/2000/svg"
   xml:space="preserve"
   style="enable-background:new 0 0 512.001 512.001;"
   viewBox="0 0 512.001 512.001"
   y="0px"
   x="0px"
   id="Layer_1"
   version="1.1"><metadata
     id="metadata159"><rdf:RDF><cc:Work
         rdf:about=""><dc:format>image/svg+xml</dc:format><dc:type
           rdf:resource="http://purl.org/dc/dcmitype/StillImage" /><dc:title></dc:title></cc:Work></rdf:RDF></metadata><defs
     id="defs157" /><path
     id="path2"
     d="m 186.38302,-482.87499 h -373.873 c -10.282,0 -18.694,8.412 -18.694,18.694 v 229 c 0,10.282 8.412,18.694 18.694,18.694 h 373.874 c 10.282,0 18.694,-8.412 18.694,-18.694 v -229 c -0.001,-10.282 -8.413,-18.694 -18.695,-18.694 z"
     style="fill:#cc7400" /><g
     transform="translate(-258.16998,-507.66199)"
     id="g8"><path
       id="path4"
       d="m 127.687,272.48 v -229 c 0,-10.282 8.412,-18.694 18.694,-18.694 H 70.68 c -10.282,0 -18.694,8.412 -18.694,18.694 v 229 c 0,10.282 8.412,18.694 18.694,18.694 h 75.702 c -10.282,0 -18.695,-8.412 -18.695,-18.694 z"
       style="fill:#aa6100" /><path
       id="path6"
       d="M 435.791,42.312 H 79.443 c -5.141,0 -9.347,4.207 -9.347,9.347 v 211.474 c 0,5.14 4.207,9.347 9.347,9.347 h 356.348 c 5.14,0 9.347,-4.206 9.347,-9.347 V 51.659 c -10e-4,-5.141 -4.207,-9.347 -9.347,-9.347 z"
       style="fill:#aa6100" /></g><g
     transform="translate(-258.16998,-507.66199)"
     id="g14"><path
       id="path10"
       d="m 127.687,43.48 c 0,-0.394 0.035,-0.78 0.06,-1.168 H 79.443 c -5.14,0 -9.347,4.207 -9.347,9.347 v 211.474 c 0,5.14 4.207,9.347 9.347,9.347 h 48.246 v 0 -229 h -0.002 z"
       style="fill:#9a4c00" /><path
       id="path12"
       d="m 70.096,51.659 v 61.454 H 445.138 V 51.659 c 0,-5.141 -4.207,-9.347 -9.347,-9.347 H 79.443 c -5.142,0 -9.347,4.206 -9.347,9.347 z"
       style="fill:#9a4c00" /></g><path
     id="path16"
     d="m -130.42298,-465.34999 h -48.304 c -5.14,0 -9.347,4.207 -9.347,9.347 v 61.454 h 57.592 v -69.633 c -0.001,-0.394 0.035,-0.779 0.059,-1.168 z"
     style="fill:#663a00" /><path
     id="path18"
     d="m 186.96702,-262.29199 v -61.454 h -375.041 v 61.454 c 0,5.14 4.207,9.347 9.347,9.347 h 356.348 c 5.14,-0.001 9.346,-4.206 9.346,-9.347 z"
     style="fill:#9a4c00" /><path
     id="path20"
     d="m 17.979016,-465.69199 h -37.066 c -2.23,0 -4.055,-1.825 -4.055,-4.055 v -26.256 c 0,-2.23 1.825,-4.055 4.055,-4.055 h 37.066 c 2.23,0 4.055,1.825 4.055,4.055 v 26.254 c 0,2.232 -1.825,4.057 -4.055,4.057 z"
     style="fill:#c6c5ca" /><path
     id="path22"
     d="m -0.55298394,-469.74799 v -26.255 c 0,-2.23 1.82500004,-4.055 4.05500004,-4.055 H -19.085984 c -2.23,0 -4.055,1.825 -4.055,4.055 v 26.254 c 0,2.23 1.825,4.055 4.055,4.055 H 3.5020161 c -2.23,0.002 -4.05500004,-1.823 -4.05500004,-4.054 z"
     style="fill:#acabb1" /><path
     id="path24"
     d="m -130.42298,-252.94599 h -48.304 c -5.14,0 -9.347,-4.207 -9.347,-9.347 v -61.454 h 57.592 v 69.633 c -0.001,0.395 0.035,0.78 0.059,1.168 z"
     style="fill:#663a00" /><circle
     id="circle26"
     r="25.853001"
     cy="-325.92697"
     cx="-137.70198"
     style="fill:#ffd422" /><circle
     id="circle28"
     r="25.853001"
     cy="-325.92697"
     cx="-92.524979"
     style="fill:#eebf00" /><circle
     id="circle30"
     r="25.853001"
     cy="-325.92697"
     cx="-47.346985"
     style="fill:#ffd422" /><circle
     id="circle32"
     r="25.853001"
     cy="-325.92697"
     cx="-2.1689768"
     style="fill:#eebf00" /><circle
     id="circle34"
     r="25.853001"
     cy="-325.92697"
     cx="43.008026"
     style="fill:#ffd422" /><circle
     id="circle36"
     r="25.853001"
     cy="-325.92697"
     cx="88.186005"
     style="fill:#eebf00" /><circle
     id="circle38"
     r="25.853001"
     cy="-325.92697"
     cx="133.36401"
     style="fill:#ffd422" /><circle
     id="circle40"
     r="25.853001"
     cy="-295.39999"
     cx="-160.29099"
     style="fill:#ffe477" /><circle
     id="circle42"
     r="25.853001"
     cy="-295.39999"
     cx="-115.11398"
     style="fill:#ffd422" /><circle
     id="circle44"
     r="25.853001"
     cy="-295.39999"
     cx="-69.935989"
     style="fill:#ffe477" /><circle
     id="circle46"
     r="25.853001"
     cy="-295.39999"
     cx="-24.757982"
     style="fill:#ffd422" /><circle
     id="circle48"
     r="25.853001"
     cy="-295.39999"
     cx="20.419004"
     style="fill:#ffe477" /><circle
     id="circle50"
     r="25.853001"
     cy="-295.39999"
     cx="65.597015"
     style="fill:#ffd422" /><circle
     id="circle52"
     r="25.853001"
     cy="-295.39999"
     cx="110.77502"
     style="fill:#ffe477" /><circle
     id="circle54"
     r="25.853001"
     cy="-295.39999"
     cx="155.95203"
     style="fill:#ffd422" /><g
     transform="translate(-258.16998,-507.66199)"
     id="g60"><path
       id="path56"
       d="M 49.213,322.139 H 17.667 c -5.141,0 -9.347,4.206 -9.347,9.347 v 60.553 c 0,5.141 4.207,9.347 9.347,9.347 h 31.546 c 5.141,0 9.347,-4.206 9.347,-9.347 v -60.553 c 0,-5.14 -4.206,-9.347 -9.347,-9.347 z"
       style="fill:#acabb1" /><path
       id="path58"
       d="m 494.334,322.139 h -31.546 c -5.14,0 -9.347,4.206 -9.347,9.347 v 60.553 c 0,5.141 4.206,9.347 9.347,9.347 h 31.545 c 5.14,0 9.347,-4.206 9.347,-9.347 v -60.553 c 10e-4,-5.14 -4.206,-9.347 -9.346,-9.347 z"
       style="fill:#acabb1" /></g><path
     id="path62"
     d="m 200.52902,-285.77099 h -405.397 c -10.924,0 -19.862,8.938 -19.862,19.862 v 242.782005 c 0,10.924 8.938,19.8619998 19.862,19.8619998 h 405.397 c 10.924,0 19.862,-8.9379998 19.862,-19.8619998 V -265.90899 c 0,-10.924 -8.938,-19.862 -19.862,-19.862 z"
     style="fill:#aa6100" /><path
     id="path64"
     d="M -115.05398,-23.126985 V -265.90899 c 0,-10.924 8.938,-19.862 19.861996,-19.862 H -204.86798 c -10.924,0 -19.862,8.938 -19.862,19.862 v 242.781005 c 0,10.924 8.938,19.8619998 19.862,19.8619998 h 109.675996 c -10.923996,0 -19.861996,-8.9369998 -19.861996,-19.8609998 z"
     style="fill:#9a4c00" /><path
     id="path66"
     d="m 177.16202,-250.71999 h -358.662 c -4.499,0 -8.179,3.68 -8.179,8.179 v 196.047005 c 0,4.499 3.68,8.179 8.179,8.179 h 358.663 c 4.499,0 8.179,-3.68 8.179,-8.179 V -242.54199 c -0.002,-4.498 -3.682,-8.178 -8.18,-8.178 z"
     style="fill:#ee8700" /><g
     transform="translate(-258.16998,-507.66199)"
     id="g74"><path
       id="path68"
       d="m 76.67,256.942 c -4.499,0 -8.179,3.68 -8.179,8.179 v 196.047 c 0,4.499 3.68,8.179 8.179,8.179 h 66.447 V 256.943 H 76.67 Z"
       style="fill:#cc7400" /><path
       id="path70"
       d="m 68.491,265.12 v 62.623 H 443.51 V 265.12 c 0,-4.499 -3.68,-8.179 -8.179,-8.179 H 76.67 c -4.499,0.001 -8.179,3.681 -8.179,8.179 z"
       style="fill:#cc7400" /><path
       id="path72"
       d="M 443.51,461.167 V 398.544 H 68.491 v 62.623 c 0,4.499 3.68,8.179 8.179,8.179 h 358.663 c 4.497,0 8.177,-3.68 8.177,-8.179 z"
       style="fill:#cc7400" /></g><g
     transform="translate(-258.16998,-507.66199)"
     id="g80"><path
       id="path76"
       d="m 76.67,256.942 c -4.499,0 -8.179,3.68 -8.179,8.179 v 62.623 h 74.625 V 256.943 H 76.67 Z"
       style="fill:#aa6100" /><path
       id="path78"
       d="m 68.491,398.544 v 62.623 c 0,4.499 3.68,8.179 8.179,8.179 h 66.447 v -70.801 l -74.626,-0.001 z"
       style="fill:#aa6100" /></g><rect
     id="rect82"
     height="212.40401"
     width="35.049999"
     style="fill:#9a4c00"
     y="-250.71899"
     x="-19.698992" /><path
     id="path84"
     d="m -143.82198,-285.77099 h -61.046 c -10.924,0 -19.862,8.938 -19.862,19.862 v 61.046 c 0.001,7.739 9.3,6.01 9.913,5.849 v 0.001 c 25.138,-5.599 25.138,-43.528 25.138,-43.528 0,-4.499 3.68,-8.179 8.179,-8.179 0,0 36.655,0 43.528,-25.138 h -0.001 c 0.161,-0.612 1.89,-9.912 -5.849,-9.913 z"
     style="fill:#c6c5ca" /><path
     id="path86"
     d="m -158.08798,-285.77099 h -46.78 c -10.924,0 -19.862,8.938 -19.862,19.862 v 61.046 c 0.001,7.739 9.3,6.01 9.913,5.849 v 0.001 c 25.138,-5.599 25.138,-43.528 25.138,-43.528 0,-4.499 3.68,-8.179 8.179,-8.179 0,0 1.342,-0.001 3.551,-0.176 v -15.012 c -0.001,-10.925 8.937,-19.863 19.861,-19.863 z"
     style="fill:#acabb1" /><g
     transform="translate(-258.16998,-507.66199)"
     id="g94"><path
       id="path88"
       d="m 33.44,423.489 v 61.046 c 0,10.924 8.938,19.862 19.862,19.862 h 61.046 c 7.739,-10e-4 6.01,-9.3 5.849,-9.913 h 10e-4 C 114.599,469.346 76.67,469.346 76.67,469.346 c -4.499,0 -8.179,-3.68 -8.179,-8.179 0,0 0,-36.655 -25.138,-43.528 v 10e-4 c -0.612,-0.161 -9.912,-1.891 -9.913,5.849 z"
       style="fill:#c6c5ca" /><path
       id="path90"
       d="m 397.653,504.396 h 61.046 c 10.924,0 19.862,-8.938 19.862,-19.862 v -61.046 c -10e-4,-7.739 -9.3,-6.01 -9.913,-5.849 v -0.001 c -25.138,5.599 -25.138,43.528 -25.138,43.528 0,4.499 -3.68,8.179 -8.179,8.179 0,0 -36.655,0 -43.528,25.138 h 10e-4 c -0.161,0.613 -1.89,9.913 5.849,9.913 z"
       style="fill:#c6c5ca" /><path
       id="path92"
       d="m 478.561,302.799 v -61.046 c 0,-10.924 -8.938,-19.862 -19.862,-19.862 h -61.046 c -7.739,0.001 -6.01,9.3 -5.849,9.913 h -10e-4 c 5.599,25.138 43.528,25.138 43.528,25.138 4.499,0 8.179,3.68 8.179,8.179 0,0 0,36.655 25.138,43.528 v -10e-4 c 0.612,0.161 9.912,1.89 9.913,-5.849 z"
       style="fill:#c6c5ca" /></g><g
     transform="translate(-258.16998,-507.66199)"
     id="g100"><path
       id="path96"
       d="m 456.618,255.713 c 0,-4.498 -3.68,-8.179 -8.179,-8.179 0,0 -37.93,0 -43.528,-25.138 h 10e-4 c -0.017,-0.067 -0.056,-0.253 -0.096,-0.507 h -7.162 c -7.739,10e-4 -6.01,9.3 -5.849,9.913 h -0.001 c 5.599,25.138 43.528,25.138 43.528,25.138 4.499,0 8.179,3.68 8.179,8.179 0,0 0,36.655 25.138,43.528 v -10e-4 c 0.612,0.161 9.913,1.89 9.913,-5.849 v -4.666 c -21.927,-8.974 -21.944,-42.418 -21.944,-42.418 z"
       style="fill:#acabb1" /><path
       id="path98"
       d="m 444.738,482.453 c 4.499,0 8.179,-3.68 8.179,-8.179 0,0 0,-37.93 25.138,-43.528 v 0.001 c 0.067,-0.017 0.253,-0.056 0.507,-0.096 v -7.162 c -0.001,-7.739 -9.3,-6.01 -9.913,-5.849 v -10e-4 c -25.138,5.599 -25.138,43.528 -25.138,43.528 0,4.499 -3.68,8.179 -8.179,8.179 0,0 -36.655,0 -43.528,25.138 h 0.001 c -0.161,0.612 -1.89,9.913 5.849,9.913 h 4.666 c 8.975,-21.927 42.418,-21.944 42.418,-21.944 z"
       style="fill:#acabb1" /></g><path
     id="path102"
     d="m 11.880016,-257.78599 h -28.1 c -4.499,0 -8.179,3.68 -8.179,8.179 v 46.303 c 0,4.499 3.68,8.179 8.179,8.179 h 28.099 c 4.499,0 8.179,-3.68 8.179,-8.179 v -46.303 c 0,-4.498 -3.68,-8.179 -8.178,-8.179 z"
     style="fill:#c6c5ca" /><g
     transform="translate(-258.16998,-507.66199)"
     id="g108"><path
       id="path104"
       d="m 256.36,304.358 v -46.303 c 0,-4.498 3.68,-8.179 8.179,-8.179 h -22.588 c -4.499,0 -8.179,3.68 -8.179,8.179 v 46.303 c 0,4.499 3.68,8.179 8.179,8.179 h 22.588 c -4.498,-10e-4 -8.179,-3.681 -8.179,-8.179 z"
       style="fill:#acabb1" /><path
       id="path106"
       d="m 100.082,504.396 h -46.78 c -10.924,0 -19.862,-8.938 -19.862,-19.862 v -61.046 c 0.001,-7.739 9.3,-6.01 9.913,-5.849 v -0.001 c 25.138,5.599 25.138,43.528 25.138,43.528 0,4.499 3.68,8.179 8.179,8.179 0,0 1.342,10e-4 3.551,0.176 v 15.012 c -0.001,10.926 8.937,19.863 19.861,19.863 z"
       style="fill:#acabb1" /></g><g
     transform="translate(-258.16998,-507.66199)"
     id="g118"><path
       id="path110"
       d="m 54.918,255.74 c -2.358,0 -4.656,-0.953 -6.31,-2.62 -1.668,-1.656 -2.62,-3.965 -2.62,-6.31 0,-2.346 0.952,-4.656 2.62,-6.311 1.655,-1.667 3.952,-2.619 6.31,-2.619 2.357,0 4.656,0.952 6.31,2.619 1.668,1.656 2.62,3.965 2.62,6.311 0,2.345 -0.952,4.656 -2.62,6.31 -1.654,1.667 -3.952,2.62 -6.31,2.62 z"
       style="fill:#3e3d42" /><path
       id="path112"
       d="m 457.083,255.74 c -2.358,0 -4.656,-0.953 -6.31,-2.62 -1.668,-1.656 -2.62,-3.965 -2.62,-6.31 0,-2.346 0.952,-4.656 2.62,-6.311 1.655,-1.667 3.952,-2.619 6.31,-2.619 2.357,0 4.656,0.952 6.31,2.619 1.668,1.656 2.62,3.965 2.62,6.311 0,2.345 -0.952,4.656 -2.62,6.31 -1.654,1.667 -3.953,2.62 -6.31,2.62 z"
       style="fill:#3e3d42" /><path
       id="path114"
       d="m 457.083,488.407 c -2.358,0 -4.656,-0.953 -6.31,-2.62 -1.668,-1.656 -2.62,-3.965 -2.62,-6.31 0,-2.346 0.952,-4.656 2.62,-6.311 1.655,-1.667 3.952,-2.619 6.31,-2.619 2.357,0 4.656,0.952 6.31,2.619 1.668,1.656 2.62,3.965 2.62,6.311 0,2.345 -0.952,4.656 -2.62,6.31 -1.654,1.667 -3.953,2.62 -6.31,2.62 z"
       style="fill:#3e3d42" /><path
       id="path116"
       d="m 54.918,488.407 c -2.358,0 -4.656,-0.953 -6.31,-2.62 -1.668,-1.656 -2.62,-3.965 -2.62,-6.31 0,-2.346 0.952,-4.656 2.62,-6.311 1.655,-1.667 3.952,-2.619 6.31,-2.619 2.357,0 4.656,0.952 6.31,2.619 1.668,1.656 2.62,3.965 2.62,6.311 0,2.345 -0.952,4.656 -2.62,6.31 -1.654,1.667 -3.952,2.62 -6.31,2.62 z"
       style="fill:#3e3d42" /></g><path
     id="path120"
     d="M 109.69302,-116.72099 H 97.527016 c -4.199,0 -7.604,3.404 -7.604,7.604 0,4.2 3.405,7.604 7.604,7.604 h 12.166004 c 4.199,0 7.604,-3.404 7.604,-7.604 0,-4.201 -3.405,-7.604 -7.604,-7.604 z" /><path
     id="path122"
     d="m 236.16402,-193.12699 h -8.169 v -11.736 -22.473 -38.573 c 0,-10.783 -6.249,-20.13 -15.313,-24.622 v -173.651 c 0,-14.5 -11.797,-26.298 -26.298,-26.298 H 29.638016 v -5.524 c 0,-6.429 -5.23,-11.659 -11.659,-11.659 h -37.066 c -6.429,0 -11.659,5.231 -11.659,11.659 v 5.524 H -187.48998 c -14.5,0 -26.298,11.797 -26.298,26.298 v 172.302 c -10.778,3.712 -18.546,13.948 -18.546,25.97 v 61.047 0.001 11.735 h -8.169 c -9.347,0 -16.951,7.604 -16.951,16.951 v 60.554 c 0,9.347 7.604,16.951005 16.951,16.951005 h 8.169 v 14.499 61.046 c 0,15.1449998 12.321,27.4659998 27.466,27.4659998 h 61.046 283.305 61.046 c 15.145,0 27.466,-12.32 27.466,-27.4659998 v -38.929 -22.117 -14.498 h 8.169 c 9.347,0 16.951,-7.604005 16.951,-16.951005 v -60.554 c 0,-9.348 -7.604,-16.952 -16.951,-16.952 z m -110.411,182.257005 h -255.846 c -0.044,-1.894 -1.174,-13.168 -9.013,-19.842 h 274.406 c -6.174,4.985 -8.878,12.589 -9.547,19.842 z m -342.879,-180.273005 c 1.667,-0.036 13.536,-1.702 19.842,-9.006 v 111.790005 c -4.036,-4.011 -11.545,-9.691 -19.842,-9.535 z m 38.164,-102.232 c 0,-19.659 17.352,-20.267 17.678,-20.347 0.327,0.043 10.837,0.185 16.7,9.018 1.539,2.319 5.416,5.614 10.421,2.652 3.614,-2.138 4.798,-6.811 2.653,-10.42 -5.222,-8.789 -14.243,-14.677 -24.23,-16.065 1.273,-8.827 8.866,-15.638 18.041,-15.638 6.609,0 12.72,3.594 15.947,9.379 1.343,2.407 3.884,3.899 6.641,3.899 2.757,0 5.297,-1.492 6.641,-3.899 3.227,-5.785 9.337996,-9.379 15.947996,-9.379 6.609,0 12.72,3.594 15.947,9.379 1.343,2.407 3.884,3.899 6.641,3.899 2.757,0 5.297,-1.492 6.641,-3.9 3.227,-5.784 9.338,-9.378 15.947,-9.378 6.609,0 12.72,3.594 15.947,9.379 1.343,2.407 3.884,3.899 6.641,3.899 2.757,0 5.297,-1.492 6.641,-3.899 3.227,-5.785 9.3380001,-9.379 15.9470001,-9.379 6.609,0 12.7199999,3.594 15.9469999,9.379 1.343,2.407 3.884,3.899 6.641,3.899 2.757,0 5.297,-1.492 6.641,-3.899 3.227,-5.785 9.338,-9.379 15.947,-9.379 6.61,0 12.72,3.594 15.947,9.378 1.343,2.408 3.884,3.9 6.641,3.9 2.757,0 5.297,-1.492 6.641,-3.899 3.227,-5.785 9.338,-9.379 15.948,-9.379 6.609,0 12.720004,3.594 15.947004,9.379 1.343,2.407 3.884,3.899 6.641,3.899 2.757,0 5.297,-1.492 6.641,-3.899 3.227,-5.785 9.338,-9.379 15.947,-9.379 9.116,0 16.67,6.725 18.014,15.471 -10.601,0.965 -20.297,6.991 -25.789,16.233 -2.145,3.61 -0.872,8.138 2.653,10.42 4.182,2.708 8.891,-0.328 10.421,-2.652 7.068,-10.735 17.021,-9.041 17.639,-9.204 0.527,0.18 17.817,1.634 17.817,20.533 h -353.076 z m 350.721,-156.767 v 47.99 H 37.878016 c -4.199,0 -7.604,3.404 -7.604,7.604 0,4.2 3.405,7.604 7.604,7.604 H 171.75902 v 62.043 c -1.581,-0.846 -3.235,-1.575 -4.962,-2.162 -0.602,-17.924 -15.37,-32.32 -33.438,-32.32 -8.477,0 -16.506,3.222 -22.588,8.785 -6.082,-5.563 -14.111004,-8.785 -22.588004,-8.785 -8.478,0 -16.506,3.222 -22.589,8.785 -6.082,-5.563 -14.11,-8.785 -22.588,-8.785 -8.477,0 -16.506,3.222 -22.588,8.785 -6.082,-5.563 -14.1109999,-8.785 -22.5879999,-8.785 -8.4770001,0 -16.5060001,3.222 -22.5880001,8.785 -6.082,-5.563 -14.111,-8.785 -22.588,-8.785 -8.478,0 -16.506,3.222 -22.588,8.785 -6.083,-5.563 -14.111,-8.785 -22.588,-8.785 -8.477996,0 -16.505996,3.222 -22.588996,8.785 -6.082,-5.563 -14.111,-8.785 -22.588,-8.785 -18.068,0 -32.836,14.396 -33.437,32.32 -0.588,0.2 -1.158,0.435 -1.731,0.666 v -60.547 H 12.022016 c 4.199,0 7.604,-3.404 7.604,-7.604 0,-4.2 -3.405,-7.604 -7.604,-7.604 H -172.86598 v -47.99 z m -301.851,171.975 h 255.848 c 1.174,9.958 5.029,15.749 9.012,19.842 H 25.024016 c -2.831,-4.253 -7.664,-7.066 -13.145,-7.066 h -28.099 c -5.481,0 -10.314,2.811 -13.145,7.066 H -139.63798 c 4.011,-4.036 7.25,-9.133 9.017,-15.597 0.041,-0.152 0.474,-1.866 0.529,-4.245 z m 307.828,231.672005 c 0,0.301 -0.274,0.574 -0.575,0.574 -0.257,0 -154.202004,0 -154.202004,0 v -55.593005 h 52.432 c 4.199,0 7.604,-3.404 7.604,-7.604 0,-4.2 -3.405,-7.604 -7.604,-7.604 h -52.431 v -55.594 H 177.73702 v 55.594 h -45.063 c -4.199,0 -7.604,3.404 -7.604,7.604 0,4.2 3.405,7.604 7.604,7.604 h 45.062 c 0,0.001 0,54.771005 0,55.019005 z m -359.236,0.575 c -0.301,0 -0.575,-0.274 -0.575,-0.574 v -55.019005 h 154.776996 v 55.593005 z m 0,-197.196005 c 0.19,0 0.869,-0.007 1.899,-0.054 0.287,0.032 0.578,0.054 0.874,0.054 h 146.725996 v 39.812 c 0,4.387 1.803,8.359 4.702,11.222 v 4.559 h -28.098 c -4.199,0 -7.604,3.404 -7.604,7.604 0,4.2 3.405,7.604 7.604,7.604 h 28.099 v 55.594 H -182.07498 v -55.594 h 103.358996 c 4.199,0 7.604,-3.404 7.604,-7.604 0,-4.2 -3.405,-7.604 -7.604,-7.604 H -182.07498 v -55.019 c 0,-0.301 0.274,-0.574 0.575,-0.574 z m 358.661,0 c 0.301,0 0.575,0.274 0.575,0.574 v 55.019 H 22.960016 v -4.559 c 2.9,-2.863 4.702,-6.835 4.702,-11.222 v -39.812 H 177.16102 Z m -164.707004,39.811 c 0,0.301 -29.248,0.301 -29.248,0 v -46.303 c 0,-0.301 29.248,-0.301 29.248,0 z m -24.545,15.783 H 7.7510161 V -45.919985 H -12.090984 Z m 205.035004,-13.157 c 8.292,8.805 18.029,9.496 19.842,9.535 v 93.249005 c -1.67,0.037 -11.678,-0.451 -19.842,9.007 V -200.67899 Z m 19.843,-26.657 v 20.977 c -20.929,-5.665 -19.841,-35.891 -19.842,-36.183 0,-8.702 -7.08,-15.782 -15.769,-15.782 -0.318,-0.001 -29.675,1.817 -36.199,-19.842 h 59.551 c 6.759,0 12.258,5.499 12.258,12.258 v 38.572 z m -26.404,-247.935 c 6.116,0 11.09,4.974 11.09,11.09 v 170.807 h -8.139 c 0.041,-0.673 0.37,-8.757 -2.366,-14.576 v -148.053 c 0,-5.14 -4.206,-9.347 -9.347,-9.347 H 28.771016 c 0.556,-1.359 0.868,-2.842 0.868,-4.398 v -5.523 H 186.38402 v 0 z m -201.921004,-17.183 h 29.968 v 19.158 h -29.969 l 10e-4,-19.158 z m -171.951996,17.183 h 156.744996 v 5.523 c 0,1.556 0.312,3.04 0.868,4.398 H -178.72698 c -5.14,0 -9.347,4.207 -9.347,9.347 v 141.973 c -7.109,8.984 -5.566,20.01 -5.389,20.654 h -5.117 v -170.806 c 0,-6.115 4.975,-11.089 11.09,-11.089 z m -29.636,209.361 c 0,-6.758 5.499,-12.258 12.258,-12.258 h 59.552 c -2.681,20.434 -35.893,19.841 -36.185,19.842 -8.439,0 -15.333,6.664 -15.743,15.003 -0.026,0.257 1.258,33.24 -19.882,36.962 0,10e-4 0,-59.549 0,-59.549 z m -23.377,152.03 c -0.945,0 -1.743,-0.798 -1.743,-1.743 v -60.554 c 0,-0.945 0.798,-1.743 1.743,-1.743 h 8.169 v 64.039 h -8.169 z m 23.377,90.753005 v -59.55 c 0.227,0.016 0.418,0.039 0.542,0.058 18.95,5.431 19.299,35.834 19.301,36.126 0,8.702 7.08,15.782 15.769,15.782 0.318,0.001 30.984,-2.788 36.199,19.842 h -59.553 c -6.759,-10e-4 -12.258,-5.5 -12.258,-12.258 z m 429.913,0 c 0,6.758 -5.499,12.258 -12.258,12.258 h -59.552 c 3.864,-23.644 35.893,-19.841 36.185,-19.842 8.702,0 15.783,-7.08 15.783,-15.782 0,-0.318 -0.199,-30.053 19.842,-36.183 v 20.621 z m 25.12,-92.495005 c 0,0.945 -0.798,1.743 -1.743,1.743 h -8.169 v -64.039 h 8.169 c 0.945,0 1.743,0.798 1.743,1.743 z" /><g
     transform="translate(-258.16998,-507.66199)"
     id="g124" /><g
     transform="translate(-258.16998,-507.66199)"
     id="g126" /><g
     transform="translate(-258.16998,-507.66199)"
     id="g128" /><g
     transform="translate(-258.16998,-507.66199)"
     id="g130" /><g
     transform="translate(-258.16998,-507.66199)"
     id="g132" /><g
     transform="translate(-258.16998,-507.66199)"
     id="g134" /><g
     transform="translate(-258.16998,-507.66199)"
     id="g136" /><g
     transform="translate(-258.16998,-507.66199)"
     id="g138" /><g
     transform="translate(-258.16998,-507.66199)"
     id="g140" /><g
     transform="translate(-258.16998,-507.66199)"
     id="g142" /><g
     transform="translate(-258.16998,-507.66199)"
     id="g144" /><g
     transform="translate(-258.16998,-507.66199)"
     id="g146" /><g
     transform="translate(-258.16998,-507.66199)"
     id="g148" /><g
     transform="translate(-258.16998,-507.66199)"
     id="g150" /><g
     transform="translate(-258.16998,-507.66199)"
     id="g152" /></svg>