<?xml version="1.0" encoding="UTF-8" standalone="no"?>
<svg
   xmlns:dc="http://purl.org/dc/elements/1.1/"
   xmlns:cc="http://creativecommons.org/ns#"
   xmlns:rdf="http://www.w3.org/1999/02/22-rdf-syntax-ns#"
   xmlns:svg="http://www.w3.org/2000/svg"
   xmlns="http://www.w3.org/2000/svg"
   id="svg27"
   version="1.1"
   width="511pt"
   viewBox="-64 1 511 511.99988"
   height="511pt">
  <defs
     id="defs31" />
  <metadata
     id="metadata48">
    <rdf:RDF>
      <cc:Work
         rdf:about="">
        <dc:format>image/svg+xml</dc:format>
        <dc:type
           rdf:resource="http://purl.org/dc/dcmitype/StillImage" />
        <dc:title></dc:title>
      </cc:Work>
    </rdf:RDF>
  </metadata>
  <path
     style="fill:#7f4a26"
     id="path3"
     d="M -5.2375684,20.581533 C -21.858662,28.55419 -39.846943,32.542471 -57.827412,32.542471 c -3.777343,0 -7.566406,-0.179688 -11.335937,-0.535156 -14.148437,-1.316406 -28.128906,-5.125 -41.253911,-11.425782 l 6.98047,-40.230468 61.312504,-36.074219 29.90625,36.074219 3.2773426,18.87890594 z m 0,0" />
  <path
     style="fill:#4dc168"
     id="path5"
     d="m 97.62962,-31.277841 c -4.125,0.679687 -8.257813,1.339843 -12.402344,1.957031 l -39.800781,-51.5 v 56.679687 c -62.367188,6.773438 -125.566407,7.378906 -188.089845,1.824219 -23.66406,-2.105469 -47.23047,-5.089844 -70.62109,-8.960937 -31.125,-5.160157 -45.76563,-32.957032 -28.10157,-53.488282 14.57032,-16.933597 29.21094,-34.214847 43.91407,-51.835937 8.99218,-10.76172 17.99218,-21.64453 27.01172,-32.66406 l 1.05859,-1.66407 62.5625,-98.26171 161.640625,99.93359 c 8.582031,10.47656 17.144531,20.83984 25.683593,31.07422 15.164063,18.17969 30.246092,35.98047 45.242192,53.417967 17.66796,20.53125 3.03515,48.328125 -28.09766,53.488282 z m 0,0" />
  <path
     style="fill:#3dad52"
     id="path7"
     d="m 80.485088,-138.18409 c -2.929687,1.16015 -6.121093,2.05078 -9.554687,2.61719 -86.894531,14.3789 -176.742191,14.3789 -263.640621,0 -1.64454,-0.27344 -3.23438,-0.61719 -4.76172,-1.03516 8.99218,-10.76172 17.99218,-21.64453 27.01172,-32.66406 l 63.62109,-99.92578 161.640625,99.93359 c 8.582031,10.47656 17.144531,20.83984 25.683593,31.07422 z m 0,0" />
  <path
     style="fill:#4dc168"
     id="path9"
     d="m 73.996807,-172.19581 c -57.058593,9.4375 -115.382812,12.68359 -173.308593,9.73047 l -15.375004,-61.21094 -19.78906,58.63672 c -18.48437,-1.74609 -36.89453,-4.13281 -55.16797,-7.15625 -26.39453,-4.36719 -38.80469,-27.93359 -23.82812,-45.34766 18.17968,-21.14062 36.51562,-42.92187 54.95312,-65.32812 4.89844,-5.95703 9.8086,-11.96094 14.71485,-18.01172 3.48828,-4.28125 6.97265,-8.59375 10.45703,-12.92578 l 63.94531,-63.94531 87.105468,63.94531 c 8.402344,10.44531 16.796876,20.7539 25.160157,30.9375 18.4375,22.40625 36.773437,44.1875 54.953125,65.32812 14.97656,17.41407 2.57422,40.98047 -23.820313,45.34766 z m 0,0" />
  <g
     style="fill:#3dad52"
     transform="translate(-249.49147,-479.45753)"
     id="g17">
    <path
       id="path11"
       d="m 292.35547,196.58594 c -66.38672,10.90625 -135.00781,10.89453 -201.382814,0 8.375,-10.1836 16.765624,-20.49219 25.171874,-30.9375 l 63.94531,-63.94531 87.10547,63.94531 c 8.40235,10.44531 16.79688,20.7539 25.16016,30.9375 z m 0,0" />
    <path
       id="path13"
       d="m 155.21094,194.56641 -52.65235,118.57421 c -18.480465,-1.75 -24.437496,-2.85546 -42.710934,-5.8789 -26.394531,-4.36719 -38.804687,-27.9336 -23.828125,-45.34766 18.179688,-21.14062 36.515625,-42.92187 54.953125,-65.32812 4.898438,-5.95703 9.808594,-11.96094 14.714844,-18.01172 z m 0,0" />
    <path
       id="path15"
       d="m 106.79688,457.12891 c 0.0117,0 0.0195,0.0117 0.0312,0.0117 -23.664068,-2.10546 -47.230474,-5.08984 -70.621099,-8.96093 -31.125,-5.16016 -45.765625,-32.95703 -28.101562,-53.48828 14.570312,-16.9336 29.210937,-34.21485 43.914062,-51.83594 8.992188,-10.76172 17.992188,-21.64453 27.011719,-32.66406 l 1.058594,-1.66407 51.574216,28.88282 c 0,0 -98.398435,98.16015 -24.86718,119.71875 z m 0,0" />
  </g>
  <path
     style="fill:#4dc168"
     id="path19"
     d="m 43.719464,-317.54347 c -47.1679694,7.80469 -95.476563,10.1211 -143.316407,6.90625 -0.01953,0 -0.04297,0 -0.07422,-0.0117 -1.871098,-0.11328 -3.746098,-0.23828 -5.617188,-0.39453 -0.0117,0 -0.0117,0 -0.0234,0 -0.67968,-0.043 -1.37109,-0.0976 -2.05078,-0.16015 -0.0117,0 -0.0195,0 -0.0312,-0.008 -17.42578,-1.37109 -34.77734,-3.48828 -51.97265,-6.33203 -20.33594,-3.35937 -29.89844,-21.51953 -18.35547,-34.93359 31.15625,-36.22266 62.89843,-74.875 94.777341,-115.97266 5.285156,-6.82422 14.074219,-10.48437 23.097656,-10.95703 10.371094,-0.53515 21.054688,3.10938 27.148438,10.95703 31.8671866,41.09766 63.609375,79.75 94.765625,115.97266 11.542968,13.41406 1.976562,31.57422 -18.347656,34.93359 z m 0,0" />
  <path
     style="fill:#3dad52"
     id="path21"
     d="m -59.846943,-479.40675 v 0.0117 c 0,0 -96.222657,162.10156 -47.546877,168.18359 -17.42578,-1.37109 -34.77734,-3.48828 -51.97265,-6.33203 -20.33594,-3.35937 -29.89844,-21.51953 -18.35547,-34.93359 31.15625,-36.22266 62.89843,-74.875 94.777341,-115.97266 5.285156,-6.82422 14.074219,-10.48437 23.097656,-10.95703 z m 0,0" />
  <path
     style="fill:#935d35"
     id="path23"
     d="M -5.2375684,20.581533 C -21.858662,28.55419 -39.846943,32.542471 -57.827412,32.542471 c -3.777343,0 -7.566406,-0.179688 -11.335937,-0.535156 V -0.77002906 h 60.2226556 z m 0,0" />
  <path
     style="fill:#3dad52"
     id="path25"
     d="m -105.28835,-311.04347 c 2.14453,0.0703 4.01563,0.20703 5.617188,0.39453 -1.871098,-0.11328 -3.746098,-0.23828 -5.617188,-0.39453 z m 0,0" />
</svg>
