<?xml version="1.0" encoding="UTF-8" standalone="no"?>
<!-- Generator: Adobe Illustrator 16.0.0, SVG Export Plug-In . SVG Version: 6.00 Build 0)  -->

<svg
   xmlns:dc="http://purl.org/dc/elements/1.1/"
   xmlns:cc="http://creativecommons.org/ns#"
   xmlns:rdf="http://www.w3.org/1999/02/22-rdf-syntax-ns#"
   xmlns:svg="http://www.w3.org/2000/svg"
   xmlns="http://www.w3.org/2000/svg"
   xmlns:sodipodi="http://sodipodi.sourceforge.net/DTD/sodipodi-0.dtd"
   xmlns:inkscape="http://www.inkscape.org/namespaces/inkscape"
   version="1.1"
   id="Capa_1"
   x="0px"
   y="0px"
   width="568.031px"
   height="568.03px"
   viewBox="0 0 568.031 568.03"
   style="enable-background:new 0 0 568.031 568.03;"
   xml:space="preserve"
   sodipodi:docname="tree.svg"
   inkscape:version="0.92.1 r15371"><defs
     id="defs24" /><sodipodi:namedview
     pagecolor="#ffffff"
     bordercolor="#666666"
     borderopacity="1"
     objecttolerance="10"
     gridtolerance="10"
     guidetolerance="10"
     inkscape:pageopacity="0"
     inkscape:pageshadow="2"
     inkscape:window-width="1920"
     inkscape:window-height="1001"
     id="namedview22"
     showgrid="false"
     inkscape:zoom="0.41547099"
     inkscape:cx="284.0155"
     inkscape:cy="284.01501"
     inkscape:window-x="-9"
     inkscape:window-y="-9"
     inkscape:window-maximized="1"
     inkscape:current-layer="Capa_1" /><metadata
     id="metadata43"><rdf:RDF><cc:Work
         rdf:about=""><dc:format>image/svg+xml</dc:format><dc:type
           rdf:resource="http://purl.org/dc/dcmitype/StillImage" /></cc:Work></rdf:RDF></metadata><g
     id="g6"
     transform="translate(-279.2012,-392.32582)"><g
       id="g4"><path
         d="m 508.752,177.104 c -12.55,-9.086 -21.587,-23.337 -20.004,-37.312 5.586,-49.327 -24.644,-91.457 -73.514,-99.144 -8.678,-1.367 -17.319,-5.092 -25.141,-9.282 -14.745,-7.902 -30.11,-10.812 -45.998,-6.381 -8.58,2.395 -13.859,1.326 -20.678,-4.847 -38.899,-35.219 -99.862,-22.632 -118.92,25.169 -5.471,13.729 -13.562,21.742 -26.247,26.965 -2.832,1.167 -5.94,2.484 -7.952,4.639 -6.332,6.781 -12.366,5.108 -20.037,1.845 C 100.74,57.663 47.41,92.371 45.346,146.044 c -0.293,7.666 -3.472,15.989 -7.584,22.599 -14.721,23.685 -17.324,47.446 -7.442,72.065 -7.116,17.776 -0.91,39.939 16.618,52.796 19.233,14.112 41.412,6.748 58.409,-6.912 4.811,-0.457 9.707,-1.432 14.705,-2.962 9.992,-3.064 19.013,-6.724 27.438,-2.644 1.334,0.991 2.705,1.872 4.096,2.685 0.372,0.31 0.743,0.6 1.114,0.946 0.049,-0.077 0.09,-0.139 0.139,-0.216 2.774,1.497 5.651,2.631 8.597,3.496 16.345,57.765 51.481,108.36 99.731,144.22 -2.941,35.333 -12.346,69.973 -29.87,103.918 -19.56,11.958 -43.423,3.309 -63.905,-2.362 -18.107,-5.015 -35.737,-6.862 -53.815,-1.094 -3.741,1.195 -5.483,4.153 -5.667,7.218 -0.024,0.086 -0.061,0.155 -0.082,0.244 -1.371,5.892 -2.742,11.783 -4.113,17.671 -1.281,5.512 2.689,9.286 6.993,10.028 0.673,0.172 1.387,0.29 2.179,0.29 h 334.561 c 2.934,0 5.019,-1.289 6.315,-3.117 1.926,-1.506 3.203,-3.814 3.203,-6.405 v -12.24 c 0,-3.623 -2.48,-6.724 -5.802,-7.76 -1.269,-1.069 -2.945,-1.759 -5.08,-1.759 h -101.09 c -5.022,-5.802 -10.135,-11.661 -15.414,-17.458 -14.688,-16.129 -21.167,-34.081 -14.565,-55.799 2.293,-7.544 3.945,-15.39 4.899,-23.219 2.819,-23.199 5.455,-46.508 8.128,-70.156 33.929,-3.231 64.61,-17.698 88.43,-42.244 9.882,-0.024 18.752,-2.954 26.148,-7.928 l 2.967,-0.922 c 16.12,13.008 40.987,14.35 59.771,7.414 17.405,-6.427 32.457,-23.836 32.983,-42.975 0.049,-1.792 -0.041,-3.566 -0.196,-5.325 13.55,-34.896 1.159,-78.91 -29.393,-101.033 z M 213.658,282.23 c 0.192,-0.073 0.351,-0.131 0.542,-0.204 3.505,-1.334 9.613,0.196 12.767,2.647 4.447,3.46 8.653,7.23 12.766,11.065 0.082,0.326 0.086,0.628 0.188,0.963 6.279,20.983 12.559,41.971 18.837,62.954 1.498,10.576 2.452,21.082 2.97,31.534 C 229.24,364.475 211.467,324.81 213.658,282.23 Z m 121.883,60.65 c 1.469,-3.518 2.941,-7.034 4.472,-10.535 0.51,0 1.024,0 1.534,-0.004 0,-1.212 0.028,-2.428 0.069,-3.647 4.19,-9.396 8.768,-18.584 13.908,-27.364 6.549,5.773 13.37,10.959 20.637,15.189 -12.166,10.754 -25.806,19.584 -40.62,26.361 z"
         id="path2"
          /></g></g><g
     id="g8"
     transform="translate(-276.79429,-558.4024)" /><g
     id="g10"
     transform="translate(-276.79429,-558.4024)" /><g
     id="g12"
     transform="translate(-276.79429,-558.4024)" /><g
     id="g14"
     transform="translate(-276.79429,-558.4024)" /><g
     id="g16"
     transform="translate(-276.79429,-558.4024)" /><g
     id="g18"
     transform="translate(-276.79429,-558.4024)" /><g
     id="g20"
     transform="translate(-276.79429,-558.4024)" /><g
     id="g22"
     transform="translate(-276.79429,-558.4024)" /><g
     id="g24"
     transform="translate(-276.79429,-558.4024)" /><g
     id="g26"
     transform="translate(-276.79429,-558.4024)" /><g
     id="g28"
     transform="translate(-276.79429,-558.4024)" /><g
     id="g30"
     transform="translate(-276.79429,-558.4024)" /><g
     id="g32"
     transform="translate(-276.79429,-558.4024)" /><g
     id="g34"
     transform="translate(-276.79429,-558.4024)" /><g
     id="g36"
     transform="translate(-276.79429,-558.4024)" /></svg>